<svg xmlns="http://www.w3.org/2000/svg" width="85" height="85" viewBox="0 0 85 85">
  <g id="Grupo_1099708" data-name="Grupo 1099708" transform="translate(-285 -599)">
    <g id="Elipse_11505" data-name="Elipse 11505" transform="translate(285 599)" fill="#f8fbf9" stroke="#869a8a" stroke-width="5">
      <circle cx="42.5" cy="42.5" r="42.5" stroke="none"/>
      <circle cx="42.5" cy="42.5" r="40" fill="none"/>
    </g>
    <g id="ad" transform="translate(301 615)">
      <g id="Grupo_1099500" data-name="Grupo 1099500" transform="translate(1 1)">
        <path id="Trazado_873853" data-name="Trazado 873853" d="M26.844,1A25.844,25.844,0,1,0,52.688,26.844,25.873,25.873,0,0,0,26.844,1Zm0,50.02A24.176,24.176,0,1,1,51.02,26.844,24.2,24.2,0,0,1,26.844,51.02Z" transform="translate(-1 -1)" fill="#5f6e62"/>
        <path id="Trazado_873854" data-name="Trazado 873854" d="M27.675,6A21.675,21.675,0,1,0,49.351,27.675,21.7,21.7,0,0,0,27.675,6Zm0,41.683A20.008,20.008,0,1,1,47.683,27.675,20.031,20.031,0,0,1,27.675,47.683Z" transform="translate(-1.832 -1.832)" fill="#5f6e62"/>
        <path id="Trazado_873855" data-name="Trazado 873855" d="M36,32.5A2.5,2.5,0,1,0,38.5,30,2.5,2.5,0,0,0,36,32.5Zm3.335,0a.834.834,0,1,1-.834-.834A.834.834,0,0,1,39.335,32.5Z" transform="translate(-6.822 -5.824)" fill="#5f6e62"/>
        <path id="Trazado_873856" data-name="Trazado 873856" d="M31.762,20.895a2.6,2.6,0,0,0,1.84,4.442,2.619,2.619,0,0,0,1.84-.762l3.133-3.133A2.6,2.6,0,0,0,36.735,17a2.619,2.619,0,0,0-1.84.762Zm4.973-2.228a.935.935,0,0,1,.661,1.6L34.263,23.4a.935.935,0,0,1-1.6-.661.927.927,0,0,1,.273-.661l3.133-3.133A.944.944,0,0,1,36.735,18.667Z" transform="translate(-5.99 -3.661)" fill="#5f6e62"/>
        <path id="Trazado_873857" data-name="Trazado 873857" d="M45.6,25a2.6,2.6,0,0,0-1.84,4.442l3.133,3.133a2.6,2.6,0,0,0,4.442-1.84,2.582,2.582,0,0,0-.762-1.84l-3.133-3.133A2.619,2.619,0,0,0,45.6,25Zm4.067,5.735a.935.935,0,0,1-1.6.661l-3.133-3.133a.935.935,0,0,1,.661-1.6.944.944,0,0,1,.661.273L49.4,30.074A.927.927,0,0,1,49.669,30.735Z" transform="translate(-7.986 -4.992)" fill="#5f6e62"/>
        <path id="Trazado_873858" data-name="Trazado 873858" d="M45.5,17A2.5,2.5,0,1,0,48,19.5,2.5,2.5,0,0,0,45.5,17Zm0,3.335a.834.834,0,1,1,.834-.834A.835.835,0,0,1,45.5,20.335Z" transform="translate(-7.986 -3.661)" fill="#5f6e62"/>
        <path id="Trazado_873859" data-name="Trazado 873859" d="M44.735,38a2.619,2.619,0,0,0-1.84.762l-3.133,3.133a2.6,2.6,0,0,0,3.68,3.68l3.133-3.133A2.6,2.6,0,0,0,44.735,38Zm.661,3.263L42.263,44.4a.935.935,0,0,1-1.322-1.322l3.133-3.133A.935.935,0,0,1,45.4,41.263Z" transform="translate(-7.321 -7.154)" fill="#5f6e62"/>
        <path id="Trazado_873860" data-name="Trazado 873860" d="M25.965,24.62a5.836,5.836,0,1,0-6.924,2.768,5.836,5.836,0,1,0,6.924-2.768ZM24.17,34.341a4.169,4.169,0,0,1-3.125-6.928.831.831,0,0,0,.244-.59v0a.833.833,0,0,0-.825-.834A4.166,4.166,0,1,1,23.959,24.6a.835.835,0,0,0,.568,1.424,4.169,4.169,0,0,1-.358,8.322Z" transform="translate(-3.329 -3.495)" fill="#5f6e62"/>
        <path id="Trazado_873861" data-name="Trazado 873861" d="M15,30.5A2.5,2.5,0,1,0,12.5,33,2.5,2.5,0,0,0,15,30.5Zm-3.335,0a.834.834,0,1,1,.834.834A.835.835,0,0,1,11.667,30.5Z" transform="translate(-2.497 -5.491)" fill="#5f6e62"/>
        <path id="Trazado_873862" data-name="Trazado 873862" d="M16.442,37.762a2.6,2.6,0,0,0-3.68,3.68l3.133,3.133a2.6,2.6,0,0,0,3.68-3.68Zm1.293,5.907a.941.941,0,0,1-.661-.273l-3.133-3.133a.935.935,0,0,1,1.322-1.322L18.4,42.074a.935.935,0,0,1-.661,1.6Z" transform="translate(-2.83 -6.988)" fill="#5f6e62"/>
        <path id="Trazado_873863" data-name="Trazado 873863" d="M32.5,16A2.5,2.5,0,1,0,30,13.5,2.5,2.5,0,0,0,32.5,16Zm0-3.335a.834.834,0,1,1-.834.834A.835.835,0,0,1,32.5,12.667Z" transform="translate(-5.824 -2.663)" fill="#5f6e62"/>
        <path id="Trazado_873864" data-name="Trazado 873864" d="M33.5,40A2.5,2.5,0,0,0,31,42.5v5a2.5,2.5,0,0,0,5,0v-5A2.5,2.5,0,0,0,33.5,40Zm.834,7.5a.834.834,0,0,1-1.667,0v-5a.834.834,0,0,1,1.667,0Z" transform="translate(-5.99 -7.487)" fill="#5f6e62"/>
        <path id="Trazado_873865" data-name="Trazado 873865" d="M25.5,46A2.5,2.5,0,1,0,28,48.5,2.5,2.5,0,0,0,25.5,46Zm0,3.335a.834.834,0,1,1,.834-.834A.834.834,0,0,1,25.5,49.335Z" transform="translate(-4.659 -8.485)" fill="#5f6e62"/>
      </g>
    </g>
  </g>
</svg>
