<svg xmlns="http://www.w3.org/2000/svg" width="85" height="85" viewBox="0 0 85 85">
  <g id="Grupo_1099704" data-name="Grupo 1099704" transform="translate(-285 -599)">
    <g id="Elipse_11505" data-name="Elipse 11505" transform="translate(285 599)" fill="#f8fbf9" stroke="#869a8a" stroke-width="5">
      <circle cx="42.5" cy="42.5" r="42.5" stroke="none"/>
      <circle cx="42.5" cy="42.5" r="40" fill="none"/>
    </g>
    <g id="Layer_2" transform="translate(302.131 615.579)">
      <g id="Grupo_1099498" data-name="Grupo 1099498" transform="translate(2 4.499)">
        <path id="Trazado_873844" data-name="Trazado 873844" d="M46.269,32.543a2.472,2.472,0,0,0,2.469-2.469V6.915A2.5,2.5,0,0,0,46.175,4.5c-12.148,0-29.467,0-41.613,0A2.5,2.5,0,0,0,2,6.915V30.074a2.472,2.472,0,0,0,2.469,2.469h1.47a13.4,13.4,0,0,0-.5,1.558H4.2a2.207,2.207,0,0,0-2.2,2.2v8.833a2.207,2.207,0,0,0,2.2,2.2H46.534a2.207,2.207,0,0,0,2.2-2.2V36.305a2.207,2.207,0,0,0-2.2-2.2H45.3a13.428,13.428,0,0,0-.5-1.558ZM21.334,6.058H29.4l1.246,6.232H20.088ZM3.558,30.074V6.915a.953.953,0,0,1,1-.857H19.745l-1.372,6.858a.784.784,0,0,0,.764.932H31.6a.784.784,0,0,0,.764-.932L30.993,6.058H46.175a.953.953,0,0,1,1,.857V30.074a.912.912,0,0,1-.911.911h-2.18c-3.617-6.594-8.563-3.15-10.191,3.116H31.071c-2.447-8.878-8.962-8.869-11.4,0H16.84c-1.634-6.28-6.58-9.7-10.191-3.116H4.469a.912.912,0,0,1-.911-.911Zm40.506,6.263a4.464,4.464,0,0,1-8.927,0c-.013-2.484,2.112-7.346,4.463-7.377,2.547.208,4.385,4.807,4.464,7.377ZM21.055,35.029c.317-2.177,2.394-6.185,4.314-6.07,2.353.035,4.476,4.882,4.464,7.377A4.468,4.468,0,0,1,25.369,40.8a4.541,4.541,0,0,1-4.314-5.771Zm-14.232,0c.327-2.178,2.388-6.181,4.315-6.07,2.349.035,4.472,4.879,4.463,7.377A4.468,4.468,0,0,1,11.138,40.8a4.542,4.542,0,0,1-4.315-5.771Zm39.711.63a.647.647,0,0,1,.647.647v8.833a.647.647,0,0,1-.647.647H4.2a.647.647,0,0,1-.647-.647V36.305c.036-.858,1.026-.615,1.593-.647a6.024,6.024,0,1,0,11.973,0h2.259a6.025,6.025,0,1,0,11.974,0h2.259a6.024,6.024,0,1,0,11.973,0Z" transform="translate(-2 -4.499)" fill="#5f6e62"/>
        <path id="Trazado_873845" data-name="Trazado 873845" d="M30.023,26.465A10.642,10.642,0,0,0,36.738,24.2a.779.779,0,0,0-.983-1.21,9.587,9.587,0,0,1-11.465,0,.779.779,0,0,0-.983,1.21,10.64,10.64,0,0,0,6.715,2.264Z" transform="translate(-6.646 -8.548)" fill="#5f6e62"/>
        <path id="Trazado_873846" data-name="Trazado 873846" d="M31.056,21.46c1.049.037,4.081-.731,3.2-2.136a.779.779,0,0,0-1.1-.12,3.628,3.628,0,0,1-4.215,0,.78.78,0,0,0-1.1.12c-.879,1.4,2.156,2.173,3.2,2.136Z" transform="translate(-7.68 -7.711)" fill="#5f6e62"/>
      </g>
    </g>
  </g>
</svg>
