<svg xmlns="http://www.w3.org/2000/svg" width="52.007" height="57.963" viewBox="0 0 52.007 57.963">
  <g id="Grupo_1099644" data-name="Grupo 1099644" transform="translate(0 0)">
    <g id="Grupo_1099642" data-name="Grupo 1099642" transform="translate(10.437 0.849)">
      <path id="Trazado_874328" data-name="Trazado 874328" d="M135.732,43.6V13.7a6.193,6.193,0,1,0-12.386,0V43.6a11.033,11.033,0,1,0,12.386,0Z" transform="translate(-118.505 -7.504)" fill="#c0e3f8"/>
      <path id="Trazado_874329" data-name="Trazado 874329" d="M129.534,63.764A11.034,11.034,0,0,1,123.342,43.6v-29.9A6.192,6.192,0,0,1,129.534,7.5a3.014,3.014,0,0,0-2.458,1.814,9.123,9.123,0,0,0-1.018,4.38V43.6c-1.64,1.985-2.717,5.334-2.717,9.133C123.342,58.824,126.114,63.764,129.534,63.764Z" transform="translate(-118.501 -7.5)" fill="#a7d7f8"/>
      <path id="Trazado_874330" data-name="Trazado 874330" d="M196.857,40.3v1.857h-5.594V40.3a2.8,2.8,0,1,1,5.594,0Z" transform="translate(-183.026 -34.106)" fill="#f9f6f9"/>
      <path id="Trazado_874331" data-name="Trazado 874331" d="M163.779,115.794a7.637,7.637,0,1,1-11.922-6.324l1.488-1.011V78.613h5.594v29.846l1.488,1.011A7.642,7.642,0,0,1,163.779,115.794Z" transform="translate(-145.107 -70.562)" fill="#e28086"/>
      <path id="Trazado_874332" data-name="Trazado 874332" d="M156.137,123.434a7.638,7.638,0,0,1-4.284-13.961l1.488-1.011V78.616h1.5v29.846l-.691,1.011a11.8,11.8,0,0,0-1.555,6.324C152.594,120.007,154.182,123.433,156.137,123.434Z" transform="translate(-145.104 -70.565)" fill="#dd636e"/>
      <path id="Trazado_874333" data-name="Trazado 874333" d="M330.2,43.411l-6.9-6.9a2.488,2.488,0,0,0-3.519,0l-6.9,6.9a2.488,2.488,0,0,0,1.759,4.248h2.754V81.018a2.067,2.067,0,0,0,2.067,2.068h4.165a2.067,2.067,0,0,0,2.067-2.068V47.659h2.754A2.488,2.488,0,0,0,330.2,43.411Z" transform="translate(-290.22 -32.576)" fill="#f5dd81"/>
      <g id="Grupo_1099641" data-name="Grupo 1099641" transform="translate(21.921 3.203)">
        <path id="Trazado_874334" data-name="Trazado 874334" d="M315.434,43.424l6.9-6.9a2.493,2.493,0,0,1,.479-.372,2.487,2.487,0,0,0-3.039.372l-6.9,6.9a2.488,2.488,0,0,0,1.76,4.248h2.56a2.488,2.488,0,0,1-1.759-4.248Z" transform="translate(-312.14 -35.793)" fill="#f1cd6b"/>
        <path id="Trazado_874335" data-name="Trazado 874335" d="M361.055,174.084V140.725H358.5v33.359a2.067,2.067,0,0,0,2.068,2.068h2.56A2.067,2.067,0,0,1,361.055,174.084Z" transform="translate(-353.247 -128.846)" fill="#f1cd6b"/>
      </g>
    </g>
    <g id="Grupo_1099643" data-name="Grupo 1099643" transform="translate(0 0)">
      <path id="Trazado_874336" data-name="Trazado 874336" d="M35.294,247.489a.849.849,0,0,0-1.2.105,2.821,2.821,0,0,1-2.285,1.012,3.811,3.811,0,1,1,2.13-6.972.849.849,0,1,0,.951-1.407A5.509,5.509,0,1,0,31.813,250.3a4.516,4.516,0,0,0,3.586-1.619A.849.849,0,0,0,35.294,247.489Z" transform="translate(-26.304 -212.197)"/>
      <path id="Trazado_874337" data-name="Trazado 874337" d="M102.068,203.888a2.656,2.656,0,1,0-2.656-2.656A2.659,2.659,0,0,0,102.068,203.888Zm0-3.614a.958.958,0,1,1-.958.958A.959.959,0,0,1,102.068,200.274Z" transform="translate(-91.136 -176.095)"/>
      <path id="Trazado_874338" data-name="Trazado 874338" d="M129.929,36.509V7.043a7.042,7.042,0,1,0-14.084,0v1.7a.849.849,0,1,0,1.7,0v-1.7a5.344,5.344,0,1,1,10.688,0V36.948a.849.849,0,0,0,.372.7,10.185,10.185,0,1,1-11.432,0,.849.849,0,0,0,.372-.7V12.142a.849.849,0,1,0-1.7,0V36.509a11.882,11.882,0,1,0,14.084,0Z" transform="translate(-101.415 0)"/>
      <path id="Trazado_874339" data-name="Trazado 874339" d="M153.137,33.649a3.646,3.646,0,0,0-7.292,0V64.9l-1.116.758a8.486,8.486,0,1,0,9.523,0l-1.116-.758ZM149.491,31.7a1.95,1.95,0,0,1,1.948,1.948v1.008h-3.9V33.649A1.95,1.95,0,0,1,149.491,31.7ZM153.3,67.066a6.788,6.788,0,1,1-7.614,0l1.487-1.011a.849.849,0,0,0,.372-.7v-29h3.9v29a.849.849,0,0,0,.372.7Z" transform="translate(-128.02 -26.606)"/>
      <path id="Trazado_874340" data-name="Trazado 874340" d="M324.124,36.158l-6.9-6.9a3.335,3.335,0,0,0-4.72,0l-6.9,6.9a3.337,3.337,0,0,0,2.36,5.7h1.905V74.367a2.92,2.92,0,0,0,2.916,2.916h4.165a2.92,2.92,0,0,0,2.917-2.916V72.6a.849.849,0,0,0-1.7,0v1.763a1.22,1.22,0,0,1-1.219,1.218h-4.165a1.22,1.22,0,0,1-1.218-1.218V41.007a.849.849,0,0,0-.849-.849h-2.754a1.639,1.639,0,0,1-1.159-2.8l6.9-6.9a1.637,1.637,0,0,1,2.317,0l6.9,6.9a1.639,1.639,0,0,1-1.159,2.8H319.01a.849.849,0,0,0-.849.849v28.2a.849.849,0,1,0,1.7,0V41.856h1.905a3.337,3.337,0,0,0,2.36-5.7Z" transform="translate(-273.103 -25.076)"/>
    </g>
  </g>
</svg>
