<svg xmlns="http://www.w3.org/2000/svg" width="100" height="100" viewBox="0 0 100 100">
  <g id="Grupo_1099694" data-name="Grupo 1099694" transform="translate(-336.051 -3373)">
    <circle id="Elipse_11543" data-name="Elipse 11543" cx="50" cy="50" r="50" transform="translate(336.051 3373)" fill="#f9a545"/>
    <g id="Grupo_1099668" data-name="Grupo 1099668" transform="translate(355.051 3383.577)">
      <g id="Grupo_1099666" data-name="Grupo 1099666" transform="translate(1.071 10.321)">
        <g id="Grupo_1099665" data-name="Grupo 1099665" transform="translate(0 0)">
          <g id="Grupo_1099663" data-name="Grupo 1099663">
            <g id="Grupo_1099662" data-name="Grupo 1099662" transform="translate(4.042)">
              <path id="Trazado_874370" data-name="Trazado 874370" d="M122.315,28.352c0,5.653-3.444,8.963-7.692,8.963S106.93,34,106.93,28.352s3.444-11.43,7.692-11.43S122.315,22.7,122.315,28.352Z" transform="translate(-99.238 -16.922)" fill="#ffdeb0"/>
              <path id="Trazado_874371" data-name="Trazado 874371" d="M153.56,16.922a5.053,5.053,0,0,0-2.4.628c3.076,1.643,5.3,6.263,5.3,10.8s-2.222,7.567-5.3,8.584a7.611,7.611,0,0,0,2.4.38c4.248,0,7.692-3.311,7.692-8.963s-3.444-11.43-7.692-11.43Z" transform="translate(-138.175 -16.922)" fill="#fcd59f"/>
              <path id="Trazado_874372" data-name="Trazado 874372" d="M250.785,28.352c0,5.653-3.444,8.963-7.692,8.963S235.4,34,235.4,28.352s3.444-11.43,7.692-11.43S250.785,22.7,250.785,28.352Z" transform="translate(-212.323 -16.922)" fill="#fff1ec"/>
              <path id="Trazado_874373" data-name="Trazado 874373" d="M282.029,16.922a5.053,5.053,0,0,0-2.4.628c3.076,1.643,5.3,6.263,5.3,10.8s-2.222,7.567-5.3,8.584a7.611,7.611,0,0,0,2.4.38c4.248,0,7.692-3.311,7.692-8.963s-3.444-11.43-7.692-11.43Z" transform="translate(-251.26 -16.922)" fill="#fce2c5"/>
              <path id="Trazado_874374" data-name="Trazado 874374" d="M58.082,108.508c0,5.653-3.444,8.963-7.692,8.963s-7.692-3.311-7.692-8.963,3.444-11.43,7.692-11.43S58.082,102.856,58.082,108.508Z" transform="translate(-42.697 -87.479)" fill="#fff1ec"/>
              <path id="Trazado_874375" data-name="Trazado 874375" d="M89.325,97.078a5.053,5.053,0,0,0-2.4.628c3.076,1.643,5.3,6.263,5.3,10.8s-2.222,7.567-5.3,8.584a7.611,7.611,0,0,0,2.4.38c4.248,0,7.692-3.311,7.692-8.963S93.573,97.078,89.325,97.078Z" transform="translate(-81.633 -87.479)" fill="#fce2c5"/>
              <path id="Trazado_874376" data-name="Trazado 874376" d="M186.551,108.508c0,5.653-3.444,8.963-7.692,8.963s-7.692-3.311-7.692-8.963,3.444-11.43,7.692-11.43S186.551,102.856,186.551,108.508Z" transform="translate(-155.781 -87.479)" fill="#fcd59f"/>
              <path id="Trazado_874377" data-name="Trazado 874377" d="M217.794,97.078a5.053,5.053,0,0,0-2.4.628c3.076,1.643,5.3,6.263,5.3,10.8s-2.222,7.567-5.3,8.584a7.611,7.611,0,0,0,2.4.38c4.248,0,7.692-3.311,7.692-8.963S222.042,97.078,217.794,97.078Z" transform="translate(-194.717 -87.479)" fill="#f7c783"/>
              <path id="Trazado_874378" data-name="Trazado 874378" d="M315.02,108.508c0,5.653-3.444,8.963-7.692,8.963s-7.692-3.311-7.692-8.963,3.444-11.43,7.692-11.43S315.02,102.856,315.02,108.508Z" transform="translate(-268.866 -87.479)" fill="#ffdeb0"/>
              <path id="Trazado_874379" data-name="Trazado 874379" d="M346.263,97.078a5.053,5.053,0,0,0-2.4.628c3.076,1.643,5.3,6.263,5.3,10.8s-2.222,7.567-5.3,8.584a7.611,7.611,0,0,0,2.4.38c4.248,0,7.692-3.311,7.692-8.963S350.512,97.078,346.263,97.078Z" transform="translate(-307.801 -87.479)" fill="#fcd59f"/>
            </g>
            <path id="Trazado_874380" data-name="Trazado 874380" d="M71.877,261.526H38.656a7.9,7.9,0,0,1-7.9-7.9V243.6H79.773v10.03A7.9,7.9,0,0,1,71.877,261.526Z" transform="translate(-28.147 -216.454)" fill="#e8b266"/>
            <path id="Trazado_874381" data-name="Trazado 874381" d="M342,243.6v10.03a7.9,7.9,0,0,1-7.9,7.9h4.79a7.9,7.9,0,0,0,7.9-7.9V243.6Z" transform="translate(-295.166 -216.454)" fill="#d9a359"/>
            <path id="Trazado_874382" data-name="Trazado 874382" d="M61.217,214.726H10.906a1.964,1.964,0,0,1-1.964-1.964h0a1.964,1.964,0,0,1,1.964-1.964H61.217a1.964,1.964,0,0,1,1.964,1.964h0A1.964,1.964,0,0,1,61.217,214.726Z" transform="translate(-8.942 -187.581)" fill="#8f5a46"/>
          </g>
          <path id="Trazado_874383" data-name="Trazado 874383" d="M391.19,300.092c0,5.652-3.444,8.963-7.692,8.963s-7.692-3.311-7.692-8.963,3.444-11.43,7.692-11.43S391.19,294.44,391.19,300.092Z" transform="translate(-331.872 -256.12)" fill="#fff1ec"/>
          <path id="Trazado_874384" data-name="Trazado 874384" d="M422.433,288.662a5.053,5.053,0,0,0-2.4.628c3.076,1.643,5.3,6.263,5.3,10.8s-2.222,7.567-5.3,8.584a7.61,7.61,0,0,0,2.4.38c4.248,0,7.692-3.311,7.692-8.963S426.682,288.662,422.433,288.662Z" transform="translate(-370.807 -256.12)" fill="#fce2c5"/>
          <path id="Trazado_874385" data-name="Trazado 874385" d="M245.965,366.389c5.653,0,8.964,3.444,8.964,7.692s-3.311,7.692-8.964,7.692-11.431-3.444-11.431-7.692S240.312,366.389,245.965,366.389Z" transform="translate(-207.518 -324.539)" fill="#ffdeb0"/>
          <path id="Trazado_874386" data-name="Trazado 874386" d="M311.822,366.389a14.687,14.687,0,0,0-2.471.214c4.227.81,6.645,3.85,6.645,7.478s-2.417,6.668-6.645,7.478a14.686,14.686,0,0,0,2.471.214c5.653,0,8.964-3.444,8.964-7.692S317.475,366.389,311.822,366.389Z" transform="translate(-273.376 -324.539)" fill="#fcd59f"/>
          <g id="Grupo_1099664" data-name="Grupo 1099664" transform="translate(35.37 3.451)">
            <path id="Trazado_874387" data-name="Trazado 874387" d="M305.817,45.986a.9.9,0,0,0-1.243,1.3,7.718,7.718,0,0,1,1.673,2.708.9.9,0,0,0,1.676-.646A9.414,9.414,0,0,0,305.817,45.986Z" transform="translate(-304.297 -45.736)" fill="#f0d4b4"/>
          </g>
        </g>
      </g>
      <g id="Grupo_1099667" data-name="Grupo 1099667" transform="translate(0 9.423)">
        <path id="Trazado_874388" data-name="Trazado 874388" d="M306.233,49.967a.9.9,0,0,0,1.676-.646,9.416,9.416,0,0,0-2.106-3.359.9.9,0,0,0-1.243,1.3A7.719,7.719,0,0,1,306.233,49.967Z" transform="translate(-267.843 -41.364)" fill="#060606"/>
        <path id="Trazado_874389" data-name="Trazado 874389" d="M58.89,45.971a8.073,8.073,0,0,0-5.3-3.934V38.353c3.488-.3,3.267-5.713-.249-5.713H52.1c.039-.421.06-.852.06-1.29a15.692,15.692,0,0,0-2.4-8.323c-1.513-2.337-3.458-3.724-5.534-3.967A14.9,14.9,0,0,0,41.568,12.7a7.3,7.3,0,0,0-5.686-3.28,7.28,7.28,0,0,0-5.651,3.233,13.975,13.975,0,0,0-2.042,3.868c-.14-.4-.295-.795-.467-1.181A10.257,10.257,0,0,0,22.8,9.909a6.164,6.164,0,0,0-6.528,1.219.9.9,0,0,0,1.172,1.361A4.354,4.354,0,0,1,22.1,11.56c1.116.479,2.713,1.65,3.986,4.513a14.043,14.043,0,0,1,.957,3.068A8.221,8.221,0,0,0,22,23.028a14.541,14.541,0,0,0-1.5,3.1,14.544,14.544,0,0,0-1.5-3.1,8.221,8.221,0,0,0-5.041-3.887c.061-.317,1-2.674.644-3.047-.457-.483-1.3-.886-1.659.051a16.115,16.115,0,0,0-.8,2.916c-2.077.243-4.021,1.63-5.533,3.967a15.693,15.693,0,0,0-2.4,8.323c0,.438.021.869.06,1.29H3.035c-3.479,0-3.784,5.406-.249,5.713V47.5a8.786,8.786,0,0,0,3.55,7.054H.871a.9.9,0,0,0,0,1.8H28.34a6.165,6.165,0,0,0-1.151,3.516c0,2.322,1.423,4.522,4.006,6.193a15.694,15.694,0,0,0,8.323,2.4c4.431,0,7.84-2.058,9.207-5.28a8.569,8.569,0,0,0,7.623.165.9.9,0,0,0-.782-1.617,6.734,6.734,0,0,1-6.321-.322,8.9,8.9,0,0,0,.133-1.536,8.02,8.02,0,0,0-3.426-6.72c.436-5.1,3.509-9.382,6.743-9.382,1.692,0,3.356,1.131,4.685,3.185a13.851,13.851,0,0,1,2.109,7.347,10.458,10.458,0,0,1-.569,3.53.9.9,0,0,0,1.691.606,12.242,12.242,0,0,0,.674-4.136,15.692,15.692,0,0,0-2.4-8.323ZM48.26,24a13.851,13.851,0,0,1,2.109,7.347,12.05,12.05,0,0,1-.07,1.29H36.851a12.054,12.054,0,0,1-.07-1.29A13.851,13.851,0,0,1,38.89,24c1.329-2.054,2.993-3.185,4.685-3.185S46.931,21.95,48.26,24ZM31.66,13.746a5.555,5.555,0,0,1,4.223-2.527c2.877,0,5.693,3.479,6.542,7.921a8.22,8.22,0,0,0-5.043,3.887,14.541,14.541,0,0,0-1.5,3.1,14.544,14.544,0,0,0-1.5-3.1,8.221,8.221,0,0,0-5.041-3.887,13.191,13.191,0,0,1,2.317-5.395ZM23.5,24c2.618-4.045,6.727-4.085,9.371,0a13.851,13.851,0,0,1,2.109,7.347,12.053,12.053,0,0,1-.07,1.29H21.466a12.054,12.054,0,0,1-.07-1.29A13.851,13.851,0,0,1,23.5,24ZM6.011,31.35A13.85,13.85,0,0,1,8.12,24c1.329-2.054,2.993-3.185,4.685-3.185S16.161,21.95,17.491,24A13.851,13.851,0,0,1,19.6,31.35a12.051,12.051,0,0,1-.07,1.29H6.082a12.051,12.051,0,0,1-.07-1.29ZM1.969,35.5a1.067,1.067,0,0,1,1.066-1.066H53.346a1.066,1.066,0,0,1,0,2.132H3.035A1.067,1.067,0,0,1,1.969,35.5ZM47.583,59.863a6.35,6.35,0,0,1-2.067,4.774,8.742,8.742,0,0,1-6,2.02,13.852,13.852,0,0,1-7.347-2.109c-2.054-1.329-3.185-2.993-3.185-4.685s1.131-3.356,3.185-4.685a13.852,13.852,0,0,1,7.347-2.109,8.742,8.742,0,0,1,6,2.02A6.351,6.351,0,0,1,47.583,59.863Zm-3.33-7.669a11.909,11.909,0,0,0-4.735-.921,15.694,15.694,0,0,0-8.323,2.4,12.058,12.058,0,0,0-1.129.824H11.579a7.005,7.005,0,0,1-7-7V38.365H51.8v3.671c-4,.632-6.886,5.425-7.545,10.158Z" transform="translate(0 -9.423)" fill="#060606"/>
        <path id="Trazado_874390" data-name="Trazado 874390" d="M350.249,394.148a.9.9,0,0,0-.782,1.617,2.785,2.785,0,0,1,1.711,2.665.9.9,0,0,0,1.8,0A4.569,4.569,0,0,0,350.249,394.148Z" transform="translate(-307.182 -347.99)" fill="#060606"/>
        <path id="Trazado_874391" data-name="Trazado 874391" d="M241.913,130.551a.9.9,0,0,0,1.676-.646,9.412,9.412,0,0,0-2.106-3.359.9.9,0,0,0-1.243,1.3A7.717,7.717,0,0,1,241.913,130.551Z" transform="translate(-211.225 -112.297)" fill="#060606"/>
      </g>
    </g>
  </g>
</svg>
