<svg xmlns="http://www.w3.org/2000/svg" width="100" height="100" viewBox="0 0 100 100">
  <g id="Grupo_1099689" data-name="Grupo 1099689" transform="translate(6675 8235)">
    <circle id="Elipse_11682" data-name="Elipse 11682" cx="50" cy="50" r="50" transform="translate(-6675 -8235)" fill="#f9a545"/>
    <g id="layer1" transform="translate(-6649.601 -8491.355)">
      <path id="path8962" d="M24.506,321.156c-12.8,0-23.183-6.151-23.183-13.738V285.093H47.69v22.325c0,7.587-10.38,13.738-23.183,13.738Z" transform="translate(0.594 10.098)" fill="#5a626e"/>
      <path id="path10465-8" d="M23.82,285.094v22.325c0,4.185-2.853,7.867-7.213,10.451a27.308,27.308,0,0,1-5.8,2.516c9.067-1.866,15.586-6.96,15.586-12.969V285.094Z" transform="translate(21.89 10.099)" fill="#515663"/>
      <path id="ellipse9353" d="M47.69,294.6c0,7.587-10.38,13.738-23.183,13.738S1.323,302.186,1.323,294.6s10.38-13.738,23.183-13.738S47.69,287.011,47.69,294.6Z" transform="translate(0.594 0.594)" fill="#e7ebef"/>
      <path id="ellipse9433" d="M34.615,290.44c0,4.268-6.92,7.728-15.456,7.728S3.7,294.708,3.7,290.44s6.92-7.728,15.456-7.728S34.615,286.173,34.615,290.44Z" transform="translate(5.941 4.753)" fill="#59e78b"/>
      <path id="path9435" d="M19.16,282.712c-8.536,0-15.456,3.46-15.456,7.728,0,2.323,2.1,4.521,5.7,5.987,2.891-.973,7.122-2.83,9.754-5.987A18.48,18.48,0,0,0,23.272,283a30.158,30.158,0,0,0-4.112-.287Z" transform="translate(5.941 4.751)" fill="#fc6067"/>
      <path id="path9437" d="M12.579,282.8a18.478,18.478,0,0,1-4.112,7.441s5.039,3.757,13.482,3.772a5.149,5.149,0,0,0,1.974-3.772c-.007-3.473-4.648-6.517-11.343-7.441Z" transform="translate(16.634 4.951)" fill="#fcb860"/>
      <path id="path10822-4" d="M10.815,281.1a27.3,27.3,0,0,1,5.776,2.509c4.314,2.556,7.147,6.188,7.21,10.384l0,6.329a9.594,9.594,0,0,0,2.574-6.264c-.012-5.841-6.254-11.038-15.563-12.958Z" transform="translate(21.906 1.134)" fill="#dbe1e7"/>
      <path id="path13431-7" d="M25.1,280.6A33.488,33.488,0,0,0,8.27,284.74c-4.36,2.584-7.211,6.268-7.211,10.453l0,22.326c0,4.185,2.846,7.867,7.206,10.451A33.5,33.5,0,0,0,25.1,332.116a33.481,33.481,0,0,0,16.829-4.146c4.36-2.584,7.213-6.266,7.213-10.451V295.194h0v0c0-4.185-2.851-7.869-7.211-10.453A33.488,33.488,0,0,0,25.1,280.6Zm0,1.717a31.918,31.918,0,0,1,15.955,3.9c4.031,2.388,6.369,5.573,6.369,8.975,0,2.681-1.473,5.35-4.379,7.622a.859.859,0,1,0,1.058,1.353,14.819,14.819,0,0,0,3.322-3.565v16.916c0,3.4-2.34,6.585-6.371,8.974A31.911,31.911,0,0,1,25.1,330.4a31.937,31.937,0,0,1-15.96-3.906c-4.031-2.389-6.363-5.572-6.363-8.974l0-16.879a16.625,16.625,0,0,0,5.494,5.006A33.488,33.488,0,0,0,25.1,309.79a37.242,37.242,0,0,0,11.441-1.744.859.859,0,1,0-.533-1.632A35.584,35.584,0,0,1,25.1,308.072a31.917,31.917,0,0,1-15.955-3.9c-4.031-2.388-6.369-5.573-6.369-8.975s2.339-6.587,6.369-8.975a31.918,31.918,0,0,1,15.955-3.9Zm-11.312,6.644c-2.953,1.477-5,3.639-5,6.237s2.048,4.754,5,6.23A25.824,25.824,0,0,0,25.1,303.776a25.8,25.8,0,0,0,11.308-2.351c2.953-1.477,5.008-3.632,5.008-6.23s-2.054-4.76-5.008-6.237A25.8,25.8,0,0,0,25.1,286.607a25.824,25.824,0,0,0-11.313,2.351Zm14.312-.481a19.023,19.023,0,0,1-3.658,6.167c-2.366,2.839-6.269,4.644-9.073,5.618-2.385-.949-4.865-2.945-4.865-5.066,0-1.67,1.409-3.377,4.05-4.7A24.317,24.317,0,0,1,25.1,288.324a29.6,29.6,0,0,1,3,.152Zm1.734.237a20.837,20.837,0,0,1,5.809,1.784c2.641,1.32,4.057,3.027,4.057,4.7a4.156,4.156,0,0,1-1.447,2.9A23.657,23.657,0,0,1,26.36,294.98a19.886,19.886,0,0,0,3.475-6.267Zm-4.578,7.6a24.48,24.48,0,0,0,10.75,3.383,24.515,24.515,0,0,1-10.9,2.366,27.579,27.579,0,0,1-7.208-.919A21.25,21.25,0,0,0,25.256,296.31Zm14.916,8.355q-.41.218-.839.424a.859.859,0,1,0,.743,1.548c.306-.147.606-.3.9-.456A.858.858,0,1,0,40.172,304.665Z" transform="translate(0 0)"/>
    </g>
  </g>
</svg>
