<svg xmlns="http://www.w3.org/2000/svg" width="102" height="74" viewBox="0 0 102 74">
  <g id="Grupo_1099722" data-name="Grupo 1099722" transform="translate(-232.051 -520)">
    <rect id="Rectángulo_401505" data-name="Rectángulo 401505" width="102" height="74" rx="10" transform="translate(232.051 520)" fill="#feedda"/>
    <g id="Grupo_1099721" data-name="Grupo 1099721" transform="translate(255.051 528.987)">
      <path id="Trazado_874558" data-name="Trazado 874558" d="M56.4,32.164a7.55,7.55,0,0,0-5.417-5.914,7.06,7.06,0,0,0-4.958.517q.165-.4.345-.785a16.52,16.52,0,0,1,1.1-1.955,1.669,1.669,0,0,0-.462-2.286l-1.338-.9a1.665,1.665,0,0,0-2.379.556,21.432,21.432,0,0,0-1.251,2.579,8.044,8.044,0,0,0-3-2.826,8.189,8.189,0,0,0-6.2-.62V2.677A2.667,2.667,0,0,0,30.171.013H2.664A2.667,2.667,0,0,0,0,2.677V4.511a.83.83,0,0,0,1.66,0V2.677a1,1,0,0,1,1-1H22.005V3.625a1.718,1.718,0,0,0,1.716,1.716h3.73a1.718,1.718,0,0,0,1.716-1.716V1.673h1a1,1,0,0,1,1,1V17.434H1.66V8.385a.83.83,0,1,0-1.66,0V50.355a2.667,2.667,0,0,0,2.664,2.664h.269l.412,1.65A2.66,2.66,0,0,0,5.93,56.687h.8a2.66,2.66,0,0,0,2.584-2.018l.412-1.65H23.1l.412,1.65A2.66,2.66,0,0,0,26.1,56.687h.8a2.66,2.66,0,0,0,2.584-2.018l.412-1.65h.269a2.667,2.667,0,0,0,2.664-2.664V46.94a7.813,7.813,0,0,0,3.815,2.2,7.631,7.631,0,0,0,3.534,0l2.151-.514h0a.737.737,0,0,1,.345,0l2.15.514a7.631,7.631,0,0,0,3.534,0,7.87,7.87,0,0,0,4.546-3.08,14.932,14.932,0,0,0,1.608-2.858l.947-2.223a15.153,15.153,0,0,0,.937-8.818ZM27.507,3.625a.055.055,0,0,1-.055.055h-3.73a.055.055,0,0,1-.055-.055V1.673h3.841ZM43.538,24.7a19.1,19.1,0,0,1,1.2-2.483l1.339.906a18.19,18.19,0,0,0-1.21,2.155A20.9,20.9,0,0,0,43.8,28.067l-.1.057a2.335,2.335,0,0,1-1.271.328A22.358,22.358,0,0,1,43.538,24.7Zm-5.287-2.088a6.511,6.511,0,0,1,3.029,3.585q-.238.824-.418,1.665l-1.381-.824a7.084,7.084,0,0,0-6.521-.409,7.12,7.12,0,0,1-1.321-3.781.015.015,0,0,1,.008-.015,6.73,6.73,0,0,1,6.6-.221ZM26.077,19.094l-.219.439A2.822,2.822,0,0,1,23.32,21.1H9.515a2.822,2.822,0,0,1-2.538-1.568l-.219-.439ZM7.707,54.266a1,1,0,0,1-.974.76h-.8a1,1,0,0,1-.974-.76l-.312-1.247H8.019Zm20.172,0a1,1,0,0,1-.974.76h-.8a1,1,0,0,1-.974-.76l-.312-1.247h3.375Zm2.292-2.907H2.664a1,1,0,0,1-1-1v-1H6.125a.83.83,0,0,0,0-1.66H1.66v-28.6H4.9l.591,1.181a4.473,4.473,0,0,0,4.023,2.486h13.8a4.473,4.473,0,0,0,4.023-2.486l.591-1.181h3.241v2.1c-.12.063-.24.128-.359.2a1.669,1.669,0,0,0-.834,1.545,8.873,8.873,0,0,0,1.192,3.985v.826a7.711,7.711,0,0,0-2.562,4.416,15.152,15.152,0,0,0,.937,8.818l.947,2.223a14.957,14.957,0,0,0,.678,1.386v3.1H10a.83.83,0,1,0,0,1.66H31.174v1a1,1,0,0,1-1,1ZM53.937,40.331l-.947,2.223a13.266,13.266,0,0,1-1.428,2.54,6.21,6.21,0,0,1-3.584,2.434,5.969,5.969,0,0,1-2.762,0l-2.15-.514a2.408,2.408,0,0,0-1.117,0l-2.151.514a5.965,5.965,0,0,1-2.762,0,6.21,6.21,0,0,1-3.584-2.434,13.271,13.271,0,0,1-1.429-2.54l-.947-2.223a13.5,13.5,0,0,1-.834-7.855,5.882,5.882,0,0,1,4.206-4.62,5.425,5.425,0,0,1,4.181.6c1.779,1.166,3.843,2.411,5.925,1.091l1.828-1.091a5.43,5.43,0,0,1,4.181-.6,5.882,5.882,0,0,1,4.206,4.62,13.5,13.5,0,0,1-.834,7.855Z" transform="translate(0 0)" fill="#5f6e62"/>
    </g>
  </g>
</svg>
