<svg xmlns="http://www.w3.org/2000/svg" width="157" height="106" viewBox="0 0 157 106">
  <g id="Grupo_1099521" data-name="Grupo 1099521" transform="translate(-1222.051 -407)">
    <rect id="Rectángulo_401391" data-name="Rectángulo 401391" width="157" height="106" rx="10" transform="translate(1222.051 407)" fill="#fddbb4"/>
    <g id="Grupo_1099520" data-name="Grupo 1099520" transform="translate(1229.473 417)">
      <path id="Trazado_873889" data-name="Trazado 873889" d="M104.474,57.486a1.276,1.276,0,0,0-2.081,1.478,22.52,22.52,0,0,1,4.175,13.114V76.63H96.918V70.61a1.276,1.276,0,0,0-2.552,0V84.395H69.092a2.075,2.075,0,0,1,1.494-.8,8.889,8.889,0,0,0,7.891-6.328,1.285,1.285,0,0,0-1.224-1.637H74.905c-1.936-1.907-10.549-10.008-17.76-10.662a22.713,22.713,0,0,1,15.317-14.7,8.888,8.888,0,0,0,17.65,0,22.664,22.664,0,0,1,9.076,5.07,1.276,1.276,0,1,0,1.722-1.884,25.233,25.233,0,0,0-9.008-5.3,17.425,17.425,0,0,0,6.1-9,6.284,6.284,0,0,0,6.913-9.67c3.15-7.82,3.165-15.427.016-20.969C103,5.1,100.029,2.895,96.8,2.458a14.774,14.774,0,0,0-7.455.867,7.471,7.471,0,0,0-1.612-1.387C85.566.537,82.565-.111,78.808.015c-3.106.1-6.024,1.324-9.183,3.842a1.276,1.276,0,1,0,1.591,2c2.708-2.158,5.148-3.2,7.678-3.287,7.037-.232,8.722,2.662,8.837,2.878a1.243,1.243,0,0,0,1.825.592,11.506,11.506,0,0,1,6.9-1.048,8.909,8.909,0,0,1,6.26,4.784c1.279,2.252,3.737,8.355.176,17.88a6.25,6.25,0,0,0-4.23-.713v-.211a6.346,6.346,0,0,0-2.02-4.658,60.357,60.357,0,0,1-7.5-9.345A2.127,2.127,0,0,0,85.8,12.48c-6.62,7.23-15.349,9.576-18.794,10.249a3.833,3.833,0,0,0-3.09,3.756v.453a6.243,6.243,0,0,0-3.1.212,28.287,28.287,0,0,1-4.007-13.142,12.293,12.293,0,0,0,4.321-.261c2.234-.6,4.246-2.522,6.377-4.554a1.276,1.276,0,1,0-1.762-1.847c-1.806,1.722-3.673,3.5-5.28,3.937a11.145,11.145,0,0,1-4.658-.009A1.284,1.284,0,0,0,54.234,12.5,30.341,30.341,0,0,0,58.6,28.432,6.285,6.285,0,0,0,64.573,39.15a17.425,17.425,0,0,0,6.1,9A25.251,25.251,0,0,0,54.44,65.088c-7.013,1.19-15.012,8.717-16.869,10.546H34.858a1.285,1.285,0,0,0-1.224,1.637A8.889,8.889,0,0,0,41.525,83.6a2.082,2.082,0,0,1,1.936,2.072,1.276,1.276,0,0,0,1.276,1.276h63.108a1.276,1.276,0,0,0,1.276-1.276V72.078a25.06,25.06,0,0,0-4.647-14.592Zm-4.68-28.1a3.737,3.737,0,1,1-1.277,7.248,17.475,17.475,0,0,0,.142-2.222V29.564A3.752,3.752,0,0,1,99.795,29.387ZM62.781,36.86a3.737,3.737,0,1,1,1.135-7.3v4.849a17.443,17.443,0,0,0,.142,2.222A3.729,3.729,0,0,1,62.781,36.86Zm3.688-2.447V26.486A1.276,1.276,0,0,1,67.5,25.235,38.109,38.109,0,0,0,87.32,14.594a60.835,60.835,0,0,0,7.588,9.353,3.786,3.786,0,0,1,1.2,2.782v7.684a14.819,14.819,0,1,1-29.639,0ZM81.288,51.785a17.284,17.284,0,0,0,6.171-1.134,6.337,6.337,0,0,1-12.342,0A17.284,17.284,0,0,0,81.288,51.785ZM45.833,84.395A4.647,4.647,0,0,0,41.7,81.053a6.33,6.33,0,0,1-4.862-2.866H50.051a1.276,1.276,0,0,0,0-2.552H41.32c3.4-3.027,9.907-8.154,14.918-8.154s11.515,5.127,14.918,8.154h-16a1.276,1.276,0,0,0,0,2.552H75.274a6.33,6.33,0,0,1-4.862,2.866,4.646,4.646,0,0,0-4.135,3.342Zm60.736,0H96.918V79.182h9.651Z" transform="translate(0 0)" fill="#5f6e62"/>
      <path id="Trazado_873890" data-name="Trazado 873890" d="M286.9,220.248a1.276,1.276,0,0,0,1.276-1.276,2.373,2.373,0,0,1,4.747,0,1.276,1.276,0,1,0,2.552,0,4.926,4.926,0,0,0-9.851,0,1.276,1.276,0,0,0,1.276,1.276Z" transform="translate(-209.246 -177.697)" fill="#5f6e62"/>
      <path id="Trazado_873891" data-name="Trazado 873891" d="M252.084,172.853A15.968,15.968,0,0,0,256,171.809a1.276,1.276,0,0,0-1.018-2.34,13.515,13.515,0,0,1-3.208.85,1.276,1.276,0,0,0,.153,2.543A1.257,1.257,0,0,0,252.084,172.853Z" transform="translate(-180.213 -140.602)" fill="#5f6e62"/>
      <path id="Trazado_873892" data-name="Trazado 873892" d="M343.144,171.811a15.974,15.974,0,0,0,3.919,1.044,1.29,1.29,0,0,0,.155.009,1.276,1.276,0,0,0,.151-2.543,13.377,13.377,0,0,1-3.207-.85,1.276,1.276,0,1,0-1.018,2.34Z" transform="translate(-256.358 -140.603)" fill="#5f6e62"/>
      <path id="Trazado_873893" data-name="Trazado 873893" d="M58.454,244.637a8.422,8.422,0,1,0-8.422-8.422A8.431,8.431,0,0,0,58.454,244.637Zm0-2.552a5.833,5.833,0,0,1-3.146-.918l8.1-8.1a5.865,5.865,0,0,1-4.951,9.016Zm0-11.739a5.833,5.833,0,0,1,3.146.918l-8.1,8.1a5.865,5.865,0,0,1,4.951-9.016Z" transform="translate(-13.66 -189.11)" fill="#5f6e62"/>
    </g>
  </g>
</svg>
