<svg xmlns="http://www.w3.org/2000/svg" width="85" height="85" viewBox="0 0 85 85">
  <g id="Grupo_1099715" data-name="Grupo 1099715" transform="translate(-1040.051 -2474)">
    <g id="Elipse_11505" data-name="Elipse 11505" transform="translate(1040.051 2474)" fill="#f8fbf9" stroke="#869a8a" stroke-width="5">
      <circle cx="42.5" cy="42.5" r="42.5" stroke="none"/>
      <circle cx="42.5" cy="42.5" r="40" fill="none"/>
    </g>
    <g id="Grupo_1099714" data-name="Grupo 1099714" transform="translate(1060.102 2493.551)">
      <path id="Trazado_874534" data-name="Trazado 874534" d="M42.788,0H30.439a2.108,2.108,0,0,0-2,1.443l0,.01H16.464l0-.01a2.108,2.108,0,0,0-2-1.443H2.11A2.113,2.113,0,0,0,0,2.11v.726A1.386,1.386,0,0,0,1.384,4.221H1.5l.479,6.388a3.578,3.578,0,0,0,3.553,3.3h1.7a.658.658,0,0,0,0-1.315h-1.7a2.257,2.257,0,0,1-2.242-2.08l-.472-6.29H16l0,.01a2.108,2.108,0,0,0,2,1.443h8.887a2.108,2.108,0,0,0,2-1.443l0-.01H42.079l-.472,6.29a2.258,2.258,0,0,1-2.242,2.08H10.3a.658.658,0,1,0,0,1.315H39.366a3.578,3.578,0,0,0,3.553-3.3L43.4,4.221h.116A1.386,1.386,0,0,0,44.9,2.837V2.11A2.113,2.113,0,0,0,42.788,0ZM1.384,2.906a.069.069,0,0,1-.069-.069V2.11a.8.8,0,0,1,.8-.8H14.459a.794.794,0,0,1,.754.544l.349,1.047H1.384Zm26.263.909a.794.794,0,0,1-.754.544H18.006a.794.794,0,0,1-.754-.544L16.9,2.768H28Zm15.936-.978a.069.069,0,0,1-.069.069H29.336l.349-1.047a.794.794,0,0,1,.754-.544H42.788a.8.8,0,0,1,.8.8Z" transform="translate(0 0)" fill="#5f6e62"/>
      <path id="Trazado_874535" data-name="Trazado 874535" d="M369.508,81.532a1.361,1.361,0,0,0,1.359-1.359v-1.5a1.361,1.361,0,0,0-1.359-1.359h-3.682a1.361,1.361,0,0,0-1.359,1.359v1.5a1.361,1.361,0,0,0,1.359,1.359Zm-3.725-1.359v-1.5a.044.044,0,0,1,.044-.044h3.682a.044.044,0,0,1,.044.044v1.5a.044.044,0,0,1-.044.044h-3.682A.044.044,0,0,1,365.782,80.173Z" transform="translate(-332.506 -70.531)" fill="#5f6e62"/>
      <path id="Trazado_874536" data-name="Trazado 874536" d="M42.788,353.422H30.439a2.108,2.108,0,0,0-2,1.443l0,.01H16.464l0-.01a2.108,2.108,0,0,0-2-1.443H2.11A2.113,2.113,0,0,0,0,355.532v.726a1.386,1.386,0,0,0,1.384,1.384H1.5l.479,6.388a3.578,3.578,0,0,0,3.553,3.3h1.7a.658.658,0,1,0,0-1.315h-1.7a2.258,2.258,0,0,1-2.242-2.08l-.472-6.29H16l0,.01a2.108,2.108,0,0,0,2,1.443h8.887a2.108,2.108,0,0,0,2-1.443l0-.01H42.079l-.472,6.29a2.257,2.257,0,0,1-2.242,2.08h-29a.658.658,0,1,0,0,1.315h29a3.578,3.578,0,0,0,3.553-3.3l.479-6.388h.116a1.386,1.386,0,0,0,1.384-1.384v-.726A2.113,2.113,0,0,0,42.788,353.422Zm-41.4,2.906a.069.069,0,0,1-.069-.069v-.726a.8.8,0,0,1,.8-.8H14.459a.794.794,0,0,1,.754.544l.349,1.047H1.384Zm26.263.909a.794.794,0,0,1-.754.544H18.006a.794.794,0,0,1-.754-.544L16.9,356.19H28Zm15.936-.978a.069.069,0,0,1-.069.069H29.336l.349-1.047a.794.794,0,0,1,.754-.544H42.788a.8.8,0,0,1,.8.8Z" transform="translate(0 -322.43)" fill="#5f6e62"/>
      <path id="Trazado_874537" data-name="Trazado 874537" d="M369.508,434.955a1.361,1.361,0,0,0,1.359-1.359v-1.5a1.361,1.361,0,0,0-1.359-1.359h-3.682a1.361,1.361,0,0,0-1.359,1.359v1.5a1.361,1.361,0,0,0,1.359,1.359Zm-3.725-1.359v-1.5a.044.044,0,0,1,.044-.044h3.682a.044.044,0,0,1,.044.044v1.5a.044.044,0,0,1-.044.044h-3.682A.044.044,0,0,1,365.782,433.6Z" transform="translate(-332.506 -392.962)" fill="#5f6e62"/>
      <path id="Trazado_874538" data-name="Trazado 874538" d="M42.788,176.711H30.439a2.108,2.108,0,0,0-2,1.443l0,.01H16.464l0-.01a2.108,2.108,0,0,0-2-1.443H2.11A2.113,2.113,0,0,0,0,178.821v.726a1.386,1.386,0,0,0,1.384,1.384H1.5l.479,6.388a3.578,3.578,0,0,0,3.553,3.3H39.366a3.578,3.578,0,0,0,3.553-3.3l.479-6.388h.116a1.386,1.386,0,0,0,1.384-1.384v-.726A2.113,2.113,0,0,0,42.788,176.711ZM28,179.479l-.349,1.047a.794.794,0,0,1-.754.544H18.006a.794.794,0,0,1-.754-.544l-.349-1.047Zm-26.68.069v-.726a.8.8,0,0,1,.8-.8H14.459a.794.794,0,0,1,.754.544l.349,1.047H1.384a.069.069,0,0,1-.069-.069Zm40.292,7.674a2.257,2.257,0,0,1-2.242,2.08H5.533a2.257,2.257,0,0,1-2.242-2.08l-.472-6.29H16l0,.01a2.108,2.108,0,0,0,2,1.443h8.887a2.108,2.108,0,0,0,2-1.443l0-.01H42.079Zm1.976-7.674a.069.069,0,0,1-.069.069H29.336l.349-1.047a.794.794,0,0,1,.754-.544H42.788a.8.8,0,0,1,.8.8Z" transform="translate(0 -161.215)" fill="#5f6e62"/>
      <path id="Trazado_874539" data-name="Trazado 874539" d="M365.826,258.243h3.682a1.361,1.361,0,0,0,1.359-1.359v-1.5a1.361,1.361,0,0,0-1.359-1.359h-3.682a1.361,1.361,0,0,0-1.359,1.359v1.5A1.361,1.361,0,0,0,365.826,258.243Zm-.044-2.862a.044.044,0,0,1,.044-.044h3.682a.044.044,0,0,1,.044.044v1.5a.044.044,0,0,1-.044.044h-3.682a.044.044,0,0,1-.044-.044Z" transform="translate(-332.506 -231.746)" fill="#5f6e62"/>
    </g>
  </g>
</svg>
