<svg xmlns="http://www.w3.org/2000/svg" width="110" height="110" viewBox="0 0 110 110">
  <g id="Grupo_1099422" data-name="Grupo 1099422" transform="translate(-710.782 -4433)">
    <g id="Grupo_1099375" data-name="Grupo 1099375" transform="translate(710.782 4433)">
      <g id="Grupo_1098742" data-name="Grupo 1098742" transform="translate(0 0)">
        <rect id="Rectángulo_400898" data-name="Rectángulo 400898" width="110" height="110" rx="55" fill="#fff" opacity="0.859"/>
        <rect id="Rectángulo_400907" data-name="Rectángulo 400907" width="110" height="110" rx="55" transform="translate(0)" fill="none"/>
      </g>
    </g>
    <g id="Grupo_1099623" data-name="Grupo 1099623" transform="translate(737.063 4452.114)">
      <g id="Grupo_1099609" data-name="Grupo 1099609" transform="translate(1.053 15.79)">
        <rect id="Rectángulo_401430" data-name="Rectángulo 401430" width="31.898" height="5.24" transform="translate(11.719 49.689)" fill="#f9ecd4"/>
        <rect id="Rectángulo_401431" data-name="Rectángulo 401431" width="55.333" height="4.407" fill="#f9ecd4"/>
      </g>
      <g id="Grupo_1099610" data-name="Grupo 1099610" transform="translate(39.613 15.79)">
        <rect id="Rectángulo_401432" data-name="Rectángulo 401432" width="5.056" height="5.24" transform="translate(0 49.689)" fill="#f7e0ba"/>
        <rect id="Rectángulo_401433" data-name="Rectángulo 401433" width="5.056" height="4.407" transform="translate(11.718)" fill="#f7e0ba"/>
      </g>
      <path id="Trazado_874253" data-name="Trazado 874253" d="M334.459,22.252l4.074-10.882a2.854,2.854,0,1,0-5.346-2l-4.824,12.884h6.095Z" transform="translate(-289.5 -6.462)" fill="#c6946a"/>
      <path id="Trazado_874254" data-name="Trazado 874254" d="M353.436,7.515a2.85,2.85,0,0,0-1.613.5,2.853,2.853,0,0,1,1.057,3.354L348.8,22.252h3.229l4.074-10.882A2.854,2.854,0,0,0,353.436,7.515Z" transform="translate(-307.075 -6.462)" fill="#b27c57"/>
      <path id="Trazado_874255" data-name="Trazado 874255" d="M134.191,189.362H101.542a2.809,2.809,0,0,1-2.8-2.586l-3.4-42.7h45.043l-3.4,42.7A2.808,2.808,0,0,1,134.191,189.362Z" transform="translate(-89.146 -123.882)" fill="#73cdff"/>
      <path id="Trazado_874256" data-name="Trazado 874256" d="M342.587,144.079l-3.4,42.7a2.808,2.808,0,0,1-2.8,2.586h5.056a2.809,2.809,0,0,0,2.8-2.586l3.4-42.7Z" transform="translate(-296.401 -123.882)" fill="#36c2ff"/>
      <path id="Trazado_874257" data-name="Trazado 874257" d="M146.563,217.405h-10.7a12.832,12.832,0,0,0-21.232,0h-10.7l1.147,14.411h9.556a12.832,12.832,0,0,0,21.232,0h9.556Z" transform="translate(-96.523 -182.093)" fill="#f9ecd4"/>
      <path id="Trazado_874258" data-name="Trazado 874258" d="M364.986,251.9l-1.147,14.411h5.056l1.147-14.411Z" transform="translate(-320.002 -216.589)" fill="#f7e0ba"/>
      <path id="Trazado_874259" data-name="Trazado 874259" d="M107.51,14.737H97.6l3.542-9.459a3.907,3.907,0,1,0-7.318-2.74l-4.568,12.2H69.564a43.794,43.794,0,0,0,10.159-3.912,24.444,24.444,0,0,0,9.793-9.255A1.053,1.053,0,0,0,87.681.536a22.367,22.367,0,0,1-8.955,8.434,43.809,43.809,0,0,1-11.8,4.233,70.376,70.376,0,0,1-13.411,1.534H52.177l-.042,0-.05,0-.058.007-.047.007-.054.012-.049.013-.046.015-.053.019-.037.017-.057.027-.029.016c-.02.012-.041.024-.061.037l-.021.015c-.021.015-.042.03-.062.046l-.015.013c-.021.018-.041.036-.06.055l-.012.013c-.019.02-.038.04-.056.061l-.012.015c-.017.021-.033.043-.049.065l-.013.019c-.014.021-.027.043-.04.065l-.014.027c-.011.02-.021.041-.03.062s-.01.024-.015.037-.015.038-.021.057-.009.031-.013.047-.009.034-.013.051-.007.037-.01.056-.005.031-.007.047,0,.041,0,.061,0,.022,0,.034,0,.009,0,.013,0,.011,0,.017V20.2a1.053,1.053,0,0,0,1.053,1.053h4.172l2,25.124.273,3.432h0l1.048,13.171a3.886,3.886,0,0,0,3.172,3.494V70.72a1.053,1.053,0,0,0,1.053,1.053h31.9a1.053,1.053,0,0,0,1.053-1.053V66.471a3.886,3.886,0,0,0,3.172-3.494l1.048-13.171h0l.273-3.432,2-25.124h4.172a1.053,1.053,0,0,0,1.053-1.053V15.79A1.051,1.051,0,0,0,107.51,14.737ZM95.8,3.276a1.808,1.808,0,0,1,1.686-1.169A1.8,1.8,0,0,1,99.17,4.539l-3.819,10.2H91.506Zm.37,61.151H73.061a1.053,1.053,0,0,0,0,2.106H94.739v3.134H64.948V66.533h3.9a1.053,1.053,0,0,0,0-2.106H63.519a1.764,1.764,0,0,1-1.75-1.616l-.958-12.034h7.872a13.884,13.884,0,0,0,22.32,0h7.872l-.958,12.034A1.765,1.765,0,0,1,96.168,64.427Zm10.289-45.283H93.219a1.053,1.053,0,0,0,0,2.106h8.006L100.19,34.258H91a13.895,13.895,0,0,0-16.715-4.467,1.053,1.053,0,1,0,.844,1.93A11.789,11.789,0,0,1,89.589,35.9a1.053,1.053,0,0,0,.871.461h9.562l-.357,4.483-.622,7.822H90.46a1.053,1.053,0,0,0-.871.461,11.778,11.778,0,0,1-19.491,0,1.053,1.053,0,0,0-.871-.461H60.644l-.622-7.822-.357-4.483h9.562A1.053,1.053,0,0,0,70.1,35.9a11.838,11.838,0,0,1,1.78-2.06,1.053,1.053,0,0,0-1.425-1.551,13.975,13.975,0,0,0-1.769,1.966H59.5L58.462,21.251H89.006a1.053,1.053,0,1,0,0-2.106H53.23V16.85c.156,0-.03,0,.156,0l53.07-.005h0v2.3Z" transform="translate(-51.123 0)"/>
    </g>
  </g>
</svg>
