<svg xmlns="http://www.w3.org/2000/svg" width="85" height="85" viewBox="0 0 85 85">
  <g id="Grupo_1099716" data-name="Grupo 1099716" transform="translate(-200.051 -2684)">
    <g id="Elipse_11505" data-name="Elipse 11505" transform="translate(200.051 2684)" fill="#f8fbf9" stroke="#869a8a" stroke-width="5">
      <circle cx="42.5" cy="42.5" r="42.5" stroke="none"/>
      <circle cx="42.5" cy="42.5" r="40" fill="none"/>
    </g>
    <g id="outline" transform="translate(205.102 2688.551)">
      <path id="Trazado_874540" data-name="Trazado 874540" d="M243.744,288.732a.732.732,0,0,0-1.463,0,1.3,1.3,0,0,1-.459.982,2.714,2.714,0,0,0,0,3.89,1.3,1.3,0,0,1,.459.982.732.732,0,0,0,1.463,0,2.717,2.717,0,0,0-.821-1.945,1.279,1.279,0,0,1,0-1.963A2.716,2.716,0,0,0,243.744,288.732Z" transform="translate(-204.423 -247.124)" fill="#5f6e62"/>
      <path id="Trazado_874541" data-name="Trazado 874541" d="M291.744,288.732a.732.732,0,1,0-1.463,0,1.3,1.3,0,0,1-.459.982,2.714,2.714,0,0,0,0,3.89,1.3,1.3,0,0,1,.459.982.732.732,0,0,0,1.463,0,2.717,2.717,0,0,0-.821-1.945,1.279,1.279,0,0,1,0-1.963A2.716,2.716,0,0,0,291.744,288.732Z" transform="translate(-248.033 -247.124)" fill="#5f6e62"/>
      <path id="Trazado_874542" data-name="Trazado 874542" d="M195.744,288.732a.732.732,0,0,0-1.463,0,1.3,1.3,0,0,1-.459.982,2.714,2.714,0,0,0,0,3.89,1.3,1.3,0,0,1,.459.982.732.732,0,0,0,1.463,0,2.717,2.717,0,0,0-.821-1.945,1.279,1.279,0,0,1,0-1.963A2.716,2.716,0,0,0,195.744,288.732Z" transform="translate(-160.812 -247.124)" fill="#5f6e62"/>
      <path id="Trazado_874543" data-name="Trazado 874543" d="M98.387,144H64.732a.732.732,0,0,0-.732.732v26.339a.732.732,0,0,0,.732.732H98.387a.732.732,0,0,0,.732-.732V144.732A.732.732,0,0,0,98.387,144Zm-.732,26.339H65.463V145.463H97.656Z" transform="translate(-43.61 -116.294)" fill="#5f6e62"/>
      <path id="Trazado_874544" data-name="Trazado 874544" d="M55.874,16H20.024A4.029,4.029,0,0,0,16,20.024v35.85A4.029,4.029,0,0,0,20.024,59.9h35.85A4.029,4.029,0,0,0,59.9,55.874V20.024A4.029,4.029,0,0,0,55.874,16ZM17.463,20.024a2.564,2.564,0,0,1,2.561-2.561h35.85a2.564,2.564,0,0,1,2.561,2.561v3.292H17.463ZM55.874,58.435H20.024a2.564,2.564,0,0,1-2.561-2.561V24.78H58.435V55.874a2.564,2.564,0,0,1-2.561,2.561Z" fill="#5f6e62"/>
      <path id="Trazado_874545" data-name="Trazado 874545" d="M202.975,40H192.732a.732.732,0,0,0-.732.732v2.927a.732.732,0,0,0,.732.732h10.243a.732.732,0,0,0,.732-.732V40.732A.732.732,0,0,0,202.975,40Zm-.732,2.927h-8.78V41.463h8.78Z" transform="translate(-159.904 -21.805)" fill="#5f6e62"/>
      <path id="Trazado_874546" data-name="Trazado 874546" d="M98.2,183.316h24.876a2.195,2.195,0,0,0,.732-4.264v-2.321a.732.732,0,0,0-.732-.732h-2.927a.732.732,0,0,0-.732.732v2.195H101.86v-2.195a.732.732,0,0,0-.732-.732H98.2a.732.732,0,0,0-.732.732v2.321a2.195,2.195,0,0,0,.732,4.264Zm22.681-5.853h1.463v1.463h-1.463Zm-21.949,0H100.4v1.463H98.933ZM98.2,180.39h24.876a.732.732,0,0,1,0,1.463H98.2a.732.732,0,1,1,0-1.463Z" transform="translate(-72.69 -145.367)" fill="#5f6e62"/>
      <path id="Trazado_874547" data-name="Trazado 874547" d="M130.195,40a2.195,2.195,0,1,0,2.195,2.195A2.195,2.195,0,0,0,130.195,40Zm0,2.927a.732.732,0,1,1,.732-.732A.732.732,0,0,1,130.195,42.927Z" transform="translate(-101.757 -21.805)" fill="#5f6e62"/>
      <path id="Trazado_874548" data-name="Trazado 874548" d="M66.195,40a2.195,2.195,0,1,0,2.195,2.195A2.195,2.195,0,0,0,66.195,40Zm0,2.927a.732.732,0,1,1,.732-.732A.732.732,0,0,1,66.195,42.927Z" transform="translate(-43.61 -21.805)" fill="#5f6e62"/>
      <path id="Trazado_874549" data-name="Trazado 874549" d="M402.195,40a2.195,2.195,0,1,0,2.195,2.195A2.195,2.195,0,0,0,402.195,40Zm0,2.927a.732.732,0,1,1,.732-.732A.732.732,0,0,1,402.195,42.927Z" transform="translate(-348.881 -21.805)" fill="#5f6e62"/>
      <path id="Trazado_874550" data-name="Trazado 874550" d="M338.195,40a2.195,2.195,0,1,0,2.195,2.195A2.195,2.195,0,0,0,338.195,40Zm0,2.927a.732.732,0,1,1,.732-.732A.732.732,0,0,1,338.195,42.927Z" transform="translate(-290.734 -21.805)" fill="#5f6e62"/>
      <path id="Trazado_874551" data-name="Trazado 874551" d="M189.9,400h-13.17a.732.732,0,1,0,0,1.463H189.9a.732.732,0,1,0,0-1.463Z" transform="translate(-145.367 -348.881)" fill="#5f6e62"/>
      <path id="Trazado_874552" data-name="Trazado 874552" d="M353.463,400h-.732a.732.732,0,0,0,0,1.463h.732a.732.732,0,0,0,0-1.463Z" transform="translate(-305.271 -348.881)" fill="#5f6e62"/>
    </g>
  </g>
</svg>
