<svg xmlns="http://www.w3.org/2000/svg" width="110" height="110" viewBox="0 0 110 110">
  <g id="Grupo_1099624" data-name="Grupo 1099624" transform="translate(-710.782 -4433)">
    <g id="Grupo_1099375" data-name="Grupo 1099375" transform="translate(710.782 4433)">
      <g id="Grupo_1098742" data-name="Grupo 1098742" transform="translate(0 0)">
        <rect id="Rect치ngulo_400898" data-name="Rect치ngulo 400898" width="110" height="110" rx="55" fill="#fff" opacity="0.859"/>
        <rect id="Rect치ngulo_400907" data-name="Rect치ngulo 400907" width="110" height="110" rx="55" transform="translate(0)" fill="none"/>
      </g>
    </g>
    <g id="Grupo_1099625" data-name="Grupo 1099625" transform="translate(729.908 4454.347)">
      <g id="Grupo_1099617" data-name="Grupo 1099617" transform="translate(1.051 11.826)">
        <path id="Trazado_874260" data-name="Trazado 874260" d="M54.541,100.2H31.449C12.943,100.2,7.5,106.051,7.5,113.265c0,3.148,2.042,6.037,5.443,8.292v20.118l6.844,7.344,11.062,5.612H41.056l8.776-14.072Z" transform="translate(-7.5 -100.202)" fill="#f6a96c"/>
        <path id="Trazado_874261" data-name="Trazado 874261" d="M15.747,141.829V121.557c-3.4-2.256-5.443-5.144-5.443-8.292,0-7.215,5.443-13.063,23.949-13.063h-2.8C12.943,100.2,7.5,106.051,7.5,113.265c0,3.148,2.042,6.037,5.443,8.292v20.118l6.844,7.344Z" transform="translate(-7.5 -100.202)" fill="#ea9b58"/>
        <path id="Trazado_874262" data-name="Trazado 874262" d="M206.379,113.126l-10.332.746-2.168-8.732a5.248,5.248,0,0,1-.2-4.385,42.769,42.769,0,0,0-6.915-.553c-1.259,0-2.5.053-3.7.155-7.445.63-4.415,3.3-9.073,6.7-1.2.872-10.051,2.06-10.555,3.248a7.526,7.526,0,0,0-.618,2.961c0,3.148,2.042,6.037,5.443,8.292V148.29a6.341,6.341,0,0,0,6.341,6.341h24.33a6.341,6.341,0,0,0,6.341-6.341V121.557c3.185-2.112,5.178-4.779,5.418-7.7A5.138,5.138,0,0,1,206.379,113.126Z" transform="translate(-141.039 -100.202)" fill="#ffedd4"/>
        <g id="Grupo_1099612" data-name="Grupo 1099612" transform="translate(21.772 0.158)">
          <path id="Trazado_874263" data-name="Trazado 874263" d="M171.057,149.259V122.526c-3.4-2.256-5.443-5.144-5.443-8.292,0-6.958,17.408-12.905,17.408-12.905-5.128.438-5.75,4.9-9.254,6.82-3.1,1.694-9.314.711-10.34,3.123a7.527,7.527,0,0,0-.618,2.962c0,3.148,2.042,6.037,5.443,8.292v26.733a6.341,6.341,0,0,0,6.341,6.341h2.8A6.341,6.341,0,0,1,171.057,149.259Z" transform="translate(-162.81 -101.329)" fill="#e1c5a7"/>
        </g>
        <path id="Trazado_874264" data-name="Trazado 874264" d="M231.231,137.474a3.472,3.472,0,0,1-6.273-2.811,5.238,5.238,0,0,1-4.366-2.806,41.879,41.879,0,0,0-7.125-.594c-10.822,0-19.595,3.9-19.595,8.709,0,2.365,2.121,4.51,5.563,6.079v28.573a2.36,2.36,0,0,0,2.36,2.36h23.342a2.36,2.36,0,0,0,2.36-2.36V146.052c3.519-1.6,5.657-3.81,5.56-6.237h0A5.154,5.154,0,0,1,231.231,137.474Z" transform="translate(-167.747 -126.91)" fill="#ffcd50"/>
        <path id="Trazado_874265" data-name="Trazado 874265" d="M64.271,407.744a4.97,4.97,0,0,0-5.679-4.915,4.356,4.356,0,0,0-6.418-4.716,5.451,5.451,0,0,0-5.847-2.714v6.615a6.341,6.341,0,0,0,6.341,6.341H64.233A4.98,4.98,0,0,0,64.271,407.744Z" transform="translate(-40.884 -353.927)" fill="#6fd7a3"/>
        <g id="Grupo_1099613" data-name="Grupo 1099613" transform="translate(5.443 41.366)">
          <path id="Trazado_874266" data-name="Trazado 874266" d="M49.132,402.015v-6.442a5.474,5.474,0,0,0-2.8-.173v6.615a6.341,6.341,0,0,0,6.341,6.341h2.8A6.341,6.341,0,0,1,49.132,402.015Z" transform="translate(-46.328 -395.293)" fill="#3ec3a4"/>
        </g>
        <g id="Grupo_1099614" data-name="Grupo 1099614" transform="translate(26.289 13.683)">
          <path id="Trazado_874267" data-name="Trazado 874267" d="M203.24,231.84V203.267c-2.722-1.241-4.618-2.841-5.292-4.626l-1.387-.833-1.525.509c.558,1.915,2.514,3.635,5.4,4.95V231.84a2.36,2.36,0,0,0,2.36,2.36h2.8a2.36,2.36,0,0,1-2.36-2.36Z" transform="translate(-195.036 -197.808)" fill="#f4b537"/>
        </g>
        <g id="Grupo_1099615" data-name="Grupo 1099615" transform="translate(22.39 0.155)">
          <ellipse id="Elipse_11671" data-name="Elipse 11671" cx="2.217" cy="2.217" rx="2.217" ry="2.217" transform="translate(24.651 28.165)" fill="#6fd7a3"/>
          <ellipse id="Elipse_11672" data-name="Elipse 11672" cx="2.217" cy="2.217" rx="2.217" ry="2.217" transform="translate(14.15 35.77)" fill="#6fd7a3"/>
          <path id="Trazado_874268" data-name="Trazado 874268" d="M179.309,116.046a4.6,4.6,0,0,0,4.585-4.24,4.6,4.6,0,0,0,2.378-6.1,4.606,4.606,0,0,0,.576-4.392c-9.679.82-17.441,4.8-19.628,9.947,1.114,2.3,3.564,4.545,5.657,4.545a5.065,5.065,0,0,0,3.173-1.111A4.584,4.584,0,0,0,179.309,116.046Z" transform="translate(-167.22 -101.309)" fill="#6fd7a3"/>
        </g>
        <g id="Grupo_1099616" data-name="Grupo 1099616" transform="translate(22.39 0.155)">
          <path id="Trazado_874269" data-name="Trazado 874269" d="M170.023,111.256c1.98-4.659,8.53-8.363,16.934-9.631q-.05-.16-.11-.316c-9.679.82-17.441,4.8-19.628,9.947,1.114,2.3,3.564,4.545,5.657,4.545a5.082,5.082,0,0,0,1.549-.24,8.908,8.908,0,0,1-4.4-4.3Z" transform="translate(-167.219 -101.309)" fill="#3ec3a4"/>
        </g>
      </g>
      <g id="Grupo_1099618" data-name="Grupo 1099618" transform="translate(0 0)">
        <path id="Trazado_874270" data-name="Trazado 874270" d="M70.417,106.387a4.1,4.1,0,0,1-4.887-2.426,1.052,1.052,0,0,0-1.882-.219,2.421,2.421,0,0,1-4.373-1.959,1.055,1.055,0,0,0-1.031-1.343,4.188,4.188,0,0,1-3.581-5.751,1.052,1.052,0,0,0-.8-1.433c-5.551-.912-7.568-.414-28.857-.567a62.653,62.653,0,0,0-9.888.7,1.051,1.051,0,0,0,.336,2.076c6.052-.98,11.719-.578,18.086-.672-12.328,4.291-14.72,13.1-8.283,19.253H6.816C3.774,111.95,2.1,109.387,2.1,106.8c0-5.063,2.915-8.438,8.911-10.318a1.051,1.051,0,0,0-.629-2.006C3.494,96.64,0,100.787,0,106.8c0,3.242,1.928,6.366,5.443,8.847v26.179a7.4,7.4,0,0,0,7.393,7.392h46.1a7.4,7.4,0,0,0,7.392-7.392V115.651c3.3-2.321,5.165-5.134,5.415-8.164a1.052,1.052,0,0,0-1.328-1.1ZM52.349,95.158a6.359,6.359,0,0,0,0,2.236,44.717,44.717,0,0,0-8.133-.278,5.706,5.706,0,0,0,.169-2.258,42.812,42.812,0,0,1,7.96.3Zm-13.282,9.154a3.561,3.561,0,0,1-3.537,3.269c-2.045,0-2.293-1.387-3.293-1.354a1.033,1.033,0,0,0-.623.229,3.868,3.868,0,0,1-2.973.831c-1.544-.32-3.186-1.979-4.029-3.473,2.223-4.43,9.174-7.885,17.678-8.788.344,2.245-1.249,2.592-.752,3.7a3.561,3.561,0,0,1-1.84,4.7A1.051,1.051,0,0,0,39.067,104.312ZM12.835,147.119a5.3,5.3,0,0,1-5.29-5.29v-5.671a4.4,4.4,0,0,1,3.875,2.276,1.052,1.052,0,0,0,1.444.4,3.309,3.309,0,0,1,4.867,3.579,1.052,1.052,0,0,0,1.177,1.266,3.921,3.921,0,0,1,4.454,3.435H12.835ZM64.7,114.22a1.051,1.051,0,0,0-.47.876v26.733a5.3,5.3,0,0,1-5.29,5.29H34.607a5.3,5.3,0,0,1-5.29-5.29v-2.2a1.051,1.051,0,0,0-2.1,0c.159,1.139-.726,4.6,2.233,7.488H25.473a6.027,6.027,0,0,0-5.564-5.562,5.412,5.412,0,0,0-7.182-4.955,6.5,6.5,0,0,0-5.181-2.545V116.147H27.215v18.9a1.051,1.051,0,0,0,2.1,0c0-20.867,0-19.962,0-20.015a1.05,1.05,0,0,0-.47-.815c-2.72-1.8-5.155-4.515-4.96-7.785a9.835,9.835,0,0,0,2.594,2.233c.718,1.863,2.5,3.536,5.209,4.88v27.909a3.415,3.415,0,0,0,3.412,3.412H58.443a3.415,3.415,0,0,0,3.412-3.412V122.214a1.051,1.051,0,1,0-2.1,0v19.242a1.31,1.31,0,0,1-1.309,1.309H35.1a1.31,1.31,0,0,1-1.309-1.309V112.883a1.051,1.051,0,0,0-.615-.957,11.863,11.863,0,0,1-3.736-2.5A6.155,6.155,0,0,0,32.2,108.6a5.664,5.664,0,0,0,8.884-3.514,5.653,5.653,0,0,0,2.788-5.84,42.2,42.2,0,0,1,9.366.4,6.285,6.285,0,0,0,3.843,2.739,4.527,4.527,0,0,0,7.229,3.689,6.183,6.183,0,0,0,.986,1.072c-.21,1.715-1.972,3.435-4.927,4.782a1.051,1.051,0,0,0-.615.957v4.749a1.051,1.051,0,0,0,2.1,0v-4.085c2.916-1.449,4.756-3.279,5.352-5.29a6.159,6.159,0,0,0,2.191.381,10.785,10.785,0,0,1-4.7,5.583Z" transform="translate(0 -81.915)"/>
        <path id="Trazado_874271" data-name="Trazado 874271" d="M280.521,265.649a1.051,1.051,0,1,0-1.051-1.051A1.05,1.05,0,0,0,280.521,265.649Z" transform="translate(-240.293 -228.823)"/>
        <path id="Trazado_874272" data-name="Trazado 874272" d="M373.707,248.018a1.051,1.051,0,1,0,1.056,1.05A1.051,1.051,0,0,0,373.707,248.018Z" transform="translate(-320.42 -215.471)"/>
        <path id="Trazado_874273" data-name="Trazado 874273" d="M342.651,187.994a1.051,1.051,0,1,0-1.051-1.051A1.055,1.055,0,0,0,342.651,187.994Z" transform="translate(-293.714 -162.053)"/>
        <path id="Trazado_874274" data-name="Trazado 874274" d="M389.242,372.26a1.051,1.051,0,1,0,1.051,1.051A1.055,1.055,0,0,0,389.242,372.26Z" transform="translate(-333.773 -322.296)"/>
        <path id="Trazado_874275" data-name="Trazado 874275" d="M329.093,409.952a1.052,1.052,0,1,0,2.083.206A1.05,1.05,0,0,0,329.093,409.952Z" transform="translate(-282.944 -353.981)"/>
        <path id="Trazado_874276" data-name="Trazado 874276" d="M277.313,23.424a1.051,1.051,0,1,0,2.1,0c0-1.914-.841-2.005-.841-3.266,0-1.2.841-1.416.841-3.266a1.051,1.051,0,1,0-2.1,0c0,1.2-.841,1.417-.841,3.266C276.472,22.072,277.313,22.164,277.313,23.424Z" transform="translate(-237.716 -15.841)"/>
        <path id="Trazado_874277" data-name="Trazado 874277" d="M323.907,23.424a1.051,1.051,0,1,0,2.1,0c0-1.914-.841-2.005-.841-3.266,0-1.2.841-1.416.841-3.266a1.051,1.051,0,1,0-2.1,0c0,1.2-.841,1.417-.841,3.266C323.066,22.072,323.907,22.164,323.907,23.424Z" transform="translate(-277.778 -15.841)"/>
        <path id="Trazado_874278" data-name="Trazado 874278" d="M370.5,23.424a1.051,1.051,0,0,0,2.1,0c0-1.914-.841-2.005-.841-3.266,0-1.2.841-1.416.841-3.266a1.051,1.051,0,0,0-2.1,0c0,1.2-.841,1.417-.841,3.266C369.659,22.072,370.5,22.164,370.5,23.424Z" transform="translate(-317.839 -15.841)"/>
        <path id="Trazado_874279" data-name="Trazado 874279" d="M338.84,294.723a3.268,3.268,0,1,0,3.268,3.268A3.272,3.272,0,0,0,338.84,294.723Zm0,4.433a1.165,1.165,0,1,1,1.165-1.165A1.167,1.167,0,0,1,338.84,299.156Z" transform="translate(-288.531 -255.629)"/>
        <path id="Trazado_874280" data-name="Trazado 874280" d="M263.928,348.975a3.268,3.268,0,1,0,3.268,3.268A3.272,3.272,0,0,0,263.928,348.975Zm0,4.433a1.165,1.165,0,1,1,1.165-1.165A1.167,1.167,0,0,1,263.928,353.408Z" transform="translate(-224.12 -302.276)"/>
      </g>
    </g>
  </g>
</svg>
