<svg xmlns="http://www.w3.org/2000/svg" width="85" height="85" viewBox="0 0 85 85">
  <g id="Grupo_1099717" data-name="Grupo 1099717" transform="translate(-620.051 -2684)">
    <g id="Elipse_11505" data-name="Elipse 11505" transform="translate(620.051 2684)" fill="#f8fbf9" stroke="#869a8a" stroke-width="5">
      <circle cx="42.5" cy="42.5" r="42.5" stroke="none"/>
      <circle cx="42.5" cy="42.5" r="40" fill="none"/>
    </g>
    <g id="Layer_14" data-name="Layer 14" transform="translate(641.102 2705.051)">
      <ellipse id="Elipse_11690" data-name="Elipse 11690" cx="0.5" cy="1" rx="0.5" ry="1" transform="translate(32.949 35.949)" fill="#5f6e62"/>
      <ellipse id="Elipse_11691" data-name="Elipse 11691" cx="0.5" cy="1" rx="0.5" ry="1" transform="translate(35.949 35.949)" fill="#5f6e62"/>
      <circle id="Elipse_11692" data-name="Elipse 11692" cx="1" cy="1" r="1" transform="translate(37.949 35.949)" fill="#5f6e62"/>
      <ellipse id="Elipse_11693" data-name="Elipse 11693" cx="0.5" cy="1" rx="0.5" ry="1" transform="translate(32.949 38.949)" fill="#5f6e62"/>
      <ellipse id="Elipse_11694" data-name="Elipse 11694" cx="0.5" cy="1" rx="0.5" ry="1" transform="translate(35.949 38.949)" fill="#5f6e62"/>
      <circle id="Elipse_11695" data-name="Elipse 11695" cx="1" cy="1" r="1" transform="translate(37.949 38.949)" fill="#5f6e62"/>
      <circle id="Elipse_11696" data-name="Elipse 11696" cx="0.5" cy="0.5" r="0.5" transform="translate(32.949 33.949)" fill="#5f6e62"/>
      <circle id="Elipse_11697" data-name="Elipse 11697" cx="0.5" cy="0.5" r="0.5" transform="translate(35.949 33.949)" fill="#5f6e62"/>
      <ellipse id="Elipse_11698" data-name="Elipse 11698" cx="1" cy="0.5" rx="1" ry="0.5" transform="translate(37.949 33.949)" fill="#5f6e62"/>
      <path id="Trazado_874553" data-name="Trazado 874553" d="M39.1,16.462v-9.6h1.372a3.43,3.43,0,0,0,0-6.859H3.43a3.43,3.43,0,0,0,0,6.859H4.8v9.6a2.72,2.72,0,0,0,.686,1.8V30.372l-2.709.905a2.058,2.058,0,0,0-1.407,1.949v8.614A2.058,2.058,0,0,0,3.43,43.9h8.231a2.058,2.058,0,0,0,2.058-2.058V33.226a2.058,2.058,0,0,0-1.407-1.949L9.6,30.372V18.258a2.72,2.72,0,0,0,.686-1.8v-9.6h8.917v9.6a2.72,2.72,0,0,0,.686,1.8V29.927a.665.665,0,0,1-.5.623,4.989,4.989,0,0,0-3.62,5.117c0,3.806,2.7,8.231,6.173,8.231s6.173-4.425,6.173-8.231a4.989,4.989,0,0,0-3.62-5.117.665.665,0,0,1-.5-.623V18.258a2.72,2.72,0,0,0,.686-1.8v-9.6h4.115a.686.686,0,0,0,0-1.372h-4.5a2.744,2.744,0,0,0-1.676-1.274V3.43a.686.686,0,0,0-1.372,0v.783a2.744,2.744,0,0,0-1.676,1.274H9.907A2.744,2.744,0,0,0,8.231,4.213V3.43a.686.686,0,0,0-1.372,0v.783A2.744,2.744,0,0,0,5.183,5.487H3.43a2.058,2.058,0,0,1,0-4.115H40.469a2.058,2.058,0,1,1,0,4.115H38.716a2.744,2.744,0,0,0-1.676-1.274V3.43a.686.686,0,0,0-1.372,0v.783a2.744,2.744,0,0,0-1.676,1.274H31.552a.686.686,0,0,0,0,1.372H33.61v9.6a2.72,2.72,0,0,0,.686,1.8V30.372l-2.709.905a2.058,2.058,0,0,0-1.407,1.949v8.614A2.058,2.058,0,0,0,32.238,43.9h8.231a2.058,2.058,0,0,0,2.058-2.058V33.226a2.058,2.058,0,0,0-1.407-1.949l-2.709-.905V18.258a2.72,2.72,0,0,0,.686-1.8Zm-18.52-9.6a1.367,1.367,0,0,1,.686-1.181v.5a.686.686,0,0,0,1.372,0v-.5a1.367,1.367,0,0,1,.686,1.181v9.6a1.372,1.372,0,0,1-2.744,0Zm.686,23.068V19.108a2.464,2.464,0,0,0,1.372,0V29.927a2.04,2.04,0,0,0,1.451,1.931,3.621,3.621,0,0,1,2.665,3.81c0,3.087-2.215,6.859-4.8,6.859s-4.8-3.773-4.8-6.859a3.621,3.621,0,0,1,2.665-3.81A2.04,2.04,0,0,0,21.263,29.927ZM6.173,6.859a1.367,1.367,0,0,1,.686-1.181v.5a.686.686,0,0,0,1.372,0v-.5a1.367,1.367,0,0,1,.686,1.181v9.6a1.372,1.372,0,0,1-2.744,0ZM8.231,19.108V30.18H6.859V19.108A2.464,2.464,0,0,0,8.231,19.108ZM6.284,31.552H8.806l3.072,1.023a.686.686,0,0,1,.469.651v8.614a.686.686,0,0,1-.686.686H3.43a.686.686,0,0,1-.686-.686V33.226a.686.686,0,0,1,.469-.651Zm28.7-24.693a1.367,1.367,0,0,1,.686-1.181v.5a.686.686,0,0,0,1.372,0v-.5a1.367,1.367,0,0,1,.686,1.181v9.6a1.372,1.372,0,0,1-2.744,0Zm2.058,12.249V30.18H35.667V19.108A2.464,2.464,0,0,0,37.039,19.108Zm3.646,13.467a.686.686,0,0,1,.469.651v8.614a.686.686,0,0,1-.686.686H32.238a.686.686,0,0,1-.686-.686V33.226a.686.686,0,0,1,.469-.651l3.072-1.023h2.521Z" fill="#5f6e62"/>
      <path id="Trazado_874554" data-name="Trazado 874554" d="M6.686,56.231a.686.686,0,0,0,.686-.686V48.686a.686.686,0,0,0-1.372,0v6.859A.686.686,0,0,0,6.686,56.231Z" transform="translate(-1.885 -15.076)" fill="#5f6e62"/>
      <path id="Trazado_874555" data-name="Trazado 874555" d="M10.686,56.231a.686.686,0,0,0,.686-.686V48.686a.686.686,0,0,0-1.372,0v6.859A.686.686,0,0,0,10.686,56.231Z" transform="translate(-3.141 -15.076)" fill="#5f6e62"/>
      <path id="Trazado_874556" data-name="Trazado 874556" d="M14.686,56.231a.686.686,0,0,0,.686-.686V48.686a.686.686,0,0,0-1.372,0v6.859A.686.686,0,0,0,14.686,56.231Z" transform="translate(-4.397 -15.076)" fill="#5f6e62"/>
    </g>
  </g>
</svg>
