<svg xmlns="http://www.w3.org/2000/svg" width="110" height="110" viewBox="0 0 110 110">
  <g id="Grupo_1099626" data-name="Grupo 1099626" transform="translate(-710.782 -4433)">
    <g id="Grupo_1099375" data-name="Grupo 1099375" transform="translate(710.782 4433)">
      <g id="Grupo_1098742" data-name="Grupo 1098742" transform="translate(0 0)">
        <rect id="Rect치ngulo_400898" data-name="Rect치ngulo 400898" width="110" height="110" rx="55" fill="#fff" opacity="0.859"/>
        <rect id="Rect치ngulo_400907" data-name="Rect치ngulo 400907" width="110" height="110" rx="55" transform="translate(0)" fill="none"/>
      </g>
    </g>
    <g id="Grupo_1099627" data-name="Grupo 1099627" transform="translate(729.896 4457.872)">
      <path id="Trazado_874281" data-name="Trazado 874281" d="M79.687,201.626c-6.4,2.575-14.859,3.993-23.827,3.993s-17.43-1.418-23.827-3.993c-4.021-1.618-7-3.62-8.8-5.866v20.163c0,7.253,14.609,13.133,32.63,13.133s32.63-5.88,32.63-13.133V195.76C86.686,198.005,83.708,200.008,79.687,201.626Z" transform="translate(-19.974 -174.077)" fill="#cde3fd"/>
      <path id="Trazado_874282" data-name="Trazado 874282" d="M159.49,313.348A17.672,17.672,0,0,0,147.1,318a18.8,18.8,0,0,0,24.772,0A17.672,17.672,0,0,0,159.49,313.348Z" transform="translate(-126.483 -275.181)" fill="#fcd170"/>
      <path id="Trazado_874283" data-name="Trazado 874283" d="M159.489,317.812a18.881,18.881,0,0,1,9.436,2.424,14.611,14.611,0,0,0,2.95-2.232,18.8,18.8,0,0,0-24.772,0,14.619,14.619,0,0,0,2.95,2.232A18.884,18.884,0,0,1,159.489,317.812Z" transform="translate(-126.482 -275.181)" fill="#f4ac45"/>
      <path id="Trazado_874284" data-name="Trazado 874284" d="M329.09,322.673a15.542,15.542,0,0,0-5.275,3.349,15.544,15.544,0,0,0,5.275,3.349Z" transform="translate(-278.422 -283.199)" fill="#f28920"/>
      <path id="Trazado_874285" data-name="Trazado 874285" d="M147.1,322.805a15.978,15.978,0,0,0,6.5,3.777,5.131,5.131,0,0,0,0-7.555A15.976,15.976,0,0,0,147.1,322.805Z" transform="translate(-126.484 -280.065)" fill="#ff9f34"/>
      <path id="Trazado_874286" data-name="Trazado 874286" d="M155.253,323.059c0-.084.007-.169.007-.253a5.357,5.357,0,0,0-1.658-3.777,15.979,15.979,0,0,0-6.5,3.777,14.582,14.582,0,0,0,2.949,2.232A17.86,17.86,0,0,1,155.253,323.059Z" transform="translate(-126.483 -280.065)" fill="#f28920"/>
      <path id="Trazado_874287" data-name="Trazado 874287" d="M37.646,89.83c0-5.256,12.57-11.112,30.609-11.113S98.864,84.573,98.864,89.83s-12.57,11.112-30.609,11.112S37.646,95.086,37.646,89.83Z" transform="translate(-32.369 -73.441)" fill="#677982"/>
      <path id="Trazado_874288" data-name="Trazado 874288" d="M42.416,89.83c0-5.021,11.472-10.59,28.224-11.077q-1.176-.034-2.385-.035c-18.039,0-30.609,5.856-30.609,11.113s12.57,11.112,30.609,11.112q1.209,0,2.385-.035C53.888,100.419,42.416,94.851,42.416,89.83Z" transform="translate(-32.369 -73.441)" fill="#576e77"/>
      <g id="Grupo_1099620" data-name="Grupo 1099620" transform="translate(1.236 1.235)">
        <path id="Trazado_874289" data-name="Trazado 874289" d="M63.355,52.521l-.067-.021-.022-.005c-1.559-.459-3.2-.861-4.912-1.2l-.021,0-.194-.037-.511-.1-.322-.06L56.8,51l-.322-.056-.546-.09-.284-.046q-.389-.061-.781-.118l-.116-.017q-.386-.056-.775-.107l-.306-.039q-.274-.035-.55-.069l-.347-.041-.521-.058-.358-.038-.526-.053-.349-.034-.576-.051-.3-.026q-.425-.035-.854-.065l-.061,0q-.425-.03-.854-.055l-.3-.017-.6-.031-.346-.016-.563-.023-.356-.012-.57-.017-.344-.008-.624-.011-.29,0q-.457-.005-.916-.005h0q-.459,0-.916.005l-.29,0-.624.011-.344.008-.57.017-.356.012-.564.023-.346.016-.6.031-.3.017q-.428.025-.854.055l-.061,0q-.428.03-.854.065l-.3.026-.576.051-.349.034-.526.053-.358.038-.521.058-.347.041-.55.069-.306.039q-.39.052-.777.107l-.113.016q-.393.057-.783.118L31,50.856l-.546.09L30.13,51l-.506.09-.322.06-.511.1-.194.037-.021,0c-1.71.342-3.353.744-4.912,1.2l-.022.005-.067.021q-.463.138-.917.282l-.16.052q-.426.137-.843.28l-.1.034q-.447.155-.882.316l-.173.065c-.292.11-.582.221-.866.335C14.621,55.9,11.224,58.519,9.71,61.46a7.622,7.622,0,0,0,0,7.171c1.514,2.941,4.91,5.556,9.927,7.575C26.035,78.78,34.5,80.2,43.465,80.2h0c8.968,0,17.43-1.418,23.827-3.993,5.017-2.019,8.413-4.634,9.927-7.575a7.618,7.618,0,0,0,0-7.171c-1.514-2.941-4.91-5.556-9.927-7.575M12.857,65.045c0-5.256,12.57-11.112,30.609-11.113s30.609,5.856,30.609,11.113S61.5,76.157,43.466,76.158,12.857,70.3,12.857,65.045Z" transform="translate(-8.815 -49.892)" fill="#51616b"/>
        <path id="Trazado_874290" data-name="Trazado 874290" d="M76.1,316.232v3.275c0,6.8-12.848,12.4-29.309,13.065l-.541.02-.272.01q-1.236.038-2.509.038t-2.508-.038l-.271-.01-.541-.02c-16.461-.67-29.309-6.264-29.309-13.065v-3.275a8.382,8.382,0,0,0-2.02,5.295c0,4.388,3.844,8.352,10.823,11.161,6.4,2.575,14.859,3.993,23.827,3.993s17.43-1.418,23.827-3.993c6.98-2.809,10.823-6.773,10.823-11.161A8.382,8.382,0,0,0,76.1,316.232Z" transform="translate(-8.817 -278.896)" fill="#51616b"/>
      </g>
      <path id="Trazado_874291" data-name="Trazado 874291" d="M34.995,226.019V202.688c-1.029-.329-2.018-.683-2.962-1.063-4.021-1.618-7-3.62-8.8-5.866v20.163C23.23,219.982,27.806,223.61,34.995,226.019Z" transform="translate(-19.974 -174.077)" fill="#92c8f4"/>
      <path id="Trazado_874292" data-name="Trazado 874292" d="M27.932,217.076v-17.44a17.015,17.015,0,0,1-4.7-3.876v20.163c0,4.059,4.576,7.688,11.765,10.1v-.785C30.575,222.994,27.932,220.16,27.932,217.076Z" transform="translate(-19.974 -174.077)" fill="#76b8e5"/>
      <path id="Trazado_874293" data-name="Trazado 874293" d="M404.844,208.984v-6.295c1.028-.329,2.018-.683,2.962-1.063,4.021-1.618,7-3.62,8.8-5.866v20.163c0,4.059-4.577,7.688-11.765,10.1V213.263" transform="translate(-348.092 -174.078)" fill="#92c8f4"/>
      <path id="Trazado_874294" data-name="Trazado 874294" d="M52.311,142.853a2.724,2.724,0,0,0-2.724-2.723H38.555a4.321,4.321,0,0,0-.909,2.5,4.644,4.644,0,0,0,1.251,2.944h10.69A2.723,2.723,0,0,0,52.311,142.853Z" transform="translate(-32.369 -126.245)" fill="#fcd170"/>
      <path id="Trazado_874295" data-name="Trazado 874295" d="M43.326,140.13h-4.77a4.321,4.321,0,0,0-.909,2.5,4.644,4.644,0,0,0,1.251,2.944h4.77a4.644,4.644,0,0,1-1.251-2.944A4.322,4.322,0,0,1,43.326,140.13Z" transform="translate(-32.37 -126.245)" fill="#f4ac45"/>
      <g id="Grupo_1099621" data-name="Grupo 1099621" transform="translate(0 0)">
        <path id="Trazado_874296" data-name="Trazado 874296" d="M38.154,73.574c-3.811,1.5-6.574,3.34-8.063,5.312a1.223,1.223,0,0,0-.121.142,6.034,6.034,0,0,0-1.024,2.213c-.01.046-.021.091-.03.137s-.019.11-.027.165c-.011.074-.021.148-.029.221,0,.043-.009.086-.013.129-.01.119-.016.239-.016.358,0,.093,0,.185.009.278,0,.02,0,.04,0,.06q.009.121.024.242l0,.03a6.151,6.151,0,0,0,1.5,3.129,1.24,1.24,0,0,0,.13.131,19.828,19.828,0,0,0,7.653,4.808C44.177,93.3,52.176,94.6,60.675,94.6s16.5-1.3,22.521-3.671c5.926-2.328,9.324-5.491,9.324-8.677s-3.4-6.349-9.324-8.678C77.173,71.207,69.175,69.9,60.675,69.9S44.177,71.206,38.154,73.574ZM31.926,83.959a3.245,3.245,0,0,1-.612-1.49c0-.006,0-.011,0-.017q-.01-.1-.01-.2c0-.056,0-.112.007-.169,0-.029.006-.058.009-.087s.006-.048.009-.072c.007-.044.014-.088.024-.133v0a3.082,3.082,0,0,1,.3-.805H42.007a1.487,1.487,0,1,1,0,2.975H31.926Zm58.122-1.708c0,4.027-11.443,9.876-29.373,9.876-12.185,0-21.372-2.7-26.01-5.7h7.342a3.96,3.96,0,1,0,0-7.919H34.019c4.394-3.165,13.876-6.137,26.656-6.137C78.605,72.375,90.048,78.224,90.048,82.251Z" transform="translate(-24.789 -65.863)" fill="#231f20"/>
        <path id="Trazado_874297" data-name="Trazado 874297" d="M169.119,314.924a1.236,1.236,0,0,0,1.687-1.151v-6.7a1.236,1.236,0,0,0-1.686-1.151,17.34,17.34,0,0,0-4.823,2.829,20.314,20.314,0,0,0-24.543-.191l-.013.01q-.168.136-.331.277l-.061.052q-.141.123-.279.249l-.081.073q-.161.15-.317.3l-.017.016a1.236,1.236,0,0,0,0,1.758l.017.016q.156.154.317.3l.081.074c.092.084.184.167.278.249l.062.053q.163.14.33.276l.014.011a20.314,20.314,0,0,0,24.542-.191A17.332,17.332,0,0,0,169.119,314.924ZM168.333,309v2.844a14.315,14.315,0,0,1-2.177-1.422A14.311,14.311,0,0,1,168.333,309Zm-22.7,3.764a15.05,15.05,0,0,1-4.246-2.342,15.046,15.046,0,0,1,4.246-2.341,3.776,3.776,0,0,1,0,4.683Zm6.28,1.078a19.133,19.133,0,0,1-3.8-.378,6.146,6.146,0,0,0,0-6.084,19.125,19.125,0,0,1,3.8-.378,16.876,16.876,0,0,1,10.528,3.42A16.877,16.877,0,0,1,151.909,313.844Z" transform="translate(-118.902 -267.602)" fill="#231f20"/>
        <path id="Trazado_874298" data-name="Trazado 874298" d="M69.753,63.185a11.039,11.039,0,0,0,.987-1.565,8.853,8.853,0,0,0,0-8.3c-1.659-3.222-5.312-6.042-10.564-8.156a1.236,1.236,0,0,0-.923,2.294c4.694,1.889,7.906,4.308,9.289,6.994a6.383,6.383,0,0,1,0,6.039,8.949,8.949,0,0,1-.962,1.473c-.009.01-.019.018-.027.028q-.157.2-.328.388a20.438,20.438,0,0,1-7.252,4.805l-.066.028q-.323.138-.655.272t-.66.258l-.113.042q-.293.111-.593.219l-.079.028q-.329.118-.667.232l-.029.01q-.364.123-.736.242h0a68.84,68.84,0,0,1-20.487,2.871A68.839,68.839,0,0,1,15.4,68.515h0q-.369-.118-.73-.24l-.039-.013q-.332-.113-.656-.229L13.884,68c-.2-.071-.393-.144-.586-.216l-.118-.044q-.335-.128-.659-.258c-.216-.087-.429-.176-.639-.265l-.093-.039A19.588,19.588,0,0,1,4.22,61.99c-.008-.01-.018-.018-.026-.027a8.937,8.937,0,0,1-.963-1.474,6.385,6.385,0,0,1,0-6.039c1.383-2.686,4.595-5.105,9.289-6.994.275-.111.556-.219.839-.325l.016-.006.152-.057q.423-.157.856-.307l.1-.033q.405-.139.821-.273l.155-.05c.294-.094.592-.185.9-.276l.042-.013.041-.011c1.515-.446,3.132-.842,4.805-1.177l.04-.009.17-.033.5-.1.315-.058.5-.088.317-.055.536-.088.279-.045q.383-.06.769-.116l.112-.016q.38-.055.764-.105l.3-.038.541-.068.339-.04.513-.058.352-.038.518-.052.343-.033.565-.05.3-.026c.279-.023.559-.044.842-.064l.059,0q.419-.029.839-.054l.3-.016.59-.031.341-.015.556-.023.35-.012.56-.016.339-.008.613-.011.287,0c.6-.006,1.2-.006,1.808,0l.284,0,.616.011.337.008.562.017.351.012.555.023.34.015.589.031.3.016c.281.017.561.034.839.054l.062,0q.422.03.84.064l.3.025.567.05.343.033.517.052.354.038.51.057.343.04.54.068.3.038c.255.034.509.069.765.106l.112.016q.386.056.767.116l.28.045.537.088.315.055.5.088.316.059.5.1.172.033.04.009c1.673.334,3.29.73,4.805,1.177l.041.011.042.013a1.236,1.236,0,1,0,.711-2.368l-.072-.022-.049-.013c-1.57-.462-3.242-.871-4.969-1.217l-.046-.01-.2-.038c-.173-.034-.347-.068-.52-.1l-.329-.061-.515-.092-.328-.057-.555-.092-.291-.047c-.264-.041-.529-.081-.789-.119l-.123-.018q-.393-.057-.788-.109l-.311-.04q-.279-.036-.558-.07l-.354-.042-.528-.059-.365-.039-.535-.054-.354-.034-.587-.052-.3-.026q-.432-.035-.866-.066l-.063,0q-.432-.03-.868-.056l-.3-.017-.608-.032-.351-.016-.57-.023-.362-.013-.58-.017-.348-.008-.634-.011-.293,0c-.618-.006-1.241-.006-1.858,0l-.3,0-.632.011-.35.009-.578.017-.362.012-.574.023-.35.016-.609.032-.3.017c-.29.017-.579.036-.869.056l-.06,0q-.435.031-.867.066l-.306.026-.585.052-.355.034-.536.054-.362.039-.531.06-.35.041q-.281.034-.559.07l-.311.04c-.265.035-.528.071-.787.109l-.118.017q-.4.058-.8.12l-.289.047-.555.092-.329.057-.515.092-.327.061-.522.1-.195.038-.047.01c-1.727.346-3.4.755-4.969,1.217l-.052.014-.066.02c-.317.094-.63.19-.937.288l-.166.054q-.437.141-.866.288l-.1.034c-.307.106-.609.215-.909.326l-.177.067c-.344.129-.628.239-.892.346C6.346,47.276,2.693,50.1,1.034,53.318a8.85,8.85,0,0,0,0,8.3,11.065,11.065,0,0,0,.987,1.565V79.229A9.432,9.432,0,0,0,0,84.946c0,4.927,4.119,9.3,11.6,12.307,6.54,2.632,15.166,4.082,24.289,4.082s17.748-1.45,24.289-4.082c7.479-3.01,11.6-7.38,11.6-12.307a9.432,9.432,0,0,0-2.021-5.717ZM37.064,94.814c-.784.011-1.573.011-2.356,0l-.127,0Q34,94.8,33.418,94.785l-.322-.011-.479-.017a64.636,64.636,0,0,1-16.359-2.632V71.354a73.349,73.349,0,0,0,19.629,2.5h0a73.343,73.343,0,0,0,19.629-2.5v4.632a1.236,1.236,0,1,0,2.472,0v-5.4l.074-.026.412-.143.2-.072.369-.134.27-.1.3-.113c.156-.06.309-.12.461-.181l.1-.04q.258-.1.511-.21l.252-.108.225-.1q.215-.094.426-.189l.026-.011a25.15,25.15,0,0,0,5.666-3.419V82.926c0,.091,0,.183-.01.275,0,.057-.011.115-.018.172,0,.033-.006.066-.01.1-.011.082-.025.164-.042.247,0,.007,0,.013,0,.02a7.99,7.99,0,0,1-3.4,4.479l-.175.126-.14.1a25.762,25.762,0,0,1-5.5,2.821v-11a1.236,1.236,0,0,0-2.472,0V92.124a64.643,64.643,0,0,1-16.359,2.632l-.481.017-.319.011q-.58.018-1.166.026ZM10.758,69.425c.112.048.223.1.337.144q.249.1.5.207.281.113.571.224l.257.1.312.117.34.123.234.083.385.134.089.031v20.68a25.769,25.769,0,0,1-5.5-2.822l-.125-.09-.19-.137a7.987,7.987,0,0,1-3.4-4.478c0-.007,0-.014,0-.021-.016-.082-.03-.164-.041-.245,0-.033-.007-.066-.01-.1-.006-.057-.013-.115-.018-.172q-.009-.137-.01-.275V65.743a25.7,25.7,0,0,0,6.126,3.623ZM59.252,94.96c-6.254,2.517-14.552,3.9-23.366,3.9s-17.112-1.386-23.366-3.9C6.289,92.452,2.75,89.067,2.488,85.387A9.309,9.309,0,0,0,4.4,88.353c.055.059.112.118.169.176s.1.109.159.163c.079.079.161.158.243.237l.1.094q.142.132.289.264l.066.057c.074.065.146.131.223.195a23.222,23.222,0,0,0,5.485,3.3l.007,0q.252.112.511.222l.109.047.03.012.377.156.154.063.032.013.1.04.262.1.171.067.265.1.153.057.151.056q.218.08.439.158l.127.045q.262.092.527.182l.033.011a67.264,67.264,0,0,0,19.915,3.1l.238,0q.574.008,1.151.009c.385,0,.769,0,1.152-.009l.237,0q.58-.01,1.156-.026h0l.078,0A66.2,66.2,0,0,0,57.188,94.18l.04-.013q.263-.089.522-.18l.13-.046c.146-.052.292-.1.436-.157l.151-.056.156-.058.263-.1.17-.067.264-.1.1-.04.032-.013.151-.062c.128-.052.255-.1.381-.157l.028-.012.107-.046q.26-.111.514-.223l0,0a23.219,23.219,0,0,0,5.487-3.3c.077-.064.148-.13.223-.194l.067-.058q.148-.131.289-.263l.1-.1c.082-.078.163-.157.242-.236.055-.055.107-.11.16-.165s.113-.116.167-.175a9.312,9.312,0,0,0,1.913-2.967C69.024,89.067,65.484,92.452,59.252,94.96Z" transform="translate(0 -41.08)" fill="#231f20"/>
      </g>
    </g>
  </g>
</svg>
