<svg xmlns="http://www.w3.org/2000/svg" width="85" height="85" viewBox="0 0 85 85">
  <g id="Grupo_1099719" data-name="Grupo 1099719" transform="translate(-1040.051 -2684)">
    <g id="Elipse_11505" data-name="Elipse 11505" transform="translate(1040.051 2684)" fill="#f8fbf9" stroke="#869a8a" stroke-width="5">
      <circle cx="42.5" cy="42.5" r="42.5" stroke="none"/>
      <circle cx="42.5" cy="42.5" r="40" fill="none"/>
    </g>
    <g id="Grupo_1099718" data-name="Grupo 1099718" transform="translate(1040.251 2683.712)">
      <path id="Trazado_874557" data-name="Trazado 874557" d="M67.709,49.3H63.328V44.039a14.857,14.857,0,0,0-4.752-10.9,17.519,17.519,0,0,1,4.442-5.958.876.876,0,0,0-.566-1.544,13.838,13.838,0,0,0-6.582,1.481,15.589,15.589,0,0,1,1.157-1.68A20.25,20.25,0,0,1,59.512,22.8a.876.876,0,0,0-.565-1.545,14.088,14.088,0,0,0-6.237,1.31c-.246-1.832-1.077-5.07-3.886-6.474a.876.876,0,0,0-.784,0c-2.806,1.4-3.639,4.635-3.885,6.469a14.073,14.073,0,0,0-6.237-1.3.876.876,0,0,0-.566,1.544,20.244,20.244,0,0,1,2.487,2.637,15.605,15.605,0,0,1,1.155,1.676,13.848,13.848,0,0,0-6.58-1.476.876.876,0,0,0-.566,1.544,17.511,17.511,0,0,1,4.443,5.958,14.857,14.857,0,0,0-4.752,10.9v.1a8.082,8.082,0,0,0-2.929,1.115,2.578,2.578,0,0,1-.305.2,13.948,13.948,0,0,1,1.335-5.307h0a.876.876,0,1,0-1.458-.972h0c-.794,1.192-1.353,3.376-1.661,6.488a2.484,2.484,0,0,1-.815-.405,8.372,8.372,0,0,0-3.8-1.216,7.56,7.56,0,0,0-5.82,2.63,9.369,9.369,0,0,0-1.953,7.538l.548,3.678a19.45,19.45,0,0,0,2.247,6.644,7.539,7.539,0,0,0,6.539,4.048,7.079,7.079,0,0,0,1.911-.265l.059-.019,1.466-.524a.742.742,0,0,1,.5,0l1.466.524.059.019a7.08,7.08,0,0,0,1.911.265,7.269,7.269,0,0,0,5.175-2.225A21.746,21.746,0,0,0,62.4,62.757c3.932-3.583,6.188-8.17,6.188-12.585A.876.876,0,0,0,67.709,49.3ZM44.733,44.9l3.711-3.6,3.718,3.61-3.709,3.6ZM46.748,49.3h-5.01a8.712,8.712,0,0,0-.452-1.045l2.189-2.125Zm6.671-3.165L56.68,49.3H50.156ZM49.7,40.079l3.708-3.6,3.721,3.614-3.71,3.6Zm.613-9.048A13.048,13.048,0,0,1,54.891,32.6l-1.483,1.44Zm1.837,4.226-3.708,3.6-3.706-3.6,3.708-3.6ZM43.48,34.039l-1.494-1.45a13.044,13.044,0,0,1,4.6-1.562Zm0,2.442,3.706,3.6-3.712,3.6-3.71-3.594Zm-1.264,8.424L40.3,46.764c-.026-.032-.052-.064-.079-.095a7.492,7.492,0,0,0-4.618-2.54l2.9-2.816Zm-.587,12.979.548-3.678a10.59,10.59,0,0,0,0-3.158H63.172a14.411,14.411,0,0,1-4.8,8.077,16.353,16.353,0,0,1-10.819,4.189,16.059,16.059,0,0,1-6.9-1.587,19.821,19.821,0,0,0,.968-3.844ZM60.092,49.3l1.483-1.437V49.3Zm1.483-3.876-3.19,3.089-3.707-3.6,3.709-3.6,3.187,3.1Zm-.2-3.643-1.733-1.683.982-.952A13.023,13.023,0,0,1,61.38,41.776Zm-1.559-4.293-1.432,1.388-3.722-3.614,1.722-1.672a13.243,13.243,0,0,1,3.432,3.9Zm.326-9.925a17.126,17.126,0,0,0-2.988,4.417,14.912,14.912,0,0,0-2.5-1.466c.011-.136.028-.273.049-.409a9.81,9.81,0,0,1,5.437-2.541Zm-3.506-4.381c-1.423,1.569-3.259,4.038-3.665,6.675a14.78,14.78,0,0,0-3.174-.646c-.1-.319-.234-.68-.4-1.068a9.315,9.315,0,0,1,7.24-4.96Zm-8.209-5.293c2.171,1.415,2.549,4.658,2.615,5.684a10.65,10.65,0,0,0-2.616,2.764,10.837,10.837,0,0,0-1.383-1.708,10.651,10.651,0,0,0-1.23-1.059C45.884,22.538,46.263,19.3,48.432,17.885ZM40.225,23.18a9.333,9.333,0,0,1,7.7,5.973,14.818,14.818,0,0,0-4.037.7q-.041-.267-.1-.531l.031-.029-.049-.051A14.8,14.8,0,0,0,40.225,23.18Zm-3.507,4.379A9.792,9.792,0,0,1,42.155,30.1c.021.136.038.272.049.408a14.912,14.912,0,0,0-2.5,1.466,17.12,17.12,0,0,0-2.988-4.417Zm3.77,6.018,1.735,1.684L38.5,38.871l-1.45-1.4a13.241,13.241,0,0,1,3.433-3.89Zm-4.243,5.545,1,.971L35.48,41.808a13.032,13.032,0,0,1,.765-2.686Zm1.608,24.552a5.817,5.817,0,0,1-5.023,3.146,5.271,5.271,0,0,1-1.395-.189L30,66.118a2.507,2.507,0,0,0-1.686,0l-1.436.514a5.653,5.653,0,0,1-6.418-2.957,17.7,17.7,0,0,1-2.044-6.048l-.548-3.677a7.624,7.624,0,0,1,1.547-6.136,5.832,5.832,0,0,1,4.493-2.022,6.962,6.962,0,0,1,2.744.865,4.192,4.192,0,0,0,1.725.768c-.043.7-.067,1.31-.081,1.78a2.613,2.613,0,0,1-1.16-.537l.01.01a.876.876,0,1,0-1.238,1.24,4.658,4.658,0,0,0,3.248,1.132A4.654,4.654,0,0,0,32.4,49.915a.876.876,0,1,0-1.239-1.239,2.645,2.645,0,0,1-1.117.519c.015-.529.043-1.149.087-1.815a4.2,4.2,0,0,0,1.525-.725,6.968,6.968,0,0,1,2.744-.865A5.832,5.832,0,0,1,38.9,47.813a7.625,7.625,0,0,1,1.547,6.136L39.9,57.626A17.7,17.7,0,0,1,37.852,63.674Zm23.364-2.212A19.985,19.985,0,0,1,39.137,64.94c.085-.134.167-.272.246-.412q.323-.579.606-1.18a17.811,17.811,0,0,0,7.568,1.719,18.1,18.1,0,0,0,11.981-4.63,16.065,16.065,0,0,0,5.409-9.389H66.8A16.18,16.18,0,0,1,61.216,61.462Z" fill="#5f6e62"/>
      <circle id="Elipse_11699" data-name="Elipse 11699" cx="0.876" cy="0.876" r="0.876" transform="translate(58.071 52.801)" fill="#5f6e62"/>
      <circle id="Elipse_11700" data-name="Elipse 11700" cx="0.876" cy="0.876" r="0.876" transform="translate(53.69 57.182)" fill="#5f6e62"/>
      <circle id="Elipse_11701" data-name="Elipse 11701" cx="0.876" cy="0.876" r="0.876" transform="translate(49.309 54.553)" fill="#5f6e62"/>
      <circle id="Elipse_11702" data-name="Elipse 11702" cx="0.876" cy="0.876" r="0.876" transform="translate(44.051 54.553)" fill="#5f6e62"/>
      <circle id="Elipse_11703" data-name="Elipse 11703" cx="0.876" cy="0.876" r="0.876" transform="translate(46.68 59.81)" fill="#5f6e62"/>
    </g>
  </g>
</svg>
