<svg id="Grupo_1099636" data-name="Grupo 1099636" xmlns="http://www.w3.org/2000/svg" width="45.335" height="57.814" viewBox="0 0 45.335 57.814">
  <g id="Grupo_1099634" data-name="Grupo 1099634" transform="translate(1.132 1.132)">
    <g id="Grupo_1099632" data-name="Grupo 1099632">
      <path id="Trazado_874299" data-name="Trazado 874299" d="M104.692,42.4A19.923,19.923,0,1,1,69,33.807v0L85.033,10,95.309,25.254" transform="translate(-65.111 -10)" fill="#a3e0fb"/>
    </g>
    <g id="Grupo_1099633" data-name="Grupo 1099633" transform="translate(25.24 9.377)">
      <path id="Trazado_874300" data-name="Trazado 874300" d="M288.068,108.776a8.875,8.875,0,0,1,1.738-5.291h0l7.176-10.653,7.176,10.653h0a8.916,8.916,0,1,1-16.092,5.291Z" transform="translate(-288.068 -92.831)" fill="#4696e6"/>
    </g>
  </g>
  <g id="Grupo_1099635" data-name="Grupo 1099635" transform="translate(0 0)">
    <path id="Trazado_874301" data-name="Trazado 874301" d="M108.478,264.421a13.273,13.273,0,0,1-6.736-20.544,1.153,1.153,0,0,0,.1-.168,1.132,1.132,0,0,0-1.936-1.161,15.536,15.536,0,0,0,.069,18.495,15.662,15.662,0,0,0,7.828,5.54,1.132,1.132,0,1,0,.672-2.162Z" transform="translate(-92.161 -214.667)"/>
    <path id="Trazado_874302" data-name="Trazado 874302" d="M100.446,26.454A9.968,9.968,0,0,0,98.5,20.515L91.338,9.877a1.132,1.132,0,0,0-1.878,0L86.44,14.36,77.1.5a1.132,1.132,0,0,0-1.878,0L59.2,24.292A21.054,21.054,0,1,0,97.218,36.76a21.251,21.251,0,0,0-.182-2.769A10.026,10.026,0,0,0,100.446,26.454ZM90.4,12.536l6.227,9.244q.019.029.039.057a7.783,7.783,0,1,1-12.532,0c.013-.018.026-.036.038-.055l3.206-4.76L87.395,17ZM94.954,36.76A18.79,18.79,0,1,1,61.039,25.611c.014-.018.027-.038.04-.058l15.086-22.4,8.911,13.228-2.782,4.129A10.046,10.046,0,0,0,94.907,35.432q.046.662.047,1.328Z" transform="translate(-55.111 0)"/>
    <path id="Trazado_874303" data-name="Trazado 874303" d="M313.825,206.444a3.848,3.848,0,0,1,.332-1.573,1.132,1.132,0,0,0-2.069-.92,6.148,6.148,0,0,0,2.2,7.6,1.132,1.132,0,0,0,1.259-1.882A3.876,3.876,0,0,1,313.825,206.444Z" transform="translate(-282.529 -180.265)"/>
    <path id="Trazado_874304" data-name="Trazado 874304" d="M219.309,447.907a1.132,1.132,0,1,0-1.267,1.543A1.141,1.141,0,0,0,219.309,447.907Z" transform="translate(-198.792 -396.585)"/>
    <path id="Trazado_874305" data-name="Trazado 874305" d="M357.66,269.233a1.132,1.132,0,1,0,0-1.883A1.137,1.137,0,0,0,357.66,269.233Z" transform="translate(-322.969 -236.915)"/>
  </g>
</svg>
