<svg xmlns="http://www.w3.org/2000/svg" width="57.653" height="57.963" viewBox="0 0 57.653 57.963">
  <g id="Grupo_1099640" data-name="Grupo 1099640" transform="translate(0 0)">
    <g id="Grupo_1099638" data-name="Grupo 1099638" transform="translate(0.848 0.849)">
      <g id="Grupo_1099637" data-name="Grupo 1099637">
        <path id="Trazado_874306" data-name="Trazado 874306" d="M87.032,62.386c0,13.612-10.491,24.458-24.1,24.458-3.713,0-7.235-.087-10.393-1.558A24.651,24.651,0,1,1,86.468,55.6C87.188,57.916,87.032,59.833,87.032,62.386Z" transform="translate(-34.951 -34.797)" fill="#d8ecfe"/>
        <path id="Trazado_874307" data-name="Trazado 874307" d="M197.447,164.206a28.291,28.291,0,0,1,.457,5.071,30.45,30.45,0,0,1-1.031,7.568,28.407,28.407,0,0,1-9.241,14.977,22.455,22.455,0,0,1-3.762,2.471,30.277,30.277,0,0,1-14.1,3.116,27.593,27.593,0,0,1-5.007-.427,24.248,24.248,0,0,0,10.329,2.264,24.655,24.655,0,0,0,22.354-35.04Z" transform="translate(-147.115 -146.465)" fill="#c4e2ff"/>
        <ellipse id="Elipse_11673" data-name="Elipse 11673" cx="16.186" cy="16.186" rx="16.186" ry="16.186" transform="translate(11.792 11.946)" fill="#eaf6ff"/>
        <path id="Trazado_874308" data-name="Trazado 874308" d="M28.527,67.039,21.243,54.422a.674.674,0,0,0-.98-.209,28.106,28.106,0,0,0-11.4,19.739.674.674,0,0,0,.671.744H24.1a.675.675,0,0,0,.657-.528,12.377,12.377,0,0,1,3.638-6.3A.676.676,0,0,0,28.527,67.039Z" transform="translate(-8.862 -48.811)" fill="#fe93bb"/>
        <path id="Trazado_874309" data-name="Trazado 874309" d="M163.576,23.241a12.38,12.38,0,0,1,3.636.543.676.676,0,0,0,.786-.305l7.285-12.619a.674.674,0,0,0-.308-.953,28.2,28.2,0,0,0-22.8,0,.674.674,0,0,0-.308.953l7.285,12.619a.676.676,0,0,0,.786.305,12.38,12.38,0,0,1,3.636-.543Z" transform="translate(-135.599 -7.5)" fill="#ade194"/>
        <path id="Trazado_874310" data-name="Trazado 874310" d="M333.144,74.7h9.907l4.33-.238a.675.675,0,0,0,.671-.744c-.834-7.892-5.314-14.289-10.588-19.142a5.327,5.327,0,0,0-.48-.359.674.674,0,0,0-.98.209L328.72,67.039a.676.676,0,0,0,.128.833,12.376,12.376,0,0,1,3.638,6.3A.676.676,0,0,0,333.144,74.7Z" transform="translate(-292.43 -48.811)" fill="#8ac9fe"/>
        <path id="Trazado_874311" data-name="Trazado 874311" d="M328.722,283.5l4.226,7.32,3.158,4.626a.674.674,0,0,0,.98.209A25.887,25.887,0,0,0,348,276.752a.674.674,0,0,0-.671-.744l-5.144-.162h-9.044a.675.675,0,0,0-.657.528,12.377,12.377,0,0,1-3.638,6.3A.676.676,0,0,0,328.722,283.5Z" transform="translate(-292.432 -245.468)" fill="#fe93bb"/>
        <path id="Trazado_874312" data-name="Trazado 874312" d="M24.1,275.846H9.537a.674.674,0,0,0-.671.744,28.106,28.106,0,0,0,11.4,19.739.674.674,0,0,0,.98-.209L28.527,283.5a.676.676,0,0,0-.128-.833,12.377,12.377,0,0,1-3.638-6.3A.676.676,0,0,0,24.1,275.846Z" transform="translate(-8.862 -245.467)" fill="#8ac9fe"/>
        <path id="Trazado_874313" data-name="Trazado 874313" d="M168.31,360.964a12.379,12.379,0,0,1-3.636-.543.676.676,0,0,0-.786.305l-5.906,10.23-.775,2.264a.674.674,0,0,0,.308.953,25.044,25.044,0,0,0,10.8,2.055,25.322,25.322,0,0,0,10.832-2.268.674.674,0,0,0,.308-.953l-2.363-4.739-4.354-7.542a.676.676,0,0,0-.786-.305A12.377,12.377,0,0,1,168.31,360.964Z" transform="translate(-140.332 -320.44)" fill="#ade194"/>
        <path id="Trazado_874314" data-name="Trazado 874314" d="M417.581,77.774a28.1,28.1,0,0,0-10.918-19.38,28.008,28.008,0,0,1,5.755,17.049,28.406,28.406,0,0,1-.182,3.075h4.674A.675.675,0,0,0,417.581,77.774Z" transform="translate(-361.629 -52.632)" fill="#60b7ff"/>
        <path id="Trazado_874315" data-name="Trazado 874315" d="M172.354,429.974a23.184,23.184,0,0,1-6.946,2.471c-.28.055-.562.436-.845.483s-.568-.238-.853-.2q-.964.135-1.944.217c-.321.027-.643.38-.966.4s-.646-.3-.97-.284q-.785.028-1.573.028a28.406,28.406,0,0,1-5.007-.428l-1.379,2.389a.674.674,0,0,0,.308.953,28.2,28.2,0,0,0,22.8,0,.674.674,0,0,0,.308-.953Z" transform="translate(-135.599 -382.146)" fill="#97da7b"/>
        <path id="Trazado_874316" data-name="Trazado 874316" d="M381.52,275.846H376c-.317,1.138-.638,2.177-.981,3.164-.384,1.106-.476,1.962-.942,3-.288.645-.72,1.072-1.014,1.66-.08.16-.337.623-.62,1.116-.224.39-.256.836-.347.955-.152.2-.5.316-.668.522-.274.332-.572.678-.894,1.031-.189.207-.265.51-.47.722s-.544.342-.768.561a33.532,33.532,0,0,1-2.537,2.244l3.058,5.3a.674.674,0,0,0,.98.209,28.106,28.106,0,0,0,11.4-19.739A.674.674,0,0,0,381.52,275.846Z" transform="translate(-326.239 -245.467)" fill="#fe76a8"/>
      </g>
    </g>
    <g id="Grupo_1099639" data-name="Grupo 1099639" transform="translate(0 0)">
      <path id="Trazado_874317" data-name="Trazado 874317" d="M58.627,30.884a1.527,1.527,0,0,0-1.133-.5H55.648c.025-.465.039-.933.039-1.4s-.014-.933-.039-1.4h1.846A1.522,1.522,0,0,0,59.009,25.9,29.025,29.025,0,0,0,47.267,5.565a1.524,1.524,0,0,0-2.215.472l-.921,1.6a25.567,25.567,0,0,0-2.42-1.4l.922-1.6a1.523,1.523,0,0,0-.7-2.155A28.833,28.833,0,0,0,37.31.883a.849.849,0,0,0-.415,1.647,27.143,27.143,0,0,1,4.172,1.423l-7.118,12.33a13.289,13.289,0,0,0-7.514,0L19.315,3.953A27.08,27.08,0,0,1,30.191,1.7a27.753,27.753,0,0,1,2.908.153A.849.849,0,0,0,33.278.162,29.434,29.434,0,0,0,30.191,0,28.769,28.769,0,0,0,18.447,2.479a1.524,1.524,0,0,0-.7,2.154l.923,1.6a25.605,25.605,0,0,0-2.42,1.4l-.921-1.6a1.524,1.524,0,0,0-2.216-.47A29.132,29.132,0,0,0,3.864,16.851a.849.849,0,1,0,1.542.712,27.428,27.428,0,0,1,8.55-10.509l7.117,12.328a13.174,13.174,0,0,0-3.758,6.5H3.083a27.212,27.212,0,0,1,.963-4.722.849.849,0,1,0-1.627-.486A28.9,28.9,0,0,0,1.373,25.9a1.522,1.522,0,0,0,1.514,1.685H4.733c-.025.465-.039.933-.039,1.4s.014.933.039,1.4H2.887a1.522,1.522,0,0,0-1.515,1.682A29.025,29.025,0,0,0,13.114,52.4a1.524,1.524,0,0,0,2.215-.472l.921-1.6a25.56,25.56,0,0,0,2.42,1.4l-.923,1.6a1.523,1.523,0,0,0,.7,2.153,29.049,29.049,0,0,0,23.489,0,1.523,1.523,0,0,0,.7-2.153l-.923-1.6a25.524,25.524,0,0,0,2.419-1.4l.921,1.6a1.523,1.523,0,0,0,2.216.47A29.022,29.022,0,0,0,59.009,32.061a1.522,1.522,0,0,0-.382-1.177Zm-12.2-23.83A27.326,27.326,0,0,1,57.3,25.885H52.5a.849.849,0,0,0,0,1.7h1.448c.027.465.042.933.042,1.4s-.014.933-.041,1.4H47.167c.038-.464.059-.932.059-1.4s-.021-.933-.059-1.4h1.37a.849.849,0,0,0,0-1.7h-5.47a13.173,13.173,0,0,0-3.758-6.5ZM40.861,7.7a23.874,23.874,0,0,1,2.42,1.4L39.89,14.978a17.045,17.045,0,0,0-2.42-1.4Zm-20.37,7.273L17.1,9.1A23.886,23.886,0,0,1,19.52,7.7l3.391,5.874a17.024,17.024,0,0,0-2.42,1.4ZM14.918,27.583h2.537A1.516,1.516,0,0,0,18.939,26.4a11.49,11.49,0,0,1,3.391-5.865,1.518,1.518,0,0,0,.283-1.878l-1.27-2.2a15.32,15.32,0,0,1,2.42-1.4l1.27,2.2a1.517,1.517,0,0,0,1.316.761,1.546,1.546,0,0,0,.454-.069,11.589,11.589,0,0,1,6.775,0,1.52,1.52,0,0,0,1.771-.693l1.27-2.2a15.338,15.338,0,0,1,2.419,1.4l-1.269,2.2a1.52,1.52,0,0,0,.284,1.881A11.485,11.485,0,0,1,41.442,26.4a1.517,1.517,0,0,0,1.484,1.188h2.537c.042.464.065.932.065,1.4s-.022.934-.064,1.4H42.926a1.518,1.518,0,0,0-1.485,1.187,11.484,11.484,0,0,1-3.389,5.864,1.519,1.519,0,0,0-.285,1.879h0l1.27,2.2a15.321,15.321,0,0,1-2.419,1.4l-1.27-2.2a1.519,1.519,0,0,0-1.771-.692,11.6,11.6,0,0,1-6.775,0,1.52,1.52,0,0,0-1.77.693l-1.27,2.2a15.343,15.343,0,0,1-2.42-1.4l1.269-2.2a1.52,1.52,0,0,0-.284-1.881,11.485,11.485,0,0,1-3.389-5.863,1.517,1.517,0,0,0-1.484-1.188H14.917c-.042-.464-.064-.932-.064-1.4s.023-.934.065-1.4Zm-8.484,0h6.781c-.038.465-.059.932-.059,1.4s.021.934.059,1.4H6.434c-.027-.465-.042-.933-.042-1.4s.015-.933.042-1.4ZM17.1,48.858l.665-1.151a.849.849,0,0,0-1.471-.849l-2.339,4.051A27.326,27.326,0,0,1,3.083,32.078H17.315a13.173,13.173,0,0,0,3.758,6.5l-2.8,4.846a.849.849,0,1,0,1.471.849l.745-1.291a17.027,17.027,0,0,0,2.42,1.4L19.52,50.258A23.876,23.876,0,0,1,17.1,48.858Zm13.09,7.406A27.075,27.075,0,0,1,19.315,54.01l7.118-12.33a13.3,13.3,0,0,0,7.514,0l7.118,12.33a27.077,27.077,0,0,1-10.876,2.255Zm10.67-6.006L37.47,44.385a17.031,17.031,0,0,0,2.42-1.4l3.391,5.873a23.883,23.883,0,0,1-2.419,1.4Zm5.564.65L39.308,38.582a13.175,13.175,0,0,0,3.758-6.5H57.3A27.322,27.322,0,0,1,46.425,50.909Z" transform="translate(-1.364 0)"/>
      <path id="Trazado_874318" data-name="Trazado 874318" d="M61.146,133.823a.849.849,0,0,0,.311,1.16l5.629,3.25a.849.849,0,0,0,.849-1.471l-1.383-.8,3.057-.878a.849.849,0,0,0-.469-1.632l-3.834,1.1-.777-3.48a.849.849,0,1,0-1.657.37l.614,2.748-1.18-.681A.849.849,0,0,0,61.146,133.823Z" transform="translate(-54.277 -115.648)"/>
      <path id="Trazado_874319" data-name="Trazado 874319" d="M226.22,395.481a.849.849,0,0,0-.849.849V398.6h-1.145a2.878,2.878,0,1,0,0,5.755h1.995a.849.849,0,0,0,.849-.849V396.33A.849.849,0,0,0,226.22,395.481Zm-.849,7.177h-1.145a1.18,1.18,0,1,1,0-2.358h1.145Z" transform="translate(-196.412 -350.709)"/>
      <path id="Trazado_874320" data-name="Trazado 874320" d="M403.412,302.308l3.992,2.3a.849.849,0,1,0,.849-1.471l-1.811-1.046,3.113-.247a.849.849,0,0,0,.358-1.582l-4.05-2.338a.849.849,0,0,0-.849,1.471l1.684.972-2.9.23a.915.915,0,0,0-.81,1.151.906.906,0,0,0,.426.554Z" transform="translate(-357.491 -264.101)"/>
      <path id="Trazado_874321" data-name="Trazado 874321" d="M374.436,354.284l3.175,1.833A.849.849,0,0,0,378.79,355a2.468,2.468,0,1,0-3.972-2.294.849.849,0,0,0-.383,1.583Zm2.821-1.989a.769.769,0,1,1-.769.769A.769.769,0,0,1,377.257,352.3Z" transform="translate(-331.824 -310.907)"/>
      <path id="Trazado_874322" data-name="Trazado 874322" d="M207.855,41.364a.849.849,0,0,0,.746.445h3.858a.849.849,0,0,0,0-1.7h-2.291l2.912-4.47a.849.849,0,0,0-.711-1.313H208.72a.849.849,0,0,0,0,1.7H210.8L207.89,40.5A.849.849,0,0,0,207.855,41.364Z" transform="translate(-184.387 -30.442)"/>
      <path id="Trazado_874323" data-name="Trazado 874323" d="M269.017,49.558a.848.848,0,0,0-1.416.631v3.923a.849.849,0,1,0,1.7,0V52.219c0-.191.028-1.143.578-1.143.16,0,.458,0,.458,1.075v1.943a.849.849,0,0,0,1.7,0V52.151c0-2.5-1.507-2.773-2.156-2.773A2.132,2.132,0,0,0,269.017,49.558Z" transform="translate(-237.461 -43.754)"/>
      <path id="Trazado_874324" data-name="Trazado 874324" d="M376.549,142.523a.845.845,0,0,0,.424-.114l2.387-1.378.9,1.552a.849.849,0,1,0,1.471-.849l-.9-1.552,1.536-.887,1.01,1.749a.849.849,0,0,0,1.471-.849l-1.434-2.484a.849.849,0,0,0-1.16-.311l-6.129,3.539a.849.849,0,0,0,.425,1.584Z" transform="translate(-333.321 -121.744)"/>
      <path id="Trazado_874325" data-name="Trazado 874325" d="M73.4,343.349a3.182,3.182,0,0,0-.447-.1.849.849,0,0,0-.236,1.682,1.433,1.433,0,0,1,1.042.711,2.017,2.017,0,1,1-3.727,1,.849.849,0,1,0-1.7-.06,3.716,3.716,0,1,0,6.863-1.842A3.157,3.157,0,0,0,73.4,343.349Z" transform="translate(-60.756 -304.386)"/>
      <path id="Trazado_874326" data-name="Trazado 874326" d="M49.076,298.133a2.7,2.7,0,0,0,1.512-4.94.848.848,0,0,0-1.17-1.169l-3.562,2.228a.848.848,0,0,0,.538,1.563,2.706,2.706,0,0,0,2.069,2.249A2.727,2.727,0,0,0,49.076,298.133Zm-1.01-2.7a1.005,1.005,0,1,1,1.005,1.005A1.005,1.005,0,0,1,48.066,295.429Z" transform="translate(-40.466 -258.849)"/>
      <path id="Trazado_874327" data-name="Trazado 874327" d="M191.393,200.25a.849.849,0,0,0,.987-.684l1.75-9.673,2.8,9.507a1.2,1.2,0,0,0,2.312-.011l2.7-9.5,1.856,9.687a.849.849,0,0,0,1.668-.319l-2.258-11.783a1.191,1.191,0,0,0-2.316-.1l-2.817,9.91-2.92-9.921a1.191,1.191,0,0,0-2.314.124l-2.131,11.78A.849.849,0,0,0,191.393,200.25Z" transform="translate(-169.262 -165.39)"/>
    </g>
  </g>
</svg>
