<svg xmlns="http://www.w3.org/2000/svg" width="85" height="115" viewBox="0 0 85 115">
  <g id="Grupo_1099648" data-name="Grupo 1099648" transform="translate(-180.051 -1389)">
    <rect id="Rectángulo_401391" data-name="Rectángulo 401391" width="85" height="115" rx="10" transform="translate(180.051 1389)" fill="#fddbb4"/>
    <g id="Grupo_1099649" data-name="Grupo 1099649" transform="translate(197.639 1414.75)">
      <path id="Trazado_874341" data-name="Trazado 874341" d="M165.839,45.467V14.984a7.484,7.484,0,1,0-14.967,0V45.467a13.02,13.02,0,1,0,14.967,0Zm0,0" transform="translate(-127.311 -6.57)" fill="#d8d8d8"/>
      <path id="Trazado_874342" data-name="Trazado 874342" d="M186.8,95.543a8.992,8.992,0,0,1-3.141-17.417V45.649a3.142,3.142,0,1,1,6.283,0V78.126A8.992,8.992,0,0,1,186.8,95.543Zm0,0" transform="translate(-155.756 -37.235)" fill="#f3e8d7"/>
      <path id="Trazado_874343" data-name="Trazado 874343" d="M183.662,297.594v3.981a8.992,8.992,0,1,0,6.283,0v-3.981Zm0,0" transform="translate(-155.759 -260.684)" fill="#69e6ed"/>
      <path id="Trazado_874344" data-name="Trazado 874344" d="M225.943,301.575v-3.981H219.66v3.981S224,303.59,224,310a9,9,0,0,1-5.1,8.1,8.992,8.992,0,1,0,7.037-16.529Zm0,0" transform="translate(-191.757 -260.684)" fill="#33d8dd"/>
      <path id="Trazado_874345" data-name="Trazado 874345" d="M349.538,167.438h-5.4a.93.93,0,0,0,0,1.86h5.4a.93.93,0,0,0,0-1.86Zm0,0" transform="translate(-300.644 -146.671)"/>
      <path id="Trazado_874346" data-name="Trazado 874346" d="M344.141,108.512h2.45a.93.93,0,1,0,0-1.86h-2.45a.93.93,0,1,0,0,1.86Zm0,0" transform="translate(-300.644 -93.424)"/>
      <path id="Trazado_874347" data-name="Trazado 874347" d="M344.141,47.724h3.319a.93.93,0,0,0,0-1.86h-3.319a.93.93,0,0,0,0,1.86Zm0,0" transform="translate(-300.644 -40.175)"/>
      <path id="Trazado_874348" data-name="Trazado 874348" d="M347.46,289.012h-3.319a.93.93,0,0,0,0,1.86h3.319a.93.93,0,0,0,0-1.86Zm0,0" transform="translate(-300.644 -253.166)"/>
      <path id="Trazado_874349" data-name="Trazado 874349" d="M344.141,230.083h2.45a.93.93,0,0,0,0-1.86h-2.45a.93.93,0,1,0,0,1.86Zm0,0" transform="translate(-300.644 -199.917)"/>
      <path id="Trazado_874350" data-name="Trazado 874350" d="M15.764,55.112c1.539.822,1.631,1.008,2.041,1.008a.931.931,0,0,0,.455-1.742l-1.588-.889,1.168-.478a.93.93,0,0,0-.7-1.722L14.6,52.328l-3.327-1.863L14.6,48.6c2.608,1.044,2.568,1.108,2.888,1.108a.931.931,0,0,0,.353-1.791l-1.167-.478,1.587-.889a.93.93,0,1,0-.909-1.623l-1.587.889.2-1.245a.93.93,0,0,0-1.837-.3l-.439,2.7-3.393,1.9V44.989l2.145-1.7a.93.93,0,1,0-1.157-1.456l-.988.785V40.794a.93.93,0,0,0-1.86,0v1.819l-.987-.785a.93.93,0,1,0-1.157,1.456L8.438,44.99v3.888l-3.392-1.9-.44-2.7a.93.93,0,0,0-1.836.3l.2,1.245-1.588-.889a.93.93,0,1,0-.909,1.623l1.588.889L.9,47.919A.93.93,0,0,0,1.6,49.641L4.136,48.6l3.327,1.863L4.136,52.328,1.6,51.289A.93.93,0,0,0,.9,53.011l1.168.478-1.588.889A.931.931,0,0,0,.931,56.12c.409,0,.5-.187,2.041-1.008l-.2,1.246a.93.93,0,1,0,1.836.3l.44-2.7,3.392-1.9V55.94L6.293,57.645A.93.93,0,1,0,7.45,59.1l.987-.785v1.819a.93.93,0,0,0,1.86,0V58.317c.859.622,1.044.987,1.566.987a.931.931,0,0,0,.579-1.658L10.3,55.94V52.052l3.393,1.9.439,2.7a.93.93,0,0,0,1.837-.3Zm0,0" transform="translate(0 -34.919)"/>
      <path id="Trazado_874351" data-name="Trazado 874351" d="M160.2,38.425V8.414a8.414,8.414,0,1,0-16.828,0v30.01a13.95,13.95,0,1,0,16.828,0Zm-8.414,23.217a12.09,12.09,0,0,1-6.948-21.984.931.931,0,0,0,.395-.761V8.414a6.553,6.553,0,1,1,13.107,0V38.9a.931.931,0,0,0,.395.761,12.09,12.09,0,0,1-6.948,21.984Zm0,0" transform="translate(-120.741)"/>
      <path id="Trazado_874352" data-name="Trazado 874352" d="M184.307,70.934V39.08a4.072,4.072,0,1,0-8.144,0v2.88a.93.93,0,1,0,1.86,0V39.08a2.211,2.211,0,1,1,4.423,0V66.646h-4.423V45.69a.93.93,0,0,0-1.86,0V70.934a9.922,9.922,0,1,0,8.144,0Zm-4.072,17.109a8.061,8.061,0,0,1-2.817-15.615.931.931,0,0,0,.606-.872V68.506h4.422v3.051a.931.931,0,0,0,.606.872,8.061,8.061,0,0,1-2.817,15.615Zm0,0" transform="translate(-149.19 -30.666)"/>
    </g>
  </g>
</svg>
