<svg id="Illustration" xmlns="http://www.w3.org/2000/svg" width="160" height="160.495" viewBox="0 0 160 160.495">
  <g id="Food_allergy_1_" transform="translate(0 0)">
    <ellipse id="Elipse_11587" data-name="Elipse 11587" cx="80" cy="80.248" rx="80" ry="80.248" transform="translate(0)" fill="#f2e6dc"/>
    <g id="Grupo_1099526" data-name="Grupo 1099526" transform="translate(79.964 2.483)">
      <path id="Trazado_873894" data-name="Trazado 873894" d="M1329.615,635.651H1250.17a.193.193,0,0,1-.193-.193V535.21a.193.193,0,0,1,.193-.193h79.445a.193.193,0,0,1,.193.193V635.459A.192.192,0,0,1,1329.615,635.651Zm-79.251-.385h79.059V535.4h-79.059Z" transform="translate(-1249.977 -519.78)" fill="#e2a18d"/>
      <g id="Grupo_1099524" data-name="Grupo 1099524" transform="translate(4.295 20.606)">
        <path id="Trazado_873895" data-name="Trazado 873895" d="M1370.331,686.306H1299.09v-89.9h51.386v18.767l19.854.1Z" transform="translate(-1299.09 -596.41)" fill="#e6d0be"/>
        <g id="Grupo_1099522" data-name="Grupo 1099522" transform="translate(6.848 6.59)">
          <circle id="Elipse_11588" data-name="Elipse 11588" cx="9.918" cy="9.918" r="9.918" fill="#d3bba3"/>
          <path id="Trazado_873896" data-name="Trazado 873896" d="M1425.265,711.146h-5.417V705.73h-3.062v5.416h-5.417v3.062h5.417v5.417h3.062v-5.417h5.417Z" transform="translate(-1408.399 -702.759)" fill="#fff"/>
        </g>
        <path id="Trazado_873897" data-name="Trazado 873897" d="M1708.013,709.018H1676.83V695.772H1696.7l11.308,6.623Z" transform="translate(-1643.796 -687.082)" fill="#f2e6dc"/>
        <rect id="Rectángulo_401395" data-name="Rectángulo 401395" width="31.183" height="4.065" transform="translate(33.034 24.521)" fill="#f2e6dc"/>
        <path id="Trazado_873898" data-name="Trazado 873898" d="M1906.534,615.228H1886.68V596.41Z" transform="translate(-1835.293 -596.41)" fill="#f7f1eb"/>
        <rect id="Rectángulo_401396" data-name="Rectángulo 401396" width="47.796" height="7.375" transform="translate(16.421 35.906)" fill="#f2e6dc"/>
        <rect id="Rectángulo_401397" data-name="Rectángulo 401397" width="47.796" height="6.959" transform="translate(16.421 53.421)" fill="#f2e6dc"/>
        <rect id="Rectángulo_401398" data-name="Rectángulo 401398" width="47.796" height="7.276" transform="translate(16.421 70.693)" fill="#f2e6dc"/>
        <circle id="Elipse_11589" data-name="Elipse 11589" cx="2.585" cy="2.585" r="2.585" transform="translate(6.3 58.517) rotate(-76.714)" fill="#f2e6dc"/>
        <circle id="Elipse_11590" data-name="Elipse 11590" cx="2.585" cy="2.585" r="2.585" transform="translate(6.3 75.211) rotate(-76.714)" fill="#f2e6dc"/>
        <g id="Grupo_1099523" data-name="Grupo 1099523" transform="translate(6.477 36.722)">
          <circle id="Elipse_11591" data-name="Elipse 11591" cx="3.034" cy="3.034" r="3.034" fill="#d87355"/>
          <path id="Trazado_873899" data-name="Trazado 873899" d="M1390.621,1039.444l-1.392-1.5.547-.569.8.853,1.443-1.707.6.509Z" transform="translate(-1387.824 -1034.753)" fill="#fff"/>
        </g>
      </g>
      <g id="Grupo_1099525" data-name="Grupo 1099525" transform="translate(26.321)">
        <path id="Trazado_873900" data-name="Trazado 873900" d="M1602.9,380.621a9.919,9.919,0,1,1,9.919-9.919A9.93,9.93,0,0,1,1602.9,380.621Zm0-19.452a9.533,9.533,0,1,0,9.533,9.533A9.544,9.544,0,0,0,1602.9,361.169Z" transform="translate(-1589.303 -360.783)" fill="#e6d0be"/>
        <path id="Trazado_873901" data-name="Trazado 873901" d="M1625.965,401.477a7.708,7.708,0,1,1,7.709-7.708A7.717,7.717,0,0,1,1625.965,401.477Zm0-15.031a7.323,7.323,0,1,0,7.323,7.323A7.331,7.331,0,0,0,1625.965,386.446Z" transform="translate(-1612.371 -383.849)" fill="#e6d0be"/>
        <rect id="Rectángulo_401399" data-name="Rectángulo 401399" width="27.189" height="12.051" transform="translate(0 12.877)" fill="#d3bba3"/>
      </g>
    </g>
    <g id="Grupo_1099538" data-name="Grupo 1099538" transform="translate(0.044 1.397)">
      <path id="Trazado_873902" data-name="Trazado 873902" d="M846.272,1491.155s2.252-17.446,10.807-27.352h41.427s8.556,10.508,10.357,27.394Z" transform="translate(-801.657 -1366.255)" fill="#efbc73"/>
      <g id="Grupo_1099528" data-name="Grupo 1099528" transform="translate(0 31.161)">
        <path id="Trazado_873903" data-name="Trazado 873903" d="M1417.346,1006.18c9.5,3.407,32.757,9.358,27.371,25.892-3.137,9.631-23.285-2.062-32.933-4.833Q1414.564,1016.709,1417.346,1006.18Z" transform="translate(-1317.714 -979.813)" fill="#e2a18d"/>
        <path id="Trazado_873904" data-name="Trazado 873904" d="M756.6,926.823c3-4.619,10.881-17.154,24.566-7.35a5.911,5.911,0,0,0,1.662.33c8.722-1.267,17.49,4.214,22.907-.514,9.927-8.664,21.747,1.79,25.213,7.168-2.089,6.8-4.178,17.274-6.268,24.079-3.283-.12-1.07-.239-4.352-.358.886,5.119,2.074,12.535,3.461,18.631-20.713-.06-34.546-.168-55.259-.228.169-5.4-.052-13.84,0-20.4-2.365.537-3.917.9-6.364,1.432C760.624,942.75,758.156,933.687,756.6,926.823Z" transform="translate(-719.831 -897.357)" fill="#363e44"/>
        <path id="Trazado_873905" data-name="Trazado 873905" d="M485.257,1059.27c-19.7,8.178-29.312,15.122-25.608,22.325,2.149,4.178,14.863,4.059,30.748-1.57C488.8,1073.477,487.366,1067.15,485.257,1059.27Z" transform="translate(-448.133 -1028.26)" fill="#e2a18d"/>
        <g id="Grupo_1099527" data-name="Grupo 1099527">
          <path id="Trazado_873906" data-name="Trazado 873906" d="M367.342,755.5s0,0,0,0c-4.185-18.844-6.792-32.294-7.761-36.414a7.8,7.8,0,0,0-.765-2.086c-1.809-3.305-5.011-3.094-8.5-5.7-3.957-2.959-4.51-6.866-5.739-6.58-.855.2-1.061,1.731-.31,4.756h0c-.835-2.232-2.1-5.21-3.332-4.745-1.394.613-.319,4.286.44,6.477-.919-2.651-2.2-3.786-2.823-3.355-.98.678-.746,2.9.6,6.356h0c-1.6-2.126-2.3-2.4-2.761-1.889-.835.94.328,3.761,1.739,6.1a15.754,15.754,0,0,0,5.107,5.025h0c1.563,13.5,2.55,22.186,3.589,33.116a3.833,3.833,0,0,0,4.506,3.406A70.45,70.45,0,0,0,367.342,755.5Z" transform="translate(-336.117 -704.682)" fill="#e2a18d"/>
          <path id="Trazado_873907" data-name="Trazado 873907" d="M661.867,1149.364a.193.193,0,0,1-.188-.151c-.923-4.16-1.825-8.3-2.756-12.667a.193.193,0,0,1,.377-.081c.931,4.362,1.832,8.5,2.755,12.664a.193.193,0,0,1-.146.23A.208.208,0,0,1,661.867,1149.364Z" transform="translate(-630.688 -1098.566)" fill="#363e44"/>
          <path id="Trazado_873908" data-name="Trazado 873908" d="M525.466,744.932c-.753-4.831,0-6.733.769-6.828,1.294-.16,3.625,3.7,5.614,10.624C529.976,747.83,527.339,745.831,525.466,744.932Z" transform="translate(-508.622 -735.177)" fill="#e2a18d"/>
          <path id="Trazado_873909" data-name="Trazado 873909" d="M446.1,849.7a.193.193,0,0,1-.19-.164,6.085,6.085,0,0,0-1.495-3.163,6.262,6.262,0,0,0-3.968-1.969.193.193,0,1,1,.037-.384,6.653,6.653,0,0,1,4.216,2.094,6.47,6.47,0,0,1,1.59,3.363.193.193,0,0,1-.161.22A.156.156,0,0,1,446.1,849.7Z" transform="translate(-431.167 -831.836)" fill="#363e44"/>
          <path id="Trazado_873910" data-name="Trazado 873910" d="M431.577,761.493a.192.192,0,0,1-.121-.043,9.844,9.844,0,0,1-2.719-3.487.193.193,0,0,1,.35-.163,9.465,9.465,0,0,0,2.613,3.351.193.193,0,0,1-.122.342Z" transform="translate(-420.62 -753.052)" fill="#363e44"/>
          <path id="Trazado_873911" data-name="Trazado 873911" d="M397.282,777.321a.192.192,0,0,1-.121-.043,9.843,9.843,0,0,1-2.719-3.487.193.193,0,0,1,.349-.163,9.46,9.46,0,0,0,2.613,3.351.193.193,0,0,1-.122.343Z" transform="translate(-389.324 -767.496)" fill="#363e44"/>
          <path id="Trazado_873912" data-name="Trazado 873912" d="M372.161,815.793a.192.192,0,0,1-.122-.043,9.846,9.846,0,0,1-2.719-3.487.193.193,0,1,1,.349-.163,9.46,9.46,0,0,0,2.613,3.351.193.193,0,0,1-.122.342Z" transform="translate(-366.4 -802.604)" fill="#363e44"/>
          <circle id="Elipse_11592" data-name="Elipse 11592" cx="0.829" cy="0.829" r="0.829" transform="translate(15.787 40.205) rotate(-22.5)" fill="#d87355"/>
          <circle id="Elipse_11593" data-name="Elipse 11593" cx="0.829" cy="0.829" r="0.829" transform="translate(18.545 34.136)" fill="#d87355"/>
          <circle id="Elipse_11594" data-name="Elipse 11594" cx="0.829" cy="0.829" r="0.829" transform="translate(11.356 45.472) rotate(-45)" fill="#d87355"/>
          <circle id="Elipse_11595" data-name="Elipse 11595" cx="1.089" cy="1.089" r="1.089" transform="translate(10.494 33.28) rotate(-22.5)" fill="#d87355"/>
          <circle id="Elipse_11596" data-name="Elipse 11596" cx="1.575" cy="1.575" r="1.575" transform="translate(22.609 41.095) rotate(-45)" fill="#d87355"/>
          <circle id="Elipse_11597" data-name="Elipse 11597" cx="1.089" cy="1.089" r="1.089" transform="translate(15.716 25.357) rotate(-80.782)" fill="#d87355"/>
          <circle id="Elipse_11598" data-name="Elipse 11598" cx="1.089" cy="1.089" r="1.089" transform="translate(18.857 48.265) rotate(-45)" fill="#d87355"/>
          <circle id="Elipse_11599" data-name="Elipse 11599" cx="1.089" cy="1.089" r="1.089" transform="translate(21.273 27.994)" fill="#d87355"/>
        </g>
      </g>
      <g id="Grupo_1099536" data-name="Grupo 1099536" transform="translate(57.046)">
        <g id="Grupo_1099534" data-name="Grupo 1099534">
          <g id="Grupo_1099529" data-name="Grupo 1099529">
            <circle id="Elipse_11600" data-name="Elipse 11600" cx="8.673" cy="8.673" r="8.673" transform="translate(0 3.144)" fill="#84524d"/>
            <path id="Trazado_873913" data-name="Trazado 873913" d="M1016.063,387.05a8.924,8.924,0,0,1-2.107-.254,8.817,8.817,0,1,1,2.107.254Zm-.032-17.352a8.506,8.506,0,1,0,2.016.243A8.531,8.531,0,0,0,1016.03,369.7Z" transform="translate(-1005.542 -367.48)" fill="#84524d"/>
            <path id="Trazado_873914" data-name="Trazado 873914" d="M1003.234,366.106a8.928,8.928,0,0,1-2.107-.254,8.817,8.817,0,1,1,2.107.254Zm-.031-17.352a8.507,8.507,0,1,0,2.016.243A8.542,8.542,0,0,0,1003.2,348.754Z" transform="translate(-993.831 -348.368)" fill="#84524d"/>
          </g>
          <g id="Grupo_1099533" data-name="Grupo 1099533" transform="translate(4.926 16.05)">
            <path id="Trazado_873915" data-name="Trazado 873915" d="M1056.528,558.325s-9.017-5.249-10.947-9.55c-3.143-7,3.082-16.882,10.759-16.882s14.562,9.495,11.466,16.519C1065.932,552.662,1056.528,558.325,1056.528,558.325Z" transform="translate(-1044.747 -531.894)" fill="#84524d"/>
            <g id="Grupo_1099532" data-name="Grupo 1099532" transform="translate(0.486 2.153)">
              <rect id="Rectángulo_401400" data-name="Rectángulo 401400" width="10.117" height="17.418" transform="translate(6.158 18.811)" fill="#e2a18d"/>
              <path id="Trazado_873916" data-name="Trazado 873916" d="M1098.461,615.938c0,5.416-3.751,11.129-8.378,11.129s-8.378-5.713-8.378-11.129,3.751-9.806,8.378-9.806S1098.461,610.522,1098.461,615.938Z" transform="translate(-1078.958 -601.793)" fill="#e2a18d"/>
              <path id="Trazado_873917" data-name="Trazado 873917" d="M1126.609,820.809a6.961,6.961,0,0,1-4.818-2.147.193.193,0,1,1,.268-.278,6.585,6.585,0,0,0,4.55,2.039,6.744,6.744,0,0,0,4.884-2.378.193.193,0,0,1,.281.264A7.117,7.117,0,0,1,1126.609,820.809Z" transform="translate(-1115.485 -795.119)" fill="#363e44"/>
              <path id="Trazado_873918" data-name="Trazado 873918" d="M1063.671,564.218c-.735,5.287-4.967,7.426-6.3,11.428a21.053,21.053,0,0,0,.434,13.155c-1.466,0-8.208-16.293-3.843-24.274,2.471-4.518,6.351-5.519,9.4-5.807A14.7,14.7,0,0,1,1063.671,564.218Z" transform="translate(-1052.318 -558.527)" fill="#84524d"/>
              <path id="Trazado_873919" data-name="Trazado 873919" d="M1176.08,564.218c.735,5.287,4.967,7.426,6.3,11.428a21.051,21.051,0,0,1-.434,13.155c1.466,0,8.437-15.467,3.152-24.274a11.57,11.57,0,0,0-9.541-5.807C1175.239,560.031,1175.767,561.965,1176.08,564.218Z" transform="translate(-1164.513 -558.527)" fill="#84524d"/>
              <path id="Trazado_873920" data-name="Trazado 873920" d="M1050.522,570.688a.193.193,0,0,1-.192-.184,15.311,15.311,0,0,1,1.444-8.083c2.587-4.731,6.691-5.637,9.552-5.906a.193.193,0,0,1,.036.384c-2.774.261-6.751,1.137-9.25,5.707a14.941,14.941,0,0,0-1.4,7.879.193.193,0,0,1-.183.2Z" transform="translate(-1050.3 -556.515)" fill="#363e44"/>
              <path id="Trazado_873921" data-name="Trazado 873921" d="M1185.168,564.961a.193.193,0,0,1-.182-.129,12.126,12.126,0,0,0-1.034-2.218,11.41,11.41,0,0,0-9.391-5.714.193.193,0,1,1,.03-.384,11.777,11.777,0,0,1,9.691,5.9,12.526,12.526,0,0,1,1.067,2.289.193.193,0,0,1-.182.257Z" transform="translate(-1163.533 -556.515)" fill="#363e44"/>
              <path id="Trazado_873922" data-name="Trazado 873922" d="M1177.405,734.365a.193.193,0,0,1-.1-.356.963.963,0,0,0,.466-.559.989.989,0,0,0-.142-.648,3.494,3.494,0,0,1-.261-.773,2.982,2.982,0,0,1,.044-1.289.193.193,0,0,1,.375.092,2.6,2.6,0,0,0-.041,1.123,3.119,3.119,0,0,0,.236.691,1.161,1.161,0,0,1-.47,1.688A.191.191,0,0,1,1177.405,734.365Z" transform="translate(-1166.113 -715.37)" fill="#363e44"/>
              <path id="Trazado_873923" data-name="Trazado 873923" d="M1154.389,786.541a.193.193,0,0,1-.189-.156.891.891,0,0,0-.424-.618.929.929,0,0,0-.973.081.193.193,0,0,1-.22-.317,1.316,1.316,0,0,1,1.381-.1,1.275,1.275,0,0,1,.614.88.192.192,0,0,1-.152.226A.181.181,0,0,1,1154.389,786.541Z" transform="translate(-1143.562 -765.274)" fill="#363e44"/>
              <g id="Grupo_1099530" data-name="Grupo 1099530" transform="translate(5.286 12.918)">
                <path id="Trazado_873924" data-name="Trazado 873924" d="M1110.74,706.591a5.113,5.113,0,0,0,1,.9,3.546,3.546,0,0,0,1.629.16,2.634,2.634,0,0,0,2.856-.032,4.683,4.683,0,0,0-.564-.562c-.449-.384-2.168-.292-2.168-.292s-1.2-.738-1.729-.584A4.98,4.98,0,0,0,1110.74,706.591Z" transform="translate(-1110.74 -705.988)" fill="#fff"/>
                <path id="Trazado_873925" data-name="Trazado 873925" d="M1123.018,704.293a4.366,4.366,0,0,1,1.974,1,2.021,2.021,0,0,1-.332.945,4.273,4.273,0,0,1-2.036.166,4.067,4.067,0,0,1-1.554-.679,2,2,0,0,1,.03-1.3A4.2,4.2,0,0,1,1123.018,704.293Z" transform="translate(-1120.079 -704.234)" fill="#363e44"/>
              </g>
              <g id="Grupo_1099531" data-name="Grupo 1099531" transform="translate(12.807 12.97)">
                <path id="Trazado_873926" data-name="Trazado 873926" d="M1202.24,707.313a5.165,5.165,0,0,1-1.143.978c-.394.248-1.5-.067-1.5-.067s-1.317.645-1.849.484a4.976,4.976,0,0,1-1-.418,4.663,4.663,0,0,1,.557-.548,5.03,5.03,0,0,1,2.091-.386s1.311-.622,1.843-.461A4.99,4.99,0,0,1,1202.24,707.313Z" transform="translate(-1196.75 -706.69)" fill="#fff"/>
                <path id="Trazado_873927" data-name="Trazado 873927" d="M1203.09,705.878a4.386,4.386,0,0,1,2-1,4.2,4.2,0,0,1,1.927.151,2,2,0,0,1-.085,1.277c-.017.042-.038.082-.058.123a3.965,3.965,0,0,1-1.407.566,4.2,4.2,0,0,1-1.927-.151A2.015,2.015,0,0,1,1203.09,705.878Z" transform="translate(-1202.536 -704.823)" fill="#363e44"/>
              </g>
            </g>
          </g>
        </g>
        <path id="Trazado_873928" data-name="Trazado 873928" d="M1036.233,957.386H1005.4l2.809-17.584,11.743-1.7,12.826,1.519Z" transform="translate(-1003.915 -886.525)" fill="#e2a18d"/>
        <g id="Grupo_1099535" data-name="Grupo 1099535" transform="translate(3.563 28.237)">
          <circle id="Elipse_11601" data-name="Elipse 11601" cx="0.485" cy="0.485" r="0.485" transform="translate(14.82 9.339)" fill="#d87355"/>
          <path id="Trazado_873929" data-name="Trazado 873929" d="M1173.291,704.409a.485.485,0,1,1-.485-.485A.486.486,0,0,1,1173.291,704.409Z" transform="translate(-1159.8 -701.066)" fill="#d87355"/>
          <circle id="Elipse_11602" data-name="Elipse 11602" cx="0.485" cy="0.485" r="0.485" transform="translate(15.948 21.74)" fill="#d87355"/>
          <circle id="Elipse_11603" data-name="Elipse 11603" cx="0.485" cy="0.485" r="0.485" transform="translate(21.475 29.098)" fill="#d87355"/>
          <path id="Trazado_873930" data-name="Trazado 873930" d="M1203.384,818.374a.407.407,0,1,1-.407-.407A.407.407,0,0,1,1203.384,818.374Z" transform="translate(-1187.405 -805.136)" fill="#d87355"/>
          <path id="Trazado_873931" data-name="Trazado 873931" d="M1133.024,852.748a.407.407,0,1,1-.407-.407A.407.407,0,0,1,1133.024,852.748Z" transform="translate(-1123.198 -836.504)" fill="#d87355"/>
          <path id="Trazado_873932" data-name="Trazado 873932" d="M1152.894,827.505a.407.407,0,1,1-.407-.407A.407.407,0,0,1,1152.894,827.505Z" transform="translate(-1141.33 -813.469)" fill="#d87355"/>
          <path id="Trazado_873933" data-name="Trazado 873933" d="M1124.074,1094.8a.407.407,0,1,1-.407-.407A.407.407,0,0,1,1124.074,1094.8Z" transform="translate(-1115.03 -1057.39)" fill="#d87355"/>
          <path id="Trazado_873934" data-name="Trazado 873934" d="M1171.164,1021.932a.407.407,0,1,1-.407-.407A.407.407,0,0,1,1171.164,1021.932Z" transform="translate(-1158.003 -990.892)" fill="#d87355"/>
          <circle id="Elipse_11604" data-name="Elipse 11604" cx="0.547" cy="0.547" r="0.547" transform="translate(14.938 25.285)" fill="#d87355"/>
          <circle id="Elipse_11605" data-name="Elipse 11605" cx="0.606" cy="0.606" r="0.606" transform="translate(0 35.451)" fill="#d87355"/>
          <path id="Trazado_873935" data-name="Trazado 873935" d="M1125.5,982.725a.407.407,0,1,1-.407-.407A.407.407,0,0,1,1125.5,982.725Z" transform="translate(-1116.335 -955.114)" fill="#d87355"/>
          <path id="Trazado_873936" data-name="Trazado 873936" d="M1152.364,937.072a.407.407,0,1,1-.407-.407A.407.407,0,0,1,1152.364,937.072Z" transform="translate(-1140.847 -913.454)" fill="#d87355"/>
          <circle id="Elipse_11606" data-name="Elipse 11606" cx="0.584" cy="0.584" r="0.584" transform="translate(8.167 7.507)" fill="#d87355"/>
          <circle id="Elipse_11607" data-name="Elipse 11607" cx="0.584" cy="0.584" r="0.584" transform="translate(6.385 9.249)" fill="#d87355"/>
          <path id="Trazado_873937" data-name="Trazado 873937" d="M1181.571,1131.96a.509.509,0,1,1-.509-.509A.509.509,0,0,1,1181.571,1131.96Z" transform="translate(-1167.313 -1091.205)" fill="#d87355"/>
          <path id="Trazado_873938" data-name="Trazado 873938" d="M1304.561,1057.3a.509.509,0,1,1-.509-.509A.509.509,0,0,1,1304.561,1057.3Z" transform="translate(-1279.547 -1023.074)" fill="#d87355"/>
          <path id="Trazado_873939" data-name="Trazado 873939" d="M1186.311,671.759a.509.509,0,1,1-.509-.509A.509.509,0,0,1,1186.311,671.759Z" transform="translate(-1171.639 -671.25)" fill="#d87355"/>
          <path id="Trazado_873940" data-name="Trazado 873940" d="M1072.053,996.436a.812.812,0,1,1,.4-1.077A.812.812,0,0,1,1072.053,996.436Z" transform="translate(-1067.252 -966.582)" fill="#d87355"/>
          <path id="Trazado_873941" data-name="Trazado 873941" d="M1047.8,962.258a.812.812,0,1,1,.4-1.077A.812.812,0,0,1,1047.8,962.258Z" transform="translate(-1045.123 -935.393)" fill="#d87355"/>
          <path id="Trazado_873942" data-name="Trazado 873942" d="M1260.563,952.336a.812.812,0,1,1,.4-1.077A.812.812,0,0,1,1260.563,952.336Z" transform="translate(-1239.276 -926.339)" fill="#d87355"/>
          <path id="Trazado_873943" data-name="Trazado 873943" d="M1107.542,955.741a.662.662,0,1,1,.326-.877A.662.662,0,0,1,1107.542,955.741Z" transform="translate(-1099.833 -929.708)" fill="#d87355"/>
          <circle id="Elipse_11608" data-name="Elipse 11608" cx="0.661" cy="0.661" r="0.661" transform="matrix(0.849, -0.529, 0.529, 0.849, 23.024, 26.974)" fill="#d87355"/>
          <path id="Trazado_873944" data-name="Trazado 873944" d="M1173.421,1091.231a.509.509,0,1,1-.509-.509A.509.509,0,0,1,1173.421,1091.231Z" transform="translate(-1159.876 -1054.038)" fill="#d87355"/>
          <ellipse id="Elipse_11609" data-name="Elipse 11609" cx="0.709" cy="0.709" rx="0.709" ry="0.709" transform="translate(3.056 34.049) rotate(-22.5)" fill="#d87355"/>
          <path id="Trazado_873945" data-name="Trazado 873945" d="M1195.466,866.716a.589.589,0,1,1-.589-.589A.589.589,0,0,1,1195.466,866.716Z" transform="translate(-1179.847 -849.084)" fill="#d87355"/>
          <path id="Trazado_873946" data-name="Trazado 873946" d="M1226.151,1065.361a.509.509,0,1,1-.509-.509A.509.509,0,0,1,1226.151,1065.361Z" transform="translate(-1207.995 -1030.43)" fill="#d87355"/>
          <path id="Trazado_873947" data-name="Trazado 873947" d="M1230.351,1128.291a.509.509,0,1,1-.509-.509A.509.509,0,0,1,1230.351,1128.291Z" transform="translate(-1211.827 -1087.857)" fill="#d87355"/>
          <circle id="Elipse_11610" data-name="Elipse 11610" cx="0.509" cy="0.509" r="0.509" transform="translate(16.903 30.006)" fill="#d87355"/>
          <path id="Trazado_873948" data-name="Trazado 873948" d="M1075.4,1142.881a.509.509,0,1,1-.509-.509A.509.509,0,0,1,1075.4,1142.881Z" transform="translate(-1070.428 -1101.171)" fill="#d87355"/>
          <path id="Trazado_873949" data-name="Trazado 873949" d="M1135.33,891.844a.486.486,0,1,1-.486-.486A.486.486,0,0,1,1135.33,891.844Z" transform="translate(-1125.158 -872.109)" fill="#d87355"/>
          <path id="Trazado_873950" data-name="Trazado 873950" d="M1125.5,800.65a.407.407,0,1,1-.407-.407A.407.407,0,0,1,1125.5,800.65Z" transform="translate(-1116.335 -788.962)" fill="#d87355"/>
          <path id="Trazado_873951" data-name="Trazado 873951" d="M1287.174,1115.392a.407.407,0,1,1-.407-.407A.407.407,0,0,1,1287.174,1115.392Z" transform="translate(-1263.867 -1076.179)" fill="#d87355"/>
          <path id="Trazado_873952" data-name="Trazado 873952" d="M1240.3,760.452a.491.491,0,1,1-.491-.491A.491.491,0,0,1,1240.3,760.452Z" transform="translate(-1220.937 -752.203)" fill="#d87355"/>
          <path id="Trazado_873953" data-name="Trazado 873953" d="M1231,787.383a.491.491,0,1,1-.491-.491A.491.491,0,0,1,1231,787.383Z" transform="translate(-1212.451 -776.779)" fill="#d87355"/>
        </g>
        <rect id="Rectángulo_401401" data-name="Rectángulo 401401" width="11.668" height="1.438" transform="translate(10.565 50.87)" fill="#363e44"/>
      </g>
      <g id="Grupo_1099537" data-name="Grupo 1099537" transform="translate(65.145 55.055)">
        <path id="Trazado_873954" data-name="Trazado 873954" d="M1137.772,994.658c-8.112-2.478-26.927-9.26-28.79-9.848-3.483-1.1-22.326-6.523-23.4-3.889-.515,1.259,3.068,2.468,4.291,2.841-1.136.185-5.578.425-5.77,1.938-.225,1.777,5.112,2.3,5.19,2.362-1.173.071-5.858.166-6.046,1.294-.244,1.468,4.141,2.687,5.471,2.991-.181.149-4.894.425-5.006,1.33-.124,1,3.938,2.237,5.5,2.876,3.094.981,14.911,5.436,20.548,7.873,13.24,5.724,15.3,6.51,22.193,8.152,2.7.643,8.45.192,10.427-1.127a6.315,6.315,0,0,0,1.583-8.246C1141.441,999.444,1140.306,998.456,1137.772,994.658Z" transform="translate(-1083.043 -980.006)" fill="#e2a18d"/>
        <path id="Trazado_873955" data-name="Trazado 873955" d="M1596.886,1105.78a.2.2,0,0,1-.056-.008c-2.367-.723-5.786-1.853-10.451-3.454a.193.193,0,1,1,.125-.365c4.661,1.6,8.076,2.727,10.439,3.449a.193.193,0,0,1-.056.377Z" transform="translate(-1542.066 -1091.095)" fill="#363e44"/>
        <path id="Trazado_873956" data-name="Trazado 873956" d="M1157.092,1018.8a.2.2,0,0,1-.038,0c-1.356-.269-3.274-.515-3.4-.525a.194.194,0,0,1-.178-.205.191.191,0,0,1,.2-.18c.083,0,2.025.25,3.449.532a.193.193,0,0,1-.037.382Z" transform="translate(-1147.144 -1014.39)" fill="#363e44"/>
        <path id="Trazado_873957" data-name="Trazado 873957" d="M1150.947,1068.734h-.016c-.568-.045-1.01-.108-1.523-.181-.332-.047-.7-.1-1.15-.154a.193.193,0,1,1,.046-.383c.456.055.824.107,1.158.155.507.072.944.134,1.5.178a.193.193,0,0,1-.015.385Z" transform="translate(-1142.225 -1060.134)" fill="#363e44"/>
        <path id="Trazado_873958" data-name="Trazado 873958" d="M1087.5,994.813a.192.192,0,0,1-.067-.012c-4.3-1.586-6.011-2.527-5.922-3.25.092-.744,2.036-1.057,4.194-1.336l.068-.009c-1.676-.461-4.963-1.555-4.726-2.984.146-.878,2.15-1.2,4.539-1.362-1.652-.335-3.847-1-3.684-2.287s2.69-1.713,5.081-2c-1.4-.481-3.145-1.237-3.559-2.108a.864.864,0,0,1-.031-.723c.166-.405.67-1.639,9.16-.058,4.49.836,9.728,2.191,12.848,3.1a.193.193,0,0,1-.107.37c-3.112-.9-8.334-2.254-12.811-3.088-7.385-1.375-8.567-.581-8.733-.175a.487.487,0,0,0,.022.412c.315.663,1.865,1.475,4.147,2.171a.193.193,0,0,1-.025.375c-.184.03-.454.061-.766.1-1.526.179-4.7.55-4.843,1.673-.078.612.677,1.471,4.713,2.092.333.051.353.054.4.093a.193.193,0,0,1-.107.345c-.122.007-.283.015-.473.024-3.485.167-5.3.54-5.395,1.109-.183,1.1,3.084,2.259,5.323,2.772a.193.193,0,0,1,.08.336c-.086.071-.241.1-1.076.2-.939.122-3.8.492-3.861,1-.033.267.66.991,5.672,2.841a.193.193,0,0,1-.067.374Z" transform="translate(-1081.037 -977.905)" fill="#363e44"/>
        <ellipse id="Elipse_11611" data-name="Elipse 11611" cx="0.709" cy="0.709" rx="0.709" ry="0.709" transform="translate(20.051 19.507) rotate(-22.5)" fill="#d87355"/>
        <circle id="Elipse_11612" data-name="Elipse 11612" cx="0.709" cy="0.709" r="0.709" transform="translate(51.272 18.591) rotate(-45)" fill="#d87355"/>
        <circle id="Elipse_11613" data-name="Elipse 11613" cx="0.885" cy="0.885" r="0.885" transform="translate(33.008 20.036)" fill="#d87355"/>
        <circle id="Elipse_11614" data-name="Elipse 11614" cx="0.709" cy="0.709" r="0.709" transform="translate(29.339 8.564) rotate(-45)" fill="#d87355"/>
        <circle id="Elipse_11615" data-name="Elipse 11615" cx="0.829" cy="0.829" r="0.829" transform="translate(32.072 14.695) rotate(-76.714)" fill="#d87355"/>
        <circle id="Elipse_11616" data-name="Elipse 11616" cx="0.829" cy="0.829" r="0.829" transform="translate(41.423 24.867) rotate(-76.714)" fill="#d87355"/>
        <circle id="Elipse_11617" data-name="Elipse 11617" cx="1.282" cy="1.282" r="1.282" transform="translate(42.584 18.137) rotate(-45)" fill="#d87355"/>
        <circle id="Elipse_11618" data-name="Elipse 11618" cx="1.282" cy="1.282" r="1.282" transform="translate(25.057 16.547) rotate(-22.5)" fill="#d87355"/>
        <circle id="Elipse_11619" data-name="Elipse 11619" cx="1.282" cy="1.282" r="1.282" transform="translate(21.523 8.37) rotate(-76.714)" fill="#d87355"/>
        <circle id="Elipse_11620" data-name="Elipse 11620" cx="0.829" cy="0.829" r="0.829" transform="translate(16.683 13.418) rotate(-22.5)" fill="#d87355"/>
      </g>
    </g>
    <path id="Trazado_873959" data-name="Trazado 873959" d="M415.3,1624.82a80.052,80.052,0,0,0,145.994,0Z" transform="translate(-408.328 -1511.793)" fill="#e6d0be"/>
    <g id="Grupo_1099555" data-name="Grupo 1099555" transform="translate(7.386 74.439)">
      <g id="Grupo_1099542" data-name="Grupo 1099542" transform="translate(48.964)">
        <g id="Grupo_1099539" data-name="Grupo 1099539">
          <path id="Trazado_873960" data-name="Trazado 873960" d="M1072.248,1458.3a.193.193,0,0,1-.179-.122,6.381,6.381,0,0,1-.307-3.929,3.552,3.552,0,0,1,2.065-2.523,3.053,3.053,0,0,1,.8-.2.193.193,0,1,1,.04.384,2.666,2.666,0,0,0-.7.17,3.178,3.178,0,0,0-1.834,2.263,5.993,5.993,0,0,0,.293,3.689.193.193,0,0,1-.109.25A.2.2,0,0,1,1072.248,1458.3Z" transform="translate(-1063.568 -1428.095)" fill="#363e44"/>
          <path id="Trazado_873961" data-name="Trazado 873961" d="M993.221,1218.7a4.925,4.925,0,0,1-2.612-.816,7.984,7.984,0,0,1-3.065-3.862c-1.144-2.91-.632-6.027,1.209-7.492l-8.552-19.952a2.676,2.676,0,0,1-.075-2.035,1.467,1.467,0,0,1,2.048-.805,2.674,2.674,0,0,1,1.331,1.541l7.324,20.435c2.348-.181,4.844,1.754,5.988,4.663a7.983,7.983,0,0,1,.385,4.915,4.424,4.424,0,0,1-2.57,3.143A3.828,3.828,0,0,1,993.221,1218.7Zm-11.735-34.734a1.02,1.02,0,0,0-.375.07,1.144,1.144,0,0,0-.627.655,2.284,2.284,0,0,0,.073,1.734l8.611,20.09a.193.193,0,0,1-.063.232c-1.8,1.321-2.307,4.321-1.2,7.134a7.6,7.6,0,0,0,2.912,3.677,3.77,3.77,0,0,0,6.014-2.364,7.6,7.6,0,0,0-.371-4.675c-1.106-2.813-3.52-4.666-5.737-4.407a.192.192,0,0,1-.2-.126l-7.374-20.576a2.284,2.284,0,0,0-1.127-1.32A1.287,1.287,0,0,0,981.486,1183.963Z" transform="translate(-979.96 -1183.578)" fill="#efbc73"/>
        </g>
        <g id="Grupo_1099541" data-name="Grupo 1099541" transform="translate(1.068 22.013)">
          <path id="Trazado_873962" data-name="Trazado 873962" d="M1051.306,1446.96l-3.08-4.808-3.035-1.12-1.68.513-2.334-.653-.56-2.38-2.707-.934-2.381.561-1.586-1.541-2.334-.7-1.727.747-.934-1.354-1.961.56-.7,1.681-2.474-.887-2.568.327-.98,1.913-2.66-.234-1.634,1.214-.747,1.68-3.688-1.12-2.334,2.428-.467,1.774-2.614.747-.84,2.708,17.365,1.773,21.566-.653Z" transform="translate(-1004.133 -1435.29)" fill="#fff"/>
          <g id="Grupo_1099540" data-name="Grupo 1099540" transform="translate(0 12.02)">
            <path id="Trazado_873963" data-name="Trazado 873963" d="M1003.1,1586.415h25.035a24.683,24.683,0,0,0,10.929-13.677H992.169A24.685,24.685,0,0,0,1003.1,1586.415Z" transform="translate(-992.169 -1572.738)" fill="#8b865c"/>
            <path id="Trazado_873964" data-name="Trazado 873964" d="M1082.03,1673.218a.193.193,0,0,1-.129-.05,25.047,25.047,0,0,1-2-2.019.193.193,0,0,1,.289-.255,24.653,24.653,0,0,0,1.97,1.988.193.193,0,0,1-.129.336Z" transform="translate(-1072.184 -1662.25)" fill="#fff"/>
            <path id="Trazado_873965" data-name="Trazado 873965" d="M1032.985,1595a.192.192,0,0,1-.15-.072,24.759,24.759,0,0,1-3.75-6.42.193.193,0,0,1,.359-.142,24.37,24.37,0,0,0,3.691,6.32.193.193,0,0,1-.029.271A.19.19,0,0,1,1032.985,1595Z" transform="translate(-1025.844 -1586.89)" fill="#fff"/>
            <rect id="Rectángulo_401402" data-name="Rectángulo 401402" width="25.487" height="3.437" transform="translate(10.95 12.719)" fill="#8b865c"/>
          </g>
          <path id="Trazado_873966" data-name="Trazado 873966" d="M1146.265,1726.686h-17.738a.193.193,0,1,1,0-.385h17.738a.193.193,0,1,1,0,.385Z" transform="translate(-1116.426 -1700.85)" fill="#363e44"/>
        </g>
      </g>
      <g id="Grupo_1099543" data-name="Grupo 1099543" transform="translate(83.483 31.184)">
        <path id="Trazado_873967" data-name="Trazado 873967" d="M1442.921,1550.958c1.285,6.854-13.642,11.481-32.465,15.011s-34.413,4.625-35.7-2.229,12.221-19.062,31.044-22.591S1441.636,1544.1,1442.921,1550.958Z" transform="translate(-1374.674 -1540.154)" fill="#efbc73"/>
        <path id="Trazado_873968" data-name="Trazado 873968" d="M1506.906,1613.518c4.518,3.124,5.788,7.2,6.57,6.864.907-.392.5-6.436-3.442-10.177a11.662,11.662,0,0,0-4.8-2.7,50.777,50.777,0,0,0-5.43,3.095A18.631,18.631,0,0,1,1506.906,1613.518Z" transform="translate(-1488.858 -1601.613)" fill="#e0aa63"/>
        <path id="Trazado_873969" data-name="Trazado 873969" d="M1677.918,1562.215c1.03-.129,2.148-5.452.139-10.167a13.242,13.242,0,0,0-2.822-4.147q-.926.143-1.859.317c-1.885.354-3.717.8-5.486,1.309a17.929,17.929,0,0,1,4.636,3.474C1676.74,1557.415,1676.911,1562.34,1677.918,1562.215Z" transform="translate(-1642.247 -1547.223)" fill="#e0aa63"/>
        <path id="Trazado_873970" data-name="Trazado 873970" d="M1865.085,1543.628c3.679,5.137,3.529,10.083,4.61,10.043,1.039-.038,2.345-4.647,1.456-9.05a14.089,14.089,0,0,0-1.316-3.713,54.02,54.02,0,0,0-7.813-.672A20.527,20.527,0,0,1,1865.085,1543.628Z" transform="translate(-1819.402 -1540.23)" fill="#e0aa63"/>
        <path id="Trazado_873971" data-name="Trazado 873971" d="M1632.631,1593.284c.026.136-.161.286-.417.334s-.484-.024-.509-.16.161-.286.417-.334S1632.606,1593.149,1632.631,1593.284Z" transform="translate(-1609.225 -1588.478)" fill="#ffd092"/>
        <path id="Trazado_873972" data-name="Trazado 873972" d="M1663.942,1630.292c.128.053.153.29.054.531s-.282.394-.411.341-.153-.29-.054-.531S1663.814,1630.24,1663.942,1630.292Z" transform="translate(-1638.214 -1622.4)" fill="#ffd092"/>
        <path id="Trazado_873973" data-name="Trazado 873973" d="M1643,1607.473c.089.106,0,.328-.2.5s-.433.217-.522.11,0-.328.2-.5S1642.916,1607.366,1643,1607.473Z" transform="translate(-1618.848 -1601.535)" fill="#ffd092"/>
        <path id="Trazado_873974" data-name="Trazado 873974" d="M1689.267,1625.789c.138-.017.275.178.308.437s-.053.481-.191.5-.276-.178-.308-.436S1689.13,1625.807,1689.267,1625.789Z" transform="translate(-1661.575 -1618.299)" fill="#ffd092"/>
        <path id="Trazado_873975" data-name="Trazado 873975" d="M1670.595,1670.778c.109-.086.328.009.49.213s.2.439.1.525-.328-.009-.49-.213S1670.486,1670.864,1670.595,1670.778Z" transform="translate(-1644.661 -1659.325)" fill="#ffd092"/>
        <path id="Trazado_873976" data-name="Trazado 873976" d="M1678.562,1656.281c.052-.129.29-.153.531-.055s.394.282.341.411-.29.153-.531.055S1678.51,1656.409,1678.562,1656.281Z" transform="translate(-1651.977 -1646.02)" fill="#ffd092"/>
        <path id="Trazado_873977" data-name="Trazado 873977" d="M1675.208,1607.081c-.079-.114.029-.327.242-.476s.451-.178.53-.064-.029.327-.242.476S1675.287,1607.2,1675.208,1607.081Z" transform="translate(-1648.901 -1600.672)" fill="#ffd092"/>
        <path id="Trazado_873978" data-name="Trazado 873978" d="M1736.514,1669.108c-.138.014-.271-.185-.3-.444s.066-.48.2-.494.271.185.3.444S1736.652,1669.094,1736.514,1669.108Z" transform="translate(-1704.595 -1656.974)" fill="#ffd092"/>
        <path id="Trazado_873979" data-name="Trazado 873979" d="M1715.577,1685.131c-.114.08-.327-.029-.476-.242s-.178-.451-.064-.53.327.029.476.242S1715.691,1685.052,1715.577,1685.131Z" transform="translate(-1685.208 -1671.724)" fill="#ffd092"/>
        <path id="Trazado_873980" data-name="Trazado 873980" d="M1709.413,1638.926c-.056.127-.294.145-.532.041s-.386-.292-.331-.419.294-.145.532-.041S1709.469,1638.8,1709.413,1638.926Z" transform="translate(-1679.341 -1629.844)" fill="#ffd092"/>
        <path id="Trazado_873981" data-name="Trazado 873981" d="M1708.538,1657.361c.014.138-.185.271-.444.3s-.48-.065-.494-.2.185-.271.444-.3S1708.525,1657.223,1708.538,1657.361Z" transform="translate(-1678.485 -1646.922)" fill="#ffd092"/>
        <path id="Trazado_873982" data-name="Trazado 873982" d="M1736.236,1696.816c.124.063.127.3.008.534s-.315.367-.439.3-.127-.3-.008-.534S1736.112,1696.752,1736.236,1696.816Z" transform="translate(-1704.136 -1683.101)" fill="#ffd092"/>
        <path id="Trazado_873983" data-name="Trazado 873983" d="M1676.372,1708.483c.128.052.153.29.054.531s-.282.394-.411.341-.153-.29-.054-.531S1676.243,1708.43,1676.372,1708.483Z" transform="translate(-1649.557 -1693.752)" fill="#ffd092"/>
        <path id="Trazado_873984" data-name="Trazado 873984" d="M1701.7,1703.989c.138-.017.276.178.308.436s-.053.481-.191.5-.275-.178-.308-.437S1701.56,1704.005,1701.7,1703.989Z" transform="translate(-1672.917 -1689.66)" fill="#ffd092"/>
        <path id="Trazado_873985" data-name="Trazado 873985" d="M1683.025,1748.968c.109-.086.328.009.49.213s.2.439.1.525-.328-.009-.49-.213S1682.917,1749.054,1683.025,1748.968Z" transform="translate(-1656.004 -1730.677)" fill="#ffd092"/>
        <path id="Trazado_873986" data-name="Trazado 873986" d="M1690.985,1734.48c.052-.129.29-.153.531-.055s.394.282.341.411-.29.153-.531.055S1690.933,1734.608,1690.985,1734.48Z" transform="translate(-1663.314 -1717.381)" fill="#ffd092"/>
        <path id="Trazado_873987" data-name="Trazado 873987" d="M1687.638,1685.281c-.079-.114.029-.327.242-.476s.451-.178.53-.064-.029.327-.242.476S1687.718,1685.395,1687.638,1685.281Z" transform="translate(-1660.245 -1672.033)" fill="#ffd092"/>
        <path id="Trazado_873988" data-name="Trazado 873988" d="M1836.882,1677.4c.086-.109-.01-.328-.215-.489s-.44-.2-.526-.094.01.328.215.489S1836.8,1677.508,1836.882,1677.4Z" transform="translate(-1795.756 -1664.81)" fill="#ffd092"/>
        <path id="Trazado_873989" data-name="Trazado 873989" d="M1861.793,1667.814c.128-.053.152-.291.052-.531s-.284-.392-.412-.339-.151.291-.052.531S1861.666,1667.866,1861.793,1667.814Z" transform="translate(-1818.761 -1655.845)" fill="#ffd092"/>
        <path id="Trazado_873990" data-name="Trazado 873990" d="M1824.936,1637.807c.137.021.281-.17.321-.427s-.038-.483-.176-.5-.281.17-.321.427S1824.8,1637.786,1824.936,1637.807Z" transform="translate(-1785.39 -1628.416)" fill="#ffd092"/>
        <path id="Trazado_873991" data-name="Trazado 873991" d="M1839.451,1647.666c.109.086.328-.01.489-.215s.2-.44.094-.526-.328.011-.489.215S1839.343,1647.58,1839.451,1647.666Z" transform="translate(-1798.75 -1637.56)" fill="#ffd092"/>
        <path id="Trazado_873992" data-name="Trazado 873992" d="M1859.054,1693.389c-.013.138.186.27.446.294s.48-.068.493-.206-.186-.27-.446-.294S1859.067,1693.251,1859.054,1693.389Z" transform="translate(-1816.693 -1679.796)" fill="#ffd092"/>
        <path id="Trazado_873993" data-name="Trazado 873993" d="M1881.418,1606.846c-.127.056-.144.295-.038.533s.294.385.421.328.144-.295.038-.532S1881.545,1606.79,1881.418,1606.846Z" transform="translate(-1837.003 -1601.003)" fill="#ffd092"/>
        <path id="Trazado_873994" data-name="Trazado 873994" d="M1856.827,1603.054c-.138-.013-.27.186-.294.446s.068.479.206.492.27-.186.294-.446S1856.965,1603.067,1856.827,1603.054Z" transform="translate(-1814.389 -1597.552)" fill="#ffd092"/>
        <path id="Trazado_873995" data-name="Trazado 873995" d="M1874.857,1647.438c-.111-.083-.328.019-.483.227s-.192.445-.08.528.328-.019.483-.227S1874.968,1647.521,1874.857,1647.438Z" transform="translate(-1830.541 -1638.029)" fill="#ffd092"/>
        <path id="Trazado_873996" data-name="Trazado 873996" d="M1864.447,1633.216c-.056-.127-.295-.144-.533-.039s-.385.294-.329.421.295.144.533.039S1864.5,1633.343,1864.447,1633.216Z" transform="translate(-1820.818 -1624.979)" fill="#ffd092"/>
        <path id="Trazado_873997" data-name="Trazado 873997" d="M1866.939,1584.063c.076-.116-.039-.326-.256-.469s-.456-.164-.532-.048.039.326.257.468S1866.863,1584.18,1866.939,1584.063Z" transform="translate(-1823.149 -1579.684)" fill="#ffd092"/>
        <path id="Trazado_873998" data-name="Trazado 873998" d="M1809.073,1603.27c.086-.109-.01-.328-.215-.489s-.44-.2-.526-.094.01.328.215.489S1808.987,1603.378,1809.073,1603.27Z" transform="translate(-1770.378 -1597.163)" fill="#ffd092"/>
        <path id="Trazado_873999" data-name="Trazado 873999" d="M1833.983,1593.683c.128-.053.152-.291.052-.531s-.284-.392-.412-.339-.151.291-.052.531S1833.856,1593.736,1833.983,1593.683Z" transform="translate(-1793.383 -1588.198)" fill="#ffd092"/>
        <path id="Trazado_874000" data-name="Trazado 874000" d="M1797.127,1563.677c.137.021.281-.17.321-.427s-.038-.483-.176-.5-.281.17-.321.427S1796.991,1563.656,1797.127,1563.677Z" transform="translate(-1760.013 -1560.768)" fill="#ffd092"/>
        <path id="Trazado_874001" data-name="Trazado 874001" d="M1811.645,1573.537c.109.086.328-.01.489-.215s.2-.44.094-.526-.328.01-.489.215S1811.536,1573.45,1811.645,1573.537Z" transform="translate(-1773.375 -1569.913)" fill="#ffd092"/>
        <path id="Trazado_874002" data-name="Trazado 874002" d="M1831.244,1619.259c-.013.138.186.27.446.294s.48-.068.492-.206-.186-.27-.446-.294S1831.257,1619.121,1831.244,1619.259Z" transform="translate(-1791.315 -1612.149)" fill="#ffd092"/>
      </g>
      <g id="Grupo_1099544" data-name="Grupo 1099544" transform="translate(47.03 62.77)">
        <ellipse id="Elipse_11621" data-name="Elipse 11621" cx="2.534" cy="3.518" rx="2.534" ry="3.518" transform="translate(7.082 7.041) rotate(-69.347)" fill="#e2a18d"/>
        <path id="Trazado_874003" data-name="Trazado 874003" d="M1049.846,1941.818a4.8,4.8,0,0,1-1.685-.316,4.468,4.468,0,0,1-2.158-1.645,2.264,2.264,0,0,1,1.374-3.646,4.731,4.731,0,0,1,4.866,1.834,2.417,2.417,0,0,1,.352,2.215A2.778,2.778,0,0,1,1049.846,1941.818Zm-1.453-5.352a3.524,3.524,0,0,0-.915.117,1.882,1.882,0,0,0-1.153,3.06,4.08,4.08,0,0,0,1.973,1.5c1.715.647,3.481.19,3.937-1.018a2.043,2.043,0,0,0-.312-1.865,4.083,4.083,0,0,0-1.973-1.5A4.438,4.438,0,0,0,1048.392,1936.466Z" transform="translate(-1037.85 -1933.043)" fill="#fff"/>
        <ellipse id="Elipse_11622" data-name="Elipse 11622" cx="2.414" cy="3.351" rx="2.414" ry="3.351" transform="translate(5.718 7.804) rotate(-51.109)" fill="#e2a18d"/>
        <path id="Trazado_874004" data-name="Trazado 874004" d="M1037.939,1964.724a4.2,4.2,0,0,1-2.573-.981,4.268,4.268,0,0,1-1.466-2.137,2.166,2.166,0,0,1,2.34-2.9,4.516,4.516,0,0,1,3.864,3.117,2.312,2.312,0,0,1-.343,2.117A2.273,2.273,0,0,1,1037.939,1964.724Zm-1.876-5.638a1.885,1.885,0,0,0-1.519.645,1.938,1.938,0,0,0-.272,1.773,3.879,3.879,0,0,0,1.336,1.939c1.355,1.093,3.084,1.208,3.853.254a1.938,1.938,0,0,0,.272-1.773,4.134,4.134,0,0,0-3.513-2.834C1036.167,1959.088,1036.114,1959.086,1036.064,1959.086Z" transform="translate(-1027.149 -1953.684)" fill="#fff"/>
        <ellipse id="Elipse_11623" data-name="Elipse 11623" cx="2.273" cy="3.156" rx="2.273" ry="3.156" transform="translate(4.227 7.573) rotate(-26.301)" fill="#e2a18d"/>
        <path id="Trazado_874005" data-name="Trazado 874005" d="M1018.331,1978.457a3.462,3.462,0,0,1-2.852-2.1,4.029,4.029,0,0,1-.409-2.413,2.051,2.051,0,0,1,3.163-1.563,4.029,4.029,0,0,1,1.669,1.791c.818,1.655.492,3.492-.727,4.1A1.889,1.889,0,0,1,1018.331,1978.457Zm-1.273-6.007a1.523,1.523,0,0,0-.68.155,1.815,1.815,0,0,0-.927,1.4,3.642,3.642,0,0,0,.375,2.178c.724,1.465,2.15,2.243,3.178,1.734s1.276-2.114.552-3.578a3.644,3.644,0,0,0-1.5-1.621A2.138,2.138,0,0,0,1017.058,1972.449Z" transform="translate(-1010.024 -1965.878)" fill="#fff"/>
        <ellipse id="Elipse_11624" data-name="Elipse 11624" cx="1.962" cy="2.724" rx="1.962" ry="2.724" transform="translate(3.333 6.904) rotate(-3.779)" fill="#e2a18d"/>
        <path id="Trazado_874006" data-name="Trazado 874006" d="M997.909,1982.484c-1.141,0-2.133-1.215-2.236-2.772-.106-1.6.772-2.974,1.958-3.052s2.236,1.164,2.342,2.768-.773,2.974-1.958,3.052C997.979,1982.482,997.944,1982.484,997.909,1982.484Zm-1.852-2.8c.092,1.392.957,2.473,1.932,2.409s1.69-1.249,1.6-2.642-.959-2.475-1.932-2.409S995.966,1978.294,996.057,1979.686Z" transform="translate(-992.356 -1970.07)" fill="#fff"/>
        <ellipse id="Elipse_11625" data-name="Elipse 11625" cx="2.323" cy="1.673" rx="2.323" ry="1.673" transform="translate(1.588 10.893) rotate(-82.305)" fill="#e2a18d"/>
        <path id="Trazado_874007" data-name="Trazado 874007" d="M978.755,1978.55a1.455,1.455,0,0,1-.192-.013c-1.019-.138-1.7-1.368-1.512-2.742s1.166-2.381,2.186-2.243,1.7,1.368,1.512,2.743a3.019,3.019,0,0,1-.757,1.669A1.714,1.714,0,0,1,978.755,1978.55Zm-1.322-2.7c-.157,1.164.373,2.2,1.181,2.309a1.284,1.284,0,0,0,1.1-.458,2.629,2.629,0,0,0,.654-1.455c.157-1.164-.373-2.2-1.181-2.309S977.59,1974.683,977.433,1975.847Z" transform="translate(-975.343 -1967.225)" fill="#fff"/>
        <ellipse id="Elipse_11626" data-name="Elipse 11626" cx="1.984" cy="1.429" rx="1.984" ry="1.429" transform="translate(0 7.841) rotate(-41.071)" fill="#e2a18d"/>
        <path id="Trazado_874008" data-name="Trazado 874008" d="M964.726,1970.594a1.4,1.4,0,0,1-1.085-.45,2.272,2.272,0,1,1,2.707-.208A2.532,2.532,0,0,1,964.726,1970.594Zm1.112-3.382a2.16,2.16,0,0,0-1.368.569c-.745.649-.986,1.6-.538,2.109s1.418.4,2.163-.245.986-1.6.538-2.109A1.023,1.023,0,0,0,965.838,1967.213Zm-1.495.423h0Z" transform="translate(-962.846 -1961.105)" fill="#fff"/>
        <path id="Trazado_874009" data-name="Trazado 874009" d="M965,1957.141c.859-.062,1.592.39,1.636,1.009s-.616,1.171-1.475,1.232-1.592-.39-1.636-1.008S964.138,1957.2,965,1957.141Z" transform="translate(-963.023 -1952.255)" fill="#e2a18d"/>
        <path id="Trazado_874010" data-name="Trazado 874010" d="M962.987,1957.57a2.038,2.038,0,0,1-1.067-.284,1.11,1.11,0,0,1-.137-1.9,2.2,2.2,0,0,1,2.425-.174,1.176,1.176,0,0,1,.6.91c.052.724-.69,1.369-1.654,1.438C963.1,1957.568,963.044,1957.57,962.987,1957.57Zm.155-2.253c-.048,0-.1,0-.145.005a1.7,1.7,0,0,0-.967.363.729.729,0,0,0,.092,1.273,1.7,1.7,0,0,0,1.009.221c.752-.054,1.333-.515,1.3-1.026a.8.8,0,0,0-.421-.609A1.654,1.654,0,0,0,963.142,1955.318Zm-.159-.187h0Z" transform="translate(-961.009 -1950.246)" fill="#fff"/>
        <path id="Trazado_874011" data-name="Trazado 874011" d="M987.774,1912.135a.555.555,0,0,1,.1.786L985.166,1917l-.5-.3,2.362-4.285A.554.554,0,0,1,987.774,1912.135Z" transform="translate(-982.323 -1911.136)" fill="#e2a18d"/>
        <path id="Trazado_874012" data-name="Trazado 874012" d="M982.232,1912.149l1.655-4.6a.5.5,0,1,1,.91.37l-2.027,4.453Z" transform="translate(-980.099 -1906.617)" fill="#e2a18d"/>
        <path id="Trazado_874013" data-name="Trazado 874013" d="M986.871,1923.348l3.316-3.6a.5.5,0,1,0-.749-.635l-3.009,3.858Z" transform="translate(-983.928 -1917.326)" fill="#e2a18d"/>
        <path id="Trazado_874014" data-name="Trazado 874014" d="M977.12,1901.342a.555.555,0,0,1,.433.663l-.64,4.851-.578-.052.239-4.887A.555.555,0,0,1,977.12,1901.342Z" transform="translate(-974.718 -1901.341)" fill="#e2a18d"/>
        <path id="Trazado_874015" data-name="Trazado 874015" d="M968.362,1907l-.536-4.863a.5.5,0,1,1,.98-.067l.135,4.891Z" transform="translate(-966.948 -1901.473)" fill="#e2a18d"/>
        <path id="Trazado_874016" data-name="Trazado 874016" d="M978.911,1908.947l1.4-4.689a.5.5,0,1,0-.952-.242l-1.009,4.787Z" transform="translate(-976.555 -1903.331)" fill="#e2a18d"/>
      </g>
      <g id="Grupo_1099545" data-name="Grupo 1099545" transform="translate(35.835 65.031)">
        <ellipse id="Elipse_11627" data-name="Elipse 11627" cx="2.534" cy="3.518" rx="2.534" ry="3.518" transform="translate(6.712 9.04) rotate(-37.982)" fill="#e2a18d"/>
        <path id="Trazado_874017" data-name="Trazado 874017" d="M922.392,2012.678a4.092,4.092,0,0,1-3.065-1.693c-1.259-1.613-1.319-3.677-.134-4.6s3.173-.366,4.432,1.247,1.319,3.677.134,4.6A2.183,2.183,0,0,1,922.392,2012.678Zm-2.761-1.93c1.128,1.445,2.874,1.974,3.891,1.18s.927-2.616-.2-4.061-2.874-1.974-3.891-1.18S918.5,2009.3,919.631,2010.748Z" transform="translate(-910.602 -1999.05)" fill="#fff"/>
        <ellipse id="Elipse_11628" data-name="Elipse 11628" cx="2.414" cy="3.351" rx="2.414" ry="3.351" transform="translate(5.151 8.989) rotate(-19.743)" fill="#e2a18d"/>
        <path id="Trazado_874018" data-name="Trazado 874018" d="M899.727,2024.211a3.536,3.536,0,0,1-2.985-2.57c-.66-1.839-.1-3.731,1.256-4.216s2.99.616,3.651,2.455a4.269,4.269,0,0,1,.139,2.588,2.313,2.313,0,0,1-1.4,1.629A1.976,1.976,0,0,1,899.727,2024.211Zm-2.622-2.7c.588,1.639,2,2.636,3.157,2.223a1.938,1.938,0,0,0,1.155-1.372,3.879,3.879,0,0,0-.131-2.351c-.588-1.639-2.005-2.636-3.157-2.223S896.517,2019.872,897.105,2021.511Z" transform="translate(-890.639 -2009.429)" fill="#fff"/>
        <ellipse id="Elipse_11629" data-name="Elipse 11629" cx="3.156" cy="2.273" rx="3.156" ry="2.273" transform="translate(3.447 14.3) rotate(-84.934)" fill="#e2a18d"/>
        <path id="Trazado_874019" data-name="Trazado 874019" d="M872.329,2025.406q-.083,0-.166-.007c-1.355-.12-2.324-1.714-2.161-3.554a4.031,4.031,0,0,1,.906-2.273,2.051,2.051,0,0,1,3.514.311,4.265,4.265,0,0,1-.414,4.671A2.234,2.234,0,0,1,872.329,2025.406Zm.261-6.3a1.862,1.862,0,0,0-1.39.719,3.643,3.643,0,0,0-.814,2.055c-.144,1.628.668,3.034,1.811,3.135a1.815,1.815,0,0,0,1.52-.713,3.881,3.881,0,0,0,.374-4.222,1.815,1.815,0,0,0-1.371-.969C872.677,2019.107,872.634,2019.106,872.59,2019.106Z" transform="translate(-866.473 -2010.715)" fill="#fff"/>
        <ellipse id="Elipse_11630" data-name="Elipse 11630" cx="2.724" cy="1.962" rx="2.724" ry="1.962" transform="translate(1.046 11.799) rotate(-62.413)" fill="#e2a18d"/>
        <path id="Trazado_874020" data-name="Trazado 874020" d="M851.138,2018.831a1.674,1.674,0,0,1-.783-.189c-1.053-.55-1.3-2.157-.559-3.583a3.5,3.5,0,0,1,1.486-1.524,1.913,1.913,0,0,1,1.775-.063c1.053.55,1.3,2.157.559,3.583a3.5,3.5,0,0,1-1.486,1.524A2.226,2.226,0,0,1,851.138,2018.831Zm-1-3.593c-.646,1.237-.469,2.611.4,3.062a1.541,1.541,0,0,0,1.423-.066,3.115,3.115,0,0,0,1.317-1.358c.646-1.237.469-2.61-.4-3.062a1.539,1.539,0,0,0-1.423.066A3.119,3.119,0,0,0,850.138,2015.237Z" transform="translate(-847.659 -2005.754)" fill="#fff"/>
        <ellipse id="Elipse_11631" data-name="Elipse 11631" cx="2.323" cy="1.673" rx="2.323" ry="1.673" transform="matrix(0.63, -0.776, 0.776, 0.63, 0, 9.484)" fill="#e2a18d"/>
        <path id="Trazado_874021" data-name="Trazado 874021" d="M838.462,2005.444a1.514,1.514,0,0,1-.971-.326,1.66,1.66,0,0,1-.561-1.434,3.189,3.189,0,0,1,2.212-2.726,1.66,1.66,0,0,1,1.519.254c.8.648.738,2.052-.137,3.129A2.782,2.782,0,0,1,838.462,2005.444Zm1.225-4.176a1.7,1.7,0,0,0-.444.062,2.806,2.806,0,0,0-1.928,2.375,1.287,1.287,0,0,0,.419,1.113c.634.514,1.751.191,2.491-.721s.826-2.072.193-2.586A1.137,1.137,0,0,0,839.687,2001.268Zm-1.909.843h0Z" transform="translate(-836.307 -1994.437)" fill="#fff"/>
        <ellipse id="Elipse_11632" data-name="Elipse 11632" cx="1.984" cy="1.429" rx="1.984" ry="1.429" transform="matrix(0.986, -0.169, 0.169, 0.986, 0.248, 6.039)" fill="#e2a18d"/>
        <path id="Trazado_874022" data-name="Trazado 874022" d="M834.986,1993.021a1.816,1.816,0,0,1-1.932-1.274c-.151-.882.689-1.763,1.873-1.966a1.965,1.965,0,0,1,2.419,1.232c.151.882-.689,1.764-1.873,1.966A2.923,2.923,0,0,1,834.986,1993.021Zm.436-2.9a2.546,2.546,0,0,0-.431.037c-.974.167-1.672.849-1.557,1.521s1,1.083,1.974.917,1.672-.849,1.557-1.521A1.436,1.436,0,0,0,835.423,1990.125Z" transform="translate(-832.757 -1984.27)" fill="#fff"/>
        <path id="Trazado_874023" data-name="Trazado 874023" d="M848.666,1976.767c.766.395,1.156,1.162.872,1.713a1.4,1.4,0,0,1-1.9.285c-.766-.394-1.156-1.161-.872-1.713A1.4,1.4,0,0,1,848.666,1976.767Z" transform="translate(-845.199 -1972.222)" fill="#e2a18d"/>
        <path id="Trazado_874024" data-name="Trazado 874024" d="M846.513,1977.172a2.168,2.168,0,0,1-.984-.248,2.09,2.09,0,0,1-.913-.881,1.11,1.11,0,0,1,.871-1.691,2.09,2.09,0,0,1,1.248.232,1.584,1.584,0,0,1,.956,1.973A1.269,1.269,0,0,1,846.513,1977.172Zm-.766-2.454a1.35,1.35,0,0,0-.2.015.729.729,0,0,0-.584,1.134,1.7,1.7,0,0,0,.746.714c.67.345,1.406.255,1.641-.2s-.119-1.108-.789-1.453A1.784,1.784,0,0,0,845.747,1974.718Z" transform="translate(-843.18 -1970.21)" fill="#fff"/>
        <path id="Trazado_874025" data-name="Trazado 874025" d="M874.107,1959.377a.555.555,0,0,1-.325.722l-4.432,2.073-.267-.515,4.247-2.429A.555.555,0,0,1,874.107,1959.377Z" transform="translate(-865.65 -1956.341)" fill="#e2a18d"/>
        <path id="Trazado_874026" data-name="Trazado 874026" d="M867.179,1952.787l3.81-3.07a.5.5,0,1,1,.584.789l-4.049,2.747Z" transform="translate(-863.913 -1947.608)" fill="#e2a18d"/>
        <path id="Trazado_874027" data-name="Trazado 874027" d="M870.259,1971.771l4.7-1.346a.5.5,0,1,0-.309-.932l-4.578,1.727Z" transform="translate(-866.558 -1965.751)" fill="#e2a18d"/>
        <path id="Trazado_874028" data-name="Trazado 874028" d="M866.063,1933.157a.555.555,0,0,1,.025.792l-3.071,3.809-.466-.345,2.748-4.048A.555.555,0,0,1,866.063,1933.157Z" transform="translate(-859.689 -1932.559)" fill="#e2a18d"/>
        <path id="Trazado_874029" data-name="Trazado 874029" d="M860.159,1931.994l2.074-4.432a.5.5,0,1,1,.872.452l-2.43,4.246Z" transform="translate(-857.507 -1927.19)" fill="#e2a18d"/>
        <path id="Trazado_874030" data-name="Trazado 874030" d="M864.622,1944.838l3.634-3.276a.5.5,0,1,0-.687-.7l-3.353,3.563Z" transform="translate(-861.209 -1939.471)" fill="#e2a18d"/>
      </g>
      <g id="Grupo_1099547" data-name="Grupo 1099547" transform="translate(54.654 42.049)">
        <path id="Trazado_874031" data-name="Trazado 874031" d="M1195.725,1672.442c-.245-.617-1.2-.866-1.8-.883a2.72,2.72,0,0,0-2.066.968,3.4,3.4,0,0,0-1.911-.771c-1.18-.076-2.609.495-2.848,1.366-.361,1.314,1.875,3.678,4.231,3.668C1194.017,1676.778,1196.214,1673.676,1195.725,1672.442Z" transform="translate(-1174.638 -1670.932)" fill="#776e42"/>
        <path id="Trazado_874032" data-name="Trazado 874032" d="M1062.207,1668.693a10.284,10.284,0,0,0-10.277-2.741c-6.089,1.627-8.636,10.442-5.665,16.417,2.148,4.321,7.17,5.111,9.494,5.477,6.914,1.088,18.918.593,21.613-7.4,1.762-5.225.982-14.728-6-15.929C1068.344,1664,1064.954,1665.024,1062.207,1668.693Z" transform="translate(-1045.024 -1664.392)" fill="#d87355"/>
        <path id="Trazado_874033" data-name="Trazado 874033" d="M1089.239,1712.227c-.711-1.578-3.578-2.065-5.616-1.528-3.334.879-4.986,4.639-5.213,7.437a9.281,9.281,0,0,0,3.76,8.155c3.589,2.6,8.054,1.99,8.635.5.629-1.618-3.548-2.806-3.751-6.922C1086.884,1716.4,1090.157,1714.266,1089.239,1712.227Z" transform="translate(-1075.464 -1706.458)" fill="#e2a18d"/>
        <path id="Trazado_874034" data-name="Trazado 874034" d="M1262.6,1701.458c.326-2.053,3.917-3.892,6.59-3.188,3.981,1.049,6.334,7.846,4.128,12.412-2.146,4.442-7.864,6.908-9.268,4.889-1.473-2.119,2.772-4.056,2.182-7.975C1265.728,1704.257,1262.266,1703.544,1262.6,1701.458Z" transform="translate(-1243.549 -1695.168)" fill="#e2a18d"/>
        <g id="Grupo_1099546" data-name="Grupo 1099546" transform="translate(5.889 6.246)">
          <path id="Trazado_874035" data-name="Trazado 874035" d="M1156.254,1742.75c.364.475.447,1.023.185,1.224s-.77-.021-1.134-.5-.447-1.023-.185-1.224S1155.89,1742.275,1156.254,1742.75Z" transform="translate(-1151.241 -1741.623)" fill="#fff"/>
          <path id="Trazado_874036" data-name="Trazado 874036" d="M1119.716,1765.711c-.565-.2-.935-.609-.827-.921s.655-.4,1.22-.208.935.609.827.921S1120.281,1765.908,1119.716,1765.711Z" transform="translate(-1118.301 -1761.972)" fill="#fff"/>
          <ellipse id="Elipse_11633" data-name="Elipse 11633" cx="1.084" cy="0.598" rx="1.084" ry="0.598" transform="translate(2.055 5.08) rotate(-3.859)" fill="#fff"/>
          <path id="Trazado_874037" data-name="Trazado 874037" d="M1113.311,1833.522c.586-.12,1.115.045,1.181.369s-.356.683-.942.8-1.115-.045-1.181-.369S1112.725,1833.641,1113.311,1833.522Z" transform="translate(-1112.362 -1824.941)" fill="#fff"/>
          <path id="Trazado_874038" data-name="Trazado 874038" d="M1155.755,1856.609c.427-.419.962-.567,1.192-.331s.072.766-.356,1.185-.962.566-1.193.33S1155.327,1857.028,1155.755,1856.609Z" transform="translate(-1151.538 -1845.641)" fill="#fff"/>
          <path id="Trazado_874039" data-name="Trazado 874039" d="M1312.156,1849.648c-.364-.475-.447-1.023-.185-1.224s.77.021,1.134.5.447,1.023.185,1.224S1312.52,1850.123,1312.156,1849.648Z" transform="translate(-1294.375 -1838.509)" fill="#fff"/>
          <path id="Trazado_874040" data-name="Trazado 874040" d="M1343.894,1832.235c.565.2.935.609.827.921s-.655.4-1.22.208-.935-.609-.827-.921S1343.328,1832.038,1343.894,1832.235Z" transform="translate(-1322.515 -1823.708)" fill="#fff"/>
          <path id="Trazado_874041" data-name="Trazado 874041" d="M1325.481,1806.2c-.6.04-1.1-.194-1.121-.524s.444-.629,1.041-.669,1.1.194,1.121.524S1326.079,1806.165,1325.481,1806.2Z" transform="translate(-1305.819 -1798.956)" fill="#fff"/>
          <path id="Trazado_874042" data-name="Trazado 874042" d="M1349.752,1765.329c-.586.12-1.115-.045-1.181-.369s.355-.683.942-.8,1.115.045,1.182.369S1350.338,1765.209,1349.752,1765.329Z" transform="translate(-1327.907 -1761.643)" fill="#fff"/>
          <path id="Trazado_874043" data-name="Trazado 874043" d="M1311.231,1737.111c-.428.419-.962.566-1.193.331s-.071-.767.357-1.185.962-.566,1.193-.33S1311.659,1736.693,1311.231,1737.111Z" transform="translate(-1292.655 -1735.814)" fill="#fff"/>
        </g>
      </g>
      <g id="Grupo_1099548" data-name="Grupo 1099548" transform="translate(84.353 51.448)">
        <ellipse id="Elipse_11634" data-name="Elipse 11634" cx="13.002" cy="9.436" rx="13.002" ry="9.436" transform="translate(0 5.029) rotate(-11.151)" fill="#fff"/>
        <path id="Trazado_874044" data-name="Trazado 874044" d="M1415.274,1799.314c6.952-1.371,13.4,1.551,14.538,6.542a6.99,6.99,0,0,0-.1-2.043c-1.008-5.113-7.536-8.132-14.582-6.743s-11.939,6.66-10.932,11.773c.013.067.028.134.043.2C1404.679,1804.638,1409.168,1800.518,1415.274,1799.314Z" transform="translate(-1402.371 -1794.557)" fill="#f7f1eb"/>
        <ellipse id="Elipse_11635" data-name="Elipse 11635" cx="13.002" cy="9.436" rx="13.002" ry="9.436" transform="translate(0 5.029) rotate(-11.151)" fill="#fff"/>
        <path id="Trazado_874045" data-name="Trazado 874045" d="M1414.371,1819.09c-5.722,0-10.511-2.876-11.37-7.234-1.027-5.209,3.945-10.592,11.083-12a15.912,15.912,0,0,1,9.673.947,7.94,7.94,0,0,1,2.642,13.4,15.913,15.913,0,0,1-8.59,4.548A17.82,17.82,0,0,1,1414.371,1819.09Zm3.18-19.191a17.568,17.568,0,0,0-3.393.336c-6.93,1.366-11.766,6.546-10.78,11.546s7.426,7.958,14.355,6.591a15.529,15.529,0,0,0,8.382-4.432,7.558,7.558,0,0,0-2.521-12.786A14.429,14.429,0,0,0,1417.551,1799.9Z" transform="translate(-1401.271 -1797.096)" fill="#d3bba3"/>
      </g>
      <g id="Grupo_1099551" data-name="Grupo 1099551" transform="translate(113.214 45.621)">
        <g id="Grupo_1099549" data-name="Grupo 1099549" transform="translate(9.879 1.349)">
          <path id="Trazado_874046" data-name="Trazado 874046" d="M1837.537,1748.061c-3.086,2.523-8.611.87-9.6.168-.8-.568-.3-7.155,2.782-9.678s6.2-2.137,8.394.541S1840.624,1745.538,1837.537,1748.061Z" transform="translate(-1827.603 -1735.44)" fill="#d87355"/>
          <path id="Trazado_874047" data-name="Trazado 874047" d="M1906,1732.09a12.453,12.453,0,0,0-3.942-1.278l3.442,2.533-1.211,3.047,2.741-1.007,1.118,3.884a15.662,15.662,0,0,0,.344-3.809,2.435,2.435,0,0,0-.6-1.492l-1.156-1.315A2.36,2.36,0,0,0,1906,1732.09Z" transform="translate(-1895.549 -1729.924)" fill="#8b865c"/>
          <path id="Trazado_874048" data-name="Trazado 874048" d="M1954.14,1724.268l2.569-3.608,1.215,1.131-3.515,2.806Z" transform="translate(-1943.074 -1720.66)" fill="#8b865c"/>
          <path id="Trazado_874049" data-name="Trazado 874049" d="M1906.128,1754.941a.4.4,0,1,1,.056-.56A.4.4,0,0,1,1906.128,1754.941Z" transform="translate(-1898.668 -1751.299)" fill="#f2e6dc"/>
          <path id="Trazado_874050" data-name="Trazado 874050" d="M1944.518,1799.981a.4.4,0,1,1,.056-.56A.4.4,0,0,1,1944.518,1799.981Z" transform="translate(-1933.701 -1792.4)" fill="#f2e6dc"/>
          <path id="Trazado_874051" data-name="Trazado 874051" d="M1883.508,1855.741a.4.4,0,1,1,.056-.56A.4.4,0,0,1,1883.508,1855.741Z" transform="translate(-1878.026 -1843.284)" fill="#f2e6dc"/>
          <path id="Trazado_874052" data-name="Trazado 874052" d="M1946.9,1845.071a.4.4,0,1,1,.056-.56A.4.4,0,0,1,1946.9,1845.071Z" transform="translate(-1935.872 -1833.547)" fill="#f2e6dc"/>
          <path id="Trazado_874053" data-name="Trazado 874053" d="M1861.258,1759.491a.4.4,0,1,1,.056-.56A.4.4,0,0,1,1861.258,1759.491Z" transform="translate(-1857.722 -1755.451)" fill="#f2e6dc"/>
          <path id="Trazado_874054" data-name="Trazado 874054" d="M1896.288,1810.011a.4.4,0,1,1,.056-.56A.4.4,0,0,1,1896.288,1810.011Z" transform="translate(-1889.688 -1801.553)" fill="#f2e6dc"/>
          <path id="Trazado_874055" data-name="Trazado 874055" d="M1840.818,1825.581a.4.4,0,1,1,.056-.56A.4.4,0,0,1,1840.818,1825.581Z" transform="translate(-1839.069 -1815.761)" fill="#f2e6dc"/>
        </g>
        <g id="Grupo_1099550" data-name="Grupo 1099550">
          <path id="Trazado_874056" data-name="Trazado 874056" d="M1725.488,1755.451c-1.68,3.615-7.373,4.532-8.566,4.329-.965-.164-3.388-6.309-1.708-9.923s4.656-4.625,7.792-3.167S1727.168,1751.836,1725.488,1755.451Z" transform="translate(-1714.635 -1742.478)" fill="#d87355"/>
          <path id="Trazado_874057" data-name="Trazado 874057" d="M1749.188,1743.369a12.46,12.46,0,0,0-4.106.565l4.2.782.236,3.27,2.029-2.1,2.7,3.01a15.66,15.66,0,0,0-1.349-3.579,2.432,2.432,0,0,0-1.189-1.082l-1.613-.681A2.352,2.352,0,0,0,1749.188,1743.369Z" transform="translate(-1742.42 -1740.034)" fill="#8b865c"/>
          <path id="Trazado_874058" data-name="Trazado 874058" d="M1805.51,1709.605l.742-4.366,1.587.489-1.944,4.056Z" transform="translate(-1797.563 -1705.24)" fill="#8b865c"/>
          <path id="Trazado_874059" data-name="Trazado 874059" d="M1760.649,1767.554a.4.4,0,1,1-.193-.529A.4.4,0,0,1,1760.649,1767.554Z" transform="translate(-1755.932 -1761.588)" fill="#f2e6dc"/>
          <path id="Trazado_874060" data-name="Trazado 874060" d="M1814.808,1791.395a.4.4,0,1,1-.193-.529A.4.4,0,0,1,1814.808,1791.395Z" transform="translate(-1805.355 -1783.344)" fill="#f2e6dc"/>
          <path id="Trazado_874061" data-name="Trazado 874061" d="M1784.159,1868.155a.4.4,0,1,1-.193-.529A.4.4,0,0,1,1784.159,1868.155Z" transform="translate(-1777.386 -1853.391)" fill="#f2e6dc"/>
          <path id="Trazado_874062" data-name="Trazado 874062" d="M1836.578,1830.955a.4.4,0,1,1-.193-.529A.4.4,0,0,1,1836.578,1830.955Z" transform="translate(-1825.221 -1819.444)" fill="#f2e6dc"/>
          <path id="Trazado_874063" data-name="Trazado 874063" d="M1722.229,1791.184a.4.4,0,1,1-.193-.529A.4.4,0,0,1,1722.229,1791.184Z" transform="translate(-1720.872 -1783.152)" fill="#f2e6dc"/>
          <path id="Trazado_874064" data-name="Trazado 874064" d="M1775.759,1821.424a.4.4,0,1,1-.193-.529A.4.4,0,0,1,1775.759,1821.424Z" transform="translate(-1769.721 -1810.747)" fill="#f2e6dc"/>
          <path id="Trazado_874065" data-name="Trazado 874065" d="M1732.6,1859.584a.4.4,0,1,1-.193-.529A.4.4,0,0,1,1732.6,1859.584Z" transform="translate(-1730.335 -1845.57)" fill="#f2e6dc"/>
        </g>
        <path id="Trazado_874066" data-name="Trazado 874066" d="M1756.2,1813.146a.193.193,0,0,1-.02-.384c4.863-.526,7.355-3.14,7.845-8.228a.193.193,0,0,1,.384.037c-.5,5.228-3.181,8.033-8.188,8.574Z" transform="translate(-1752.389 -1795.691)" fill="#fff"/>
      </g>
      <g id="Grupo_1099552" data-name="Grupo 1099552" transform="translate(67.011 69.73)">
        <path id="Trazado_874067" data-name="Trazado 874067" d="M1332.533,1996.93c3.664.721,5.25,3.8,3.248,6.62C1332.846,2002.383,1330.655,1999.442,1332.533,1996.93Z" transform="translate(-1319.109 -1995.53)" fill="#b77250"/>
        <path id="Trazado_874068" data-name="Trazado 874068" d="M1234.77,1985.727c1.027-4.392,4.809-6.176,8.129-3.639C1241.366,1985.582,1237.722,1988.1,1234.77,1985.727Z" transform="translate(-1230.533 -1980.924)" fill="#84524d"/>
        <path id="Trazado_874069" data-name="Trazado 874069" d="M1210.85,2084.391c2.8-2.935,6.541-2.594,7.959.884C1216.028,2087.284,1212.056,2087.576,1210.85,2084.391Z" transform="translate(-1208.705 -2073.531)" fill="#b77250"/>
        <path id="Trazado_874070" data-name="Trazado 874070" d="M1260.677,2026.44c4.434-.825,7.587,1.921,6.6,5.981C1263.462,2032.42,1259.69,2030.1,1260.677,2026.44Z" transform="translate(-1254.029 -2022.325)" fill="#b77250"/>
        <path id="Trazado_874071" data-name="Trazado 874071" d="M1188.786,1986.23c3.42,2.941,3.253,7.118-.531,8.891C1185.866,1992.146,1185.317,1987.75,1188.786,1986.23Z" transform="translate(-1186.324 -1985.766)" fill="#b77250"/>
      </g>
      <g id="Grupo_1099553" data-name="Grupo 1099553" transform="translate(0 30.425)">
        <path id="Trazado_874072" data-name="Trazado 874072" d="M421.692,1531.48l-.039.079a16.705,16.705,0,1,0,30.248,14.189l.036-.08-.891-.418-19.163,3.422-9.3-16.775Z" transform="translate(-420.068 -1531.48)" fill="#efbc73"/>
        <path id="Trazado_874073" data-name="Trazado 874073" d="M432.875,1536.26l-.036.075a15.721,15.721,0,0,0,28.466,13.354l.034-.076Z" transform="translate(-430.361 -1535.842)" fill="#fff"/>
        <path id="Trazado_874074" data-name="Trazado 874074" d="M620.346,1632.439a2.086,2.086,0,0,0,2.966,1.121,14.049,14.049,0,0,0,4.975-4.895,1.5,1.5,0,0,0-.645-2.138l-11.233-5.269-.091.033Z" transform="translate(-599.154 -1613.407)" fill="#efbc73"/>
        <path id="Trazado_874075" data-name="Trazado 874075" d="M551.771,1633.837a2.5,2.5,0,0,0,1.706,3.5,14.03,14.03,0,0,0,5.338.041,2.282,2.282,0,0,0,1.8-3.029l-3.907-10.812-.088-.041Z" transform="translate(-540.036 -1615.448)" fill="#efbc73"/>
        <path id="Trazado_874076" data-name="Trazado 874076" d="M462.848,1624.235a2.475,2.475,0,0,0-1.254,3.636,14.11,14.11,0,0,0,3.87,3.955,2.164,2.164,0,0,0,3.213-.849l4.94-10.531-.033-.091Z" transform="translate(-457.62 -1612.583)" fill="#efbc73"/>
        <path id="Trazado_874077" data-name="Trazado 874077" d="M442.062,1550.555a1.53,1.53,0,0,0-2.08.842,12.058,12.058,0,0,0-.711,5.566,3.056,3.056,0,0,0,4.077,2.575l9.961-3.6.041-.087Z" transform="translate(-437.531 -1548.754)" fill="#efbc73"/>
      </g>
      <g id="Grupo_1099554" data-name="Grupo 1099554" transform="translate(17.224 30.811)">
        <path id="Trazado_874078" data-name="Trazado 874078" d="M620.339,1554.207c-2.995,6.131-.073,13.714,6.057,16.708,8.026,3.92,19.98,5.474,25.46,2.322a.992.992,0,0,0-.295-1.831,60.9,60.9,0,0,1-12.326-4.49c-3.938-1.924-6.411-4.614-5.69-6.089s4.363-1.179,8.3.744a63.21,63.21,0,0,1,11.23,7.127.992.992,0,0,0,1.635-.853c-.719-6.426-10.351-15.655-17.47-19.132C631.11,1545.719,623.333,1548.076,620.339,1554.207Z" transform="translate(-618.967 -1546.411)" fill="#d87355"/>
        <path id="Trazado_874079" data-name="Trazado 874079" d="M654.864,1563.782a42.528,42.528,0,0,1-17.4-4.034c-6.316-3.085-9.131-10.855-6.146-16.966s10.843-8.668,17.16-5.583a42.512,42.512,0,0,1,11.19,8.5c3.784,3.96,6.052,7.789,6.387,10.784a1.153,1.153,0,0,1-.616,1.166,1.188,1.188,0,0,1-1.335-.146,63.239,63.239,0,0,0-11.189-7.1c-3.762-1.838-7.37-2.211-8.043-.833s1.84,3.994,5.6,5.832a60.831,60.831,0,0,0,12.281,4.475,1.18,1.18,0,0,1,.93.977,1.159,1.159,0,0,1-.578,1.21A16.946,16.946,0,0,1,654.864,1563.782Zm-12.091-27.509a12.3,12.3,0,0,0-11.1,6.679c-2.893,5.923-.16,13.457,5.969,16.45,7.659,3.741,19.644,5.569,25.28,2.328a.8.8,0,0,0-.239-1.475,61.268,61.268,0,0,1-12.371-4.506c-4.02-1.964-6.558-4.752-5.779-6.347s4.539-1.308,8.559.656a63.7,63.7,0,0,1,11.27,7.153.8.8,0,0,0,.9.1.776.776,0,0,0,.414-.783c-.688-6.152-10.062-15.413-17.363-18.98A12.591,12.591,0,0,0,642.774,1536.273Z" transform="translate(-628.982 -1535.888)" fill="#fff"/>
        <path id="Trazado_874080" data-name="Trazado 874080" d="M941.25,1809.831a.193.193,0,0,1-.154-.077,11.222,11.222,0,0,1-2.159-4.059.193.193,0,0,1,.377-.083,10.869,10.869,0,0,0,2.09,3.909.193.193,0,0,1-.037.27A.2.2,0,0,1,941.25,1809.831Z" transform="translate(-910.781 -1781.886)" fill="#fff"/>
        <path id="Trazado_874081" data-name="Trazado 874081" d="M972.4,1760.342a.193.193,0,0,1-.043-.381,17.317,17.317,0,0,1,4.237-.321.193.193,0,0,1-.01.385,16.947,16.947,0,0,0-4.139.311A.2.2,0,0,1,972.4,1760.342Z" transform="translate(-941.141 -1740.064)" fill="#fff"/>
        <path id="Trazado_874082" data-name="Trazado 874082" d="M617.213,1579.12a.193.193,0,0,1-.14-.326,20.166,20.166,0,0,0,5.343-10.935.193.193,0,1,1,.381.057,20.554,20.554,0,0,1-5.444,11.143A.191.191,0,0,1,617.213,1579.12Z" transform="translate(-617.02 -1564.914)" fill="#fff"/>
        <path id="Trazado_874083" data-name="Trazado 874083" d="M647.535,1565.315l-.032,0a.193.193,0,0,1-.159-.222,36.515,36.515,0,0,1,10.319-19.886.193.193,0,1,1,.27.276,36.131,36.131,0,0,0-10.208,19.674A.192.192,0,0,1,647.535,1565.315Z" transform="translate(-644.69 -1544.34)" fill="#fff"/>
        <path id="Trazado_874084" data-name="Trazado 874084" d="M701.863,1597.944a.193.193,0,0,1-.182-.129c-1.686-4.806-1.713-9.233-.08-12.8,2.42-5.287,7.926-7.76,12.118-8.9a.193.193,0,0,1,.1.372c-4.113,1.121-9.512,3.54-11.869,8.691-1.591,3.477-1.559,7.8.093,12.514a.193.193,0,0,1-.118.246A.189.189,0,0,1,701.863,1597.944Z" transform="translate(-693.105 -1572.586)" fill="#fff"/>
        <path id="Trazado_874085" data-name="Trazado 874085" d="M759.163,1628.438a.193.193,0,0,1-.184-.135c-1.442-4.556-1.38-8.6.183-12.015,2.273-4.966,7.29-7.421,11.1-8.605a.193.193,0,1,1,.115.368c-3.734,1.161-8.649,3.561-10.863,8.4-1.523,3.327-1.579,7.276-.166,11.738a.193.193,0,0,1-.126.242A.179.179,0,0,1,759.163,1628.438Z" transform="translate(-745.618 -1601.397)" fill="#fff"/>
        <path id="Trazado_874086" data-name="Trazado 874086" d="M812.366,1756.167a.193.193,0,0,1-.164-.09c-2.389-3.808-3.434-7.076-3.107-9.714a.193.193,0,1,1,.383.047c-.316,2.547.71,5.731,3.051,9.462a.193.193,0,0,1-.163.3Z" transform="translate(-792.245 -1727.801)" fill="#fff"/>
        <path id="Trazado_874087" data-name="Trazado 874087" d="M842.447,1665.093a.193.193,0,0,1-.112-.35c2.178-1.554,5.543-2.489,10-2.78a.193.193,0,1,1,.025.385c-4.388.286-7.686,1.2-9.8,2.709A.2.2,0,0,1,842.447,1665.093Z" transform="translate(-822.556 -1650.938)" fill="#fff"/>
        <path id="Trazado_874088" data-name="Trazado 874088" d="M873.563,1786.046a.193.193,0,0,1-.155-.078c-2.037-2.734-3.171-5.083-3.373-6.979a.193.193,0,1,1,.383-.041c.194,1.827,1.3,4.111,3.3,6.79a.193.193,0,0,1-.039.27A.19.19,0,0,1,873.563,1786.046Z" transform="translate(-847.908 -1757.534)" fill="#fff"/>
        <path id="Trazado_874089" data-name="Trazado 874089" d="M907.38,1713.554a.193.193,0,0,1-.071-.372,21.291,21.291,0,0,1,7.84-1.028.193.193,0,0,1,.19.2.191.191,0,0,1-.2.19,20.931,20.931,0,0,0-7.692,1A.176.176,0,0,1,907.38,1713.554Z" transform="translate(-881.811 -1696.735)" fill="#fff"/>
        <ellipse id="Elipse_11636" data-name="Elipse 11636" cx="0.955" cy="7.047" rx="0.955" ry="7.047" transform="matrix(0.439, -0.899, 0.899, 0.439, 1.329, 8.698)" fill="#f7f1eb"/>
        <circle id="Elipse_11637" data-name="Elipse 11637" cx="2.41" cy="2.41" r="2.41" transform="translate(4.897 9.406) rotate(-18.966)" fill="#fff"/>
      </g>
    </g>
    <g id="Grupo_1099558" data-name="Grupo 1099558" transform="translate(10.771 12.169)">
      <g id="Grupo_1099556" data-name="Grupo 1099556" transform="translate(7.495)">
        <path id="Trazado_874090" data-name="Trazado 874090" d="M664.612,472.023l7.113-.476a3.637,3.637,0,0,1,.485,7.257l-7.113.476Z" transform="translate(-654.105 -471.539)" fill="#d87355"/>
        <path id="Trazado_874091" data-name="Trazado 874091" d="M555.461,484.327l-7.113.476a3.637,3.637,0,1,1-.485-7.257l7.113-.475Z" transform="translate(-544.469 -476.586)" fill="#ffd092"/>
        <path id="Trazado_874092" data-name="Trazado 874092" d="M678.685,496.693a3.6,3.6,0,0,1,.29,1.194,3.647,3.647,0,0,1-3.386,3.871l-7.113.476-.162-2.416,7.113-.476A3.65,3.65,0,0,0,678.685,496.693Z" transform="translate(-657.483 -494.493)" fill="#b77250"/>
        <path id="Trazado_874093" data-name="Trazado 874093" d="M548.187,514.991l7.113-.476.162,2.416-7.113.476a3.647,3.647,0,0,1-3.871-3.386,3.6,3.6,0,0,1,.128-1.222A3.65,3.65,0,0,0,548.187,514.991Z" transform="translate(-544.469 -509.191)" fill="#e0aa63"/>
      </g>
      <g id="Grupo_1099557" data-name="Grupo 1099557" transform="translate(0 5.059)">
        <path id="Trazado_874094" data-name="Trazado 874094" d="M470.2,531.2l-6.92-1.711a3.637,3.637,0,0,0-1.746,7.061l6.92,1.711Z" transform="translate(-458.77 -529.387)" fill="#d87355"/>
        <path id="Trazado_874095" data-name="Trazado 874095" d="M569.5,557.226l6.92,1.711a3.637,3.637,0,0,0,1.746-7.061l-6.92-1.711Z" transform="translate(-559.818 -548.348)" fill="#efbc73"/>
        <path id="Trazado_874096" data-name="Trazado 874096" d="M459.369,548.122a3.6,3.6,0,0,0-.494,1.125,3.647,3.647,0,0,0,2.658,4.4l6.92,1.711.581-2.351-6.92-1.711A3.65,3.65,0,0,1,459.369,548.122Z" transform="translate(-458.77 -546.484)" fill="#b77250"/>
        <path id="Trazado_874097" data-name="Trazado 874097" d="M577,605.73l-6.92-1.711-.581,2.351,6.92,1.711a3.647,3.647,0,0,0,4.4-2.658,3.6,3.6,0,0,0,.087-1.226A3.65,3.65,0,0,1,577,605.73Z" transform="translate(-559.819 -597.492)" fill="#e0aa63"/>
      </g>
    </g>
  </g>
</svg>
