<svg xmlns="http://www.w3.org/2000/svg" width="85" height="85" viewBox="0 0 85 85">
  <g id="Grupo_1099497" data-name="Grupo 1099497" transform="translate(-285 -599)">
    <g id="Elipse_11505" data-name="Elipse 11505" transform="translate(285 599)" fill="#f8fbf9" stroke="#869a8a" stroke-width="5">
      <circle cx="42.5" cy="42.5" r="42.5" stroke="none"/>
      <circle cx="42.5" cy="42.5" r="40" fill="none"/>
    </g>
    <g id="XMLID_1031_" transform="translate(302.719 616.719)">
      <g id="XMLID_971_" transform="translate(0 0)">
        <g id="XMLID_977_">
          <path id="XMLID_1030_" d="M44.274,9.48h1.531a.967.967,0,0,0,0-1.935H42.13a.967.967,0,0,0-.967.967v3.676a.967.967,0,1,0,1.935,0V11.125a22.847,22.847,0,1,1-18.316-9.19,23.191,23.191,0,0,1,2.787.168A.967.967,0,0,0,27.8.182,25.133,25.133,0,0,0,24.781,0,24.781,24.781,0,0,0,7.258,42.3,24.781,24.781,0,0,0,44.274,9.48Z" transform="translate(0 0)" fill="#5f6e62"/>
          <path id="XMLID_1029_" d="M69.367,73.483a.968.968,0,0,0-1.335.3,18.472,18.472,0,1,0,5.782-5.77.967.967,0,1,0,1.032,1.637,16.544,16.544,0,1,1-2.888,25.7,16.649,16.649,0,0,1-2.291-20.535A.968.968,0,0,0,69.367,73.483Z" transform="translate(-58.873 -58.874)" fill="#5f6e62"/>
          <path id="XMLID_1028_" d="M377.136,248.265h1.193a.967.967,0,0,0,0-1.935h-1.193a.967.967,0,0,0,0,1.935Z" transform="translate(-339.779 -222.501)" fill="#5f6e62"/>
          <path id="XMLID_1004_" d="M103.835,246.973a.967.967,0,0,0,.967.967H106a.967.967,0,1,0,0-1.935H104.8A.967.967,0,0,0,103.835,246.973Z" transform="translate(-93.79 -222.208)" fill="#5f6e62"/>
          <path id="XMLID_1001_" d="M248.265,106V104.8a.967.967,0,0,0-1.935,0V106a.967.967,0,1,0,1.935,0Z" transform="translate(-222.501 -93.79)" fill="#5f6e62"/>
          <path id="XMLID_1415_" d="M246.006,377.136v1.193a.967.967,0,0,0,1.935,0v-1.193a.967.967,0,0,0-1.935,0Z" transform="translate(-222.208 -339.779)" fill="#5f6e62"/>
          <path id="XMLID_996_" d="M190.624,158.1a.967.967,0,0,0-1.368,1.368l3.279,3.279a3.333,3.333,0,1,0,5.877,0l6.615-6.615a.967.967,0,0,0-1.368-1.368l-6.615,6.615a3.326,3.326,0,0,0-3.141,0Zm6.247,6.217a1.4,1.4,0,1,1-1.4-1.4A1.4,1.4,0,0,1,196.871,164.318Z" transform="translate(-170.691 -139.537)" fill="#5f6e62"/>
          <path id="XMLID_980_" d="M119.829,119.829a.967.967,0,1,0-.684.283A.971.971,0,0,0,119.829,119.829Z" transform="translate(-106.746 -106.746)" fill="#5f6e62"/>
          <path id="XMLID_979_" d="M316.405,11.813a.968.968,0,1,0-.684-.283A.971.971,0,0,0,316.405,11.813Z" transform="translate(-284.923 -8.922)" fill="#5f6e62"/>
        </g>
      </g>
    </g>
  </g>
</svg>
