<svg xmlns="http://www.w3.org/2000/svg" width="85" height="85" viewBox="0 0 85 85">
  <g id="Grupo_1099655" data-name="Grupo 1099655" transform="translate(-285 -599)">
    <g id="Elipse_11505" data-name="Elipse 11505" transform="translate(285 599)" fill="#f8fbf9" stroke="#869a8a" stroke-width="5">
      <circle cx="42.5" cy="42.5" r="42.5" stroke="none"/>
      <circle cx="42.5" cy="42.5" r="40" fill="none"/>
    </g>
    <g id="Grupo_1099658" data-name="Grupo 1099658" transform="translate(303.661 622.378)">
      <path id="Trazado_874354" data-name="Trazado 874354" d="M143.291,22.506a9.023,9.023,0,0,0,9.1-8.926c0-3.07-1.51-6.376-4.367-9.559A27.36,27.36,0,0,0,143.716.134a.747.747,0,0,0-.836-.01,25.376,25.376,0,0,0-4.317,3.787c-2.859,3.138-4.37,6.482-4.37,9.669A9.023,9.023,0,0,0,143.291,22.506Zm-.009-20.837c1.647,1.258,7.613,6.208,7.613,11.911a7.606,7.606,0,0,1-15.209,0C135.687,7.662,141.632,2.882,143.282,1.669Z" transform="translate(-119.452)" fill="#5f6e62"/>
      <path id="Trazado_874355" data-name="Trazado 874355" d="M397.288,193.542a.747.747,0,0,0,1.057,0l1.268-1.269a.747.747,0,0,0-1.05-1.062v-1.572a.747.747,0,0,0-1.494,0v1.572a.747.747,0,0,0-1.05,1.062Z" transform="translate(-361.52 -174.782)" fill="#5f6e62"/>
      <path id="Trazado_874356" data-name="Trazado 874356" d="M63.729,193.542a.747.747,0,0,0,1.057,0l1.268-1.269A.747.747,0,0,0,65,191.21v-1.572a.747.747,0,0,0-1.494,0v1.572a.747.747,0,0,0-1.05,1.062Z" transform="translate(-52.875 -174.782)" fill="#5f6e62"/>
      <path id="Trazado_874357" data-name="Trazado 874357" d="M5.846,330.442H41.833a.747.747,0,1,0,0-1.494H5.846a.747.747,0,1,0,0,1.494Z" transform="translate(0 -304.377)" fill="#5f6e62"/>
      <path id="Trazado_874358" data-name="Trazado 874358" d="M41.833,379.093H5.846a.747.747,0,0,0-.747.747v8.433a.747.747,0,0,0,.747.747H41.833a.747.747,0,0,0,.747-.747V379.84A.747.747,0,0,0,41.833,379.093Zm-.747,8.433H6.593v-6.939H41.086Z" transform="translate(0 -350.777)" fill="#5f6e62"/>
      <path id="Trazado_874359" data-name="Trazado 874359" d="M62.621,437.041h1.1a.747.747,0,1,0,0-1.494h-1.1a.747.747,0,1,0,0,1.494Z" transform="translate(-52.534 -403.014)" fill="#5f6e62"/>
      <path id="Trazado_874360" data-name="Trazado 874360" d="M151.01,437.041h1.1a.747.747,0,1,0,0-1.494h-1.1a.747.747,0,1,0,0,1.494Z" transform="translate(-134.321 -403.014)" fill="#5f6e62"/>
      <path id="Trazado_874361" data-name="Trazado 874361" d="M239.4,437.041h1.1a.747.747,0,1,0,0-1.494h-1.1a.747.747,0,0,0,0,1.494Z" transform="translate(-216.107 -403.014)" fill="#5f6e62"/>
      <path id="Trazado_874362" data-name="Trazado 874362" d="M327.788,437.041h1.1a.747.747,0,0,0,0-1.494h-1.1a.747.747,0,1,0,0,1.494Z" transform="translate(-297.895 -403.014)" fill="#5f6e62"/>
      <path id="Trazado_874363" data-name="Trazado 874363" d="M416.177,437.041h1.1a.747.747,0,1,0,0-1.494h-1.1a.747.747,0,0,0,0,1.494Z" transform="translate(-379.682 -403.014)" fill="#5f6e62"/>
      <path id="Trazado_874364" data-name="Trazado 874364" d="M260.025,140.408a.746.746,0,0,0,.964-.432l.037-.1h2.04l.036.1a.747.747,0,1,0,1.4-.527l-1.654-4.388-.008-.02a.845.845,0,0,0-.784-.525h0a.845.845,0,0,0-.784.527l-.007.017-1.67,4.387A.747.747,0,0,0,260.025,140.408Zm2.478-2.025h-.908l.456-1.2Z" transform="translate(-235.439 -124.465)" fill="#5f6e62"/>
      <path id="Trazado_874365" data-name="Trazado 874365" d="M186.2,140.455a.747.747,0,0,0,.747-.747v-1.554h1.583v1.554a.747.747,0,1,0,1.494,0v-4.45a.747.747,0,1,0-1.494,0v1.4h-1.583v-1.4a.747.747,0,1,0-1.494,0v4.45A.747.747,0,0,0,186.2,140.455Z" transform="translate(-166.884 -124.463)" fill="#5f6e62"/>
    </g>
  </g>
</svg>
