<svg xmlns="http://www.w3.org/2000/svg" width="100" height="100" viewBox="0 0 100 100">
  <g id="Grupo_1099693" data-name="Grupo 1099693" transform="translate(-602.051 -3373)">
    <circle id="Elipse_11679" data-name="Elipse 11679" cx="50" cy="50" r="50" transform="translate(602.051 3373)" fill="#f9a545"/>
    <g id="Grupo_1099676" data-name="Grupo 1099676" transform="translate(620.051 3391)">
      <path id="Trazado_874402" data-name="Trazado 874402" d="M54.06,49H18V44.86C19.53,43.68,20.52,42,23.33,42c4.33,0,4.33,4,8.66,4s4.34-4,8.67-4,4.33,4,8.67,4,4.33-4,8.67-4v3.06A3.948,3.948,0,0,1,54.06,49Z" fill="#f3445a"/>
      <path id="Trazado_874403" data-name="Trazado 874403" d="M58,30v6c-4.34,0-4.34,4-8.67,4s-4.34-4-8.67-4-4.33,4-8.67,4-4.33-4-8.66-4c-2.81,0-3.8,1.68-5.33,2.86v-6C19.53,31.68,20.52,30,23.33,30c4.33,0,4.33,4,8.66,4s4.34-4,8.67-4,4.33,4,8.67,4S53.66,30,58,30Z" fill="#f3445a"/>
      <path id="Trazado_874404" data-name="Trazado 874404" d="M58,18.94V24c-4.34,0-4.34,4-8.67,4s-4.34-4-8.67-4-4.33,4-8.67,4-4.33-4-8.66-4c-2.81,0-3.8,1.68-5.33,2.86v-6C19.53,19.68,20.52,18,23.33,18c4.33,0,4.33,4,8.66,4s4.34-4,8.67-4,4.33,4,8.67,4c4.29,0,4.33-3.92,8.55-4A3.671,3.671,0,0,1,58,18.94Z" fill="#f3445a"/>
      <path id="Trazado_874405" data-name="Trazado 874405" d="M58,36v6c-4.34,0-4.34,4-8.67,4s-4.34-4-8.67-4-4.33,4-8.67,4-4.33-4-8.66-4c-2.81,0-3.8,1.68-5.33,2.86v-6C19.53,37.68,20.52,36,23.33,36c4.33,0,4.33,4,8.66,4s4.34-4,8.67-4,4.33,4,8.67,4S53.66,36,58,36Z" fill="#ff5666"/>
      <path id="Trazado_874406" data-name="Trazado 874406" d="M58,24v6c-4.34,0-4.34,4-8.67,4s-4.34-4-8.67-4-4.33,4-8.67,4-4.33-4-8.66-4c-2.81,0-3.8,1.68-5.33,2.86v-6C19.53,25.68,20.52,24,23.33,24c4.33,0,4.33,4,8.66,4s4.34-4,8.67-4,4.33,4,8.67,4S53.66,24,58,24Z" fill="#ff5666"/>
      <path id="Trazado_874407" data-name="Trazado 874407" d="M40.66,18c-4.33,0-4.33,4-8.67,4s-4.33-4-8.66-4c-2.81,0-3.8,1.68-5.33,2.86V15H54.06a3.936,3.936,0,0,1,3.82,3c-4.22.08-4.26,4-8.55,4C44.99,22,44.99,18,40.66,18Z" fill="#ff5666"/>
      <path id="Trazado_874408" data-name="Trazado 874408" d="M63,15.74V53H18V49H54.06A3.948,3.948,0,0,0,58,45.06V18.94a3.671,3.671,0,0,0-.12-.94,3.936,3.936,0,0,0-3.82-3H18V11H58.26A4.75,4.75,0,0,1,63,15.74Z" fill="#636a74"/>
      <path id="Trazado_874409" data-name="Trazado 874409" d="M4.1,39.41Q6.56,40.7,9,42c.77,1.92,1.54,3.85,2.31,5.77a5.124,5.124,0,0,1-4.83-1.02,6.39,6.39,0,0,1-1.04-1.09,7.511,7.511,0,0,1-1.43-4.81,9.372,9.372,0,0,1,.09-1.44Z" fill="#ff5666"/>
      <path id="Trazado_874410" data-name="Trazado 874410" d="M1,48.26V15.74A4.75,4.75,0,0,1,5.74,11H18V53H5.74A4.75,4.75,0,0,1,1,48.26Zm3.1-8.85a9.372,9.372,0,0,0-.09,1.44,7.511,7.511,0,0,0,1.43,4.81,6.39,6.39,0,0,0,1.04,1.09,5.124,5.124,0,0,0,4.83,1.02,4.854,4.854,0,0,0,1.92-1.13,5.419,5.419,0,0,0,1.2-1.66,6.55,6.55,0,0,0,.05-5.21h-.01a6.657,6.657,0,0,0-1.03-1.76,4.326,4.326,0,0,1-.92-1.81c-.02-.1-.03-.2-.05-.3a5.763,5.763,0,0,1-.01-1.81,2,2,0,0,0-.37-1.49c-.04-.04-.07-.08-.11-.12l-.02-.02a1.566,1.566,0,0,0-1.48-.42,8,8,0,0,0-4.2,2.45A9.065,9.065,0,0,0,4.1,39.41Z" fill="#e6ecf4"/>
      <path id="Trazado_874411" data-name="Trazado 874411" d="M14.48,39.77a6.55,6.55,0,0,1-.05,5.21,5.419,5.419,0,0,1-1.2,1.66,4.854,4.854,0,0,1-1.92,1.13C10.54,45.85,9.77,43.92,9,42q2.745-1.125,5.47-2.23Z" fill="#ff5666"/>
      <path id="Trazado_874412" data-name="Trazado 874412" d="M11.98,32.48c.04.04.07.08.11.12a2,2,0,0,1,.37,1.49,5.763,5.763,0,0,0,.01,1.81c.02.1.03.2.05.3a4.326,4.326,0,0,0,.92,1.81,6.657,6.657,0,0,1,1.03,1.76Q11.74,40.88,9,42q-2.445-1.3-4.9-2.59a9.065,9.065,0,0,1,2.18-4.92,8,8,0,0,1,4.2-2.45,1.566,1.566,0,0,1,1.48.42Z" fill="#ff5666"/>
      <path id="Trazado_874413" data-name="Trazado 874413" d="M63,54H5.741A5.747,5.747,0,0,1,0,48.259V15.741A5.747,5.747,0,0,1,5.741,10H58.259A5.747,5.747,0,0,1,64,15.741V53a1,1,0,0,1-1,1ZM5.741,12A3.746,3.746,0,0,0,2,15.741V48.259A3.746,3.746,0,0,0,5.741,52H62V15.741A3.746,3.746,0,0,0,58.259,12Z"/>
      <path id="Trazado_874414" data-name="Trazado 874414" d="M54.06,50H18a1,1,0,0,1,0-2H54.06A2.944,2.944,0,0,0,57,45.06V18.94A2.944,2.944,0,0,0,54.06,16H18a1,1,0,0,1,0-2H54.06A4.945,4.945,0,0,1,59,18.94V45.06A4.945,4.945,0,0,1,54.06,50Z"/>
      <path id="Trazado_874415" data-name="Trazado 874415" d="M18,54a1,1,0,0,1-1-1V11a1,1,0,0,1,2,0V53a1,1,0,0,1-1,1Z"/>
      <path id="Trazado_874416" data-name="Trazado 874416" d="M49.33,23a6.736,6.736,0,0,1-5.019-2.267,4.712,4.712,0,0,0-7.3,0,6.679,6.679,0,0,1-10.028,0,4.72,4.72,0,0,0-7.31,0c-.342.316-.687.631-1.06.919a1,1,0,0,1-1.223-1.584c.328-.252.628-.53.929-.808a6.679,6.679,0,0,1,10.021,0,4.72,4.72,0,0,0,7.313,0,6.671,6.671,0,0,1,10.016,0,4.724,4.724,0,0,0,7.315,0A6.775,6.775,0,0,1,57.861,17a.988.988,0,0,1,1.019.981A1,1,0,0,1,57.9,19a4.859,4.859,0,0,0-3.56,1.737A6.726,6.726,0,0,1,49.33,23Z"/>
      <path id="Trazado_874417" data-name="Trazado 874417" d="M49.33,29a6.736,6.736,0,0,1-5.019-2.267,4.712,4.712,0,0,0-7.3,0,6.679,6.679,0,0,1-10.028,0,4.72,4.72,0,0,0-7.31,0c-.342.316-.687.631-1.06.919a1,1,0,0,1-1.223-1.584c.328-.252.628-.53.929-.808a6.679,6.679,0,0,1,10.022,0,4.72,4.72,0,0,0,7.313,0,6.671,6.671,0,0,1,10.016,0,4.721,4.721,0,0,0,7.313,0A6.735,6.735,0,0,1,58,23a1,1,0,0,1,0,2,4.822,4.822,0,0,0-3.662,1.736A6.724,6.724,0,0,1,49.33,29Z"/>
      <path id="Trazado_874418" data-name="Trazado 874418" d="M49.33,35a6.736,6.736,0,0,1-5.019-2.267,4.712,4.712,0,0,0-7.3,0,6.679,6.679,0,0,1-10.028,0,4.72,4.72,0,0,0-7.31,0c-.342.316-.687.631-1.06.919a1,1,0,0,1-1.223-1.584c.328-.252.628-.53.929-.808a6.679,6.679,0,0,1,10.021,0,4.72,4.72,0,0,0,7.313,0,6.671,6.671,0,0,1,10.016,0,4.721,4.721,0,0,0,7.313,0A6.735,6.735,0,0,1,58,29a1,1,0,1,1,0,2,4.822,4.822,0,0,0-3.662,1.736A6.724,6.724,0,0,1,49.33,35Z"/>
      <path id="Trazado_874419" data-name="Trazado 874419" d="M49.33,41a6.736,6.736,0,0,1-5.019-2.267,4.712,4.712,0,0,0-7.3,0,6.679,6.679,0,0,1-10.028,0,4.72,4.72,0,0,0-7.31,0c-.342.316-.687.631-1.06.919a1,1,0,1,1-1.223-1.584c.328-.252.628-.53.929-.808a6.679,6.679,0,0,1,10.021,0,4.72,4.72,0,0,0,7.313,0,6.671,6.671,0,0,1,10.016,0,4.721,4.721,0,0,0,7.313,0A6.735,6.735,0,0,1,58,35a1,1,0,1,1,0,2,4.822,4.822,0,0,0-3.662,1.736A6.724,6.724,0,0,1,49.33,41Z"/>
      <path id="Trazado_874420" data-name="Trazado 874420" d="M49.33,47a6.736,6.736,0,0,1-5.019-2.267,4.712,4.712,0,0,0-7.3,0,6.679,6.679,0,0,1-10.028,0,4.72,4.72,0,0,0-7.31,0c-.342.316-.687.631-1.06.919a1,1,0,0,1-1.223-1.584c.328-.252.628-.53.929-.808a6.679,6.679,0,0,1,10.021,0,4.72,4.72,0,0,0,7.313,0,6.671,6.671,0,0,1,10.016,0,4.721,4.721,0,0,0,7.313,0A6.735,6.735,0,0,1,58,41a1,1,0,1,1,0,2,4.822,4.822,0,0,0-3.662,1.736A6.724,6.724,0,0,1,49.33,47Z"/>
      <path id="Trazado_874421" data-name="Trazado 874421" d="M9.834,49a6.232,6.232,0,0,1-4-1.482,7.6,7.6,0,0,1-1.2-1.261A8.574,8.574,0,0,1,3.01,40.8,10.306,10.306,0,0,1,5.54,33.82a8.912,8.912,0,0,1,4.724-2.756,2.581,2.581,0,0,1,2.405.69c.014.013.026.026.038.039.051.053.105.115.155.177a2.932,2.932,0,0,1,.582,2.266,4.926,4.926,0,0,0,.012,1.506c.014.082.028.164.046.243a3.355,3.355,0,0,0,.715,1.4A7.768,7.768,0,0,1,15.336,45.4a6.431,6.431,0,0,1-1.416,1.964A5.92,5.92,0,0,1,9.834,49Zm1.01-16a.72.72,0,0,0-.151.016A6.917,6.917,0,0,0,7.025,35.16a8.475,8.475,0,0,0-2.017,5.668,6.6,6.6,0,0,0,1.229,4.23,5.547,5.547,0,0,0,.879.928,4.044,4.044,0,0,0,5.431-.074,4.454,4.454,0,0,0,.979-1.357,5.734,5.734,0,0,0-.861-5.912,5.35,5.35,0,0,1-1.117-2.233c-.023-.11-.046-.226-.064-.343a6.944,6.944,0,0,1-.017-2.119.945.945,0,0,0-.159-.72l-.057-.063A.555.555,0,0,0,10.844,33Z"/>
      <path id="Trazado_874422" data-name="Trazado 874422" d="M11.313,48.772a1,1,0,0,1-.929-.629L8.212,42.71,3.626,40.294a1,1,0,1,1,.932-1.77L9.47,41.112a1,1,0,0,1,.463.514L12.241,47.4a1,1,0,0,1-.929,1.371Z"/>
      <path id="Trazado_874423" data-name="Trazado 874423" d="M9,43a1,1,0,0,1-.377-1.927L14.1,38.843a1,1,0,1,1,.754,1.854L9.381,42.924A1.007,1.007,0,0,1,9,43Z"/>
      <path id="Trazado_874424" data-name="Trazado 874424" d="M14,17H5a1,1,0,0,1,0-2h9a1,1,0,0,1,0,2Z"/>
      <path id="Trazado_874425" data-name="Trazado 874425" d="M14,22H5a1,1,0,0,1,0-2h9a1,1,0,0,1,0,2Z"/>
      <path id="Trazado_874426" data-name="Trazado 874426" d="M10,27H5a1,1,0,0,1,0-2h5a1,1,0,0,1,0,2Z"/>
    </g>
  </g>
</svg>
