<svg xmlns="http://www.w3.org/2000/svg" width="100" height="100" viewBox="0 0 100 100">
  <g id="Grupo_1099692" data-name="Grupo 1099692" transform="translate(-865.051 -3373)">
    <circle id="Elipse_11680" data-name="Elipse 11680" cx="50" cy="50" r="50" transform="translate(865.051 3373)" fill="#f9a545"/>
    <g id="Grupo_1099691" data-name="Grupo 1099691" transform="translate(879.214 3399.096)">
      <path id="Trazado_874427" data-name="Trazado 874427" d="M70.116,29.545c1.8,5.518,10.128,3.94,10.128,9.246,0,4.846-14.95,7.852-19.807,8.1l-20.25.376c-12.973,0-22.373-3.537-22.373-14.169s9.59-22.144,23.3-22.144c12.951,0,25.7,8.437,29,18.589Zm0,0" transform="translate(-15.32 -8.993)" fill="#d87e35"/>
      <path id="Trazado_874428" data-name="Trazado 874428" d="M80.8,174.412a2.312,2.312,0,0,0-2.542.5c-3.488,3.552-14.676,5.7-18.753,5.913l-20.25.376c-5.925,0-11.1-.738-14.983-2.553,2.645,6.673,10.862,9.039,21.469,9.039l20.25-.376c4.857-.25,19.807-3.255,19.807-8.1,0-2.884-2.462-3.735-5-4.8Zm0,0" transform="translate(-20.872 -149.411)" fill="#c67030"/>
      <path id="Trazado_874429" data-name="Trazado 874429" d="M367.6,9.045a3.347,3.347,0,0,0-.337,2.967,1.532,1.532,0,0,1-.566,1.676L357.7,20.205a2.438,2.438,0,1,0,2.886,3.93l8.912-6.63a1.533,1.533,0,0,1,1.768-.038,3.347,3.347,0,0,0,2.931.568,2.645,2.645,0,0,0,1.5-3.629,2.866,2.866,0,0,0-2.643-1.755.7.7,0,0,1-.662-.9,2.867,2.867,0,0,0-.883-3.048,2.645,2.645,0,0,0-3.911.344Zm0,0" transform="translate(-306.763 -6.448)" fill="#e2e2e2"/>
      <path id="Trazado_874430" data-name="Trazado 874430" d="M185.593,101.584c3.733,5.084,11.122,6,16.505,2.05a14.119,14.119,0,0,0,5.036-7.4,22.219,22.219,0,0,1,6.3-10.1,2.049,2.049,0,0,0,.339-2.717l-2.4-3.269a2.049,2.049,0,0,0-2.693-.491,22.216,22.216,0,0,1-11.528,2.986,14.122,14.122,0,0,0-8.573,2.588c-5.382,3.952-6.72,11.277-2.987,16.361Zm0,0" transform="translate(-157.793 -67.813)" fill="#e88c38"/>
      <path id="Trazado_874431" data-name="Trazado 874431" d="M219.374,85.287l-2.4-3.269a1.422,1.422,0,0,0-.977-.454,3.344,3.344,0,0,0-2.951,1.147,30.84,30.84,0,0,0-5.946,9.763,14.119,14.119,0,0,1-5.037,7.4,12.207,12.207,0,0,1-12.074,1.487,10.811,10.811,0,0,0,1.2,2.1c3.733,5.084,11.122,6,16.5,2.05a14.117,14.117,0,0,0,5.037-7.4,22.21,22.21,0,0,1,6.3-10.1,2.049,2.049,0,0,0,.339-2.717Zm0,0" transform="translate(-163.393 -69.691)" fill="#d38231"/>
      <path id="Trazado_874432" data-name="Trazado 874432" d="M75.126,264.6H9.446a1.947,1.947,0,0,0,0,3.894h3.807a1.2,1.2,0,0,1,1.106.743l.667,1.632a4.057,4.057,0,0,0,3.756,2.522h47.01a4.057,4.057,0,0,0,3.756-2.522l.666-1.632a1.2,1.2,0,0,1,1.106-.743h3.807a1.947,1.947,0,0,0,0-3.894Zm0,0" transform="translate(-6.45 -227.132)" fill="#e2e2e2"/>
      <path id="Trazado_874433" data-name="Trazado 874433" d="M392.116,264.6H386.06a3.894,3.894,0,0,1-3.894,3.894h-.047a3.894,3.894,0,0,0-3.6,2.421l-.475,1.164a2.11,2.11,0,0,1-1.953,1.312h6.695a4.057,4.057,0,0,0,3.756-2.522l.666-1.632a1.2,1.2,0,0,1,1.106-.743h3.807a1.947,1.947,0,0,0,0-3.894Zm0,0" transform="translate(-323.44 -227.132)" fill="#d8d6d4"/>
      <path id="Trazado_874434" data-name="Trazado 874434" d="M68.676,36.42H57.629c.664-.221,1.327-.46,1.973-.719,4.227-1.69,6.371-3.676,6.371-5.9,0-3.424-2.774-4.575-5.222-5.589a16.567,16.567,0,0,1-3.021-1.5,1.05,1.05,0,1,0-1.19,1.73,18.128,18.128,0,0,0,3.406,1.7c2.508,1.04,3.926,1.721,3.926,3.649,0,1.23-1.841,2.671-5.05,3.954A52.281,52.281,0,0,1,48.687,36.42H45.249a15.249,15.249,0,0,0,5.092-7.683,21.113,21.113,0,0,1,6.012-9.652,3.174,3.174,0,0,0,1.022-2.73L63.362,11.9a.485.485,0,0,1,.558-.01,4.29,4.29,0,0,0,3.858.689,3.57,3.57,0,0,0,2.135-1.953A3.864,3.864,0,0,0,69.9,7.539a3.947,3.947,0,0,0-3.157-2.36,3.948,3.948,0,0,0-1.307-3.719A3.864,3.864,0,0,0,62.493.522a3.572,3.572,0,0,0-2.5,1.452,4.29,4.29,0,0,0-.5,3.887.484.484,0,0,1-.175.528l-6.045,4.38a3.175,3.175,0,0,0-2.911.157,21.112,21.112,0,0,1-11.009,2.845,15.128,15.128,0,0,0-9.188,2.792,13.421,13.421,0,0,0-5.323,8.413,12.078,12.078,0,0,0,2.111,9.415,11.879,11.879,0,0,0,1.894,2.028h-13.3C7.47,34.793,3.543,30.764,3.543,24.107A20.9,20.9,0,0,1,9.753,9.782,22.267,22.267,0,0,1,25.8,3.013a32.892,32.892,0,0,1,19.864,6.97A1.05,1.05,0,0,0,46.954,8.33,35.032,35.032,0,0,0,25.8.913a24.351,24.351,0,0,0-17.544,7.4A23.014,23.014,0,0,0,1.443,24.107c0,5.686,2.512,9.807,7.476,12.313H3a3,3,0,0,0,0,5.994H6.8a.144.144,0,0,1,.134.09L7.6,44.135a5.087,5.087,0,0,0,4.727,3.175h47.01a5.087,5.087,0,0,0,4.727-3.175l.667-1.631a.144.144,0,0,1,.134-.09h3.807a3,3,0,0,0,0-5.994ZM60.552,8.088a2.589,2.589,0,0,0,.955-2.823,2.354,2.354,0,0,1,.176-2.047,1.472,1.472,0,0,1,1.044-.61,1.76,1.76,0,0,1,1.335.438,1.819,1.819,0,0,1,.568,1.939,1.753,1.753,0,0,0,1.663,2.266h0a1.819,1.819,0,0,1,1.68,1.123,1.758,1.758,0,0,1,.018,1.4,1.474,1.474,0,0,1-.895.814,2.356,2.356,0,0,1-2.006-.446,2.589,2.589,0,0,0-2.98.067l-5.677,4.223-1.613-2.2ZM28.646,33.149a10,10,0,0,1-1.738-7.8,11.331,11.331,0,0,1,4.5-7.1,13.107,13.107,0,0,1,7.958-2.384,23.106,23.106,0,0,0,12.047-3.127,1.036,1.036,0,0,1,1.192.064l.013.011a.863.863,0,0,1,.116.128l2.4,3.27a.82.82,0,0,1,.088.151l0,.005a1.035,1.035,0,0,1-.294,1.164A23.1,23.1,0,0,0,48.341,28.1a13.111,13.111,0,0,1-4.658,6.879,11.713,11.713,0,0,1-2.609,1.445H32.826a9.873,9.873,0,0,1-4.18-3.271Zm40.03,7.164H22.39a1.05,1.05,0,0,0,0,2.1H62.5l-.378.927a3,3,0,0,1-2.784,1.87H12.331a3,3,0,0,1-2.784-1.87l-.378-.927h8.336a1.05,1.05,0,0,0,0-2.1H3A.9.9,0,0,1,3,38.52h65.68a.9.9,0,0,1,0,1.794Zm0,0" transform="translate(0 0)"/>
    </g>
  </g>
</svg>
