<svg xmlns="http://www.w3.org/2000/svg" width="100" height="100" viewBox="0 0 100 100">
  <g id="Grupo_1099690" data-name="Grupo 1099690" transform="translate(6942 8235)">
    <circle id="Elipse_11681" data-name="Elipse 11681" cx="50" cy="50" r="50" transform="translate(-6942 -8235)" fill="#f9a545"/>
    <g id="Grupo_1099678" data-name="Grupo 1099678" transform="translate(-6922.873 -8216.367)">
      <circle id="Elipse_11685" data-name="Elipse 11685" cx="30.44" cy="30.44" r="30.44" transform="translate(0.932 0.927)" fill="#ffe4cc"/>
      <path id="Trazado_874449" data-name="Trazado 874449" d="M76.988,33.955a30.351,30.351,0,0,0-9.57-6.477A30.45,30.45,0,0,1,27.463,67.434,30.443,30.443,0,1,0,76.988,33.955Z" transform="translate(-24.093 -24.112)" fill="#ffd8c7"/>
      <circle id="Elipse_11686" data-name="Elipse 11686" cx="22.273" cy="22.273" r="22.273" transform="translate(9.099 9.095)" fill="#fff0e3"/>
      <path id="Trazado_874450" data-name="Trazado 874450" d="M149.9,118.415q-.667-.667-1.375-1.264a30.43,30.43,0,0,1-31.387,31.389q.6.707,1.264,1.375a22.273,22.273,0,0,0,31.5-31.5Z" transform="translate(-102.783 -102.797)" fill="#ffe8de"/>
      <path id="Trazado_874451" data-name="Trazado 874451" d="M181.012,136.971l-2.9.37a47.771,47.771,0,0,1,6.3-12.425,6.943,6.943,0,0,1,6.7.58" transform="translate(-156.286 -109.085)" fill="#77848a"/>
      <path id="Trazado_874452" data-name="Trazado 874452" d="M107.674,92.912l-3.911,1.015q-1.682.437-3.3,1.029a30.431,30.431,0,0,1-29.48,32.317c-.078.068-.156.137-.235.2l-.349.3-2.576.447a15.5,15.5,0,0,0-5.41,2.033,29.6,29.6,0,0,0,10.043,8.663,25.484,25.484,0,0,0,1.1-3.691l.608-2.814,12.779-4.973a40.97,40.97,0,0,0,7.585-3.975c10.443-6.964,15.381-17.289,17.7-24.1A29.329,29.329,0,0,0,107.674,92.912Z" transform="translate(-54.758 -81.528)" fill="#ffc1ad"/>
      <path id="Trazado_874453" data-name="Trazado 874453" d="M153.87,118.415q-.667-.667-1.375-1.264c0,.056,0,.112,0,.167a30.426,30.426,0,0,1-29.526,31.224c-.078.068-.156.137-.235.2l-.349.3-.726.126q.345.378.71.745a22.3,22.3,0,0,0,4.507,3.483l12.051-4.689a40.97,40.97,0,0,0,7.585-3.975,43.225,43.225,0,0,0,13.492-14.712A22.171,22.171,0,0,0,153.87,118.415Z" transform="translate(-106.749 -102.797)" fill="#ffcfc2"/>
      <path id="Trazado_874454" data-name="Trazado 874454" d="M75.177,70.453l.571-1.562a.649.649,0,0,0-.773-.852l-7.958,2.065a36.093,36.093,0,0,0-21.4,15.578l-2.729,4.295q-.317.5-.589,1.025l-3.255,6.3A20.972,20.972,0,0,1,34,103.656l-.349.3-2.576.447a15.5,15.5,0,0,0-7.126,3.242l-1.151.935a.933.933,0,0,0,.287,1.607l2.611.889a7.778,7.778,0,0,1,4.924,5.07l1.2,3.894a.746.746,0,0,0,1.366.141l1.014-1.836a25.475,25.475,0,0,0,2.6-6.939l.608-2.814,12.779-4.973a40.97,40.97,0,0,0,7.585-3.975c12.76-8.509,17.3-22.038,18.887-28.048a.474.474,0,0,0-.566-.659l-.359.11A.456.456,0,0,1,75.177,70.453Z" transform="translate(-19.696 -59.685)" fill="#a5b9c0"/>
      <path id="Trazado_874455" data-name="Trazado 874455" d="M171.15,197.9a11.633,11.633,0,1,1-11.632-11.631A11.632,11.632,0,0,1,171.15,197.9Z" transform="translate(-129.762 -163.449)" fill="#ffc82c"/>
      <path id="Trazado_874456" data-name="Trazado 874456" d="M172.436,200.99a9.828,9.828,0,1,0,9.828,9.828A9.828,9.828,0,0,0,172.436,200.99Zm7.614,8.9h-5.28l3.839-3.626A7.627,7.627,0,0,1,180.05,209.89Zm-8.542,8.542a7.636,7.636,0,0,1-3.971-1.711l3.971-3.75Zm-3.3-14.015a7.624,7.624,0,0,1,3.3-1.213V208.3Zm5.157,8.923,3.3,3.878a7.624,7.624,0,0,1-3.3,1.213V213.34Zm0-10.136a7.636,7.636,0,0,1,3.971,1.711l-3.971,3.75Zm-6.57,2.417,3.633,4.269h-5.606A7.641,7.641,0,0,1,166.794,205.621Zm-1.972,6.125h5.28l-3.839,3.626A7.63,7.63,0,0,1,164.822,211.746Zm13.256,4.269-3.633-4.269h5.606A7.642,7.642,0,0,1,178.078,216.015Z" transform="translate(-142.679 -176.364)" fill="#ffe5c2"/>
      <path id="Trazado_874457" data-name="Trazado 874457" d="M151.975,223.553a13.628,13.628,0,0,0-1.788.118,11.633,11.633,0,0,0,14.731,17.249,13.512,13.512,0,0,0-12.943-17.367Z" transform="translate(-129.761 -196.162)" fill="#f9b52b"/>
      <path id="Trazado_874458" data-name="Trazado 874458" d="M174.443,231.668h2.78a13.48,13.48,0,0,0-1.014-1.856h-1.441l.864-.816a13.581,13.581,0,0,0-1.225-1.4l-1.045.987v-1.923a13.528,13.528,0,0,0-1.856-1.259v2.812l-3.3-3.878c.093-.062.189-.119.285-.177a13.479,13.479,0,0,0-2.9-.468,9.827,9.827,0,0,0,12.735,14.916,13.565,13.565,0,0,0-.009-2.942c-.077.091-.154.181-.235.269Zm-7.65-6.125,3.633,4.269h-5.606A7.642,7.642,0,0,1,166.793,225.543Zm-1.972,6.125h5.28l-3.839,3.626A7.631,7.631,0,0,1,164.821,231.668Zm6.686,6.686a7.636,7.636,0,0,1-3.971-1.711l3.971-3.75Zm1.856,0v-5.092l3.3,3.878A7.625,7.625,0,0,1,173.363,238.354Z" transform="translate(-142.678 -196.286)" fill="#f4d5b8"/>
      <circle id="Elipse_11687" data-name="Elipse 11687" cx="11.631" cy="11.631" r="11.631" transform="translate(10.583 29.264)" fill="#ffc82c"/>
      <path id="Trazado_874459" data-name="Trazado 874459" d="M110.877,253.558a9.828,9.828,0,1,0,9.828,9.828A9.828,9.828,0,0,0,110.877,253.558Zm7.614,8.9h-5.28l3.839-3.626A7.631,7.631,0,0,1,118.491,262.458ZM109.949,271a7.635,7.635,0,0,1-3.971-1.711l3.971-3.75Zm-3.3-14.015a7.624,7.624,0,0,1,3.3-1.213v5.092Zm5.157,8.923,3.3,3.878a7.625,7.625,0,0,1-3.3,1.213Zm0-10.136a7.636,7.636,0,0,1,3.971,1.711l-3.971,3.75Zm-6.57,2.417,3.633,4.269h-5.606A7.642,7.642,0,0,1,105.235,258.189Zm-1.972,6.125h5.28L104.7,267.94A7.63,7.63,0,0,1,103.263,264.314Zm13.256,4.269-3.633-4.269h5.606A7.642,7.642,0,0,1,116.519,268.583Z" transform="translate(-88.662 -222.491)" fill="#ffe5c2"/>
      <path id="Trazado_874460" data-name="Trazado 874460" d="M57.282,13.681q.235-.8.437-1.565a1.4,1.4,0,0,0-1.21-1.9l.285-.779a1.578,1.578,0,0,0-1.878-2.069l-2.584.671A31.372,31.372,0,0,0,12.055,6.649.928.928,0,0,0,13.2,8.11,29.518,29.518,0,0,1,50.149,8.6l-3.19.828a37.045,37.045,0,0,0-4.52,1.49A23.243,23.243,0,0,0,9.712,39.7c-.037.394-.057.793-.057,1.2a12.59,12.59,0,0,0,.372,3.031,16.484,16.484,0,0,0-4.446,1.8A29.689,29.689,0,0,1,2.059,27.936,29.2,29.2,0,0,1,10.5,10.5.928.928,0,1,0,9.191,9.187,31.042,31.042,0,0,0,.215,27.721,31.553,31.553,0,0,0,4.031,46.758c-.167.125-.332.252-.494.384l-1.151.935a1.861,1.861,0,0,0,.573,3.206l2.611.889a6.869,6.869,0,0,1,4.337,4.465l1.2,3.894a1.674,1.674,0,0,0,3.065.316l1.014-1.836c.106-.192.209-.387.311-.582A31.375,31.375,0,0,0,57.282,13.681Zm-41,2.594a21.266,21.266,0,0,1,23.957-4.385q-.775.372-1.532.779a.928.928,0,1,0,.88,1.634,35.187,35.187,0,0,1,7.841-3.077L52.2,9.986a.925.925,0,0,0,.246-.064l2.425-.629-.389,1.063a1.385,1.385,0,0,0,1.289,1.861,55.345,55.345,0,0,1-4.283,10.937.926.926,0,0,0-.067.126,44.28,44.28,0,0,1-9.126,11.99c.017-.268.029-.537.029-.808A12.574,12.574,0,0,0,29.974,21.9a35.134,35.134,0,0,1,6.273-5.557.928.928,0,1,0-1.056-1.526q-.273.189-.542.383a7.846,7.846,0,0,0-7.022-.316.928.928,0,0,0-.384.314,48.867,48.867,0,0,0-3.568,5.887c-.576,1.123-1.113,2.283-1.6,3.449A12.547,12.547,0,0,0,18.5,28.9a12.621,12.621,0,0,0-7.928,7.289A21.351,21.351,0,0,1,16.278,16.274ZM26.371,29.044l-.229-.269a6.745,6.745,0,0,1,2.693-.991v2.443A12.508,12.508,0,0,0,26.371,29.044Zm7.608.159-2.933,2.77q-.174-.172-.354-.338V27.783A6.714,6.714,0,0,1,33.978,29.2Zm-1.712,4.17,2.987-2.821a6.7,6.7,0,0,1,1.188,2.981H32.383C32.344,33.48,32.306,33.426,32.266,33.373Zm4.176,2.016A6.689,6.689,0,0,1,34.8,38.946l-.218-.257a12.459,12.459,0,0,0-1.079-3.3ZM34.761,41.46A8.6,8.6,0,1,0,23.645,28.418,12.592,12.592,0,0,0,20.94,28.4,10.7,10.7,0,1,1,34.35,44.133,12.5,12.5,0,0,0,34.761,41.46ZM27.35,22.138a12.547,12.547,0,0,0-2.51.773q.238-.491.485-.975A47.045,47.045,0,0,1,28.6,16.491a6.068,6.068,0,0,1,3.109-.361,5.986,5.986,0,0,1,1.276.339A36.969,36.969,0,0,0,27.35,22.138ZM13.564,58.115l-.808,1.461-1.075-3.485a8.731,8.731,0,0,0-5.512-5.675l-2.612-.9,1.151-.935a14.607,14.607,0,0,1,5.9-2.884,12.427,12.427,0,0,0,.722,1.466.928.928,0,1,0,1.608-.928,10.6,10.6,0,0,1-.761-1.624.943.943,0,0,0-.012-.151.923.923,0,0,0-.174-.4,10.706,10.706,0,0,1,7.346-13.476.931.931,0,0,0,.129-.035,10.7,10.7,0,1,1,4.393,20.922l-.016,0a10.718,10.718,0,0,1-8.721-2.565A.928.928,0,0,0,13.89,50.3a12.545,12.545,0,0,0,2.1,1.5A24.532,24.532,0,0,1,13.564,58.115ZM60.787,33.76A29.519,29.519,0,0,1,16.3,56.748a26.385,26.385,0,0,0,1.4-4.132,12.559,12.559,0,0,0,6.21.725A23.243,23.243,0,0,0,44.7,50.365a.928.928,0,0,0-1.067-1.518A21.373,21.373,0,0,1,27.387,52.34a12.64,12.64,0,0,0,6.084-5.878A12.583,12.583,0,0,0,41.748,38.2,44.86,44.86,0,0,0,52.034,26a21.338,21.338,0,0,1-5.569,20.46.928.928,0,1,0,1.313,1.313,23.2,23.2,0,0,0,5.506-24.049,55.971,55.971,0,0,0,3.275-7.75A29.574,29.574,0,0,1,60.787,33.76Z" transform="translate(0 0)"/>
      <circle id="Elipse_11688" data-name="Elipse 11688" cx="0.928" cy="0.928" r="0.928" transform="translate(48.261 12.992)"/>
      <path id="Trazado_874461" data-name="Trazado 874461" d="M344.211,128.251a8.381,8.381,0,0,0,4.174,2.227.928.928,0,1,0,.377-1.817,6.515,6.515,0,0,1-5.092-5.2.928.928,0,1,0-1.825.34A8.49,8.49,0,0,0,344.211,128.251Z" transform="translate(-299.941 -107.667)"/>
      <path id="Trazado_874462" data-name="Trazado 874462" d="M313.773,145.728a10.863,10.863,0,0,0,5.411,2.886.928.928,0,1,0,.377-1.817,9,9,0,0,1-7.031-7.181.928.928,0,0,0-1.825.34A11,11,0,0,0,313.773,145.728Z" transform="translate(-272.617 -121.844)"/>
      <path id="Trazado_874463" data-name="Trazado 874463" d="M119.671,280.78a8.6,8.6,0,1,0-8.6-8.6A8.61,8.61,0,0,0,119.671,280.78Zm6.678-9.528h-4.344l3.156-2.981A6.7,6.7,0,0,1,126.349,271.252Zm-7.607,7.607a6.712,6.712,0,0,1-3.288-1.42l3.288-3.1ZM120.6,274.7l2.692,3.163a6.7,6.7,0,0,1-2.692.993V274.7Zm0-4.675V265.5a6.712,6.712,0,0,1,3.288,1.42Zm-1.856-.369-2.692-3.163a6.7,6.7,0,0,1,2.692-.993Zm-4.562,6.431a6.7,6.7,0,0,1-1.188-2.981h4.344Zm10.523.573-3.025-3.554h4.67A6.72,6.72,0,0,1,124.7,276.662ZM114.638,267.7l3.025,3.554h-4.67A6.721,6.721,0,0,1,114.638,267.7Z" transform="translate(-97.457 -231.285)"/>
    </g>
  </g>
</svg>
