<svg id="Illustration" xmlns="http://www.w3.org/2000/svg" width="160" height="157.493" viewBox="0 0 160 157.493">
  <g id="Indian_cuisine_1_" transform="translate(0 0)">
    <ellipse id="Elipse_11638" data-name="Elipse 11638" cx="78.673" cy="78.747" rx="78.673" ry="78.747" transform="translate(0.957)" fill="#f2e6dc"/>
    <g id="Grupo_1099559" data-name="Grupo 1099559" transform="translate(90.721 102.185)">
      <path id="Trazado_874098" data-name="Trazado 874098" d="M1436.483,1559.516l12.02-5.209-19.334-1.7A84.025,84.025,0,0,1,1419.26,1539a50.9,50.9,0,0,1,7.61-1.321l13.187,12.026-5.573-12.336a46.817,46.817,0,0,1,12.827,2.029q.927.292,1.807.63l8.966,18.542.092-12.98c5.171,4.8,7.254,10.79,5.872,14.813-2.12,6.17-12.715,8.779-24.414,1.34C1438.554,1561.059,1437.5,1560.309,1436.483,1559.516Z" transform="translate(-1419.26 -1537.355)" fill="#d3bba3"/>
      <path id="Trazado_874099" data-name="Trazado 874099" d="M1502.78,1537.5a59.3,59.3,0,0,1,7.614-.31l5.573,12.336Z" transform="translate(-1495.17 -1537.175)" fill="#e6d0be"/>
      <path id="Trazado_874100" data-name="Trazado 874100" d="M1746.93,1566.55a27.985,27.985,0,0,1,9.057,5.562l-.091,12.98Z" transform="translate(-1717.073 -1563.873)" fill="#e6d0be"/>
      <path id="Trazado_874101" data-name="Trazado 874101" d="M1535.325,1711.5a57.738,57.738,0,0,1-7.314-6.905l19.334,1.7Z" transform="translate(-1518.101 -1689.343)" fill="#e6d0be"/>
      <path id="Trazado_874102" data-name="Trazado 874102" d="M1702.123,1689.015a.09.09,0,0,1-.065-.027,62.708,62.708,0,0,0-5.164-4.735,61.021,61.021,0,0,0-16.468-9.664.091.091,0,0,1,.066-.17,61.2,61.2,0,0,1,16.517,9.693,62.989,62.989,0,0,1,5.179,4.749.091.091,0,0,1-.065.155Z" transform="translate(-1656.576 -1661.907)" fill="#d3bba3"/>
    </g>
    <g id="Grupo_1099560" data-name="Grupo 1099560" transform="translate(104.544 58.114)">
      <path id="Trazado_874103" data-name="Trazado 874103" d="M1571.23,1038.427l-4.17,11.535-2.707-17.969a78.679,78.679,0,0,0-13.29-8.47,47.679,47.679,0,0,0-.793,7.188l12,11.625-11.851-4.492a43.812,43.812,0,0,0,2.64,11.868q.327.85.694,1.652l17.846,7.3-12.124.839c4.786,4.553,10.5,6.152,14.182,4.628,5.643-2.339,7.466-12.391-.165-22.891C1572.793,1040.271,1572.032,1039.333,1571.23,1038.427Z" transform="translate(-1550.221 -1023.523)" fill="#d3bba3"/>
      <path id="Trazado_874104" data-name="Trazado 874104" d="M1549.773,1102.4a55.509,55.509,0,0,0,.152,7.133l11.851,4.492Z" transform="translate(-1549.722 -1095.213)" fill="#e6d0be"/>
      <path id="Trazado_874105" data-name="Trazado 874105" d="M1588.53,1329.06a26.205,26.205,0,0,0,5.723,8.141l12.124-.839Z" transform="translate(-1584.994 -1301.219)" fill="#e6d0be"/>
      <path id="Trazado_874106" data-name="Trazado 874106" d="M1711.7,1122.914a54.085,54.085,0,0,0-6.877-6.434l2.707,17.969Z" transform="translate(-1690.688 -1108.01)" fill="#e6d0be"/>
      <path id="Trazado_874107" data-name="Trazado 874107" d="M1700.276,1280.057a.09.09,0,0,1-.059-.022,58.906,58.906,0,0,1-4.739-4.565,57.3,57.3,0,0,1-10.016-14.873.091.091,0,1,1,.165-.077,57.126,57.126,0,0,0,9.985,14.826,58.706,58.706,0,0,0,4.724,4.551.091.091,0,0,1,.01.128A.088.088,0,0,1,1700.276,1280.057Z" transform="translate(-1673.085 -1238.878)" fill="#d3bba3"/>
    </g>
    <g id="Grupo_1099565" data-name="Grupo 1099565" transform="translate(69.166 12.429)">
      <g id="Grupo_1099561" data-name="Grupo 1099561" transform="translate(0 31.633)">
        <circle id="Elipse_11639" data-name="Elipse 11639" cx="8.008" cy="8.008" r="8.008" transform="translate(0 11.325) rotate(-45)" fill="#d3bba3"/>
        <circle id="Elipse_11640" data-name="Elipse 11640" cx="5.282" cy="5.282" r="5.282" transform="translate(6.045 6.043)" fill="#fff"/>
        <circle id="Elipse_11641" data-name="Elipse 11641" cx="2.312" cy="2.312" r="2.312" transform="translate(9.014 9.013)" fill="#d3bba3"/>
      </g>
      <g id="Grupo_1099562" data-name="Grupo 1099562" transform="translate(47.476 31.633)">
        <circle id="Elipse_11642" data-name="Elipse 11642" cx="8.008" cy="8.008" r="8.008" transform="translate(0 11.325) rotate(-45)" fill="#d3bba3"/>
        <circle id="Elipse_11643" data-name="Elipse 11643" cx="5.282" cy="5.282" r="5.282" transform="translate(6.045 6.043)" fill="#fff"/>
        <circle id="Elipse_11644" data-name="Elipse 11644" cx="2.312" cy="2.312" r="2.312" transform="translate(9.014 9.012)" fill="#d3bba3"/>
      </g>
      <path id="Trazado_874108" data-name="Trazado 874108" d="M1432.77,623.976a4.254,4.254,0,0,0-4.186,5.013l.6,3.308a21.6,21.6,0,0,1,.184,6.5,7.015,7.015,0,0,1-6.981,6.118h-7.309a2.765,2.765,0,0,1-2.512-3.923l2.929-6.357H1403.76v16.406h30.914l2.121-3.687a18.165,18.165,0,0,0,.948-16.218l-3.07-7.156h-1.9Z" transform="translate(-1383.618 -610.074)" fill="#e6d0be"/>
      <rect id="Rect치ngulo_401404" data-name="Rect치ngulo 401404" width="7.322" height="2.177" transform="translate(42.02 15.599) rotate(-25.568)" fill="#e6d0be"/>
      <rect id="Rect치ngulo_401405" data-name="Rect치ngulo 401405" width="7.145" height="2.541" transform="translate(39.486 16.609) rotate(-25.568)" fill="#d3bba3"/>
      <path id="Trazado_874109" data-name="Trazado 874109" d="M1425.935,718.945h-10.7V716.46h10.7a1.243,1.243,0,0,1,1.243,1.243h0A1.242,1.242,0,0,1,1425.935,718.945Z" transform="translate(-1394.051 -694.13)" fill="#fff"/>
      <path id="Trazado_874110" data-name="Trazado 874110" d="M1738.1,538.053a3.877,3.877,0,1,0,0-7.755Z" transform="translate(-1687.493 -524.932)" fill="#fff"/>
      <path id="Trazado_874111" data-name="Trazado 874111" d="M1676.935,527.759c-2.775,0-6.783-2.25-6.783-5.024s4.008-5.024,6.783-5.024Z" transform="translate(-1625.737 -513.491)" fill="#e6d0be"/>
      <g id="Grupo_1099563" data-name="Grupo 1099563" transform="translate(38.311)">
        <path id="Trazado_874112" data-name="Trazado 874112" d="M1651.413,525.711a.091.091,0,0,1-.087-.065l-2.641-8.85a3.421,3.421,0,0,0-2.915-2.429.091.091,0,1,1,.02-.181,3.6,3.6,0,0,1,3.07,2.558l2.641,8.85a.091.091,0,0,1-.088.117Z" transform="translate(-1641.814 -510.287)" fill="#d3bba3"/>
        <path id="Trazado_874113" data-name="Trazado 874113" d="M1603.251,479.342a.091.091,0,0,1-.091-.091V471.5a.091.091,0,0,1,.091-.091,3.969,3.969,0,1,1,0,7.937Zm.091-7.754v7.57a3.786,3.786,0,0,0,0-7.57Z" transform="translate(-1603.16 -471.405)" fill="#d3bba3"/>
      </g>
      <path id="Trazado_874114" data-name="Trazado 874114" d="M1742.75,792.267a16.187,16.187,0,0,1,7.406-3.424,14.817,14.817,0,0,1,8.795,1.272,22.766,22.766,0,0,0-8.254-8.9,16.551,16.551,0,0,0-4.783-1.859Q1744.333,785.811,1742.75,792.267Z" transform="translate(-1691.719 -751.294)" fill="#e6d0be"/>
      <path id="Trazado_874115" data-name="Trazado 874115" d="M1219.953,757.417l-18.428-6.015h0A20.572,20.572,0,0,1,1219.4,741.02h1.308Z" transform="translate(-1199.811 -716.453)" fill="#e6d0be"/>
      <path id="Trazado_874116" data-name="Trazado 874116" d="M1242.224,785.036a.091.091,0,0,1-.091-.091,6.54,6.54,0,0,0-2.6-5.227,12.167,12.167,0,0,0-7.555-2.175,21.293,21.293,0,0,0-13.7,5.744.091.091,0,1,1-.132-.126,21.5,21.5,0,0,1,13.832-5.8,12.343,12.343,0,0,1,7.667,2.214,6.718,6.718,0,0,1,2.672,5.371A.091.091,0,0,1,1242.224,785.036Z" transform="translate(-1214.893 -749.481)" fill="#d3bba3"/>
      <path id="Trazado_874117" data-name="Trazado 874117" d="M1765.391,796.053a.091.091,0,0,1-.079-.137,18.141,18.141,0,0,0,2.4-8.343.091.091,0,0,1,.182.007,18.326,18.326,0,0,1-2.419,8.427A.091.091,0,0,1,1765.391,796.053Z" transform="translate(-1712.215 -758.685)" fill="#d3bba3"/>
      <g id="Grupo_1099564" data-name="Grupo 1099564" transform="translate(2.61 9.337)">
        <path id="Trazado_874118" data-name="Trazado 874118" d="M1238.392,590.092h-18.313v-10.44a4.774,4.774,0,0,1,4.774-4.774h13.539Z" transform="translate(-1219.284 -574.787)" fill="#f7f1eb"/>
        <path id="Trazado_874119" data-name="Trazado 874119" d="M1229.763,589.275H1211.45a.091.091,0,0,1-.091-.091V578.7a4.83,4.83,0,0,1,4.824-4.824h13.58a.091.091,0,0,1,.091.091v15.214A.091.091,0,0,1,1229.763,589.275Zm-18.222-.182h18.131V574.06h-13.489a4.647,4.647,0,0,0-4.642,4.642Z" transform="translate(-1211.359 -573.878)" fill="#d3bba3"/>
        <path id="Trazado_874120" data-name="Trazado 874120" d="M1230.062,621.067h-18.2a.091.091,0,1,1,0-.182h18.2a.091.091,0,1,1,0,.182Z" transform="translate(-1211.731 -616.602)" fill="#d3bba3"/>
      </g>
      <path id="Trazado_874121" data-name="Trazado 874121" d="M1772.273,759.514h-2.413l.879-2.9h1.533Z" transform="translate(-1716.359 -730.621)" fill="#fff"/>
    </g>
    <g id="Grupo_1099566" data-name="Grupo 1099566" transform="translate(7.016 67.279)">
      <path id="Trazado_874122" data-name="Trazado 874122" d="M556.862,1163.7l-16-10.391,25.925,2.712a90.271,90.271,0,0,0,13.527-16.313,76.284,76.284,0,0,0-10.167-3.831l-17.887,13.257,7.7-15.684a58.581,58.581,0,0,0-17.216-.542q-1.248.162-2.432.4l-12.357,23.419.122-18.064c-7.016,5.317-9.918,13.094-8.143,19.048,2.723,9.131,16.863,15.535,32.67,8.262A42.74,42.74,0,0,0,556.862,1163.7Z" transform="translate(-508.308 -1132.498)" fill="#e6d0be"/>
      <path id="Trazado_874123" data-name="Trazado 874123" d="M897.7,1145.342a82.565,82.565,0,0,0-10.19-2.427l-7.7,15.684Z" transform="translate(-835.857 -1141.966)" fill="#d3bba3"/>
      <path id="Trazado_874124" data-name="Trazado 874124" d="M625.4,1141.37a29.833,29.833,0,0,0-12.235,5.355l-.122,18.064Z" transform="translate(-593.395 -1140.561)" fill="#d3bba3"/>
      <path id="Trazado_874125" data-name="Trazado 874125" d="M770.714,1371.254a60.148,60.148,0,0,0,9.925-7.679l-25.925-2.712Z" transform="translate(-722.16 -1340.054)" fill="#d3bba3"/>
      <path id="Trazado_874126" data-name="Trazado 874126" d="M397.533,1334.7a.091.091,0,0,1-.074-.145,65.557,65.557,0,0,1,39.78-25.707.091.091,0,0,1,.037.178,65.372,65.372,0,0,0-39.67,25.636A.09.09,0,0,1,397.533,1334.7Z" transform="translate(-397.442 -1292.781)" fill="#d3bba3"/>
    </g>
    <g id="Grupo_1099567" data-name="Grupo 1099567" transform="translate(0 55.19)">
      <path id="Trazado_874127" data-name="Trazado 874127" d="M347.641,1015.749l-13.094.41,16.768-9.774a84.035,84.035,0,0,0,3.166-16.532,50.893,50.893,0,0,0-7.448,2.048l-6.8,16.5-.215-13.535a46.8,46.8,0,0,0-10.739,7.3q-.715.659-1.367,1.34l-.21,20.594-5.614-11.7c-2.632,6.547-1.964,12.852,1,15.9,4.547,4.679,15.244,2.524,22.657-9.192C346.426,1018.027,347.057,1016.9,347.641,1015.749Z" transform="translate(-320.44 -989.853)" fill="#d3bba3"/>
      <path id="Trazado_874128" data-name="Trazado 874128" d="M542.278,1012.33a59.252,59.252,0,0,0-7.02,2.964l.215,13.535Z" transform="translate(-515.684 -1010.282)" fill="#e6d0be"/>
      <path id="Trazado_874129" data-name="Trazado 874129" d="M344.317,1139.7a27.986,27.986,0,0,0-5.824,8.891l5.614,11.7Z" transform="translate(-336.848 -1126.046)" fill="#e6d0be"/>
      <path id="Trazado_874130" data-name="Trazado 874130" d="M488.353,1180.652a57.765,57.765,0,0,0,3.674-9.364l-16.768,9.774Z" transform="translate(-461.152 -1154.756)" fill="#e6d0be"/>
      <path id="Trazado_874131" data-name="Trazado 874131" d="M355.759,1232.732a.092.092,0,0,1-.087-.12,62.922,62.922,0,0,1,3.009-7.537,61.2,61.2,0,0,1,10.811-15.807.091.091,0,1,1,.132.125,61.019,61.019,0,0,0-10.779,15.76,62.73,62.73,0,0,0-3,7.515A.091.091,0,0,1,355.759,1232.732Z" transform="translate(-352.458 -1189.249)" fill="#d3bba3"/>
    </g>
    <g id="Grupo_1099568" data-name="Grupo 1099568" transform="translate(127.378 57.948)">
      <path id="Trazado_874132" data-name="Trazado 874132" d="M1821.627,1072.652l15.077,8.457-13.1-19.656a81.786,81.786,0,0,1,7.387-17.725,69.153,69.153,0,0,1,7.357,6.542l-3.1,19.935,9.339-12.782a53.091,53.091,0,0,1,7.689,13.583q.4,1.069.7,2.12l-13.581,19.78,14.44-7.709c-1.309,7.868-6.326,13.474-11.849,14.558-8.472,1.663-19.568-6.983-20.393-22.727A38.694,38.694,0,0,1,1821.627,1072.652Z" transform="translate(-1821.549 -1043.729)" fill="#e6d0be"/>
      <path id="Trazado_874133" data-name="Trazado 874133" d="M1975.02,1115.52a74.808,74.808,0,0,1,6.24,7.152l-9.339,12.782Z" transform="translate(-1958.219 -1108.978)" fill="#d3bba3"/>
      <path id="Trazado_874134" data-name="Trazado 874134" d="M2031.043,1366.35a27.035,27.035,0,0,1,.859,12.072l-14.44,7.709Z" transform="translate(-1999.61 -1336.952)" fill="#d3bba3"/>
      <path id="Trazado_874135" data-name="Trazado 874135" d="M1822.4,1249.454a54.516,54.516,0,0,1,1.979-11.2l13.1,19.655Z" transform="translate(-1822.323 -1220.531)" fill="#d3bba3"/>
      <path id="Trazado_874136" data-name="Trazado 874136" d="M1926.661,1414.655a.091.091,0,0,1-.078-.138,59.955,59.955,0,0,0,8.211-25.175,59.2,59.2,0,0,0-2.057-21.677.091.091,0,1,1,.175-.05,59.384,59.384,0,0,1,2.063,21.743,60.142,60.142,0,0,1-8.236,25.253A.09.09,0,0,1,1926.661,1414.655Z" transform="translate(-1917 -1338.042)" fill="#d3bba3"/>
    </g>
    <g id="Grupo_1099584" data-name="Grupo 1099584" transform="translate(0.808 2.805)">
      <path id="Trazado_874137" data-name="Trazado 874137" d="M668.014,1318.367l.777-7.648,1.985,7.648h31.417l-13.959-47.977-42.056,7.329-8.955,40.648Z" transform="translate(-609.166 -1187.962)" fill="#363e44"/>
      <g id="Grupo_1099576" data-name="Grupo 1099576">
        <g id="Grupo_1099570" data-name="Grupo 1099570" transform="translate(0.181 29.055)">
          <path id="Trazado_874138" data-name="Trazado 874138" d="M1253.02,1096.359c3.462,8.014,9.23,17.864,15.662,15.538,6.257-2.263,4.042-14,1.814-22.214Z" transform="translate(-1169.032 -1052.776)" fill="#84524d"/>
          <path id="Trazado_874139" data-name="Trazado 874139" d="M357.771,711.883c-5.855-3.515-30.395-16.892-25.947-25.028,3.289-6.017,22.9,1.837,28.941,4.951C358.607,696.223,359.929,707.467,357.771,711.883Z" transform="translate(-331.288 -684.648)" fill="#84524d"/>
          <g id="Grupo_1099569" data-name="Grupo 1099569" transform="translate(22.32 2.314)">
            <path id="Trazado_874140" data-name="Trazado 874140" d="M659.7,744.431s-17.337-24.672-43.839-24.181c-9.8.182-37.86-10.212-37.86-10.212l-1.77,27.156,12.092,5.471-2.2,34.884,54.457.889-4-24.672Z" transform="translate(-576.235 -710.039)" fill="#8b865c"/>
            <path id="Trazado_874141" data-name="Trazado 874141" d="M1220.764,1083.634a.091.091,0,0,1-.09-.077l-1.694-10.575a.091.091,0,0,1,.18-.029l1.694,10.575a.091.091,0,0,1-.076.1Z" transform="translate(-1160.412 -1039.815)" fill="#363e44"/>
            <path id="Trazado_874142" data-name="Trazado 874142" d="M903.584,813.575l-7.935-4.364-7.194,3.762-.027-.113-2.749-11.389a.091.091,0,0,1,.177-.043l2.722,11.275,7.074-3.7,7.774,4.276.774-9.547a.091.091,0,1,1,.182.015Z" transform="translate(-857.479 -793.037)" fill="#363e44"/>
            <path id="Trazado_874143" data-name="Trazado 874143" d="M627.18,757.2h-.006a.091.091,0,0,1-.085-.1l1.7-27.49a.091.091,0,0,1,.182.011l-1.7,27.49A.092.092,0,0,1,627.18,757.2Z" transform="translate(-622.455 -727.754)" fill="#363e44"/>
            <path id="Trazado_874144" data-name="Trazado 874144" d="M1049.548,1016.8a6.3,6.3,0,0,1-6.3-6.434c.141-6.47.095-7.634.055-7.751a.083.083,0,0,0,.076.047v-.182h12.462v8.023A6.3,6.3,0,0,1,1049.548,1016.8Zm-6.052-14.137c.043.39.066,1.851-.061,7.708a6.115,6.115,0,1,0,12.228.133v-7.841Z" transform="translate(-1000.696 -975.837)" fill="#363e44"/>
          </g>
        </g>
        <g id="Grupo_1099572" data-name="Grupo 1099572" transform="translate(38.395 66.503)">
          <path id="Trazado_874145" data-name="Trazado 874145" d="M792.263,1200.661c0,3.3-5.353,14.4-20.792,14.4-16.263,0-20.792-11.1-20.792-14.4s9.309-5.97,20.792-5.97S792.263,1197.363,792.263,1200.661Z" transform="translate(-750.678 -1185.663)" fill="#d87355"/>
          <ellipse id="Elipse_11645" data-name="Elipse 11645" cx="20.792" cy="5.97" rx="20.792" ry="5.97" transform="translate(0 9.028)" fill="#d87355"/>
          <path id="Trazado_874146" data-name="Trazado 874146" d="M779.882,1304c-9.181,0-17.186-1.7-19.919-4.219a.091.091,0,0,1,.124-.134c1.277,1.179,3.9,2.24,7.374,2.987a60.528,60.528,0,0,0,12.421,1.184c8.724,0,16.565-1.578,19.511-3.927a.091.091,0,1,1,.114.143C796.531,1302.407,788.644,1304,779.882,1304Z" transform="translate(-759.09 -1281.035)" fill="#ffd092"/>
          <path id="Trazado_874147" data-name="Trazado 874147" d="M813.8,1196.176a2.036,2.036,0,0,0-2.03-2.3,2.041,2.041,0,0,0-1.633.816h0a2.043,2.043,0,0,0-2.854-.614h-.007a2.044,2.044,0,0,0-3.3-.454l-.1-.01a2.045,2.045,0,0,0-3.4-.263l-.057,0a6.381,6.381,0,0,1-6.046-1.837,2.334,2.334,0,0,1-4.213.632,2.333,2.333,0,0,1-4.213,0,2.336,2.336,0,0,0-2.243,1.686,4.358,4.358,0,0,1-3.614,1.343,1.874,1.874,0,0,0-1.713,2.638c.485,2.293,8.443,4.116,18.188,4.116,10.058,0,18.212-1.942,18.212-4.338A1.859,1.859,0,0,0,813.8,1196.176Z" transform="translate(-775.709 -1182.767)" fill="#efbc73"/>
          <g id="Grupo_1099571" data-name="Grupo 1099571" transform="translate(15.862)">
            <path id="Trazado_874148" data-name="Trazado 874148" d="M945.11,1138.744A13.435,13.435,0,0,1,932.2,1145.6a13.435,13.435,0,0,1,12.906-6.861Z" transform="translate(-931.525 -1134.787)" fill="#9e9569"/>
            <path id="Trazado_874149" data-name="Trazado 874149" d="M928.285,1100.4a9.829,9.829,0,0,1,3.725-4.788,9.828,9.828,0,0,1,.41,6.052Z" transform="translate(-927.963 -1095.614)" fill="#9e9569"/>
            <path id="Trazado_874150" data-name="Trazado 874150" d="M929.2,1149.421a9.83,9.83,0,0,1-3.724,4.788,9.829,9.829,0,0,1-.41-6.052Z" transform="translate(-924.747 -1143.369)" fill="#9e9569"/>
          </g>
        </g>
        <g id="Grupo_1099574" data-name="Grupo 1099574" transform="translate(51.216 75.952)">
          <g id="Grupo_1099573" data-name="Grupo 1099573">
            <path id="Trazado_874151" data-name="Trazado 874151" d="M930.973,1211.86c-6.228,2.1-21.139,6.326-22.578,6.8-2.69.879-17.232,4.376-16.439,7.2.5,1.789,7.98-.7,9.458-1.16-1.953.724-10.789,2.709-9.982,4.826.66,1.729,7.44-.393,11.492-1.639-.793.429-8.554,1.773-7.739,3.559.785,1.72,8.424-.613,9.377-.817-.937.673-5.418,2.489-4.9,3.61.688,1.5,6.242-1.1,7.115-1.185,2.391-.779,6.316-1.384,10.967-2.394,10.923-2.373,15.771-3.674,20.67-6.145,2.26-1.14,5.353-3.064,5.53-7.8C939.587,1215.077,935.327,1213.5,930.973,1211.86Z" transform="translate(-891.38 -1210.717)" fill="#84524d"/>
            <path id="Trazado_874152" data-name="Trazado 874152" d="M1283.711,1201.984a.091.091,0,0,1-.028-.178c.84-.272,2.919-1.065,4.589-1.7,1.034-.394,1.85-.705,2.089-.785a.091.091,0,1,1,.057.173c-.235.078-1.091.4-2.081.782-1.672.637-3.754,1.431-4.6,1.7A.1.1,0,0,1,1283.711,1201.984Z" transform="translate(-1247.879 -1199.315)" fill="#363e44"/>
            <path id="Trazado_874153" data-name="Trazado 874153" d="M1026.556,1319.451a.091.091,0,0,1-.085-.057l-.464-1.156a.091.091,0,1,1,.169-.068l.463,1.156a.091.091,0,0,1-.051.118A.1.1,0,0,1,1026.556,1319.451Z" transform="translate(-1013.735 -1307.288)" fill="#363e44"/>
            <path id="Trazado_874154" data-name="Trazado 874154" d="M1039.426,1351.651a.091.091,0,0,1-.085-.057l-.464-1.156a.091.091,0,0,1,.169-.068l.463,1.156a.09.09,0,0,1-.084.125Z" transform="translate(-1025.432 -1336.554)" fill="#363e44"/>
            <path id="Trazado_874155" data-name="Trazado 874155" d="M1052.156,1384.592a.092.092,0,0,1-.085-.057l-.464-1.156a.091.091,0,0,1,.169-.068l.463,1.156a.091.091,0,0,1-.051.119A.089.089,0,0,1,1052.156,1384.592Z" transform="translate(-1037.002 -1366.493)" fill="#363e44"/>
            <path id="Trazado_874156" data-name="Trazado 874156" d="M1064.326,1414.231a.091.091,0,0,1-.084-.057l-.464-1.156a.091.091,0,1,1,.169-.068l.463,1.156a.091.091,0,0,1-.051.119A.086.086,0,0,1,1064.326,1414.231Z" transform="translate(-1048.063 -1393.432)" fill="#363e44"/>
          </g>
        </g>
        <g id="Grupo_1099575" data-name="Grupo 1099575">
          <path id="Trazado_874157" data-name="Trazado 874157" d="M343.973,400.337c4.525-4.767,15.738-15.466,16.791-16.554,1.968-2.034,12.429-11.819,10.105-13.616-1.1-.847-5.718,3.947-6.755,5.011.958-1.4,5.762-6.963,4.259-7.95-1.546-1.016-7.014,5.8-7.083,5.838.5-.75,4.681-5.941,3.126-7.141-1.5-1.155-5.106,4.855-5.855,5.481.514-1.033,3.143-4.621,2.166-5.373-1.31-1.007-4.521,3.777-5.253,4.261-1.75,1.806-4.939,4.174-8.579,7.239-8.551,7.2-12.061,10.768-15.562,14.994a8.865,8.865,0,0,0-1.095,9.569C334.854,401.515,339.356,400.919,343.973,400.337Z" transform="translate(-329.307 -365.778)" fill="#84524d"/>
          <path id="Trazado_874158" data-name="Trazado 874158" d="M483.229,713.855a.091.091,0,0,1-.066-.154c.214-.224.806-.819,1.49-1.509.749-.754,1.6-1.609,2.124-2.149a.091.091,0,1,1,.131.127c-.526.541-1.376,1.4-2.125,2.151-.684.689-1.275,1.284-1.488,1.507A.092.092,0,0,1,483.229,713.855Z" transform="translate(-469.121 -678.648)" fill="#363e44"/>
          <path id="Trazado_874159" data-name="Trazado 874159" d="M638.224,458.116h-.016a.091.091,0,0,1-.074-.105c.851-4.849.366-5.807,0-5.947-.423-.162-1.614.388-4.814,5.891a.091.091,0,1,1-.157-.092c2.492-4.286,4.188-6.294,5.036-5.97.742.283.781,2.352.114,6.148A.091.091,0,0,1,638.224,458.116Z" transform="translate(-605.464 -444.015)" fill="#363e44"/>
        </g>
      </g>
      <g id="Grupo_1099583" data-name="Grupo 1099583" transform="translate(48.56 10.151)">
        <g id="Grupo_1099579" data-name="Grupo 1099579">
          <g id="Grupo_1099577" data-name="Grupo 1099577" transform="translate(8.262 1.071)">
            <path id="Trazado_874160" data-name="Trazado 874160" d="M965.235,489.133c4.383-1.062,7.767,2.487,8.378,3.4a9.28,9.28,0,0,1,1.4,8.552c-1.108,3.813-4.811,6.948-8.2,6.632-5.133-.477-8.631-8.766-6.458-14.05C960.516,493.262,961.947,489.93,965.235,489.133Z" transform="translate(-959.073 -488.937)" fill="#e0aa63"/>
            <path id="Trazado_874161" data-name="Trazado 874161" d="M975.725,558.006a.091.091,0,0,1-.091-.087c-.005-.12-.006-.264-.008-.431a9.042,9.042,0,0,0-1.773-5.872c-3.28-4-8.49-3.73-9.073-3.686a.091.091,0,0,1-.013-.182c.593-.044,5.889-.314,9.227,3.752a9.207,9.207,0,0,1,1.814,5.986c0,.165,0,.307.008.425a.091.091,0,0,1-.087.095Z" transform="translate(-963.609 -542.372)" fill="#efbc73"/>
            <path id="Trazado_874162" data-name="Trazado 874162" d="M965.942,526.595l-.022,0a.091.091,0,0,1-.066-.111c.013-.052,1.274-5.262-1.442-8.941-3.952-5.352-10.663-5.354-11.416-5.337a.091.091,0,1,1,0-.182c.761-.018,7.56-.015,11.567,5.411,2.214,3,1.931,7.259,1.472,9.094A.091.091,0,0,1,965.942,526.595Z" transform="translate(-952.902 -509.916)" fill="#efbc73"/>
            <path id="Trazado_874163" data-name="Trazado 874163" d="M977.226,509.391a.091.091,0,0,1-.071-.148,10.641,10.641,0,0,0,1.856-4.55,7.039,7.039,0,0,0-.85-5.267,14,14,0,0,0-12.355-5.733l-.152.006a.089.089,0,0,1-.093-.089.091.091,0,0,1,.089-.093l.148-.006a14.18,14.18,0,0,1,12.511,5.809,7.215,7.215,0,0,1,.881,5.4,10.835,10.835,0,0,1-1.894,4.634A.093.093,0,0,1,977.226,509.391Z" transform="translate(-964.408 -493.079)" fill="#efbc73"/>
          </g>
          <g id="Grupo_1099578" data-name="Grupo 1099578">
            <path id="Trazado_874164" data-name="Trazado 874164" d="M867.965,494.6c-1.33.421-5.848-3.636-5.73-8.206.086-3.344,2.474-6.169,5.651-7.758,2.359-1.18,6.85-2.322,9.534-.489,2.011,1.373,1.876,5.542-.567,7.243-3.065,2.135-5.629.96-7.462,3.229C867.343,491.155,869.088,494.245,867.965,494.6Z" transform="translate(-862.233 -477.185)" fill="#efbc73"/>
            <path id="Trazado_874165" data-name="Trazado 874165" d="M911.153,558.754h-.01a.091.091,0,0,1-.081-.1c.012-.117.022-.259.034-.424a9.206,9.206,0,0,1,2.181-5.862c3.584-3.852,8.854-3.254,9.442-3.173a.091.091,0,0,1-.025.181c-.579-.08-5.762-.668-9.284,3.117a9.044,9.044,0,0,0-2.133,5.751c-.012.166-.022.31-.035.429A.091.091,0,0,1,911.153,558.754Z" transform="translate(-906.612 -542.56)" fill="#e0aa63"/>
            <path id="Trazado_874166" data-name="Trazado 874166" d="M898.68,528.267a.091.091,0,0,1-.09-.074c-.344-1.859-.362-6.13,2.033-8.985,3.629-4.326,8.937-4.741,11.048-4.72a.091.091,0,0,1,0,.182h0c-2.09-.022-7.327.389-10.907,4.655-2.939,3.5-2,8.782-1.994,8.835a.091.091,0,0,1-.073.106Z" transform="translate(-895.126 -511.088)" fill="#e0aa63"/>
            <path id="Trazado_874167" data-name="Trazado 874167" d="M886.565,509.865a.091.091,0,0,1-.074-.038,10.832,10.832,0,0,1-1.6-4.742,7.216,7.216,0,0,1,1.214-5.339,14.18,14.18,0,0,1,12.847-5.023l.148.015a.091.091,0,1,1-.016.182l-.151-.015a14,14,0,0,0-12.686,4.956,7.039,7.039,0,0,0-1.175,5.2,10.642,10.642,0,0,0,1.571,4.656.091.091,0,0,1-.022.127A.09.09,0,0,1,886.565,509.865Z" transform="translate(-882.766 -493.038)" fill="#e0aa63"/>
          </g>
        </g>
        <g id="Grupo_1099582" data-name="Grupo 1099582" transform="translate(1.42 9.483)">
          <path id="Trazado_874168" data-name="Trazado 874168" d="M941.048,734.135h0l-5.455-6.588.181-8.16,10.37-.463.215,9.576Z" transform="translate(-930.329 -706.379)" fill="#84524d"/>
          <path id="Trazado_874169" data-name="Trazado 874169" d="M932.185,588.07c-.2,4.166-2.672,10.657-8.05,10.4s-7.233-6.948-7.036-11.114,3.766-6.29,7.932-6.094S932.382,583.9,932.185,588.07Z" transform="translate(-913.507 -581.253)" fill="#84524d"/>
          <ellipse id="Elipse_11646" data-name="Elipse 11646" cx="2.133" cy="3.2" rx="2.133" ry="3.2" transform="matrix(0.932, -0.362, 0.362, 0.932, 0, 6.469)" fill="#84524d"/>
          <ellipse id="Elipse_11647" data-name="Elipse 11647" cx="3.2" cy="2.133" rx="3.2" ry="2.133" transform="matrix(0.448, -0.894, 0.894, 0.448, 15.506, 11.323)" fill="#84524d"/>
          <path id="Trazado_874170" data-name="Trazado 874170" d="M1085.68,669.225a.091.091,0,0,1-.045-.17,2.123,2.123,0,0,0,.81-.9c.4-.8.307-1.67-.214-1.931a.686.686,0,0,0-.156-.056.091.091,0,0,1,.041-.178.876.876,0,0,1,.2.071c.611.306.743,1.282.3,2.175a2.3,2.3,0,0,1-.882.976A.09.09,0,0,1,1085.68,669.225Z" transform="translate(-1066.657 -658.268)" fill="#363e44"/>
          <path id="Trazado_874171" data-name="Trazado 874171" d="M899.51,660.635a.091.091,0,0,1-.052-.017,2.462,2.462,0,0,1-.918-2.363,1.084,1.084,0,0,1,.63-.829.874.874,0,0,1,.2-.052.091.091,0,1,1,.024.181.687.687,0,0,0-.161.041.909.909,0,0,0-.518.7,2.282,2.282,0,0,0,.845,2.175.091.091,0,0,1-.053.166Z" transform="translate(-896.613 -650.437)" fill="#363e44"/>
          <g id="Grupo_1099580" data-name="Grupo 1099580" transform="translate(12.097 6.455)">
            <path id="Trazado_874172" data-name="Trazado 874172" d="M1016.628,653.462a5.766,5.766,0,0,1-1.027,1.107,4,4,0,0,1-1.813.346,2.969,2.969,0,0,1-3.209.256,5.275,5.275,0,0,1,.576-.689c.465-.476,2.4-.549,2.4-.549s1.27-.951,1.881-.832A5.624,5.624,0,0,1,1016.628,653.462Z" transform="translate(-1010.578 -653)" fill="#fff"/>
            <path id="Trazado_874173" data-name="Trazado 874173" d="M1019.078,652.241a4.923,4.923,0,0,0-2.114,1.326,2.276,2.276,0,0,0,.469,1.027,4.814,4.814,0,0,0,2.3-.021,4.586,4.586,0,0,0,1.675-.921,2.26,2.26,0,0,0-.166-1.459A4.73,4.73,0,0,0,1019.078,652.241Z" transform="translate(-1016.382 -652.09)" fill="#363e44"/>
          </g>
          <g id="Grupo_1099581" data-name="Grupo 1099581" transform="translate(4.342 5.993)">
            <path id="Trazado_874174" data-name="Trazado 874174" d="M925.472,647.55a5.823,5.823,0,0,0,1.052,1.33c.382.36,1.673.25,1.673.25s1.317,1,1.94.936a5.608,5.608,0,0,0,1.2-.246,5.256,5.256,0,0,0-.5-.727c-.417-.52-2.23-.88-2.23-.88s-1.316-.972-1.939-.909A5.608,5.608,0,0,0,925.472,647.55Z" transform="translate(-925.472 -647.275)" fill="#fff"/>
            <path id="Trazado_874175" data-name="Trazado 874175" d="M940.59,648.841a4.945,4.945,0,0,0-2-1.542,4.737,4.737,0,0,0-2.164-.25,2.257,2.257,0,0,0-.182,1.431c.01.051.024.1.038.148a4.476,4.476,0,0,0,1.434.931,4.737,4.737,0,0,0,2.165.25A2.28,2.28,0,0,0,940.59,648.841Z" transform="translate(-935.223 -647.021)" fill="#363e44"/>
          </g>
          <path id="Trazado_874176" data-name="Trazado 874176" d="M946.211,742.849q-.142,0-.285-.009c-2.073-.126-3.66-1.583-4.812-2.838a.091.091,0,0,1,.134-.123c1.2,1.306,2.692,2.658,4.688,2.779s3.673-1.12,4.906-2.215a.091.091,0,1,1,.121.136A7.453,7.453,0,0,1,946.211,742.849Z" transform="translate(-935.325 -725.398)" fill="#363e44"/>
          <path id="Trazado_874177" data-name="Trazado 874177" d="M998.149,680.587a.091.091,0,0,1-.039-.173c.333-.159.522-.341.563-.541a.716.716,0,0,0-.137-.482,2.5,2.5,0,0,1-.231-.548,2.163,2.163,0,0,1-.006-1.07.091.091,0,1,1,.177.041,1.983,1.983,0,0,0,0,.98,2.344,2.344,0,0,0,.216.51.868.868,0,0,1,.155.6c-.053.259-.275.484-.663.669A.09.09,0,0,1,998.149,680.587Z" transform="translate(-987.102 -668.914)" fill="#363e44"/>
          <path id="Trazado_874178" data-name="Trazado 874178" d="M979.927,713.6a1.419,1.419,0,0,1-1.093-.558,1.272,1.272,0,0,1-.268-.741.091.091,0,0,1,.089-.093.093.093,0,0,1,.093.089,1.089,1.089,0,0,0,.231.634,1.221,1.221,0,0,0,1,.485.091.091,0,1,1,.011.182Z" transform="translate(-969.386 -700.272)" fill="#363e44"/>
          <circle id="Elipse_11648" data-name="Elipse 11648" cx="0.425" cy="0.425" r="0.425" transform="translate(10.985 4.188)" fill="#d87355"/>
          <path id="Trazado_874179" data-name="Trazado 874179" d="M1063.063,604.078c-.078-.059.382.84.775,2.52.765,3.274.276,5.623.469,5.64a8.516,8.516,0,0,0,.654-3.731A5.76,5.76,0,0,0,1063.063,604.078Z" transform="translate(-1046.176 -601.995)" fill="#363e44"/>
          <path id="Trazado_874180" data-name="Trazado 874180" d="M917.239,604.076c.078-.059-.353.774-.746,2.454-.766,3.274-.3,5.688-.5,5.705a8.515,8.515,0,0,1-.654-3.731A5.758,5.758,0,0,1,917.239,604.076Z" transform="translate(-911.922 -601.993)" fill="#363e44"/>
        </g>
      </g>
    </g>
    <g id="Grupo_1099585" data-name="Grupo 1099585" transform="translate(21.809 113.827)">
      <path id="Trazado_874181" data-name="Trazado 874181" d="M593.77,1729.469c0,2.695-4.375,11.766-16.994,11.766-13.292,0-16.994-9.071-16.994-11.766s7.609-4.88,16.994-4.88S593.77,1726.774,593.77,1729.469Z" transform="translate(-559.782 -1721.053)" fill="#fff"/>
      <ellipse id="Elipse_11649" data-name="Elipse 11649" cx="16.994" cy="4.879" rx="16.994" ry="4.879" transform="translate(0 3.536)" fill="#efbc73"/>
      <path id="Trazado_874182" data-name="Trazado 874182" d="M608.827,1694.2c0,2.429-6.857,4.4-15.316,4.4s-15.316-1.969-15.316-4.4,9.795-8.416,15.316-8.416C599.639,1685.78,608.827,1691.767,608.827,1694.2Z" transform="translate(-576.516 -1685.78)" fill="#9e9569"/>
      <path id="Trazado_874183" data-name="Trazado 874183" d="M583.487,1813.785c-7.508,0-14.055-1.388-16.292-3.453a.091.091,0,0,1,.124-.134c2.206,2.036,8.7,3.4,16.168,3.4,7.127,0,13.532-1.288,15.937-3.206a.091.091,0,1,1,.113.142C597.1,1812.48,590.652,1813.785,583.487,1813.785Z" transform="translate(-566.493 -1798.839)" fill="#ffd092"/>
    </g>
    <g id="Grupo_1099586" data-name="Grupo 1099586" transform="translate(51.419 118.084)">
      <path id="Trazado_874184" data-name="Trazado 874184" d="M957.008,1754.836c0,2.466-4,10.766-15.55,10.766-12.163,0-15.55-8.3-15.55-10.766s6.962-4.465,15.55-4.465S957.008,1752.37,957.008,1754.836Z" transform="translate(-925.909 -1748.742)" fill="#fff"/>
      <ellipse id="Elipse_11650" data-name="Elipse 11650" cx="15.55" cy="4.465" rx="15.55" ry="4.465" transform="translate(0 1.628)" fill="#efbc73"/>
      <path id="Trazado_874185" data-name="Trazado 874185" d="M970.793,1738.592c0,2.222-6.275,4.024-14.015,4.024s-14.015-1.8-14.015-4.024,8.962-6.093,14.015-6.093C962.386,1732.5,970.793,1736.37,970.793,1738.592Z" transform="translate(-941.228 -1732.499)" fill="#d87355"/>
      <path id="Trazado_874186" data-name="Trazado 874186" d="M947.523,1831.922c-6.871,0-12.864-1.27-14.913-3.161a.091.091,0,0,1,.124-.134c1.985,1.833,8.067,3.113,14.789,3.113,6.52,0,12.378-1.178,14.577-2.932a.091.091,0,1,1,.114.143C959.985,1830.727,954.081,1831.922,947.523,1831.922Z" transform="translate(-931.974 -1819.845)" fill="#ffd092"/>
    </g>
    <g id="Grupo_1099587" data-name="Grupo 1099587" transform="translate(80.16 114.009)">
      <path id="Trazado_874187" data-name="Trazado 874187" d="M1299.791,1753.519c0,2.695-4.375,11.766-16.994,11.766-13.292,0-16.994-9.071-16.994-11.766s7.609-4.88,16.994-4.88S1299.791,1750.824,1299.791,1753.519Z" transform="translate(-1265.803 -1743.094)" fill="#fff"/>
      <ellipse id="Elipse_11651" data-name="Elipse 11651" cx="16.994" cy="4.879" rx="16.994" ry="4.879" transform="translate(0 5.545)" fill="#fff"/>
      <path id="Trazado_874188" data-name="Trazado 874188" d="M1314.851,1698.207c0,2.429-6.857,4.4-15.316,4.4s-15.316-1.969-15.316-4.4,11.314-10.425,15.316-10.425C1303.255,1687.782,1314.851,1695.777,1314.851,1698.207Z" transform="translate(-1282.54 -1687.782)" fill="#84524d"/>
      <path id="Trazado_874189" data-name="Trazado 874189" d="M1289.512,1837.824c-7.508,0-14.055-1.387-16.292-3.453a.091.091,0,0,1,.124-.134c2.206,2.036,8.7,3.4,16.168,3.4,7.127,0,13.532-1.289,15.937-3.206a.091.091,0,0,1,.114.142C1303.127,1836.52,1296.677,1837.824,1289.512,1837.824Z" transform="translate(-1272.517 -1820.87)" fill="#ffd092"/>
    </g>
    <g id="Grupo_1099588" data-name="Grupo 1099588" transform="translate(112.026 120.555)">
      <path id="Trazado_874190" data-name="Trazado 874190" d="M1659.117,1790.655c0,1.914-3.108,8.358-12.072,8.358-9.443,0-12.073-6.444-12.073-8.358s5.4-3.466,12.073-3.466S1659.117,1788.741,1659.117,1790.655Z" transform="translate(-1634.972 -1784.677)" fill="#fff"/>
      <ellipse id="Elipse_11652" data-name="Elipse 11652" cx="12.072" cy="3.466" rx="12.072" ry="3.466" transform="translate(0 2.512)" fill="#fff"/>
      <path id="Trazado_874191" data-name="Trazado 874191" d="M1669.813,1765.6c0,1.725-4.871,3.124-10.88,3.124s-10.881-1.4-10.881-3.124,6.958-5.979,10.881-5.979C1663.287,1759.619,1669.813,1763.873,1669.813,1765.6Z" transform="translate(-1646.86 -1759.619)" fill="#efbc73"/>
      <path id="Trazado_874192" data-name="Trazado 874192" d="M1651.548,1850.319c-5.34,0-10-.989-11.592-2.46a.091.091,0,0,1,.124-.134c1.538,1.42,6.254,2.411,11.468,2.411,5.057,0,9.6-.913,11.3-2.272a.091.091,0,1,1,.113.142C1661.233,1849.39,1656.645,1850.319,1651.548,1850.319Z" transform="translate(-1639.476 -1839.676)" fill="#d87355"/>
    </g>
    <g id="Grupo_1099589" data-name="Grupo 1099589" transform="translate(34.511 128.6)">
      <ellipse id="Elipse_11653" data-name="Elipse 11653" cx="16.101" cy="4.595" rx="16.101" ry="4.595" transform="translate(0 6.05)" fill="#fff"/>
      <path id="Trazado_874193" data-name="Trazado 874193" d="M788.678,1847.91a42.4,42.4,0,0,0-5.393,3.6c-1.638,1.4-4.315,4.376-4.315,4.376a33.3,33.3,0,0,0,5.319,3.171,28.143,28.143,0,0,0,6.446,1.245,37.949,37.949,0,0,0-.281-6.1A54.752,54.752,0,0,0,788.678,1847.91Z" transform="translate(-774.24 -1847.91)" fill="#efbc73"/>
      <path id="Trazado_874194" data-name="Trazado 874194" d="M830.053,1872.37a42.419,42.419,0,0,0-4.582,4.591c-1.331,1.7-3.374,5.136-3.374,5.136a33.306,33.306,0,0,0,5.837,2.068,28.151,28.151,0,0,0,6.565-.042,37.953,37.953,0,0,0-1.47-5.928A54.757,54.757,0,0,0,830.053,1872.37Z" transform="translate(-813.436 -1870.141)" fill="#e0aa63"/>
      <path id="Trazado_874195" data-name="Trazado 874195" d="M883.8,1851.51a38.159,38.159,0,0,1-1.983,6.331,27.808,27.808,0,0,1-3.644,4.906,33.3,33.3,0,0,0,6.149.737,28.149,28.149,0,0,0,6.4-1.482,37.943,37.943,0,0,0-2.736-5.461A54.784,54.784,0,0,0,883.8,1851.51Z" transform="translate(-864.4 -1851.182)" fill="#efbc73"/>
    </g>
    <g id="Grupo_1099592" data-name="Grupo 1099592" transform="translate(65.516 125.278)">
      <ellipse id="Elipse_11654" data-name="Elipse 11654" cx="21.894" cy="6.185" rx="21.894" ry="6.185" transform="translate(0 12.064)" fill="#fff"/>
      <g id="Grupo_1099590" data-name="Grupo 1099590" transform="translate(11.148 4.499)">
        <path id="Trazado_874196" data-name="Trazado 874196" d="M1252.219,1874.57a12.937,12.937,0,0,1-23.136,11.308Z" transform="translate(-1228.253 -1873.317)" fill="#e0aa63"/>
        <path id="Trazado_874197" data-name="Trazado 874197" d="M1243.726,1860.82a13.322,13.322,0,0,1-23.755,11.611Z" transform="translate(-1219.971 -1860.82)" fill="#efbc73"/>
        <path id="Trazado_874198" data-name="Trazado 874198" d="M1410.764,1992.8a.943.943,0,1,0-.433,1.261A.943.943,0,0,0,1410.764,1992.8Z" transform="translate(-1391.752 -1980.296)" fill="#e0aa63"/>
        <path id="Trazado_874199" data-name="Trazado 874199" d="M1435.219,1964.886a.517.517,0,1,0-.237.691A.517.517,0,0,0,1435.219,1964.886Z" transform="translate(-1414.713 -1955.14)" fill="#e0aa63"/>
        <path id="Trazado_874200" data-name="Trazado 874200" d="M1422.377,1913.672a1.186,1.186,0,1,0-.545,1.586A1.186,1.186,0,0,0,1422.377,1913.672Z" transform="translate(-1401.887 -1908.251)" fill="#e0aa63"/>
        <path id="Trazado_874201" data-name="Trazado 874201" d="M1465.2,1918.286a.517.517,0,1,0-.237.691A.517.517,0,0,0,1465.2,1918.286Z" transform="translate(-1441.962 -1912.786)" fill="#e0aa63"/>
        <path id="Trazado_874202" data-name="Trazado 874202" d="M1342.756,2025.526a.578.578,0,1,0-.266.773A.578.578,0,0,0,1342.756,2025.526Z" transform="translate(-1330.571 -2010.223)" fill="#e0aa63"/>
        <path id="Trazado_874203" data-name="Trazado 874203" d="M1300.717,2003.262a1.034,1.034,0,1,0-.475,1.383A1.034,1.034,0,0,0,1300.717,2003.262Z" transform="translate(-1291.575 -1989.756)" fill="#e0aa63"/>
        <path id="Trazado_874204" data-name="Trazado 874204" d="M1379.91,1969.181a.578.578,0,1,0,0,.817A.578.578,0,0,0,1379.91,1969.181Z" transform="translate(-1364.44 -1959.154)" fill="#e0aa63"/>
        <circle id="Elipse_11655" data-name="Elipse 11655" cx="1.034" cy="1.034" r="1.034" transform="matrix(0.855, -0.519, 0.519, 0.855, 9.851, 9.714)" fill="#e0aa63"/>
        <path id="Trazado_874205" data-name="Trazado 874205" d="M1257.32,1989.587a.456.456,0,1,0-.209.61A.456.456,0,0,0,1257.32,1989.587Z" transform="translate(-1253.13 -1977.621)" fill="#e0aa63"/>
      </g>
      <g id="Grupo_1099591" data-name="Grupo 1099591" transform="translate(5.257)">
        <path id="Trazado_874206" data-name="Trazado 874206" d="M1167.19,1841.015a12.937,12.937,0,0,0,19.165-17.2Z" transform="translate(-1166.108 -1822.688)" fill="#e0aa63"/>
        <path id="Trazado_874207" data-name="Trazado 874207" d="M1155.32,1829.106a13.322,13.322,0,0,0,19.678-17.66Z" transform="translate(-1155.32 -1811.446)" fill="#efbc73"/>
        <path id="Trazado_874208" data-name="Trazado 874208" d="M1299.674,1992.855a.943.943,0,1,1,1.332.072A.943.943,0,0,1,1299.674,1992.855Z" transform="translate(-1286.302 -1974.896)" fill="#e0aa63"/>
        <path id="Trazado_874209" data-name="Trazado 874209" d="M1266.521,2003.758a.517.517,0,1,1,.73.039A.517.517,0,0,1,1266.521,2003.758Z" transform="translate(-1256.268 -1985.451)" fill="#e0aa63"/>
        <path id="Trazado_874210" data-name="Trazado 874210" d="M1220.874,1974.657a1.186,1.186,0,1,1,1.675.091A1.186,1.186,0,0,1,1220.874,1974.657Z" transform="translate(-1214.625 -1957.987)" fill="#e0aa63"/>
        <path id="Trazado_874211" data-name="Trazado 874211" d="M1212.081,2014.048a.517.517,0,1,1,.73.039A.517.517,0,0,1,1212.081,2014.048Z" transform="translate(-1206.789 -1994.803)" fill="#e0aa63"/>
        <path id="Trazado_874212" data-name="Trazado 874212" d="M1357.156,1941a.578.578,0,1,1,.816.044A.578.578,0,0,1,1357.156,1941Z" transform="translate(-1338.63 -1928.316)" fill="#e0aa63"/>
        <circle id="Elipse_11656" data-name="Elipse 11656" cx="1.034" cy="1.034" r="1.034" transform="translate(17.683 9.484) rotate(-86.904)" fill="#e0aa63"/>
        <path id="Trazado_874213" data-name="Trazado 874213" d="M1290.987,1954.279a.578.578,0,1,1,.757.309A.578.578,0,0,1,1290.987,1954.279Z" transform="translate(-1278.584 -1940.535)" fill="#e0aa63"/>
        <path id="Trazado_874214" data-name="Trazado 874214" d="M1297.76,1909.843a1.034,1.034,0,1,1,1.354.552A1.034,1.034,0,0,1,1297.76,1909.843Z" transform="translate(-1284.707 -1899.573)" fill="#e0aa63"/>
        <path id="Trazado_874215" data-name="Trazado 874215" d="M1356.456,1847.95a.456.456,0,1,1,.644.035A.456.456,0,0,1,1356.456,1847.95Z" transform="translate(-1338.022 -1843.932)" fill="#e0aa63"/>
      </g>
    </g>
  </g>
</svg>
