<svg xmlns="http://www.w3.org/2000/svg" width="100" height="100" viewBox="0 0 100 100">
  <g id="Grupo_1099688" data-name="Grupo 1099688" transform="translate(6408 8235)">
    <circle id="Elipse_11683" data-name="Elipse 11683" cx="50" cy="50" r="50" transform="translate(-6408 -8235)" fill="#f9a545"/>
    <g id="Grupo_1099687" data-name="Grupo 1099687" transform="translate(-6386.417 -8213.429)">
      <g id="Grupo_1099679" data-name="Grupo 1099679" transform="translate(0 4.085)">
        <path id="Trazado_874464" data-name="Trazado 874464" d="M55.879,28.914V54.422A1.88,1.88,0,0,1,54,56.3H3.112a1.88,1.88,0,0,1-1.88-1.88V29.759a1.88,1.88,0,0,1,.842-1.568L35.357,6.142a1.922,1.922,0,0,1,1.437-.288C48.129,8.194,54.375,18.821,55.855,28.587a2.173,2.173,0,0,1,.024.327Z" transform="translate(-0.138 -4.725)" fill="#f2b583"/>
        <path id="Trazado_874465" data-name="Trazado 874465" d="M53.861,57.259H2.974A2.977,2.977,0,0,1,0,54.285V29.621a2.972,2.972,0,0,1,1.33-2.478l14.609-9.673a1.093,1.093,0,1,1,1.206,1.823L2.538,28.964a.787.787,0,0,0-.352.656V54.285a.789.789,0,0,0,.788.788H53.861a.79.79,0,0,0,.788-.788V28.777c-1.317-8.768-6.865-19.648-18.215-21.99a.84.84,0,0,0-.613.13l-12.665,8.39a1.094,1.094,0,0,1-1.208-1.823L34.615,5.092a3.038,3.038,0,0,1,2.261-.447C49.325,7.216,55.388,18.987,56.8,28.286a3.1,3.1,0,0,1,.038.491V54.285a2.977,2.977,0,0,1-2.974,2.974Z" transform="translate(0 -4.587)" fill="#0e0e0f"/>
      </g>
      <g id="Grupo_1099680" data-name="Grupo 1099680" transform="translate(0.011 35.294)">
        <path id="Trazado_874466" data-name="Trazado 874466" d="M1.242,40.962H55.87V51.944H1.242Z" transform="translate(-0.15 -39.869)" fill="#f9f4f4"/>
        <path id="Trazado_874467" data-name="Trazado 874467" d="M55.733,52.9H1.1A1.092,1.092,0,0,1,.012,51.807V40.824A1.092,1.092,0,0,1,1.1,39.731H55.733a1.092,1.092,0,0,1,1.093,1.093V51.807A1.092,1.092,0,0,1,55.733,52.9ZM2.2,50.714H54.64v-8.8H2.2Z" transform="translate(-0.012 -39.731)" fill="#0e0e0f"/>
      </g>
      <g id="Grupo_1099681" data-name="Grupo 1099681" transform="translate(6.001 39.442)">
        <path id="Trazado_874468" data-name="Trazado 874468" d="M19.423,52.459H7.989c.285-1.774,1.73-3.9,3.066-5.563a3.409,3.409,0,0,1,5.3,0c1.358,1.665,2.782,3.789,3.066,5.563Z" transform="translate(-6.896 -44.539)" fill="#f75c81"/>
        <path id="Trazado_874469" data-name="Trazado 874469" d="M19.285,53.414H7.851a1.094,1.094,0,0,1-1.079-1.266c.263-1.635,1.37-3.678,3.293-6.073a4.617,4.617,0,0,1,3.53-1.674,4.466,4.466,0,0,1,3.475,1.671c1.914,2.346,3.024,4.391,3.294,6.075a1.094,1.094,0,0,1-1.079,1.266ZM9.327,51.228h8.485a16.917,16.917,0,0,0-2.441-3.778,2.007,2.007,0,0,0-1.8-.862,2.338,2.338,0,0,0-1.813.862A17.332,17.332,0,0,0,9.327,51.228Z" transform="translate(-6.758 -44.402)" fill="#0e0e0f"/>
      </g>
      <g id="Grupo_1099682" data-name="Grupo 1099682" transform="translate(21.619 35.294)">
        <path id="Trazado_874470" data-name="Trazado 874470" d="M36.986,40.963c-.263,1.774-1.708,3.9-3.066,5.563a3.386,3.386,0,0,1-5.279,0c-1.358-1.665-2.8-3.789-3.066-5.563Z" transform="translate(-24.482 -39.869)" fill="#f75c81"/>
        <path id="Trazado_874471" data-name="Trazado 874471" d="M31.143,48.748a4.463,4.463,0,0,1-3.491-1.674c-1.939-2.378-3.05-4.427-3.3-6.09a1.092,1.092,0,0,1,1.081-1.253H36.849a1.092,1.092,0,0,1,1.08,1.253c-.248,1.663-1.358,3.712-3.3,6.1a4.462,4.462,0,0,1-3.486,1.667ZM26.9,41.917A16.826,16.826,0,0,0,29.35,45.7a2.361,2.361,0,0,0,3.58.006,16.952,16.952,0,0,0,2.459-3.787Z" transform="translate(-24.344 -39.731)" fill="#0e0e0f"/>
      </g>
      <g id="Grupo_1099683" data-name="Grupo 1099683" transform="translate(37.214 39.442)">
        <path id="Trazado_874472" data-name="Trazado 874472" d="M54.569,52.459H43.136c.285-1.774,1.708-3.9,3.066-5.563a3.409,3.409,0,0,1,5.3,0c1.336,1.665,2.782,3.789,3.066,5.563Z" transform="translate(-42.043 -44.539)" fill="#f75c81"/>
        <path id="Trazado_874473" data-name="Trazado 874473" d="M54.431,53.414H43a1.091,1.091,0,0,1-1.078-1.268c.271-1.68,1.381-3.727,3.3-6.08A4.462,4.462,0,0,1,48.686,44.4h.019a4.507,4.507,0,0,1,3.505,1.665c1.958,2.438,3.033,4.425,3.3,6.082a1.094,1.094,0,0,1-1.08,1.266Zm-9.96-2.186h8.485a17.36,17.36,0,0,0-2.442-3.787,2.335,2.335,0,0,0-1.808-.854H48.7a2.282,2.282,0,0,0-1.78.856,16.976,16.976,0,0,0-2.446,3.785Z" transform="translate(-41.905 -44.402)" fill="#0e0e0f"/>
      </g>
      <g id="Grupo_1099684" data-name="Grupo 1099684" transform="translate(0.307 4.086)">
        <path id="Trazado_874474" data-name="Trazado 874474" d="M55.9,28.6c0,.044.022.109,0,.153H1.577A1.4,1.4,0,0,1,2.1,28.2L35.395,6.145A1.868,1.868,0,0,1,36.84,5.86C48.164,8.2,54.407,18.827,55.9,28.6Z" transform="translate(-0.484 -4.727)" fill="#f9f4f4"/>
        <path id="Trazado_874475" data-name="Trazado 874475" d="M55.759,29.7H1.439a1.093,1.093,0,0,1-.979-1.58,2.482,2.482,0,0,1,.941-1l14.575-9.657a1.094,1.094,0,1,1,1.208,1.823L4.766,27.518H54.485c-1.612-8.428-7.164-18.482-18-20.726a.755.755,0,0,0-.606.116,1.093,1.093,0,0,1-1.234-1.8,2.969,2.969,0,0,1,2.293-.451C49.355,7.225,55.422,18.995,56.839,28.293a1.634,1.634,0,0,1-.1.8,1.092,1.092,0,0,1-.982.614Z" transform="translate(-0.346 -4.589)" fill="#0e0e0f"/>
      </g>
      <g id="Grupo_1099686" data-name="Grupo 1099686" transform="translate(20.475 0.101)">
        <path id="Trazado_874476" data-name="Trazado 874476" d="M40.536,4.61a5.471,5.471,0,0,0,2.137,3.859,5.471,5.471,0,0,0,3.01,3.224,3.479,3.479,0,0,0,3.47-.3.464.464,0,0,0,.1-.575,5.494,5.494,0,0,0-2.507-2.691,3.677,3.677,0,0,0,1.08-2.994.638.638,0,0,0-.39-.536,3.677,3.677,0,0,0-3.181.1A5.494,5.494,0,0,0,42.475,1.48.464.464,0,0,0,41.9,1.4a3.48,3.48,0,0,0-1.36,3.207Z" transform="translate(-25.012 -0.239)" fill="#a5ef75"/>
        <path id="Trazado_874477" data-name="Trazado 874477" d="M47.072,12.964a5.156,5.156,0,0,1-1.936-.4A6.549,6.549,0,0,1,41.618,9a6.545,6.545,0,0,1-2.312-4.45A4.574,4.574,0,0,1,41.119.378a1.549,1.549,0,0,1,1.945.146,6.761,6.761,0,0,1,1.808,2.6,5.179,5.179,0,0,1,2.839.315,1.729,1.729,0,0,1,1.074,1.481A5.213,5.213,0,0,1,48.2,7.714a6.783,6.783,0,0,1,1.917,2.522,1.552,1.552,0,0,1-.461,1.9,4.424,4.424,0,0,1-2.587.83ZM41.488,4.4a4.33,4.33,0,0,0,1.676,3.039,1.122,1.122,0,0,1,.421.583,4.321,4.321,0,0,0,2.369,2.523,2.583,2.583,0,0,0,1.919.095,4.232,4.232,0,0,0-1.746-1.673,1.092,1.092,0,0,1-.245-1.789,2.441,2.441,0,0,0,.73-1.806,2.453,2.453,0,0,0-1.943.137,1.092,1.092,0,0,1-1.627-.786A4.3,4.3,0,0,0,41.99,2.542a2.578,2.578,0,0,0-.5,1.854Zm5.115.67v0Z" transform="translate(-24.874 -0.101)" fill="#0e0e0f"/>
        <path id="Trazado_874478" data-name="Trazado 874478" d="M40.812,20.7c-2.645,1.608-7.253,1.791-11.1,1.59A5.718,5.718,0,0,1,24.484,15.1c1-3.722,2.595-8.048,4.94-10.068L29.5,4.97A6.714,6.714,0,0,1,39.25,6.209L42.73,11A6.714,6.714,0,0,1,40.9,20.653l-.085.052Z" transform="translate(-23.194 -0.471)" fill="#f75c81"/>
        <g id="Grupo_1099685" data-name="Grupo 1099685" transform="translate(0 1.846)">
          <path id="Trazado_874479" data-name="Trazado 874479" d="M32.033,23.318q-1.2,0-2.517-.068a6.813,6.813,0,0,1-6.226-8.568c1.4-5.232,3.181-8.8,5.283-10.613a7.7,7.7,0,0,1,5.979-1.835,7.907,7.907,0,0,1,5.441,3.195l3.482,4.788a7.911,7.911,0,0,1,1.356,6.167,7.609,7.609,0,0,1-3.5,5.061l-.092.056C39.254,22.709,36.163,23.318,32.033,23.318ZM33.61,4.364a5.422,5.422,0,0,0-3.539,1.3c-1.809,1.558-3.4,4.851-4.669,9.583a4.625,4.625,0,0,0,4.228,5.818c4.9.254,8.514-.241,10.476-1.432l.026-.015.03-.018a5.468,5.468,0,0,0,2.527-3.641,5.723,5.723,0,0,0-.98-4.457L38.227,6.714a5.722,5.722,0,0,0-4.617-2.35Z" transform="translate(-23.056 -2.18)" fill="#0e0e0f"/>
          <path id="Trazado_874480" data-name="Trazado 874480" d="M29.442,18.738a1.093,1.093,0,0,1-.644-1.978l.971-.7a1.093,1.093,0,1,1,1.285,1.769l-.971.7a1.091,1.091,0,0,1-.641.209Zm4.656-9.8.971-.7a1.093,1.093,0,0,0-1.285-1.769l-.971.7A1.093,1.093,0,1,0,34.1,8.938Zm3.174,4.368.971-.707a1.093,1.093,0,0,0-1.285-1.768l-.971.707a1.093,1.093,0,1,0,1.285,1.768Zm3.172,4.366.971-.707A1.093,1.093,0,0,0,40.13,15.2l-.971.707a1.093,1.093,0,1,0,1.285,1.768Zm-8.353-3.938.971-.7a1.093,1.093,0,1,0-1.285-1.769l-.971.7a1.093,1.093,0,1,0,1.285,1.769ZM35.263,18.1l.971-.7a1.093,1.093,0,0,0-1.285-1.769l-.971.7A1.093,1.093,0,1,0,35.263,18.1Z" transform="translate(-23.649 -2.636)" fill="#0e0e0f"/>
        </g>
      </g>
    </g>
  </g>
</svg>
