<svg xmlns="http://www.w3.org/2000/svg" width="190" height="114.637" viewBox="0 0 190 114.637">
  <g id="_182338671_6dd2def3-4fb3-433f-b571-e0eb5e82efc2" data-name="182338671_6dd2def3-4fb3-433f-b571-e0eb5e82efc2" transform="translate(-99.428 -61.514)">
    <path id="Trazado_874561" data-name="Trazado 874561" d="M1401.979,96.4a1.612,1.612,0,0,1,.923.179,1.374,1.374,0,0,1-.483,2.571,1.932,1.932,0,0,1-.853-.157,1.311,1.311,0,0,1-.619-.813,1.489,1.489,0,0,1,.165-1.207A1.3,1.3,0,0,1,1401.979,96.4Z" transform="translate(-1151.444 -30.378)" fill="#ec964a"/>
    <path id="Trazado_874562" data-name="Trazado 874562" d="M392.274,122.047a1.455,1.455,0,0,1,.722.039,1.681,1.681,0,0,1,.976.967,1.37,1.37,0,0,1-.039,1.043,1.784,1.784,0,0,1-1.111.858,1.718,1.718,0,0,1-.849-.076,1.553,1.553,0,0,1-.83-.86,1.529,1.529,0,0,1,.073-1.208A1.581,1.581,0,0,1,392.274,122.047Z" transform="translate(-254.027 -52.707)" fill="#ec964a"/>
    <path id="Trazado_874563" data-name="Trazado 874563" d="M228.287,234.779a2.248,2.248,0,0,1,.833-.016,1.526,1.526,0,0,1,.916.69,1.382,1.382,0,0,1,.141,1.087,1.778,1.778,0,0,1-1,1.1,2.07,2.07,0,0,1-.95.019,1.613,1.613,0,0,1-.88-.8,1.949,1.949,0,0,1-.007-1.287A1.608,1.608,0,0,1,228.287,234.779Z" transform="translate(-111.33 -150.885)" fill="#07a768"/>
    <path id="Trazado_874564" data-name="Trazado 874564" d="M105.289,447.3a1.547,1.547,0,0,1,1.719.791,1.507,1.507,0,0,1,.1,1.133,1.814,1.814,0,0,1-1,.989,1.871,1.871,0,0,1-1-.036,1.562,1.562,0,0,1-.875-.872,1.412,1.412,0,0,1,0-1.108A1.672,1.672,0,0,1,105.289,447.3Z" transform="translate(-4.082 -336.02)" fill="#d86d26"/>
    <path id="Trazado_874565" data-name="Trazado 874565" d="M1620.79,254.511a1.6,1.6,0,0,1,.9.1,1.536,1.536,0,0,1-.465,2.916,1.846,1.846,0,0,1-.8-.109,1.612,1.612,0,0,1-.844-.943,1.363,1.363,0,0,1,.09-1.145A1.671,1.671,0,0,1,1620.79,254.511Z" transform="translate(-1341.868 -168.097)" fill="#07a768"/>
    <path id="Trazado_874566" data-name="Trazado 874566" d="M944.667,74.025a1.425,1.425,0,0,1,.68.03,1.612,1.612,0,0,1,.964.736,1.405,1.405,0,0,1,.143,1.167,1.8,1.8,0,0,1-1.1,1.1,1.861,1.861,0,0,1-1.041-.044,1.633,1.633,0,0,1-.948-.918,1.683,1.683,0,0,1,.083-1.22A1.925,1.925,0,0,1,944.667,74.025Z" transform="translate(-744.523 -10.873)" fill="#049a5e"/>
    <path id="Trazado_874567" data-name="Trazado 874567" d="M1523.732,248.649a4.2,4.2,0,0,1,2.609-.629l.142.165a3.235,3.235,0,0,1-1.042,2.272,5.1,5.1,0,0,1-2.841.8l.049-.261A7.086,7.086,0,0,1,1523.732,248.649Z" transform="translate(-1257.469 -162.457)" fill="#026042"/>
    <path id="Trazado_874568" data-name="Trazado 874568" d="M336.4,229.9c-.01-2.129-.345-4.192-1.925-5.764l-.084-.083-.114.006a9.489,9.489,0,0,1,1.211,2.059,1.444,1.444,0,0,1-.962.451,3.579,3.579,0,0,1-2.6-.67c-1.353-1.048-1.552-2.833-1.732-4.419l-.042-.376a7,7,0,0,1,5.237,2.272,8.28,8.28,0,0,1,1.663,3.74,3.754,3.754,0,0,1,2.405-2.189,7.085,7.085,0,0,1,1.31-.3,3.845,3.845,0,0,1-1.067,2.881,2.994,2.994,0,0,1-1.907.717l-.336-.046h-.213a15.162,15.162,0,0,0-.18,1.711Z" transform="translate(-200.982 -139.021)" fill="#049a5e"/>
    <path id="Trazado_874569" data-name="Trazado 874569" d="M1554.079,719.446c1.676-1.36,2.983-2.415,5.288-2.154a5.3,5.3,0,0,1,3.571,1.977,5.047,5.047,0,0,1,1.062,3.838,4.876,4.876,0,0,1-1.841,3.283c-2.114,1.618-5.865,1.549-8.413,1.518a25.423,25.423,0,0,1-3.22-.139,3.893,3.893,0,0,1-.79-.225,19.341,19.341,0,0,0-3.437,4.236l-.318-.01a15.2,15.2,0,0,1,2.22-3.092,16.909,16.909,0,0,0,1.381-1.443,10.78,10.78,0,0,0,.643-1.73A19.945,19.945,0,0,1,1554.079,719.446Z" transform="translate(-1277.834 -571.202)" fill="#07a768"/>
    <path id="Trazado_874570" data-name="Trazado 874570" d="M764.814,65.507a7.233,7.233,0,0,1,4.192-3.714,2.521,2.521,0,0,1,2.044-.093,6.776,6.776,0,0,1,5.063,2.152,6.655,6.655,0,0,1,1.829,4.8,6.237,6.237,0,0,1-1.981,4.4l-.038.019.213.509-.218.313-1.511.92a7.361,7.361,0,0,1-5.812.246,7.1,7.1,0,0,1-3.751-3.621A7.4,7.4,0,0,1,764.814,65.507Z" transform="translate(-586.927)" fill="#f09f25"/>
    <path id="Trazado_874571" data-name="Trazado 874571" d="M802.435,94.565a.468.468,0,0,1,.376.057,3.117,3.117,0,0,1-.077,1.011c-.513,1.98-2.794,2.975-4.418,3.944a5.653,5.653,0,0,1-2.092-1.854l-.036-.1a3.022,3.022,0,0,1,0-1.949.891.891,0,0,1,.565.1,3.224,3.224,0,0,1,1.837,1.98A8.049,8.049,0,0,1,802.435,94.565Z" transform="translate(-614.731 -28.778)" fill="#fdfefe"/>
    <path id="Trazado_874572" data-name="Trazado 874572" d="M764.814,65.507a7.233,7.233,0,0,1,4.192-3.714,2.521,2.521,0,0,1,2.044-.093,2.144,2.144,0,0,1-.3.357,4.058,4.058,0,0,1-.687.145,9.409,9.409,0,0,0-1.349.431,6.4,6.4,0,0,0-1.492,10.787,6.215,6.215,0,0,0,4.6,1.445c1.721-.163,2.668-1.044,4.1-1.793l.213.509-.218.313-1.511.92a7.361,7.361,0,0,1-5.812.246,7.1,7.1,0,0,1-3.751-3.621A7.4,7.4,0,0,1,764.814,65.507Z" transform="translate(-586.854)" fill="#049a5e"/>
    <path id="Trazado_874573" data-name="Trazado 874573" d="M264.8,939.115l.094.573a33.341,33.341,0,0,0,4.958.011l9.922-.048a48.321,48.321,0,0,0,6.184.078l6.485-.03c1.128.08,2.3.007,3.433,0l6.594-.024a27.13,27.13,0,0,1,3.221.016c.242.029.258.134.407.337-.049.146-.055.25-.178.34-.364.267-2.332.081-2.837.081h-9.675l-57.693-.088-64.7.08-25.478.106-15.665-.1-6.8.093a10.246,10.246,0,0,1-2.275-.009c-.211-.054-.213-.145-.3-.334l.09-.287c.565-.44,3.948-.061,4.9-.208l.1-.016a19.167,19.167,0,0,0,3.26.085l5.72-.015,3.665-.013a11.179,11.179,0,0,0,1.938-.055,12.747,12.747,0,0,0,3.533.145l6.3-.034c2.86-.017,5.832.149,8.677-.065a7.651,7.651,0,0,0,2.84-.179,12.036,12.036,0,0,0,2.16.082l3.586,0a11.419,11.419,0,0,0,3.075-.074,11.948,11.948,0,0,0,3.539.211,23.3,23.3,0,0,0,2.611-.029c1.36,0,3.357.273,4.613-.284a4.992,4.992,0,0,0,2,.06,20,20,0,0,0,3.944-.121l13.258.049,5,.018a11.031,11.031,0,0,0,2.6-.092,3.051,3.051,0,0,1,1.116.052c.236.18.623.1.906.106l2.814,0,11.548-.013a44.11,44.11,0,0,1,5.109.044l14.124.059,1.584,0,13.762,0h3.792a11.554,11.554,0,0,0,2.028-.05Z" transform="translate(-18.358 -764.463)" fill="#60b096"/>
    <path id="Trazado_874574" data-name="Trazado 874574" d="M325.953,287.42a5.222,5.222,0,0,1,3.881,1.208l.51.506a6.465,6.465,0,0,1,1.33,5,7.533,7.533,0,0,1-2.964,4.994l-1.054.725-4.991-.014a21.057,21.057,0,0,1-3.127.006l-1.063-.691a7.55,7.55,0,0,1-3.132-4.854,6.8,6.8,0,0,1,1.277-5.077l.813-.737c1.807-1.4,3.892-1.084,5.99-.831l.666-.007Z" transform="translate(-188.003 -196.774)" fill="#e25333"/>
    <path id="Trazado_874575" data-name="Trazado 874575" d="M376.018,287.42a5.222,5.222,0,0,1,3.881,1.208l.51.506a6.465,6.465,0,0,1,1.33,5,7.533,7.533,0,0,1-2.964,4.994l-1.054.725-4.991-.014.222-.039a8.126,8.126,0,0,0,4.908-3.511,7.441,7.441,0,0,0,.855-5.461,4.941,4.941,0,0,0-1.634-2.842c-.312-.218-.687-.331-1.011-.535Z" transform="translate(-241.219 -196.774)" fill="#c83f2e"/>
    <path id="Trazado_874576" data-name="Trazado 874576" d="M1541.369,614.977a24.065,24.065,0,0,1,2.139-3.523,16.964,16.964,0,0,0,1.352-1.7,18.27,18.27,0,0,0,.62-2.672,26.715,26.715,0,0,1,3.076-6.119c1.1-1.695,2.273-3.112,4.365-3.533a5.327,5.327,0,0,1,4.115,1.05,5.56,5.56,0,0,1,2.074,3.931,5.092,5.092,0,0,1-1.311,3.828c-1.155,1.2-2.792,1.565-4.345,1.988l-4.365,1.127-1.8,3.109a4.376,4.376,0,0,0-.77,2.531,19.945,19.945,0,0,0-3.855,6.058,10.78,10.78,0,0,1-.643,1.73,16.89,16.89,0,0,1-1.381,1.443,15.2,15.2,0,0,0-2.22,3.092l-.832,0-.287.036a36.2,36.2,0,0,1,1.021-4.007A55.469,55.469,0,0,1,1541.369,614.977Z" transform="translate(-1270.274 -466.753)" fill="#049a5e"/>
    <path id="Trazado_874577" data-name="Trazado 874577" d="M1543.324,739.408c.868.726,1.141,2.61,1.239,3.69l.043,1.706a10.78,10.78,0,0,1-.643,1.73,16.909,16.909,0,0,1-1.381,1.443,15.2,15.2,0,0,0-2.22,3.092l-.832,0A56.418,56.418,0,0,1,1543.324,739.408Z" transform="translate(-1272.216 -590.502)" fill="#d4e7dd"/>
    <path id="Trazado_874578" data-name="Trazado 874578" d="M1568.96,696.82a19.016,19.016,0,0,1,1.524-2.822,18.53,18.53,0,0,1,2.1-2.747,8.492,8.492,0,0,1,1.48-.172c.878-.142,1.743-.355,2.607-.562l-1.8,3.109a4.376,4.376,0,0,0-.77,2.531,19.945,19.945,0,0,0-3.855,6.058l-.043-1.706C1570.1,699.43,1569.828,697.546,1568.96,696.82Z" transform="translate(-1297.852 -547.913)" fill="#92ccaf"/>
    <path id="Trazado_874579" data-name="Trazado 874579" d="M99.553,558.359l.06-.329a3.059,3.059,0,0,1,1.253.237,30.73,30.73,0,0,1,5.681,2.3l.57.323L111,563.5l.672.588c1.54,1.017,2.251,2.887,3.51,4.129a5.98,5.98,0,0,0-1.607,4.612,9.691,9.691,0,0,0,.783,3.2l.543.906-4.42.015-4.169.048a5.454,5.454,0,0,1-1.409-.013c-.022-.235-.4-.61-.555-.809l-.094-.165a24.159,24.159,0,0,1-3.151-5.961l-.249-.77a32.961,32.961,0,0,1-1.327-6.254l-.032-.55a25.26,25.26,0,0,1-.064-2.681Z" transform="translate(0 -432.488)" fill="#004537"/>
    <path id="Trazado_874580" data-name="Trazado 874580" d="M137.6,698.942c1.365.041,2.707.23,4.06.405a8.2,8.2,0,0,1,2.074.37l-4.169.048a5.454,5.454,0,0,1-1.409-.013C138.129,699.516,137.75,699.141,137.6,698.942Z" transform="translate(-33.247 -555.252)" fill="#026042"/>
    <path id="Trazado_874581" data-name="Trazado 874581" d="M99.432,571.869a7.215,7.215,0,0,1,1.622,1.966l1.764,2.186-2.155-1.029a2.845,2.845,0,0,0-1.168-.442A25.26,25.26,0,0,1,99.432,571.869Z" transform="translate(0 -444.561)" fill="#026042"/>
    <path id="Trazado_874582" data-name="Trazado 874582" d="M100.4,558.359l.06-.329a3.059,3.059,0,0,1,1.253.237,30.73,30.73,0,0,1,5.681,2.3l.749,7.075-5.791-7.2a14.383,14.383,0,0,0-1.875-2.03Z" transform="translate(-0.845 -432.488)" fill="#026042"/>
    <path id="Trazado_874583" data-name="Trazado 874583" d="M100.2,596.932l.113.062a20.085,20.085,0,0,0,2.538,1.115,6.974,6.974,0,0,1,1.167.422,7.329,7.329,0,0,1,1.256,1.486l3.865,4.994.006.088-7.618-1.913A32.961,32.961,0,0,1,100.2,596.932Z" transform="translate(-0.674 -466.393)" fill="#026042"/>
    <path id="Trazado_874584" data-name="Trazado 874584" d="M112.425,651.421l5.894,1.3a11.791,11.791,0,0,1,1.926.338,5.263,5.263,0,0,1,.7.859l3.2,4.114c-1.182-.077-7.805-1.394-8.5-.86l-.067.208A24.16,24.16,0,0,1,112.425,651.421Z" transform="translate(-11.321 -513.858)" fill="#026042"/>
    <path id="Trazado_874585" data-name="Trazado 874585" d="M159.069,580.387l3.884,2.6.672.588c1.54,1.017,2.251,2.887,3.51,4.129a5.98,5.98,0,0,0-1.607,4.612,9.691,9.691,0,0,0,.783,3.2,1.542,1.542,0,0,1-.425-.273,26.563,26.563,0,0,1-1.769-2.142,5.724,5.724,0,0,1-.853-1.023,6.533,6.533,0,0,1,.064-1.885l.293-5.969-.232-.229c-.284.353-.242,1.2-.288,1.655l-.377,5.7-2.367-2.849a4.666,4.666,0,0,1-.616-.777,12.079,12.079,0,0,1-.163-2.186Z" transform="translate(-51.952 -451.981)" fill="#026042"/>
    <path id="Trazado_874586" data-name="Trazado 874586" d="M1447.439,829.415l9.479.031.043,5.191a6.7,6.7,0,0,0-2.166.1l-.287,1.482-.6,3.677a9.021,9.021,0,0,1-.508,2.633,4.017,4.017,0,0,1-1.334,1.331l-.315.214-7.106.03a58,58,0,0,1-6.776-.078l-.695-.431a2.59,2.59,0,0,1-.969-1.122,9.508,9.508,0,0,1-.505-2.13l-.772-4.109-.321-1.577a11.829,11.829,0,0,0-2.119-.031v-5.156l5.467-.012,3.259-.04.25-.078a1.233,1.233,0,0,0,.349,0l.308.018a7.785,7.785,0,0,0,1.816.079l.257-.062,1.8.065.287-.036.832,0Z" transform="translate(-1178.975 -668.837)" fill="#f5b836"/>
    <path id="Trazado_874587" data-name="Trazado 874587" d="M1448.93,870.6l15.152.048h3.32a9.231,9.231,0,0,1,1.715.034l-.287,1.482-3.773-.006-15.8.021Z" transform="translate(-1193.296 -704.78)" fill="#d86d26"/>
    <path id="Trazado_874588" data-name="Trazado 874588" d="M1467.224,882.671l3.773.006-.6,3.677a9.026,9.026,0,0,1-.508,2.633,4.017,4.017,0,0,1-1.334,1.331l-.315.214-7.106.03a58.006,58.006,0,0,1-6.776-.078l-.695-.431a2.59,2.59,0,0,1-.969-1.122,9.508,9.508,0,0,1-.505-2.13l-.772-4.109Z" transform="translate(-1195.465 -715.295)" fill="#f5b836"/>
    <path id="Trazado_874589" data-name="Trazado 874589" d="M1532.886,882.671l3.773.006-.6,3.677a9.026,9.026,0,0,1-.508,2.633,4.017,4.017,0,0,1-1.334,1.331l-.315.214-7.106.03c.989-.789,2.332-.95,3.35-1.811A8.955,8.955,0,0,0,1532.886,882.671Z" transform="translate(-1261.127 -715.295)" fill="#f09f25"/>
    <path id="Trazado_874590" data-name="Trazado 874590" d="M1073.846,81.779a25.2,25.2,0,0,1,4.863-1.875,19.736,19.736,0,0,1,11.1.755,20.39,20.39,0,0,1,9.292,6.82c2.318,3.011,3.923,6.627,7.629,8.215,2.9,1.244,5.38.6,8.367.151,3.217-.485,6.638-.576,9.624.9a10.292,10.292,0,0,1,2.787,1.848,11.212,11.212,0,0,1,2.375,3.145l.024.053a7.086,7.086,0,0,0-1.083,2.349l-.049.261-.173,1.667a18.527,18.527,0,0,0,2.992-.017,6.857,6.857,0,0,1,4.792,2.61,7.615,7.615,0,0,1,1.365,5.759l-.072.467a25.006,25.006,0,0,1,13.806,13.173c2.355,5.533,1.944,11.948-.284,17.45l-.8,1.821a5.327,5.327,0,0,0-4.115-1.05c-2.092.421-3.263,1.838-4.365,3.533a26.716,26.716,0,0,0-3.076,6.119,18.27,18.27,0,0,1-.62,2.672,16.977,16.977,0,0,1-1.352,1.7,24.066,24.066,0,0,0-2.139,3.523,55.5,55.5,0,0,0-3.048,8.369,36.258,36.258,0,0,0-1.021,4.007l-1.8-.065-.257.062a7.784,7.784,0,0,1-1.816-.079l-.308-.018a1.233,1.233,0,0,1-.349,0l-.25.079-3.259.04-5.467.012v5.156a11.83,11.83,0,0,1,2.119.031L1119.6,183l.772,4.109a9.5,9.5,0,0,0,.505,2.13,2.591,2.591,0,0,0,.969,1.122l.695.431-10.872.048a40.029,40.029,0,0,1-5.432-.011l-.1-.573.365-13.279c.144-6.5.647-13.386-1.74-19.567l-.373-.871a5.94,5.94,0,0,1,1.221-1.389l-8.249-10.944-1.435-1.894a4.491,4.491,0,0,1-.54-.711,7.846,7.846,0,0,1-.07-2.039l-.1-5.817c-.057-1.6-.16-3.2-.369-4.789l-.186-1.151a15.036,15.036,0,0,0-4.285-8.262,16.9,16.9,0,0,0-10.253-4.634c-1.4-.136-2.838-.08-4.239-.08a4.964,4.964,0,0,0-1.464-.423,2.836,2.836,0,0,1-.507-.1,8.179,8.179,0,0,1-.993-1.551c-.765-1.164-1.566-2.344-2.431-3.435a13.791,13.791,0,0,0,2.968-5.005,10.844,10.844,0,0,0-.762-8.039,7.868,7.868,0,0,0,4.994-1.495,7.234,7.234,0,0,0,2.724-4.828,7.451,7.451,0,0,0-1.535-5.587A6.98,6.98,0,0,0,1073.846,81.779Z" transform="translate(-863.643 -15.601)" fill="#92ccaf"/>
    <path id="Trazado_874591" data-name="Trazado 874591" d="M1376.36,253l.068-.072.186.224a.857.857,0,0,1,.449-.176l.07-.012a14.857,14.857,0,0,1,.376,4.228l-.548-.032a9.429,9.429,0,0,0-.106-2.248l-.188-1.005A4.744,4.744,0,0,0,1376.36,253Z" transform="translate(-1126.47 -166.739)" fill="#004641"/>
    <path id="Trazado_874592" data-name="Trazado 874592" d="M1215.2,220.387a1.862,1.862,0,0,1,.85.113,1.526,1.526,0,0,1,.753.806,1.274,1.274,0,0,1,0,1.015,1.555,1.555,0,0,1-.981.8,1.7,1.7,0,0,1-.838-.064,1.379,1.379,0,0,1-.793-.768,1.16,1.16,0,0,1-.032-.987A1.644,1.644,0,0,1,1215.2,220.387Z" transform="translate(-983.398 -138.389)" fill="#07a768"/>
    <path id="Trazado_874593" data-name="Trazado 874593" d="M1392.947,249.074a1.121,1.121,0,0,1,.638.108,3.24,3.24,0,0,1-.614,2.065,3.092,3.092,0,0,1-2.331,1.117,4.006,4.006,0,0,1-.721-.093.731.731,0,0,1-.05-.154,2.846,2.846,0,0,1,.449-1.56A3.837,3.837,0,0,1,1392.947,249.074Z" transform="translate(-1141.84 -163.378)" fill="#026042"/>
    <path id="Trazado_874594" data-name="Trazado 874594" d="M1480.7,228.1a6.441,6.441,0,0,0-2.853-2.846,11.569,11.569,0,0,1-1.667-.874l2.291.3a5.794,5.794,0,0,1,3.222,3.551c.11.377.273,2.038.521,2.182l-.049.261-.173,1.667-.6.036a6.945,6.945,0,0,0,.13-1.839l-.144.474a3.333,3.333,0,0,1-1.306-.74l.041-.045.066-.077A2.95,2.95,0,0,0,1480.7,228.1Z" transform="translate(-1217.033 -141.865)" fill="#277b48"/>
    <path id="Trazado_874595" data-name="Trazado 874595" d="M1507.015,253.235a7.2,7.2,0,0,1,.825,2.434l-.144.474a3.332,3.332,0,0,1-1.306-.74l.041-.045.066-.077A2.95,2.95,0,0,0,1507.015,253.235Z" transform="translate(-1243.349 -167.005)" fill="#d4e7dd"/>
    <path id="Trazado_874596" data-name="Trazado 874596" d="M1343.1,492.366a2.546,2.546,0,0,1,.89.055,1.684,1.684,0,0,1,1.2,2.232,1.958,1.958,0,0,1-1.211,1.153,2.984,2.984,0,0,1-.891-.068,1.792,1.792,0,0,1-1.129-.917,1.73,1.73,0,0,1-.083-1.243C1342.073,492.9,1342.518,492.682,1343.1,492.366Z" transform="translate(-1096.136 -375.296)" fill="#f09f25"/>
    <path id="Trazado_874597" data-name="Trazado 874597" d="M1469.23,228.355a4.681,4.681,0,0,1-2.058-.529c-2.126-1.186-2.834-3.443-3.442-5.64a9.587,9.587,0,0,1,3.9.577l-2.291-.3a11.569,11.569,0,0,0,1.667.874,6.442,6.442,0,0,1,2.853,2.846,2.95,2.95,0,0,1-.518,2.046l-.066.077Z" transform="translate(-1206.188 -139.957)" fill="#07a768"/>
    <path id="Trazado_874598" data-name="Trazado 874598" d="M1335.575,228.217a4.046,4.046,0,0,1-2.22-.6c-1.719-1.1-2.47-3.512-2.885-5.413a7.577,7.577,0,0,1,3.017.367,5.486,5.486,0,0,1,3.251,2.572,5.585,5.585,0,0,1,.42,1.053l-.07.012a.857.857,0,0,0-.449.176l-.186-.224-.068.072a4.735,4.735,0,0,1,.307.907l.188,1.005a2.65,2.65,0,0,1-.052.886Z" transform="translate(-1086.363 -139.974)" fill="#07a768"/>
    <path id="Trazado_874599" data-name="Trazado 874599" d="M1367.805,252.259c.285-.192.414-.233.529-.569a5.073,5.073,0,0,0-.864-1.833l.2-.054c.539.35.626,1.021,1.185,1.345l.071.037.188,1.005a2.65,2.65,0,0,1-.052.886Z" transform="translate(-1118.661 -164.015)" fill="#d4e7dd"/>
    <path id="Trazado_874600" data-name="Trazado 874600" d="M1341.691,227.808a10.9,10.9,0,0,0-2.984-2.959,2.738,2.738,0,0,0-.915-.52,2.078,2.078,0,0,1-.22-.062,7.342,7.342,0,0,0-1.011-.2,3.758,3.758,0,0,1,1.14-.018,6.4,6.4,0,0,0,1.092.1,5.486,5.486,0,0,1,3.251,2.572,5.585,5.585,0,0,1,.42,1.053l-.07.012a.857.857,0,0,0-.449.176l-.186-.224Z" transform="translate(-1091.682 -141.545)" fill="#277b48"/>
    <path id="Trazado_874601" data-name="Trazado 874601" d="M1364.576,285.538c2.246-.035,4.109-.006,5.839,1.685a9.248,9.248,0,0,1,1.492,2.066,8.1,8.1,0,0,0-.437,6.242l.392,1.021a9.811,9.811,0,0,1-6.317,4.771,12.059,12.059,0,0,1-5.574-.12c.651-.244,1.448-.221,2.134-.4a9.044,9.044,0,0,0,5.773-4.293,7.836,7.836,0,0,0,.882-5.96A8.212,8.212,0,0,0,1364.576,285.538Z" transform="translate(-1112.781 -195.138)" fill="#c83f2e"/>
    <path id="Trazado_874602" data-name="Trazado 874602" d="M1386.449,717.47a10.624,10.624,0,0,1-4-.249,24.882,24.882,0,0,1-4.234-1.069c-1.789-.673-3.7-1.587-4.517-3.443a5.106,5.106,0,0,1-.009-3.943,5.21,5.21,0,0,1,2.857-2.8,4.881,4.881,0,0,1,3.7.025,8.1,8.1,0,0,1,2.348,1.807,18.7,18.7,0,0,1,4.042,6.408,12.429,12.429,0,0,1,.34,1.526,9.122,9.122,0,0,0,.059,1.488,10.647,10.647,0,0,0,1.253,1.631,14.78,14.78,0,0,1,1.615,2.716l-.25.079-3.259.04Z" transform="translate(-1127.41 -561.06)" fill="#049a5e"/>
    <path id="Trazado_874603" data-name="Trazado 874603" d="M1474.957,796.982l.29-.093a15.38,15.38,0,0,1,2.912,4.263l-3.259.04Z" transform="translate(-1215.918 -640.572)" fill="#d4e7dd"/>
    <path id="Trazado_874604" data-name="Trazado 874604" d="M1384.687,582.276a31.516,31.516,0,0,0-1.894-5.484l-1.086-2.4a3.524,3.524,0,0,0-.324-.67,3.291,3.291,0,0,0-.5-.122,10.12,10.12,0,0,1-1.334-.434,34.5,34.5,0,0,1-4.632-2.457c-1.954-1.182-4.449-2.554-5.342-4.768a5.044,5.044,0,0,1,.05-3.665,5.373,5.373,0,0,1,2.936-2.9,5.944,5.944,0,0,1,4.61.175,6.976,6.976,0,0,1,3.485,4.191,24.169,24.169,0,0,1,.861,3.109c.456,1.966,1.079,4.68.2,6.6a14.9,14.9,0,0,0,1,2.412,56.534,56.534,0,0,1,2.042,5.709,53.181,53.181,0,0,1,2.282,12.293l-.308-.018a1.235,1.235,0,0,1-.349,0,14.773,14.773,0,0,0-1.615-2.716,10.655,10.655,0,0,1-1.253-1.631,9.136,9.136,0,0,1-.059-1.488,12.43,12.43,0,0,0-.34-1.526A19.551,19.551,0,0,1,1384.687,582.276Z" transform="translate(-1123.895 -433.346)" fill="#049a5e"/>
    <path id="Trazado_874605" data-name="Trazado 874605" d="M1478.339,739.591a49.76,49.76,0,0,1,2.049,11.57,1.235,1.235,0,0,1-.349,0,14.773,14.773,0,0,0-1.615-2.716,10.652,10.652,0,0,1-1.253-1.631,9.121,9.121,0,0,1-.059-1.488,12.428,12.428,0,0,0-.34-1.526A19.552,19.552,0,0,1,1478.339,739.591Z" transform="translate(-1217.547 -590.661)" fill="#d4e7dd"/>
    <path id="Trazado_874606" data-name="Trazado 874606" d="M1313.909,301.089c-1.44-.089-3.452-1.482-4.428-2.51a8.567,8.567,0,0,1-2.384-6.361,7.343,7.343,0,0,1,2.274-5.038c2.135-2,4.556-1.817,7.252-1.733l.548.032,1.345-.054a8.212,8.212,0,0,1,4.182,5.009,7.836,7.836,0,0,1-.882,5.96,9.044,9.044,0,0,1-5.773,4.293C1315.357,300.869,1314.56,300.845,1313.909,301.089Z" transform="translate(-1066.39 -195.024)" fill="#e25333"/>
    <path id="Trazado_874607" data-name="Trazado 874607" d="M1455.523,285.912a18.528,18.528,0,0,0,2.992-.016,6.857,6.857,0,0,1,4.792,2.61,7.615,7.615,0,0,1,1.365,5.759l-.072.467a9.56,9.56,0,0,1-4.681,6.154,10.142,10.142,0,0,1-7.54.66l-.071-.021-.057-.017a9.533,9.533,0,0,1-5.63-4.649l-.392-1.021a8.1,8.1,0,0,1,.437-6.242,7.356,7.356,0,0,1,1.529-2.083c2.033-1.821,4.183-1.69,6.731-1.565Z" transform="translate(-1190.564 -195.444)" fill="#f5b836"/>
    <path id="Trazado_874608" data-name="Trazado 874608" d="M1502.527,285.976a6.857,6.857,0,0,1,4.792,2.61,7.614,7.614,0,0,1,1.365,5.759l-.072.467a9.559,9.559,0,0,1-4.681,6.154,10.142,10.142,0,0,1-7.54.66l-.071-.021.174-.006c2.265-.089,4.865-.7,6.455-2.449a9.809,9.809,0,0,0,2.617-7.035A9.016,9.016,0,0,0,1502.527,285.976Z" transform="translate(-1234.576 -195.525)" fill="#f09f25"/>
    <path id="Trazado_874609" data-name="Trazado 874609" d="M1464.5,462.422c-.445-2.459-1.138-6.481.342-8.623a5.684,5.684,0,0,1,2.56-2.043,29.87,29.87,0,0,0-1.1-4.071c-2.416-.673-4.917-3.263-6.586-5.075a12.283,12.283,0,0,1-1.766-2.2,4.44,4.44,0,0,1-.391-3.381,4.945,4.945,0,0,1,6.148-3.2,5.039,5.039,0,0,1,2.928,2.62c1.347,2.787,1.33,7.6.3,10.491a4.7,4.7,0,0,0-.321.857,4.426,4.426,0,0,0,.264.84l.7,2.442,5.613-11.4c-1.154-2.318-.057-6.473.735-8.843.642-1.921,1.716-4.044,3.634-4.969a5.157,5.157,0,0,1,3.953-.18,5.828,5.828,0,0,1,3.325,3.127,4.911,4.911,0,0,1,.1,3.71c-.83,2.125-2.866,3.483-4.725,4.631a27.165,27.165,0,0,1-3.577,1.919,11.456,11.456,0,0,1-1.981.654,7.651,7.651,0,0,0-1.267.21,5.939,5.939,0,0,0-.547.975,78.827,78.827,0,0,0-4.341,8.821l-.8,1.97a4.618,4.618,0,0,1,3.669.681,4.344,4.344,0,0,1,1.795,2.939,7.214,7.214,0,0,1-1.855,5.288l-2.012,2.336a1.8,1.8,0,0,1,.588.351c.155.165.282.451.5.518.255.076.482.543.659.746a4.424,4.424,0,0,0,.709.616,55.469,55.469,0,0,0-3.048,8.369,36.232,36.232,0,0,0-1.021,4.007l-1.8-.065-.257.062a7.783,7.783,0,0,1-1.816-.079,53.182,53.182,0,0,0-2.282-12.293,1.714,1.714,0,0,0,.294-.422,4.044,4.044,0,0,1,1.577-1.649A12.483,12.483,0,0,0,1464.5,462.422Z" transform="translate(-1200.657 -316.957)" fill="#049a5e"/>
    <path id="Trazado_874610" data-name="Trazado 874610" d="M1489.52,715.476a1.715,1.715,0,0,0,.294-.422,4.044,4.044,0,0,1,1.577-1.649,12.483,12.483,0,0,0,1.1-.689,14.485,14.485,0,0,0,.717,2.229,10.5,10.5,0,0,1,.6,1.081,5.617,5.617,0,0,1-.133,1.163l-.187,2.679c-.128,2.678.049,5.308.129,7.981a7.786,7.786,0,0,1-1.817-.079A53.181,53.181,0,0,0,1489.52,715.476Z" transform="translate(-1228.653 -567.251)" fill="#d4e7dd"/>
    <path id="Trazado_874611" data-name="Trazado 874611" d="M1525.869,716.809a1.8,1.8,0,0,1,.588.351c.155.165.282.451.5.518.255.076.482.543.659.746a4.424,4.424,0,0,0,.709.617,55.469,55.469,0,0,0-3.048,8.369,36.23,36.23,0,0,0-1.021,4.007l-1.8-.065-.125-7.309.242-3.445a4.656,4.656,0,0,1,.121-1c.085-.189.773-.579.967-.738C1524.429,718.228,1525.144,717.5,1525.869,716.809Z" transform="translate(-1257.233 -570.816)" fill="#d4e7dd"/>
    <path id="Trazado_874612" data-name="Trazado 874612" d="M176.973,92.292c.613-.153,5-.071,5.019-.085a5.122,5.122,0,0,0,.433-.9,22.567,22.567,0,0,1,1.167-2.016,24.859,24.859,0,0,1,30.225-9.47,7.4,7.4,0,0,0,.031,5.931,7.1,7.1,0,0,0,3.751,3.621,7.361,7.361,0,0,0,5.812-.246l1.511-.92a3.063,3.063,0,0,0,1.117.634,18.815,18.815,0,0,0,6.115,1.564l1.781.168A16.225,16.225,0,0,1,239.87,87.7a19.692,19.692,0,0,1,2.995-.318l6.634-3.441,1.225-1.5a7.069,7.069,0,0,1,5.327-1.959,6.981,6.981,0,0,1,5.033,2.582,7.452,7.452,0,0,1,1.535,5.587,7.234,7.234,0,0,1-2.724,4.828,7.868,7.868,0,0,1-4.994,1.495,10.844,10.844,0,0,1,.762,8.039,13.79,13.79,0,0,1-2.968,5.005c.865,1.091,1.667,2.271,2.431,3.435a8.179,8.179,0,0,0,.993,1.551,2.836,2.836,0,0,0,.507.1,4.964,4.964,0,0,1,1.464.423c1.4,0,2.843-.056,4.239.08a16.9,16.9,0,0,1,10.253,4.634,15.037,15.037,0,0,1,4.285,8.262l.186,1.151c.209,1.585.312,3.192.369,4.789l.1,5.817a7.85,7.85,0,0,0,.07,2.039,4.493,4.493,0,0,0,.54.711l1.435,1.894,8.249,10.944a5.94,5.94,0,0,0-1.221,1.389l.373.871c2.388,6.181,1.885,13.067,1.74,19.567l-.365,13.279-.121.473a13.864,13.864,0,0,1-2.223.05H281.84l-15.079,0-1.735,0-15.477-.059a52.956,52.956,0,0,0-5.6-.044L231.3,189.4l-3.083,0a1.846,1.846,0,0,1-.993-.106,3.657,3.657,0,0,0-1.222-.052,13.237,13.237,0,0,1-2.849.092l-5.481-.018-14.528-.049a23.992,23.992,0,0,1-4.322.121,5.982,5.982,0,0,1-2.192-.06c-1.376.556-3.564.279-5.054.284a27.946,27.946,0,0,1-2.861.028,14.318,14.318,0,0,1-3.877-.211,13.7,13.7,0,0,1-3.37.074l-3.929,0a14.434,14.434,0,0,1-2.366-.082,9.163,9.163,0,0,1-3.112.179c-3.117.215-6.373.048-9.507.065l-6.9.034a15.287,15.287,0,0,1-3.872-.145,13.411,13.411,0,0,1-2.123.055l-4.016.013-6.267.015a23,23,0,0,1-3.572-.085l-.188-.078a3.459,3.459,0,0,1-1.793-1.845l-.031-.084a8.94,8.94,0,0,1-.208-2.991l.007-4.821.013-15.368a2.681,2.681,0,0,1-1.138-.163,1.294,1.294,0,0,1-.712-.757,4.533,4.533,0,0,1-.055-1.144,7.214,7.214,0,0,1,.2-2.737,1.5,1.5,0,0,1,1.089-.742,5.454,5.454,0,0,0,1.409.013l4.169-.048,4.42-.015-.543-.906a9.691,9.691,0,0,1-.783-3.2,5.98,5.98,0,0,1,1.607-4.612c-1.259-1.243-1.97-3.112-3.51-4.129l-.672-.588a4.408,4.408,0,0,0-.088-1.632l-.47-4.62c-.128-1.6-.247-3.214-.222-4.824a35.147,35.147,0,0,1,2.916-14.513,23.741,23.741,0,0,1,9.955-10.645,38.069,38.069,0,0,1,5.524-2.325,6.8,6.8,0,0,0-1.277,5.077,7.55,7.55,0,0,0,3.132,4.854l1.063.691a21.053,21.053,0,0,0,3.127-.006l4.991.014,1.054-.725a7.533,7.533,0,0,0,2.964-4.994,6.465,6.465,0,0,0-1.33-5l6.119-3.177.02-2.838,0-5.946a1.884,1.884,0,0,1-.563-.631,1.852,1.852,0,0,1,.009-.872A1.633,1.633,0,0,1,176.973,92.292Z" transform="translate(-28.08 -14.314)" fill="#92ccaf"/>
    <path id="Trazado_874613" data-name="Trazado 874613" d="M733.378,573.416l.026-2.182a4.294,4.294,0,0,1,.01-.874,1.59,1.59,0,0,1,.221-.239,1.15,1.15,0,0,1,.745.189,1.561,1.561,0,0,1,.2.28,3.6,3.6,0,0,1-.046.742c-.042.689-.1,1.38-.088,2.071Z" transform="translate(-559.253 -443.036)" fill="#012c43"/>
    <path id="Trazado_874614" data-name="Trazado 874614" d="M791.508,220.589a2.561,2.561,0,0,1,.808-.024,1.812,1.812,0,0,1,.746.555,1.386,1.386,0,0,1,.236,1.1,1.555,1.555,0,0,1-.857,1.009,1.649,1.649,0,0,1-.924.052,1.36,1.36,0,0,1-.827-.682,1.8,1.8,0,0,1-.064-1.19A1.4,1.4,0,0,1,791.508,220.589Z" transform="translate(-609.75 -138.528)" fill="#f09f25"/>
    <path id="Trazado_874615" data-name="Trazado 874615" d="M571.973,188.9c.93-.009,2.184-.222,2.906.5a1.625,1.625,0,0,1,.545,1.2,1.146,1.146,0,0,1-.195.562,1.242,1.242,0,0,1-.579.3l-.753-.015-1.843-.031Z" transform="translate(-416.923 -110.937)" fill="#012c43"/>
    <path id="Trazado_874616" data-name="Trazado 874616" d="M869.662,373.087a2.1,2.1,0,0,1,1.117-.045,1.629,1.629,0,0,1,.969.779,1.667,1.667,0,0,1,.039,1.372,1.62,1.62,0,0,1-.928.861,1.874,1.874,0,0,1-.974.057,1.574,1.574,0,0,1-.948-.734,1.545,1.545,0,0,1,.726-2.289Z" transform="translate(-678.698 -271.317)" fill="#07a768"/>
    <path id="Trazado_874617" data-name="Trazado 874617" d="M619.418,548.385a2.957,2.957,0,0,1,.866.03,1.736,1.736,0,0,1,1.074.822,1.692,1.692,0,0,1,.141,1.282,1.972,1.972,0,0,1-1.129,1.094,2.392,2.392,0,0,1-.883.024,1.406,1.406,0,0,1-.983-.688,1.945,1.945,0,0,1-.2-1.5C618.452,548.886,618.939,548.63,619.418,548.385Z" transform="translate(-457.733 -424.09)" fill="#07a768"/>
    <path id="Trazado_874618" data-name="Trazado 874618" d="M718.914,273.184c1.129-.011,3.156-.342,4,.488a1.6,1.6,0,0,1,.426.8,1.239,1.239,0,0,1-.449,1.006,2.165,2.165,0,0,1-1.371.246L719,275.711l-.068-.042Z" transform="translate(-546.602 -184.317)" fill="#012c43"/>
    <path id="Trazado_874619" data-name="Trazado 874619" d="M571.662,208.652l1.843.031.753.015-.01.108.01,5.6-2.616.006a17.372,17.372,0,0,1-.025-2.32v-.124c-.048-.962.237-2.4-.095-3.275Z" transform="translate(-416.509 -128.169)" fill="#60b096"/>
    <path id="Trazado_874620" data-name="Trazado 874620" d="M571.662,208.652l1.843.031-1.887,3.289c-.048-.962.237-2.4-.095-3.275Z" transform="translate(-416.489 -128.169)" fill="#9bd7db"/>
    <path id="Trazado_874621" data-name="Trazado 874621" d="M638.366,276.156a2.028,2.028,0,0,1-.783-.3,1.027,1.027,0,0,1-.371-.7,1.281,1.281,0,0,1,.34-1.1,1.74,1.74,0,0,1,.82-.44,10.49,10.49,0,0,1,1.922-.042h4.127l-.036,2.455-.05.052C642.388,276.3,640.334,276.011,638.366,276.156Z" transform="translate(-474.592 -184.705)" fill="#012c43"/>
    <path id="Trazado_874622" data-name="Trazado 874622" d="M692.125,273.7l3.32-.007.013,2.485.068.042c-.048,1.225.411,3.5-.533,4.376l-.35.3a2.526,2.526,0,0,1-.858.144,1.608,1.608,0,0,1-1.206-.48c-.885-.864-.544-3.176-.54-4.35l.05-.052Z" transform="translate(-522.803 -184.821)" fill="#049a5e"/>
    <path id="Trazado_874623" data-name="Trazado 874623" d="M692.92,273.7l3.32-.007.013,2.485a11.719,11.719,0,0,1-3.369-.023Z" transform="translate(-523.6 -184.821)" fill="#07a768"/>
    <path id="Trazado_874624" data-name="Trazado 874624" d="M765.014,526.527a2.416,2.416,0,0,1-.577-.3.858.858,0,0,1-.4-.676,1.857,1.857,0,0,1,.5-1.089,26.32,26.32,0,0,1,2.793-2.635l4.1-3.492a5.266,5.266,0,0,1,2.378-1.3c.523-.032.654.172,1.013.509a34.11,34.11,0,0,1-4.4,4.5C768.774,523.578,767.05,525.539,765.014,526.527Z" transform="translate(-586.66 -396.79)" fill="#07a768"/>
    <path id="Trazado_874625" data-name="Trazado 874625" d="M476.211,189.158l11.455-.01.08,2.514-.138.045c-2.85-.2-5.841-.009-8.71-.01a12.165,12.165,0,0,1-3.1-.118,1.884,1.884,0,0,1-.563-.631,1.852,1.852,0,0,1,.009-.872A1.633,1.633,0,0,1,476.211,189.158Z" transform="translate(-331.727 -111.18)" fill="#205e82"/>
    <path id="Trazado_874626" data-name="Trazado 874626" d="M518.963,768.913a2.163,2.163,0,0,1-.593-.2,1.286,1.286,0,0,1-.349-.745,1.075,1.075,0,0,1,.358-.676.881.881,0,0,1,.51-.191c1.644-.139,3.42.02,5.077.014l11.108-.045a1.511,1.511,0,0,1,.725.726.986.986,0,0,1-.6,1.091h-3.391Z" transform="translate(-369.676 -614.579)" fill="#012c43"/>
    <path id="Trazado_874627" data-name="Trazado 874627" d="M776.813,521l.192.2a3.385,3.385,0,0,1,.228,2.413,9.222,9.222,0,0,1-2.056,3.688,14.854,14.854,0,0,1-7.158,4.4l-.56-.455-1.129-.549a7.732,7.732,0,0,1,.679-.7c2.036-.988,3.76-2.95,5.4-4.492A34.106,34.106,0,0,0,776.813,521Z" transform="translate(-588.691 -400.253)" fill="#f5b836"/>
    <path id="Trazado_874628" data-name="Trazado 874628" d="M775.088,532.563a13.12,13.12,0,0,0,4.941-2.214c1.851-1.388,3.917-3.707,4.445-6.011.133-.581.077-1.221.16-1.818a3.385,3.385,0,0,1,.228,2.413,9.221,9.221,0,0,1-2.056,3.688,14.854,14.854,0,0,1-7.158,4.4Z" transform="translate(-596.377 -401.573)" fill="#ec964a"/>
    <path id="Trazado_874629" data-name="Trazado 874629" d="M779.431,574.239a14.854,14.854,0,0,0,7.158-4.4,2.956,2.956,0,0,1,1.7,1.666l.027.08a4.407,4.407,0,0,1-1.021,3.594,9.75,9.75,0,0,1-5.387,3.6l-1.446.107.093-.4A5.1,5.1,0,0,0,779.431,574.239Z" transform="translate(-600.173 -442.795)" fill="#f5b836"/>
    <path id="Trazado_874630" data-name="Trazado 874630" d="M713.5,293.289l2.522.017,1.325,11.672-4.741,0,.011-7.018.35-.3C713.912,296.784,713.454,294.514,713.5,293.289Z" transform="translate(-541.047 -201.895)" fill="#a09a2a"/>
    <path id="Trazado_874631" data-name="Trazado 874631" d="M479.915,208.009a12.164,12.164,0,0,0,3.1.118c2.869,0,5.86-.191,8.71.01.332.88.046,2.313.095,3.275v.124a17.377,17.377,0,0,0,.025,2.32l0,.08-.089.037-1.326-.038-10.511.02Z" transform="translate(-335.884 -127.609)" fill="#ace2f0"/>
    <path id="Trazado_874632" data-name="Trazado 874632" d="M501.947,223.345l.435-.031c.219.16.245.158.323.432a1.125,1.125,0,0,1-.5.539,1.376,1.376,0,0,1-.286.023c-.324-.026-.369-.089-.552-.333A1.209,1.209,0,0,1,501.947,223.345Z" transform="translate(-354.586 -140.941)" fill="#fdfefe"/>
    <path id="Trazado_874633" data-name="Trazado 874633" d="M515.117,211.97l.179,0c.265.166.265.162.346.463a1.187,1.187,0,0,1-.616.743c-.355.022-.375.045-.652-.17l.022-.4A1.488,1.488,0,0,1,515.117,211.97Z" transform="translate(-366.056 -131.056)" fill="#fdfefe"/>
    <path id="Trazado_874634" data-name="Trazado 874634" d="M564.525,237.685l-1.107,0-.066-.173,1.148-2.145A17.371,17.371,0,0,0,564.525,237.685Z" transform="translate(-409.26 -151.439)" fill="#9bd7db"/>
    <path id="Trazado_874635" data-name="Trazado 874635" d="M514.448,224.254a.855.855,0,0,1,.789.154,1,1,0,0,1,.334.763,1.256,1.256,0,0,1-.53.688c-.394.024-.6.083-.932-.2a.943.943,0,0,1-.229-.715A1.282,1.282,0,0,1,514.448,224.254Z" transform="translate(-365.628 -141.736)" fill="#fdfefe"/>
    <path id="Trazado_874636" data-name="Trazado 874636" d="M200.178,508.533l.277-.271a2.58,2.58,0,0,1,.453.384,22.994,22.994,0,0,1,2.766,4.144l-.624.583-.143.062c-.956.277-1.316,1.156-1.98,1.84a4.064,4.064,0,0,0,.015,1.429l-.431,1.621a15.6,15.6,0,0,0,0,2.8l.2.912-.377.093a4.86,4.86,0,0,0,.137,1.33l.14.091a16.525,16.525,0,0,0-2.682,1.331c-1.259-1.242-1.97-3.112-3.51-4.129a21.618,21.618,0,0,0,.658-2.7l.1-.354a21.951,21.951,0,0,1,2.77-6.265A16.087,16.087,0,0,1,200.178,508.533Z" transform="translate(-82.74 -389.154)" fill="#277b48"/>
    <path id="Trazado_874637" data-name="Trazado 874637" d="M226.6,508.533l.277-.271a2.581,2.581,0,0,1,.453.384,36.854,36.854,0,0,1,.034,4.258,7.486,7.486,0,0,0-.04,1.774l.026.6a4.064,4.064,0,0,0,.015,1.429l-.431,1.621-.027-.045-.039-.077c-.373-.678-.168-2.353-.183-3.159a1.592,1.592,0,0,0-.144-.931l-1.253-1.582-.543-.809.127-.108a8.995,8.995,0,0,1,1.693,1.546,6.7,6.7,0,0,0,.032-1.565Z" transform="translate(-109.158 -389.154)" fill="#004537"/>
    <path id="Trazado_874638" data-name="Trazado 874638" d="M244.415,511.239a23,23,0,0,1,2.766,4.144l-.624.583-.143.062c-.956.277-1.316,1.156-1.98,1.84l-.026-.6a7.485,7.485,0,0,1,.04-1.774A36.857,36.857,0,0,0,244.415,511.239Z" transform="translate(-126.247 -391.748)" fill="#277b48"/>
    <path id="Trazado_874639" data-name="Trazado 874639" d="M244.747,540.929a11.575,11.575,0,0,1,1.328-1.626,5.3,5.3,0,0,1,.8-.9c.178.3-.139.494-.141.807l.016.482c-.956.277-1.316,1.156-1.98,1.84Z" transform="translate(-126.584 -415.405)" fill="#004641"/>
    <path id="Trazado_874640" data-name="Trazado 874640" d="M195.17,581.375c.648-.125,1.542.541,2.072.9a23.856,23.856,0,0,1,3.267,2.523l.2.912-.377.093a4.86,4.86,0,0,0,.137,1.33l.14.091a16.519,16.519,0,0,0-2.682,1.331c-1.259-1.242-1.97-3.112-3.51-4.129a21.621,21.621,0,0,0,.658-2.7Z" transform="translate(-82.74 -452.828)" fill="#277b48"/>
    <path id="Trazado_874641" data-name="Trazado 874641" d="M199.617,581.375c.648-.125,1.542.541,2.072.9a23.856,23.856,0,0,1,3.267,2.523l.2.912-.377.093-.045-.126a4.156,4.156,0,0,0-1.037-1.155,12.873,12.873,0,0,0-4.176-2.793Z" transform="translate(-87.186 -452.828)" fill="#004537"/>
    <path id="Trazado_874642" data-name="Trazado 874642" d="M524.425,781.381l12.846-.02-.022,7.161a17.758,17.758,0,0,1-3.591.043l-9.284,0A70.2,70.2,0,0,1,524.425,781.381Z" transform="translate(-375.088 -627.046)" fill="#fdfefe"/>
    <path id="Trazado_874643" data-name="Trazado 874643" d="M638.162,293.26c1.968-.145,4.023.144,5.969-.07,0,1.174-.345,3.486.54,4.35a1.608,1.608,0,0,0,1.206.48,2.526,2.526,0,0,0,.858-.144l-.011,7.018-9.751-.009Z" transform="translate(-474.464 -201.809)" fill="#bcbb37"/>
    <path id="Trazado_874644" data-name="Trazado 874644" d="M683.752,602.134l-.1-.1a5.3,5.3,0,0,1-1.333-4.1,4.749,4.749,0,0,1,1.633-3.125c1.654-1.434,3.015-.813,4.932-.695l1.068-.014,2.02-.077a5.772,5.772,0,0,1,1.161.151l1.129.549.56.455a5.1,5.1,0,0,1,1.121,4.245l-.093.4a7.619,7.619,0,0,1-1.316,2.3h-4.89Z" transform="translate(-514.614 -463.731)" fill="#e25333"/>
    <path id="Trazado_874645" data-name="Trazado 874645" d="M741.589,595a5.768,5.768,0,0,1,1.161.151l1.129.549.56.455a5.1,5.1,0,0,1,1.121,4.245l-.093.4a7.619,7.619,0,0,1-1.316,2.3h-4.89l.948-.853a5.978,5.978,0,0,0,2.17-4.091A3.967,3.967,0,0,0,741.589,595Z" transform="translate(-564.624 -464.708)" fill="#c83f2e"/>
    <path id="Trazado_874646" data-name="Trazado 874646" d="M805.031,583.388l1.9.412a3.607,3.607,0,0,0,.758.149l10,2.406c1.219.44,2.661.643,3.927.979a4.455,4.455,0,0,1,1.7.647l.077.058a17.641,17.641,0,0,0-4.048.778c-.221.266-.183.428-.2.764-1.24.051-8.431.123-8.851.34a2.61,2.61,0,0,0-.363.364,1.234,1.234,0,0,0,.048.875c.517.548,2.51.567,3.3.663a34.93,34.93,0,0,1-4.988,1.439l-1.646-.292h-.746a3.745,3.745,0,0,1-.818-.133c-.238-.145-.2-.313-.573-.422-1.929-.557-4.113-.845-5.881-1.835a9.75,9.75,0,0,0,5.387-3.6A4.407,4.407,0,0,0,805.031,583.388Z" transform="translate(-617.808 -454.595)" fill="#277b48"/>
    <path id="Trazado_874647" data-name="Trazado 874647" d="M805.031,583.388l1.9.412a3.607,3.607,0,0,0,.758.149l-2.71,8.522,1.663.5h-.746a3.745,3.745,0,0,1-.818-.133c-.238-.145-.2-.313-.573-.422-1.929-.557-4.113-.845-5.881-1.835a9.75,9.75,0,0,0,5.387-3.6A4.407,4.407,0,0,0,805.031,583.388Z" transform="translate(-617.117 -454.595)" fill="#07a768"/>
    <path id="Trazado_874648" data-name="Trazado 874648" d="M243.611,531.092a8.524,8.524,0,0,1,6.122-1.779,8.751,8.751,0,0,1,6.058,3.348,9.239,9.239,0,0,1,1.885,5.483,13.621,13.621,0,0,1-.648,2.848,13.951,13.951,0,0,1-1.252,2.229l.257,1.127-1.631.03c-.292.08-.314.049-.595-.076a4.625,4.625,0,0,0-.871.582,7.542,7.542,0,0,0-2.294,1.488l-.544.438-.3-.739a7.556,7.556,0,0,0-4.462-3.885,1.7,1.7,0,0,1-.434.315,1.116,1.116,0,0,1-.91.043,1.975,1.975,0,0,1-.641-.931,10.37,10.37,0,0,0-1.854.152l-.509.058-.447.029-.14-.091a4.859,4.859,0,0,1-.137-1.33l.377-.093-.2-.912a15.6,15.6,0,0,1,0-2.8l.431-1.621a4.065,4.065,0,0,1-.015-1.429c.663-.684,1.024-1.563,1.98-1.84l.143-.062Z" transform="translate(-122.677 -407.456)" fill="#f8e7b1"/>
    <path id="Trazado_874649" data-name="Trazado 874649" d="M281.8,603.519l.083-.05a17.2,17.2,0,0,0,2.531-2.288l0,3.329a19.465,19.465,0,0,0-3.028-.15Z" transform="translate(-158.497 -470.095)" fill="#f5b836"/>
    <path id="Trazado_874650" data-name="Trazado 874650" d="M255.4,599.661l-.144-.126a3.4,3.4,0,0,1-.985-2.207.728.728,0,0,1,.2-.463,1.512,1.512,0,0,1,.57-.385,5.911,5.911,0,0,1,1.465-.058l3.662.059a8.413,8.413,0,0,1-1.256,1.146,1.446,1.446,0,0,0-.479-.878,1.038,1.038,0,0,0-.8.118c-.682.708-.481,1.628-.89,2.427a3.023,3.023,0,0,0-.829-1.935,1.206,1.206,0,0,0-.717.485A3.605,3.605,0,0,0,255.4,599.661Z" transform="translate(-134.877 -465.935)" fill="#f5b836"/>
    <path id="Trazado_874651" data-name="Trazado 874651" d="M242.988,547.911l.663.023a8.957,8.957,0,0,0-2.847,6.1A13.287,13.287,0,0,0,241.5,558l-.509.058-.447.029L240.4,558a4.86,4.86,0,0,1-.137-1.33l.377-.093-.2-.912a15.6,15.6,0,0,1,0-2.8l.431-1.621a4.064,4.064,0,0,1-.015-1.429c.663-.684,1.024-1.563,1.98-1.84Z" transform="translate(-122.677 -423.692)" fill="#f5b836"/>
    <path id="Trazado_874652" data-name="Trazado 874652" d="M240.643,615.1l.347,1.486-.447.029-.14-.091a4.86,4.86,0,0,1-.137-1.33Z" transform="translate(-122.677 -482.219)" fill="#026042"/>
    <path id="Trazado_874653" data-name="Trazado 874653" d="M244.545,550.232c.663-.684,1.024-1.563,1.98-1.84a19.3,19.3,0,0,0-1.964,3.269A4.065,4.065,0,0,1,244.545,550.232Z" transform="translate(-126.356 -424.111)" fill="#277b48"/>
    <path id="Trazado_874654" data-name="Trazado 874654" d="M310.222,606.044l-.112-3.374a31.642,31.642,0,0,1,2.39,2.407,3.982,3.982,0,0,1,1.265,1.775c-.129.462-.411.635-.82.874A6.842,6.842,0,0,0,310.222,606.044Z" transform="translate(-183.521 -471.391)" fill="#f5b836"/>
    <path id="Trazado_874655" data-name="Trazado 874655" d="M261.269,601.759a3.6,3.6,0,0,1-.2-1.818,1.206,1.206,0,0,1,.717-.485,3.023,3.023,0,0,1,.829,1.935c.409-.8.208-1.719.89-2.427a1.038,1.038,0,0,1,.8-.118,1.446,1.446,0,0,1,.479.878l-.732,1.732-.419.842-.224.464a1.7,1.7,0,0,1-.434.315,1.116,1.116,0,0,1-.91.043,1.976,1.976,0,0,1-.641-.931Z" transform="translate(-140.746 -468.033)" fill="#026042"/>
    <path id="Trazado_874656" data-name="Trazado 874656" d="M281.175,544.215a1.679,1.679,0,0,1,1.11.448c.336.371.248,1.045.25,1.515l0,3.832-.914-1.175-1.605-2.02a2.277,2.277,0,0,1-.647-1.654A3.747,3.747,0,0,1,281.175,544.215Z" transform="translate(-156.724 -420.472)" fill="#f5b836"/>
    <path id="Trazado_874657" data-name="Trazado 874657" d="M317.278,567.25l.459-.045a2.128,2.128,0,0,1,.775.77,2.247,2.247,0,0,1,.281,1.8c-.8.71-2.742.737-3.78.847l-2.005.016a21.015,21.015,0,0,1,2.183-1.86A15.177,15.177,0,0,1,317.278,567.25Z" transform="translate(-186.045 -440.499)" fill="#f5b836"/>
    <path id="Trazado_874658" data-name="Trazado 874658" d="M313.585,598.079a36.617,36.617,0,0,1,4.244.293,4.136,4.136,0,0,1,1.212.214,3.018,3.018,0,0,1,.4.37,2.528,2.528,0,0,1-.324,2,1.7,1.7,0,0,1-.989.574C316.5,600.945,314.9,599.208,313.585,598.079Z" transform="translate(-186.548 -467.392)" fill="#f5b836"/>
    <path id="Trazado_874659" data-name="Trazado 874659" d="M257.994,563.713l.457-.043A5.145,5.145,0,0,1,260.23,565l2.211,2.191-.037.118-.825,0-3.059-.3a1.979,1.979,0,0,1-1.386-.647,1.258,1.258,0,0,1-.2-.947A2.5,2.5,0,0,1,257.994,563.713Z" transform="translate(-137.185 -437.419)" fill="#f5b836"/>
    <path id="Trazado_874660" data-name="Trazado 874660" d="M310.075,545.627a1.042,1.042,0,0,1,.315-.079,2.456,2.456,0,0,1,1.725.568,1.436,1.436,0,0,1,.563.964c.037.726-1.684,2.215-2.206,2.759l-1.322,1.316a21.1,21.1,0,0,1,.146-4.472A1.491,1.491,0,0,1,310.075,545.627Z" transform="translate(-182.645 -421.625)" fill="#f5b836"/>
    <path id="Trazado_874661" data-name="Trazado 874661" d="M279.865,625.8a19.464,19.464,0,0,1,3.028.15l.788.237a6.843,6.843,0,0,1,2.723,1.682l.837,1.093a7.541,7.541,0,0,0-2.294,1.488l-.544.438-.3-.739a7.556,7.556,0,0,0-4.462-3.885Z" transform="translate(-156.98 -491.533)" fill="#c83f2e"/>
    <path id="Trazado_874662" data-name="Trazado 874662" d="M262.035,531.092a8.524,8.524,0,0,1,6.122-1.779,8.751,8.751,0,0,1,6.058,3.348,9.239,9.239,0,0,1,1.885,5.483,13.623,13.623,0,0,1-.648,2.848,13.951,13.951,0,0,1-1.252,2.229l.257,1.127-1.631.03c-.292.08-.314.049-.595-.076a7.618,7.618,0,0,0,3.142-4.723,8.089,8.089,0,0,0-1.243-6.043,8.308,8.308,0,0,0-5.221-3.522,8.677,8.677,0,0,0-6.837,1.684l-.663-.023Z" transform="translate(-141.1 -407.456)" fill="#f09f25"/>
    <path id="Trazado_874663" data-name="Trazado 874663" d="M351.337,637.465l.257,1.127-1.631.03Z" transform="translate(-218.236 -501.701)" fill="#699c42"/>
    <path id="Trazado_874664" data-name="Trazado 874664" d="M537.715,837.788l2.756-.015a25,25,0,0,1,.057,3.1l-.005,5.514.015,1.439a3.473,3.473,0,0,1-1.059,2.677,5.144,5.144,0,0,1-1,.692c-1.376.556-3.564.279-5.054.284a27.968,27.968,0,0,1-2.861.029,14.319,14.319,0,0,1-3.878-.211,5.169,5.169,0,0,1-1.047-.544,3.965,3.965,0,0,1-1.472-2.626,30.33,30.33,0,0,1-.021-3.337l.009-6.989,12.772.048Z" transform="translate(-375.014 -676.186)" fill="#07a768"/>
    <path id="Trazado_874665" data-name="Trazado 874665" d="M538.121,837.788l2.756-.015a25,25,0,0,1,.057,3.1l-.005,5.514.015,1.439a3.472,3.472,0,0,1-1.059,2.677,5.14,5.14,0,0,1-1,.692c-1.376.556-3.564.279-5.054.284a27.968,27.968,0,0,1-2.861.029,14.319,14.319,0,0,1-3.877-.211,5.169,5.169,0,0,1-1.047-.544,3.965,3.965,0,0,1-1.472-2.626l.253-.265,12.528-.071-.021-9.942Z" transform="translate(-375.424 -676.186)" fill="#049a5e"/>
    <path id="Trazado_874666" data-name="Trazado 874666" d="M596.379,919.156c1.612-1.1,2.889-1.733,3.581-3.689l3.533.036a3.472,3.472,0,0,1-1.059,2.677,5.141,5.141,0,0,1-1,.692C600.057,919.429,597.869,919.152,596.379,919.156Z" transform="translate(-438.558 -743.863)" fill="#277b48"/>
    <path id="Trazado_874667" data-name="Trazado 874667" d="M624.567,383.914l3.031-.005.023,10.919-18.11-.021-3.355,0-.062-10.89h3.414l.566-.006,9.751.009Z" transform="translate(-447.579 -280.831)" fill="#205e82"/>
    <path id="Trazado_874668" data-name="Trazado 874668" d="M606.094,383.957h3.414l0,10.893-3.355,0Z" transform="translate(-447.027 -280.874)" fill="#012c43"/>
    <path id="Trazado_874669" data-name="Trazado 874669" d="M430.781,253.976l1.326.038.089-.037,2.558,0,.037,16.752-14.519.006-.828-.007-3.1.006-4.9,0,1.054-.725a7.533,7.533,0,0,0,2.964-4.994,6.465,6.465,0,0,0-1.33-5l6.119-3.177.02-2.838Z" transform="translate(-275.666 -167.65)" fill="#fdfefe"/>
    <path id="Trazado_874670" data-name="Trazado 874670" d="M414.131,279.32l6.119-3.177-.014,9.345c0,1.45-.117,3.03.03,4.465l.005.093-.828-.007-3.1.006-4.9,0,1.054-.725a7.533,7.533,0,0,0,2.964-4.994A6.465,6.465,0,0,0,414.131,279.32Z" transform="translate(-275.383 -186.96)" fill="#92ccaf"/>
    <path id="Trazado_874671" data-name="Trazado 874671" d="M490.4,253.976l1.326.038.089-.037,2.558,0,.037,16.752-14.519.006-.005-.093,2.866-.018c1.837-4.634,4.227-9.137,6.32-13.667C489.424,256.185,490.412,254.735,490.4,253.976Z" transform="translate(-335.915 -167.65)" fill="#d4e7dd"/>
    <path id="Trazado_874672" data-name="Trazado 874672" d="M491.811,253.985l2.558,0,.037,16.752-14.519.006-.005-.093,2.866-.018,8.973-.018V254.022Z" transform="translate(-335.915 -167.658)" fill="#d4d5d3"/>
    <path id="Trazado_874673" data-name="Trazado 874673" d="M362.519,538.5c.39-.5.692-.919,1.372-.994a1.427,1.427,0,0,1,1.048.3c.388.359.3.735.354,1.212A2.244,2.244,0,0,0,366.486,541a6.173,6.173,0,0,0,2.624-2.715c.877-1.756-.9-4.942,1.486-5.821a1.569,1.569,0,0,1,1.289.075,1.618,1.618,0,0,1,.832.971c.306.944-.226,1.917.884,2.559a2.3,2.3,0,0,0,1.74.219,3.641,3.641,0,0,0,2.072-1.925c.81-1.571.677-3.908,2.712-4.57a2.449,2.449,0,0,1,1.945.213,2.346,2.346,0,0,1,1.088,1.413c.337,1.28-.678,2.881-1.342,3.926s-1.255,1.773-.961,3.108a2.349,2.349,0,0,0,1.084,1.517l.425.2c1.708.779,4.477-.787,5.4,1.716a2.408,2.408,0,0,1-.019,1.8,2.928,2.928,0,0,1-1.686,1.537c-2.224.8-5.965-1.211-7.332,1.546a1.631,1.631,0,0,0-.039,1.178,2.206,2.206,0,0,0,1.235,1.173c.574.247,1.264.11,1.7.613a1.178,1.178,0,0,1,.057.785,4.253,4.253,0,0,1-2.7,1.347,6.744,6.744,0,0,0-1.273.281c-.1.091-2.438.1-2.762.105l-6.6.058a6.521,6.521,0,0,0-.06-1.511c-.494-2.395-1.8-3.74-3.764-5.056a13.423,13.423,0,0,0-2.522-.885l-1.125-.162-.257-1.127a13.951,13.951,0,0,0,1.252-2.229A13.621,13.621,0,0,0,362.519,538.5Z" transform="translate(-230.835 -407.814)" fill="#049a5e"/>
    <path id="Trazado_874674" data-name="Trazado 874674" d="M372.327,626.3a4.32,4.32,0,0,1,3.067-1.393,8.875,8.875,0,0,1,6.1,2.617,7.476,7.476,0,0,1,1.2,1.5,10.777,10.777,0,0,1,1.6,6.185l-6.6.058a6.522,6.522,0,0,0-.06-1.511c-.494-2.395-1.8-3.74-3.764-5.056a13.423,13.423,0,0,0-2.522-.885Z" transform="translate(-240.056 -490.759)" fill="#f5b836"/>
    <path id="Trazado_874675" data-name="Trazado 874675" d="M372.327,635.718a6.356,6.356,0,0,0,1.969,2.232,23.107,23.107,0,0,0,2.7,1.78,19.3,19.3,0,0,0,5.729,1.734,14.638,14.638,0,0,0-.026-3.023,10.777,10.777,0,0,1,1.6,6.185l-6.6.058a6.522,6.522,0,0,0-.06-1.511c-.494-2.395-1.8-3.74-3.764-5.056a13.423,13.423,0,0,0-2.522-.885Z" transform="translate(-240.056 -500.179)" fill="#ec964a"/>
    <path id="Trazado_874676" data-name="Trazado 874676" d="M321.46,383.849l4.9,0,3.1-.006.828.007,14.519-.006,1.746,0,.062,10.89-38.462,0-.012-10.892,5.2-.011a21.053,21.053,0,0,0,3.127-.006Z" transform="translate(-181.808 -280.768)" fill="#205e82"/>
    <path id="Trazado_874677" data-name="Trazado 874677" d="M449.45,383.94l3.1-.006-.015,10.783a2.519,2.519,0,0,1-.887.05l-2.189,0Z" transform="translate(-308.815 -280.854)" fill="#012c43"/>
    <path id="Trazado_874678" data-name="Trazado 874678" d="M146.9,625.15a10.37,10.37,0,0,1,1.854-.152,1.975,1.975,0,0,0,.641.931,1.116,1.116,0,0,0,.91-.043,1.7,1.7,0,0,0,.434-.315,7.556,7.556,0,0,1,4.462,3.885l.3.739.544-.438a7.542,7.542,0,0,1,2.294-1.488,4.631,4.631,0,0,1,.871-.582c.281.125.3.156.595.076l1.631-.03,1.125.162a13.418,13.418,0,0,1,2.522.885c1.967,1.317,3.27,2.661,3.764,5.056a6.522,6.522,0,0,1,.06,1.511l6.6-.058c.324-.009,2.667-.014,2.762-.105a1.853,1.853,0,0,1,1.018,1.17c.124.622.2,3.337-.129,3.815a1.82,1.82,0,0,1-1.459.745,36.736,36.736,0,0,0-5.2-.039l-11.59.015-17.97-.06c-3.093-.008-6.263-.147-9.348.055a2.681,2.681,0,0,1-1.138-.164,1.294,1.294,0,0,1-.712-.757,4.533,4.533,0,0,1-.055-1.144,7.214,7.214,0,0,1,.2-2.737,1.5,1.5,0,0,1,1.089-.742,5.454,5.454,0,0,0,1.409.013l4.169-.048,4.42-.015-.543-.906a9.691,9.691,0,0,1-.783-3.2,5.98,5.98,0,0,1,1.607-4.612,16.525,16.525,0,0,1,2.682-1.331l.447-.029Z" transform="translate(-28.08 -490.841)" fill="#012c43"/>
    <path id="Trazado_874679" data-name="Trazado 874679" d="M304.616,646.434a4.625,4.625,0,0,1,.871-.582c.281.125.3.156.595.076l1.631-.03,1.125.162a13.423,13.423,0,0,1,2.522.885c1.967,1.317,3.27,2.661,3.764,5.056a6.522,6.522,0,0,1,.06,1.511l-.154-.052-1.54.011-5.044,0-1.956-.015-5.468,0-.918.016-.518-.026a9.245,9.245,0,0,1,2.19-5.093l.544-.438A7.54,7.54,0,0,1,304.616,646.434Z" transform="translate(-174.355 -509.007)" fill="#f8e7b1"/>
    <path id="Trazado_874680" data-name="Trazado 874680" d="M310.725,688.355c.087-.633.234-1.915.814-2.3a.968.968,0,0,1,.829-.1,6.7,6.7,0,0,1,1.787,1.107,22.941,22.941,0,0,0,2.037,1.286Z" transform="translate(-184.057 -543.898)" fill="#f5b836"/>
    <path id="Trazado_874681" data-name="Trazado 874681" d="M368.307,687.8a20.319,20.319,0,0,0,2.335-1.537,5.972,5.972,0,0,1,1.483-.962,1.283,1.283,0,0,1,.727.025,1,1,0,0,1,.572.63,2.784,2.784,0,0,1-.074,1.841Z" transform="translate(-234.215 -543.333)" fill="#f5b836"/>
    <path id="Trazado_874682" data-name="Trazado 874682" d="M304.616,646.434a4.625,4.625,0,0,1,.871-.582c.281.125.3.156.595.076l1.631-.03,1.125.162a13.423,13.423,0,0,1,2.522.885c1.967,1.317,3.27,2.661,3.764,5.056a6.522,6.522,0,0,1,.06,1.511l-.154-.052a8.751,8.751,0,0,0-.808-3.273,7.708,7.708,0,0,0-4.395-3.447,8.038,8.038,0,0,0-6.583.943,7.47,7.47,0,0,0-3.089,5.2l-.051.595-.518-.026a9.245,9.245,0,0,1,2.19-5.093l.544-.438A7.54,7.54,0,0,1,304.616,646.434Z" transform="translate(-174.355 -509.007)" fill="#f5b836"/>
    <path id="Trazado_874683" data-name="Trazado 874683" d="M365.621,660.872a2.162,2.162,0,0,1,1.551.518,1.4,1.4,0,0,1,.544,1.086,9.789,9.789,0,0,1-2.34,2.8l-1.124,1.054a20.612,20.612,0,0,1,.3-3.593,4.115,4.115,0,0,1,.289-1.31A1.192,1.192,0,0,1,365.621,660.872Z" transform="translate(-230.678 -522.088)" fill="#f5b836"/>
    <path id="Trazado_874684" data-name="Trazado 874684" d="M332.393,660.438c.436,0,.833-.1,1.165.242.688.7.781,4.236.8,5.352l-.834-.817-2.031-2.13a2.617,2.617,0,0,1-.706-.967,2.957,2.957,0,0,1-.013-.485A2.71,2.71,0,0,1,332.393,660.438Z" transform="translate(-201.522 -521.702)" fill="#f5b836"/>
    <path id="Trazado_874685" data-name="Trazado 874685" d="M214.358,625.15a10.37,10.37,0,0,1,1.854-.152,1.975,1.975,0,0,0,.641.931,1.116,1.116,0,0,0,.91-.043,1.7,1.7,0,0,0,.434-.315,7.556,7.556,0,0,1,4.462,3.885l.3.739a9.245,9.245,0,0,0-2.19,5.093,29.369,29.369,0,0,1-3.4.023l-6.93-.02-.543-.906a9.69,9.69,0,0,1-.783-3.2,5.979,5.979,0,0,1,1.607-4.612,16.524,16.524,0,0,1,2.682-1.331l.447-.029Z" transform="translate(-95.537 -490.841)" fill="#e25333"/>
    <path id="Trazado_874686" data-name="Trazado 874686" d="M914.175,97.69a6.981,6.981,0,0,1,5.033,2.582,7.452,7.452,0,0,1,1.535,5.587,7.234,7.234,0,0,1-2.724,4.828,7.867,7.867,0,0,1-4.994,1.495,10.844,10.844,0,0,1,.762,8.039,13.79,13.79,0,0,1-2.968,5.005l-.25-.226a10.955,10.955,0,0,0-1.391-1.535,13.81,13.81,0,0,1-3.366,5.6,8.779,8.779,0,0,0-1.3,1.2,10.265,10.265,0,0,0-1.341.753,8.6,8.6,0,0,1-6.515.507c-3.769-1.263-5.854-5.31-7.5-8.649l-.193-.178a4.535,4.535,0,0,1-.682-1.239,11.824,11.824,0,0,1-1.086-5.292c.136-3.723,2.3-6,4.862-8.4a16.226,16.226,0,0,1,5.937-2.868,19.693,19.693,0,0,1,2.995-.318l6.634-3.441,1.225-1.5A7.069,7.069,0,0,1,914.175,97.69Z" transform="translate(-696.565 -31.512)" fill="#002135"/>
    <path id="Trazado_874687" data-name="Trazado 874687" d="M994.237,127.928l6.634-3.441a8.511,8.511,0,0,0-.83,4.892A15.689,15.689,0,0,0,994.237,127.928Z" transform="translate(-789.643 -54.855)" fill="#92ccaf"/>
    <path id="Trazado_874688" data-name="Trazado 874688" d="M901.394,236.117l-.025-.13c-.554-2.96.745-5.64,1.933-8.3.271.1.57.516.777.727a11.327,11.327,0,0,0,1.5,1.324,11.626,11.626,0,0,0,9.726,1.988,8.341,8.341,0,0,0,1.877-.585,4,4,0,0,0,.391-.495,2.113,2.113,0,0,1,1.16-.607,2.517,2.517,0,0,1,1.911.673,2.732,2.732,0,0,1,.932,2.056,2.431,2.431,0,0,1-.842,1.686,2.638,2.638,0,0,1-1.114.534c.632.175,1.355,1.211,1.8,1.713a13.81,13.81,0,0,1-3.366,5.6,8.781,8.781,0,0,0-1.3,1.2,10.268,10.268,0,0,0-1.341.753,8.6,8.6,0,0,1-6.515.507C905.128,243.5,903.043,239.456,901.394,236.117Z" transform="translate(-708.241 -144.753)" fill="#ec964a"/>
    <path id="Trazado_874689" data-name="Trazado 874689" d="M905.387,278.755a1.451,1.451,0,0,1,.711-.028c.159.061.155.156.217.3-.181.381-.776.506-1.168.663l-.314.172-.229-.068-.075-.308C904.679,279.153,905.089,278.955,905.387,278.755Z" transform="translate(-710.262 -189.178)" fill="#42404a"/>
    <path id="Trazado_874690" data-name="Trazado 874690" d="M958.385,263.945l.692-.011.227.3-.057.222a4.213,4.213,0,0,0-1.244.519.683.683,0,0,1-.416.253l-.249-.178-.008-.365A2.2,2.2,0,0,1,958.385,263.945Z" transform="translate(-756.853 -176.325)" fill="#42404a"/>
    <path id="Trazado_874691" data-name="Trazado 874691" d="M962.337,286.078l.4-.087a1.153,1.153,0,0,1,.608.545.861.861,0,0,1-.305.8,4.047,4.047,0,0,1-.475.036,1.026,1.026,0,0,1-.506-.657A.9.9,0,0,1,962.337,286.078Z" transform="translate(-760.994 -195.538)" fill="#002135"/>
    <path id="Trazado_874692" data-name="Trazado 874692" d="M917.186,300.889l.313.04a1.024,1.024,0,0,1,.5.647.9.9,0,0,1-.381.707l-.458.008a1.107,1.107,0,0,1-.454-.772A.861.861,0,0,1,917.186,300.889Z" transform="translate(-720.98 -208.515)" fill="#002135"/>
    <path id="Trazado_874693" data-name="Trazado 874693" d="M939.419,296.439a.785.785,0,0,1,.306.074l1.485,2.617-.14.242-.288.1c-.452-.247-1.266-2.207-1.492-2.743Z" transform="translate(-740.934 -204.638)" fill="#e25333"/>
    <path id="Trazado_874694" data-name="Trazado 874694" d="M1032.882,251.644l.177-.179a1.419,1.419,0,0,1,1.254-.344,2.732,2.732,0,0,1,.932,2.056,2.431,2.431,0,0,1-.842,1.686,2.638,2.638,0,0,1-1.114.534,2.177,2.177,0,0,1-1.1-.323,1.127,1.127,0,0,1-.46-.808,1.171,1.171,0,0,1,.575-.335,1.089,1.089,0,0,0,.282.163,1.241,1.241,0,0,0,.938-.158,3.091,3.091,0,0,1-.875-1.057A1.755,1.755,0,0,1,1032.882,251.644Z" transform="translate(-822.567 -165.159)" fill="#fdfefe"/>
    <path id="Trazado_874695" data-name="Trazado 874695" d="M1038.778,255.215a1.894,1.894,0,0,1,1.075,1.042,1.271,1.271,0,0,1,0,.721,4.368,4.368,0,0,1-.428.529,3.091,3.091,0,0,1-.875-1.057A1.754,1.754,0,0,1,1038.778,255.215Z" transform="translate(-828.431 -168.73)" fill="#e25333"/>
    <path id="Trazado_874696" data-name="Trazado 874696" d="M950.31,307.755l.2-.036.137.151a3.827,3.827,0,0,1-.046,2.632,2.806,2.806,0,0,1-1.579,1.463,3.462,3.462,0,0,1-2.736-.462,7.375,7.375,0,0,1-1.215-1.258A40.545,40.545,0,0,0,950.31,307.755Z" transform="translate(-746.212 -214.465)" fill="#fdfefe"/>
    <path id="Trazado_874697" data-name="Trazado 874697" d="M146.387,747.486c3.085-.2,6.255-.062,9.348-.055l17.97.06,11.59-.015a36.727,36.727,0,0,1,5.2.039l.015,15.511v4.293a14.331,14.331,0,0,1-.045,2.269,3.859,3.859,0,0,1-1.056,1.98,4.822,4.822,0,0,1-1.448.972,9.162,9.162,0,0,1-3.112.179c-3.117.215-6.373.048-9.507.065l-6.9.034a15.289,15.289,0,0,1-3.872-.145,13.415,13.415,0,0,1-2.123.055l-4.016.013-6.267.015a22.994,22.994,0,0,1-3.572-.085l-.188-.078a3.459,3.459,0,0,1-1.793-1.845l-.031-.084a8.94,8.94,0,0,1-.208-2.991l.007-4.821Z" transform="translate(-40.867 -597.443)" fill="#049a5e"/>
    <path id="Trazado_874698" data-name="Trazado 874698" d="M198.987,821.746a2.068,2.068,0,0,1,.587.083l.208.32-.1.314c-.621.366-5.648.15-6.758.15-.45-.009-.546.044-.876-.292l.045-.312a1.522,1.522,0,0,1,.229-.2,8.111,8.111,0,0,1,1.637-.009Z" transform="translate(-80.677 -662.222)" fill="#004641"/>
    <path id="Trazado_874699" data-name="Trazado 874699" d="M192.485,845.25a14.479,14.479,0,0,1,2.419-.054l4.63,0c.248.175.225.233.3.517l-.242.3a54.464,54.464,0,0,1-7,.053c-.263-.108-.252-.213-.348-.467Z" transform="translate(-80.846 -682.63)" fill="#004641"/>
    <path id="Trazado_874700" data-name="Trazado 874700" d="M192.259,797.208a10.107,10.107,0,0,1,2.157-.05l4.978.014a.844.844,0,0,1,.264.552l-.26.286-.089.021a8.149,8.149,0,0,1-1.568.022l-3.629-.011a7.631,7.631,0,0,1-1.784-.041,1.587,1.587,0,0,1-.266-.174l-.049-.275Z" transform="translate(-80.649 -640.776)" fill="#026042"/>
    <path id="Trazado_874701" data-name="Trazado 874701" d="M271.812,783.38c-.012-1.18-.2-2.373.711-3.281a2.642,2.642,0,0,1,1.278-.738,17.246,17.246,0,0,1,3.316-.062l7.888.007-.017-4.912,6.792.01-.022,3.131a7.769,7.769,0,0,0,.062,1.711l.018.07c.839,0,3.769-.284,4.348.238.638.575.429,2.4.432,3.222l.005,6.758a25.937,25.937,0,0,1-.049,3.414,3.169,3.169,0,0,1-1.035,2.415,5.777,5.777,0,0,1-1.421.889c-3.117.215-6.373.048-9.507.065l-6.9.034a15.288,15.288,0,0,1-3.872-.145,3.633,3.633,0,0,1-.541-.293,3,3,0,0,1-1.477-2.179l14.16.011c2.378,0,4.931.229,7.289.023a1.3,1.3,0,0,0,.973-.386,1.351,1.351,0,0,0,.416-.657,14.049,14.049,0,0,0,.047-2.75l.015-6.568Z" transform="translate(-150.14 -620.977)" fill="#f09f25"/>
    <path id="Trazado_874702" data-name="Trazado 874702" d="M427.306,812.054c.839,0,3.769-.284,4.348.238.638.575.429,2.4.432,3.222l.005,6.758a25.937,25.937,0,0,1-.049,3.414,21.644,21.644,0,0,1-.046-3.13v-6.443a7.775,7.775,0,0,1-1.718-.022l-.074-.016-.011-3.931a8.733,8.733,0,0,1-2.836-.064Z" transform="translate(-289.309 -653.714)" fill="#ec964a"/>
    <path id="Trazado_874703" data-name="Trazado 874703" d="M271.972,844.1l22.907.029-.015,6.568a14.049,14.049,0,0,1-.047,2.75,1.351,1.351,0,0,1-.416.657,1.3,1.3,0,0,1-.973.386c-2.358.206-4.911-.019-7.289-.023l-14.16-.011Z" transform="translate(-150.3 -681.698)" fill="#f5b836"/>
    <path id="Trazado_874704" data-name="Trazado 874704" d="M302.82,882.015l3.848-.011a3.417,3.417,0,0,1,1.429.109l-.045.36a35.283,35.283,0,0,1-5.179.044l-.156-.158Z" transform="translate(-177.08 -714.698)" fill="#049a5e"/>
    <path id="Trazado_874705" data-name="Trazado 874705" d="M302.922,898.07a25.075,25.075,0,0,1,5.55,0l.02.344-.215.075a29.18,29.18,0,0,1-5.339-.018Z" transform="translate(-177.26 -728.575)" fill="#049a5e"/>
    <path id="Trazado_874706" data-name="Trazado 874706" d="M303.265,866.434a8.854,8.854,0,0,1,2.2-.06l3.552-.01a7.186,7.186,0,0,1,1.8.07l.032.368-.18.079a8.062,8.062,0,0,1-1.779.04l-4.059.016a4.068,4.068,0,0,1-1.573-.1Z" transform="translate(-177.55 -701.064)" fill="#277b48"/>
    <path id="Trazado_874707" data-name="Trazado 874707" d="M667.726,631.43c.353,1.925.426,3.916.639,5.86a24.092,24.092,0,0,1,.4,3.74l.029.386a1.287,1.287,0,0,0,.647.182,19.8,19.8,0,0,0,2.693-.443l6.02-1a58.846,58.846,0,0,0,.021,5.9c.139.42.25.449.641.639l1.073.431-.779,24.436a52.968,52.968,0,0,0-5.6-.044l-12.653.013-3.083,0a1.845,1.845,0,0,1-.993-.106,3.657,3.657,0,0,0-1.222-.052,13.233,13.233,0,0,1-2.849.092l-5.481-.018-14.528-.049a23.991,23.991,0,0,1-4.322.121,5.983,5.983,0,0,1-2.192-.06,5.144,5.144,0,0,0,1-.692,3.473,3.473,0,0,0,1.059-2.677l-.015-1.439.005-5.514a25.011,25.011,0,0,0-.057-3.1l-2.756.015-.628-.127.022-7.161h3.391a1.087,1.087,0,0,0,.28-.172,1.076,1.076,0,0,0,.32-.918,1.511,1.511,0,0,0-.725-.727l-.021-.146c-.148-1.952.021-4.01.02-5.974l-.025-4.367a13.012,13.012,0,0,1,.062-2.381,1.5,1.5,0,0,1,.4-.67,2.608,2.608,0,0,1,.66-.505,4.244,4.244,0,0,1,1.253-.058l3.226.008,5.9-.015h4.89a7.62,7.62,0,0,0,1.316-2.3l1.446-.107c1.767.99,3.951,1.278,5.881,1.835.377.109.335.278.573.422a3.745,3.745,0,0,0,.818.133h.746l1.646.292a34.93,34.93,0,0,0,4.988-1.439c-.791-.1-2.784-.115-3.3-.663a1.234,1.234,0,0,1-.048-.875,2.607,2.607,0,0,1,.363-.364C659.294,631.553,666.486,631.481,667.726,631.43Z" transform="translate(-465.524 -496.444)" fill="#fdfefe"/>
    <path id="Trazado_874708" data-name="Trazado 874708" d="M637.629,904.585a5.9,5.9,0,0,0,2.676,4,6.871,6.871,0,0,0,1.792.744,23.991,23.991,0,0,1-4.322.121,5.983,5.983,0,0,1-2.192-.06,5.141,5.141,0,0,0,1-.692,3.472,3.472,0,0,0,1.059-2.677Z" transform="translate(-473.138 -734.384)" fill="#92ccaf"/>
    <path id="Trazado_874709" data-name="Trazado 874709" d="M778.51,639.272l1.446-.107c1.767.99,3.951,1.278,5.881,1.835.377.109.335.278.573.422a3.746,3.746,0,0,0,.818.133l-10.034.014A7.621,7.621,0,0,0,778.51,639.272Z" transform="translate(-598.241 -503.182)" fill="#92ccaf"/>
    <path id="Trazado_874710" data-name="Trazado 874710" d="M948.036,834.65l1.5.018.018,6.635a17.651,17.651,0,0,1-.038,2.961,2.005,2.005,0,0,1-.606,1.045,2.8,2.8,0,0,1-2.295.731l-.606-.025c.4-.382.927-.6,1.334-1a1.918,1.918,0,0,0,.6-1.053,16.271,16.271,0,0,0,.059-2.941Z" transform="translate(-746.936 -673.465)" fill="#d86d26"/>
    <path id="Trazado_874711" data-name="Trazado 874711" d="M624.822,781.352h3.391a41.326,41.326,0,0,0-.029,7.274l-2.756.015-.628-.127Z" transform="translate(-463.531 -627.037)" fill="#d4d5d3"/>
    <path id="Trazado_874712" data-name="Trazado 874712" d="M671.592,885.318l21.534,0a11.343,11.343,0,0,0,.579,4.847l-13.773-.009-3.784,0a11.717,11.717,0,0,1-2.02-.051,3.15,3.15,0,0,1-1.668-.889,3.883,3.883,0,0,1-.68-1.108A7.291,7.291,0,0,1,671.592,885.318Z" transform="translate(-505.428 -717.599)" fill="#277b48"/>
    <path id="Trazado_874713" data-name="Trazado 874713" d="M862.262,846.015a.989.989,0,0,1-.17.008l-7.316,0a16.456,16.456,0,0,1-3.084-.048,2.473,2.473,0,0,1-1.144-.674,2.251,2.251,0,0,1-.583-1.135,16.388,16.388,0,0,1-.056-2.964l-.006-6.54,14.389-.01-.036,6.369a16.26,16.26,0,0,1-.059,2.941,1.918,1.918,0,0,1-.6,1.053C863.189,845.411,862.658,845.633,862.262,846.015Z" transform="translate(-662.587 -673.465)" fill="#ec964a"/>
    <path id="Trazado_874714" data-name="Trazado 874714" d="M899.706,852.507a1.35,1.35,0,0,1,.589-.037,1.2,1.2,0,0,1,.841.634l.247-.1c.37,0,.678.318.961.533a1.082,1.082,0,0,0,.079.6l.063.086c-.17.838-1.286,1.019-1.87,1.49a2.893,2.893,0,0,0,.242.688l-.161.26a2.923,2.923,0,0,1-.63.347c-.3-.144-.55-.193-.717-.492a3.639,3.639,0,0,0,.158-.716c.037-.375-.948-.769-1.221-1.109a1.525,1.525,0,0,1-.2-1.112c.331-.222.653-.681,1.034-.772a1.332,1.332,0,0,0,.513-.25Z" transform="translate(-704.679 -688.971)" fill="#07a768"/>
    <path id="Trazado_874715" data-name="Trazado 874715" d="M673.774,783.938a5.389,5.389,0,0,1,1.658-3.086,4.645,4.645,0,0,1,3.395-1.133,5,5,0,0,1,3.526,2.022,5.347,5.347,0,0,1,2.544-3.386,4.458,4.458,0,0,1,3.372-.322,4.794,4.794,0,0,1,2.925,2.643,4.26,4.26,0,0,1,3.292.447,3.314,3.314,0,0,1,.6.532,7.782,7.782,0,0,0-1.461,2.147,18.585,18.585,0,0,0-.25,4.659l-.007,3.233-21.534,0,.015-3.34-.018-3.618A6.111,6.111,0,0,1,673.774,783.938Z" transform="translate(-505.717 -623.977)" fill="#277b48"/>
    <path id="Trazado_874716" data-name="Trazado 874716" d="M801.109,798.982a4.26,4.26,0,0,1,3.292.447,3.31,3.31,0,0,1,.6.532,7.782,7.782,0,0,0-1.461,2.147,5.668,5.668,0,0,0-.84-.546c-1.535-.769-3.162-.278-4.687.215A5.7,5.7,0,0,1,801.109,798.982Z" transform="translate(-616.496 -642.283)" fill="#699c42"/>
    <path id="Trazado_874717" data-name="Trazado 874717" d="M678.941,818.227a5.539,5.539,0,0,1,3.773-2.408,5.284,5.284,0,0,1,3.956.9,6.286,6.286,0,0,1,2.252,4.247l.033.391L692,821.4a6.224,6.224,0,0,1,1.566.084c-2.682.165-5.466-.029-8.161-.031l-8.411.031-2.684.014a4.384,4.384,0,0,1-1.4-.088,46.036,46.036,0,0,1,5.03-.023A6.677,6.677,0,0,1,678.941,818.227Z" transform="translate(-506.563 -657.01)" fill="#699c42"/>
    <path id="Trazado_874718" data-name="Trazado 874718" d="M671.871,859.423l.12.026a4.385,4.385,0,0,0,1.4.088l2.684-.014,8.411-.031c2.695,0,5.48.2,8.161.031l.745.007-.007,3.233-21.534,0Z" transform="translate(-505.673 -695.044)" fill="#f5b836"/>
    <path id="Trazado_874719" data-name="Trazado 874719" d="M884.907,700.352a1.287,1.287,0,0,0,.647.182,19.8,19.8,0,0,0,2.693-.443l6.02-1a58.864,58.864,0,0,0,.021,5.9c.139.42.25.449.641.639l1.073.431-.779,24.436a52.969,52.969,0,0,0-5.6-.044l-12.653.013-3.083,0a1.846,1.846,0,0,1-.993-.106h7.15c1.207,0,3.212.257,4.3-.224a5.093,5.093,0,0,0,1.8-1.133,4.2,4.2,0,0,0,1.027-2.033,21.256,21.256,0,0,0,.1-3.987l-.032-6.179a5.949,5.949,0,0,0-2.366-4.48Z" transform="translate(-683.349 -555.38)" fill="#92ccaf"/>
    <path id="Trazado_874720" data-name="Trazado 874720" d="M708.564,631.43c.353,1.925.426,3.916.639,5.86a24.092,24.092,0,0,1,.4,3.74l-3,.957c0,1.043.2,6.178-.308,6.706a.48.48,0,0,1-.227.135l-.067.021a8.525,8.525,0,0,1-2.185.076l-4.741-.013c-.868,0-1.793-.2-2.481.383a1.417,1.417,0,0,0-.113.884,1.028,1.028,0,0,0,.6.545l.487.067c.153.5.021,1.015.159,1.512a1.54,1.54,0,0,1-.475.286,8.981,8.981,0,0,0-2.294,1.534,3.31,3.31,0,0,0-.6-.532,4.26,4.26,0,0,0-3.292-.447,4.794,4.794,0,0,0-2.925-2.643,4.458,4.458,0,0,0-3.372.322,5.347,5.347,0,0,0-2.544,3.386,5,5,0,0,0-3.526-2.022,4.645,4.645,0,0,0-3.395,1.133,5.39,5.39,0,0,0-1.658,3.086,6.112,6.112,0,0,0-1.942.8l-.019-19.507,22.221-.026.051-.072.086-.118c.821-1.263,2.414-1.572,3.6-2.327l.067-.044a34.938,34.938,0,0,0,4.988-1.439c-.791-.1-2.784-.115-3.3-.663a1.234,1.234,0,0,1-.048-.875,2.6,2.6,0,0,1,.363-.364C700.132,631.553,707.324,631.481,708.564,631.43Z" transform="translate(-506.198 -496.444)" fill="#ace2f0"/>
    <path id="Trazado_874721" data-name="Trazado 874721" d="M871.92,714.638a16.044,16.044,0,0,0,1.965.608,6.1,6.1,0,0,0,1.614-.348l5.53-1.578c0,1.043.2,6.178-.308,6.706a.481.481,0,0,1-.227.135l-8.486-.01Z" transform="translate(-681.813 -567.777)" fill="#9bd7db"/>
    <path id="Trazado_874722" data-name="Trazado 874722" d="M858.711,631.43c.353,1.925.426,3.916.639,5.86a24.092,24.092,0,0,1,.4,3.74l-3,.957-5.53,1.578a6.1,6.1,0,0,1-1.614.348,16.034,16.034,0,0,1-1.965-.608,2.96,2.96,0,0,0-.373-.432c-.485-.322-.771-.073-1.249-.655-.08-.563.239-.86.319-1.375-.627-.165-1.431.079-1.914-.468-.069-.078-.029-.231-.023-.334a5.872,5.872,0,0,1,2.1-1.841,10.24,10.24,0,0,1-2.449-.528l.051-.072.086-.118c.821-1.263,2.414-1.572,3.6-2.327l.067-.044a34.938,34.938,0,0,0,4.988-1.439c-.791-.1-2.784-.115-3.3-.663a1.234,1.234,0,0,1-.048-.875,2.6,2.6,0,0,1,.363-.364C850.28,631.553,857.471,631.481,858.711,631.43Z" transform="translate(-657.509 -496.444)" fill="#ec964a"/>
    <path id="Trazado_874723" data-name="Trazado 874723" d="M958.39,297.625a10.955,10.955,0,0,1,1.391,1.535l.25.226c.865,1.091,1.667,2.271,2.431,3.435a8.176,8.176,0,0,0,.993,1.551,2.837,2.837,0,0,0,.507.1,4.965,4.965,0,0,1,1.464.423c1.4,0,2.843-.056,4.239.08a16.9,16.9,0,0,1,10.253,4.634,15.037,15.037,0,0,1,4.285,8.262l.186,1.151c.209,1.585.312,3.192.369,4.789l.1,5.817a7.852,7.852,0,0,0,.07,2.039,4.492,4.492,0,0,0,.54.711l1.435,1.894,8.249,10.944a5.94,5.94,0,0,0-1.221,1.389l.373.872c2.388,6.181,1.885,13.067,1.74,19.567l-.365,13.279-.121.473a13.858,13.858,0,0,1-2.223.05h-4.155l-15.079,0-1.735,0-15.477-.059.779-24.436-1.073-.431c-.391-.191-.5-.22-.641-.639a58.846,58.846,0,0,1-.021-5.9l-6.02,1a19.808,19.808,0,0,1-2.693.443,1.287,1.287,0,0,1-.647-.182l-.029-.386a24.1,24.1,0,0,0-.4-3.74c-.213-1.945-.286-3.936-.639-5.86.017-.336-.021-.5.2-.764a17.641,17.641,0,0,1,4.048-.778l-.077-.058a4.455,4.455,0,0,0-1.7-.647c-1.266-.336-2.708-.539-3.927-.979l-.365-15.9a14.088,14.088,0,0,1,4.444-10.392,13.048,13.048,0,0,1,4.492-2.785,5.817,5.817,0,0,1,1.694-.54l.209-.5-.8-2.892a8.782,8.782,0,0,1,1.3-1.2A13.81,13.81,0,0,0,958.39,297.625Z" transform="translate(-747.871 -205.672)" fill="#07a768"/>
    <path id="Trazado_874724" data-name="Trazado 874724" d="M948.127,402.473a21.3,21.3,0,0,1-.57,4.384l-1.4,9.09a37.364,37.364,0,0,0-.64,4.293c-.119,3.752,2.3,7.166,4.886,9.652,3.487-.961,7.141-1.594,10.687-2.311a33.148,33.148,0,0,0,4.428-.953l2.988-13.07,1.06-4.646a7.259,7.259,0,0,1,.541-2l.228-.065.184.237-4.635,19.929-16.134,3.437-.077-.058a4.454,4.454,0,0,0-1.7-.647c-1.266-.336-2.708-.539-3.927-.979l-.364-15.9A14.088,14.088,0,0,1,948.127,402.473Z" transform="translate(-746.104 -297.003)" fill="#026042"/>
    <path id="Trazado_874725" data-name="Trazado 874725" d="M1026.253,297.625a10.959,10.959,0,0,1,1.391,1.535l.25.226c.865,1.091,1.667,2.271,2.431,3.435a8.179,8.179,0,0,0,.993,1.551,2.84,2.84,0,0,0,.507.1,4.965,4.965,0,0,1,1.464.423,5.292,5.292,0,0,1,.607,4.228,7.046,7.046,0,0,1-3.321,4.247,6.558,6.558,0,0,1-4.966.646,5.045,5.045,0,0,1-3.049-2.449,4.994,4.994,0,0,1-.384-3.752l.209-.5-.8-2.892a8.783,8.783,0,0,1,1.3-1.2A13.812,13.812,0,0,0,1026.253,297.625Z" transform="translate(-814.097 -205.672)" fill="#ec964a"/>
    <path id="Trazado_874726" data-name="Trazado 874726" d="M1026.253,297.625a10.959,10.959,0,0,1,1.391,1.535,10.263,10.263,0,0,0-1.173,1.794l-4.085,6.364-.8-2.892a8.779,8.779,0,0,1,1.3-1.2A13.812,13.812,0,0,0,1026.253,297.625Z" transform="translate(-813.751 -205.672)" fill="#e25333"/>
    <path id="Trazado_874727" data-name="Trazado 874727" d="M1038.175,486.192l15.834-3.027c6.445-1.324,7.214-9.52,8.4-14.725l2.288-9.544.6-2.779a4.055,4.055,0,0,1,.407-1.352l.739-.082.186,1.151c.209,1.585.312,3.192.369,4.789l.1,5.817a7.852,7.852,0,0,0,.07,2.039,4.485,4.485,0,0,0,.54.711l1.435,1.894,8.249,10.944a5.94,5.94,0,0,0-1.221,1.389,2.884,2.884,0,0,0-.892.744l-1.574,1.547c-.652.592-1.367,1.138-2.056,1.684a33.7,33.7,0,0,1-7.757,4.706,37.612,37.612,0,0,1-11.982,2.5c-1.337.079-2.7.019-4.042.02a17.336,17.336,0,0,0-1.753-.191,26.5,26.5,0,0,1-6.207-1.264l-1.073-.431c-.391-.191-.5-.22-.641-.639A58.846,58.846,0,0,1,1038.175,486.192Z" transform="translate(-830.425 -342.483)" fill="#07a768"/>
    <path id="Trazado_874728" data-name="Trazado 874728" d="M1038.175,486.192l15.834-3.027c6.445-1.324,7.214-9.52,8.4-14.725l2.288-9.544.6-2.779a4.055,4.055,0,0,1,.407-1.352l.739-.082.186,1.151a78.543,78.543,0,0,1-1.6,11.485c-.763,4.311-1.323,9.135-3.035,13.2a12.708,12.708,0,0,1-3.035,4.407c-4.308,4.1-11.222,5.731-16.928,6.654a29.625,29.625,0,0,1-3.837.514A58.846,58.846,0,0,1,1038.175,486.192Z" transform="translate(-829.659 -342.483)" fill="#277b48"/>
    <path id="Trazado_874729" data-name="Trazado 874729" d="M1054.819,688.772c1.342,0,2.7.058,4.042-.021a37.612,37.612,0,0,0,11.982-2.5,33.7,33.7,0,0,0,7.757-4.706c.69-.546,1.4-1.092,2.056-1.684l1.574-1.547a2.884,2.884,0,0,1,.892-.744l.373.872c2.388,6.181,1.885,13.067,1.74,19.567l-.365,13.279-.121.473a13.865,13.865,0,0,1-2.223.05h-4.155l-15.079,0-1.735,0-15.477-.059.779-24.436a26.5,26.5,0,0,0,6.207,1.264A17.341,17.341,0,0,1,1054.819,688.772Z" transform="translate(-837.483 -536.636)" fill="#012c43"/>
    <path id="Trazado_874730" data-name="Trazado 874730" d="M1142.367,808.2l-.057-10.732a46.261,46.261,0,0,0,.042-5.053.372.372,0,0,0-.165-.279c-.629-.592-3.149-2.515-3.338-3.17a.883.883,0,0,1,.4-.74,2.789,2.789,0,0,1,1.208.753l2.384,1.953a8.781,8.781,0,0,1,1.314,1.141l.012,11.112a43.309,43.309,0,0,1-.063,5.014Z" transform="translate(-917.185 -633.029)" fill="#002135"/>
    <path id="Trazado_874731" data-name="Trazado 874731" d="M1113.87,688.772c1.342,0,2.7.058,4.042-.021a37.612,37.612,0,0,0,11.982-2.5,33.7,33.7,0,0,0,7.757-4.706c.69-.546,1.4-1.092,2.056-1.684l1.574-1.547a2.883,2.883,0,0,1,.892-.744l.373.872c-4.9,5.93-12.207,10.386-19.929,11.111a27.34,27.34,0,0,1-8.276-.5l.229-.086-.058-.084A2.012,2.012,0,0,1,1113.87,688.772Z" transform="translate(-896.638 -536.636)" fill="#002135"/>
  </g>
</svg>
