<svg xmlns="http://www.w3.org/2000/svg" width="100" height="100" viewBox="0 0 100 100">
  <g id="Grupo_1099698" data-name="Grupo 1099698" transform="translate(-710.833 -4433.051)">
    <g id="Grupo_1099375" data-name="Grupo 1099375" transform="translate(710.782 4433)">
      <g id="Grupo_1098742" data-name="Grupo 1098742" transform="translate(0 0)">
        <rect id="Rect치ngulo_400898" data-name="Rect치ngulo 400898" width="100" height="100" rx="50" transform="translate(0.051 0.051)" fill="#fff"/>
        <rect id="Rect치ngulo_400907" data-name="Rect치ngulo 400907" width="100" height="100" rx="50" transform="translate(0.051 0.051)" fill="none"/>
      </g>
    </g>
    <g id="Grupo_1099699" data-name="Grupo 1099699" transform="translate(731.207 4453.422)">
      <path id="Trazado_874481" data-name="Trazado 874481" d="M146.724,16.177a4.507,4.507,0,0,0-1.493-2.194,1.715,1.715,0,0,1-.641-1.346V8.368a.868.868,0,0,0-.868-.868h-1.736a.868.868,0,0,0-.868.868v3.621a1.724,1.724,0,0,1-.919,1.531,4.5,4.5,0,0,0-1.986,2.082c-1.94,4.064-5.384,12.477-12.456,19.536S110.284,45.654,106.22,47.594a4.592,4.592,0,0,0,.576,8.511,23.67,23.67,0,0,0,7.59,1.044c7.867-.142,16.141-4.554,22.484-10.9s10.755-14.617,10.9-22.484a23.683,23.683,0,0,0-1.044-7.59Zm0,0" transform="translate(-91.624 -6.631)" fill="#ffcf5d"/>
      <path id="Trazado_874482" data-name="Trazado 874482" d="M198.9,16.7a1.051,1.051,0,0,1,.342.528,20.118,20.118,0,0,1,.881,6.474c-.118,6.512-3.812,14.022-9.881,20.092s-13.581,9.763-20.092,9.881a3.471,3.471,0,0,0-3.4,3.3,25.793,25.793,0,0,0,3.467.167c7.867-.142,16.141-4.554,22.484-10.9s10.755-14.618,10.9-22.485a23.682,23.682,0,0,0-1.044-7.59,4.507,4.507,0,0,0-1.493-2.194,1.715,1.715,0,0,1-.641-1.346V8.368a.868.868,0,0,0-.868-.868h-1.736a.868.868,0,0,0-.868.868v4.269A5.158,5.158,0,0,0,198.9,16.7Zm0,0" transform="translate(-147.446 -6.631)" fill="#ffb545"/>
      <path id="Trazado_874483" data-name="Trazado 874483" d="M62.251,212l-2.919-1.849a.936.936,0,0,0-1.4,1.053l.857,2.783a9.716,9.716,0,0,0,3.754,5.122L65.408,221c0-3.38-.131-7.079-3.157-9Zm0,0" transform="translate(-51.188 -185.698)" fill="#28d05b"/>
      <path id="Trazado_874484" data-name="Trazado 874484" d="M25.655,294.069a9.127,9.127,0,0,0-4.8,1.207,9.124,9.124,0,0,0-4.8-1.207,8.657,8.657,0,0,0-7.4,4.467,10.9,10.9,0,0,0-.448,8.808c1.652,5.07,6.037,9.611,10.2,9.849a6.9,6.9,0,0,0,1.2-.022,11.986,11.986,0,0,1,2.495,0,6.9,6.9,0,0,0,1.2.022c4.165-.238,8.551-4.779,10.2-9.849a10.9,10.9,0,0,0-.448-8.808,8.657,8.657,0,0,0-7.4-4.467Zm0,0" transform="translate(-6.633 -260.031)" fill="#ff5368"/>
      <path id="Trazado_874485" data-name="Trazado 874485" d="M75.683,309.51a8.624,8.624,0,0,0-2.809-3.037q.189.285.355.583a10.9,10.9,0,0,1,.448,8.808,16.5,16.5,0,0,1-6.131,8.355,9.025,9.025,0,0,1-5,1.494H55.707a9.25,9.25,0,0,0,5.329,2.454,6.906,6.906,0,0,0,1.2-.022,11.87,11.87,0,0,1,2.5,0,6.937,6.937,0,0,0,1.2.022c4.165-.238,8.551-4.779,10.2-9.849a10.9,10.9,0,0,0-.448-8.808Zm0,0" transform="translate(-49.261 -271.004)" fill="#d9435b"/>
      <path id="Trazado_874486" data-name="Trazado 874486" d="M320.133,288.162a3.472,3.472,0,0,0-6.752,0,11.573,11.573,0,1,0,6.752,0Zm0,0" transform="translate(-269.866 -252.458)" fill="#ff983b"/>
      <path id="Trazado_874487" data-name="Trazado 874487" d="M340.85,323.66a11.573,11.573,0,0,1-16.182,16.182A11.573,11.573,0,1,0,340.85,323.66Zm0,0" transform="translate(-287.095 -286.202)" fill="#ff7e40"/>
      <path id="Trazado_874488" data-name="Trazado 874488" d="M405.163,244.6l-.857-2.782a9.712,9.712,0,0,0-3.754-5.122l-1.132-.745a1.12,1.12,0,0,0-1.736.936v1.233a6.591,6.591,0,0,0,3.157,5.685l2.919,1.849a.936.936,0,0,0,1.4-1.053Zm0,0" transform="translate(-351.661 -208.476)" fill="#28d05b"/>
      <path id="Trazado_874489" data-name="Trazado 874489" d="M297.338,102.037a.893.893,0,0,0-1.157-.432l-.486.2.373-.373a.892.892,0,0,0,.044-1.234.869.869,0,0,0-1.246-.019l-.4.4.215-.52a.868.868,0,1,0-1.6-.664l-.471,1.138a.861.861,0,0,0,.06.782.96.96,0,0,1-.121,1.185.892.892,0,0,0-.044,1.234.868.868,0,0,0,1.246.019l.017-.017a.98.98,0,0,1,1.2-.125.864.864,0,0,0,.774.055l1.138-.471a.868.868,0,0,0,.459-1.158Zm0,0" transform="translate(-258.451 -87.417)" fill="#28d05b"/>
      <path id="Trazado_874490" data-name="Trazado 874490" d="M240.39,127.981a1.733,1.733,0,0,0-1.727.5l-2.848-.889-2.107,2.212-.895,3.337-.03-.009a1.736,1.736,0,1,0,1.226,2.127,1.716,1.716,0,0,0,.025-.81,1.737,1.737,0,0,0,3.338-.957,1.736,1.736,0,1,0,2.139-2.153,1.736,1.736,0,0,0,.879-3.359Zm0,0" transform="translate(-203.91 -112.827)" fill="#d9435b"/>
      <path id="Trazado_874491" data-name="Trazado 874491" d="M244.815,109.274a1.738,1.738,0,0,0-2.126,2.126,1.735,1.735,0,1,0-2.086,2.138,1.737,1.737,0,1,0,1.188,1.217,1.737,1.737,0,0,0,1.677,1.286h.008a1.738,1.738,0,0,0,1.219-2.963,1.717,1.717,0,0,0-.77-.448,1.736,1.736,0,0,0,.891-3.355Zm0,0" transform="translate(-210.791 -96.574)" fill="#ff5368"/>
      <path id="Trazado_874492" data-name="Trazado 874492" d="M258.957,3.2a.869.869,0,0,0-1.134-.47l-.52.216.4-.4a.868.868,0,0,0-1.227-1.227l-.4.4.216-.52a.868.868,0,0,0-1.6-.664l-.471,1.138,3.134,3.133,1.138-.471a.868.868,0,0,0,.47-1.134Zm0,0" transform="translate(-224.796 0)" fill="#28d05b"/>
      <path id="Trazado_874493" data-name="Trazado 874493" d="M196.859,12.87a4.345,4.345,0,0,1,6.3.245,4.346,4.346,0,0,1,.245,6.3c-1.808,1.808-6.621,3.69-8.429,1.882s.075-6.621,1.882-8.429Zm0,0" transform="translate(-171.764 -10.284)" fill="#ff5368"/>
      <path id="Trazado_874494" data-name="Trazado 874494" d="M203.308,16.637a5.28,5.28,0,0,0-1.43-1.024,4.148,4.148,0,0,1-.778,4.872,10.07,10.07,0,0,1-6.689,2.6,2.728,2.728,0,0,0,.714,1.74c1.808,1.808,6.621-.074,8.429-1.882a4.346,4.346,0,0,0-.245-6.3Zm0,0" transform="translate(-171.912 -13.806)" fill="#d9435b"/>
      <path id="Trazado_874495" data-name="Trazado 874495" d="M103.573,109.541a5.787,5.787,0,1,1-5.787-5.787A5.786,5.786,0,0,1,103.573,109.541Zm0,0" transform="translate(-81.354 -91.746)" fill="#5c87bd"/>
      <path id="Trazado_874496" data-name="Trazado 874496" d="M105.478,109.426a5.786,5.786,0,0,1-7.806,7.806,5.786,5.786,0,1,0,7.806-7.806Zm0,0" transform="translate(-86.369 -96.761)" fill="#456ea2"/>
      <path id="Trazado_874497" data-name="Trazado 874497" d="M54.287,36.853a1.79,1.79,0,0,0-.028-.961L53.4,33.108a10.641,10.641,0,0,0-4.084-5.584l-.018-.012-1.131-.746a1.987,1.987,0,0,0-3.077,1.662v1.234a7.635,7.635,0,0,0,.49,2.715,4.317,4.317,0,0,0-2.826,2.666,12.541,12.541,0,0,0-5.866,4.287,12.349,12.349,0,0,0-2.485,7.182,29.849,29.849,0,0,1-7.346,2.659C29,44.752,29.037,39.7,25.741,36.184c1.406-.877,2.746-1.793,3.993-2.733A46.736,46.736,0,0,0,34.7,29.142c5.761-5.764,9.075-12.168,11.932-18.336.685-1.48,1-2.468,2.281-3.139a2.589,2.589,0,0,0,1.383-2.3V1.742h1.734V6.013A2.575,2.575,0,0,0,53,8.04a3.656,3.656,0,0,1,1.2,1.779c1.919,6.041.977,12.418-1.728,18.149a.867.867,0,1,0,1.566.743h0a32.055,32.055,0,0,0,2.084-5.725,25.15,25.15,0,0,0-.272-13.693A5.375,5.375,0,0,0,54.074,6.68a.851.851,0,0,1-.312-.667V1.742A1.737,1.737,0,0,0,52.028,0H50.295a1.739,1.739,0,0,0-1.734,1.737V5.364a.862.862,0,0,1-.452.762c-1.808.943-2.3,2.327-3.05,3.946-2.271,4.906-5.566,11.823-11.585,17.842a47.864,47.864,0,0,1-9.1,7.074A9.823,9.823,0,0,0,19.026,33.2a9.544,9.544,0,0,0-3.327.471,13.029,13.029,0,0,1,7.158-6.6.871.871,0,1,0,1.3-1.152l-.462-.463a.867.867,0,0,0-.887-.21,14.647,14.647,0,0,0-7.914,6.331,7.816,7.816,0,0,0-3.385-5.986l-2.915-1.85A1.8,1.8,0,0,0,5.9,25.782l.856,2.784a10.626,10.626,0,0,0,2.9,4.624,9.533,9.533,0,0,0-8.4,4.926,11.819,11.819,0,0,0-.511,9.5,17.961,17.961,0,0,0,4.369,7.09A10.637,10.637,0,0,0,11.7,58.069a7.819,7.819,0,0,0,1.347-.024,10.987,10.987,0,0,1,2.31,0,7.659,7.659,0,0,0,.815.043c.175,0,.35-.006.523-.018a10.643,10.643,0,0,0,6.622-3.392,17.818,17.818,0,0,0,2.749-3.555A30.334,30.334,0,0,0,34.5,48.405,12.427,12.427,0,1,0,54.287,36.853Zm-45.874-8.8-.855-2.784c-.007-.021-.011-.035.021-.06.07-.053-.143-.151,3,1.846h0c2.147,1.362,2.629,3.774,2.727,6.641l-1.49-.982a8.892,8.892,0,0,1-3.406-4.661ZM26.008,47.078c-1.5,4.618-5.565,9.037-9.425,9.258a6.079,6.079,0,0,1-1.047-.019,12.566,12.566,0,0,0-1.337-.071,12.7,12.7,0,0,0-1.338.071,6.117,6.117,0,0,1-1.056.018A8.948,8.948,0,0,1,6.328,53.47,16.193,16.193,0,0,1,2.39,47.079a10.133,10.133,0,0,1,.381-8.123,7.808,7.808,0,0,1,6.664-4.024,8.078,8.078,0,0,1,3.925.88l.362.238a.862.862,0,0,0,1.108-.133,8.147,8.147,0,0,1,4.127-.986c5.4.231,9.3,5.205,7.051,12.146Zm20.82-18.649a.251.251,0,0,1,.391-.211,10.119,10.119,0,0,1,3.546,3.277.87.87,0,0,0,.356.615,8.73,8.73,0,0,1,.626,1.509L52.6,36.4c.006.021.011.036-.022.06a.065.065,0,0,1-.087,0l-2.916-1.85c-2.967-1.882-2.75-4.62-2.75-6.188Zm0,29.092A10.718,10.718,0,0,1,42.516,37a4.323,4.323,0,0,0,.6,1.782.867.867,0,1,0,1.484-.9,2.611,2.611,0,0,1,1.36-3.8V36.5a.892.892,0,0,0,.84.9.868.868,0,0,0,.894-.868V35.376a12.768,12.768,0,0,0,1.731,1.2,2.6,2.6,0,0,1-.371,1.308.867.867,0,1,0,1.484.9,4.321,4.321,0,0,0,.493-1.189l.534.339a1.8,1.8,0,0,0,.97.285,1.78,1.78,0,0,0,.557-.09,10.715,10.715,0,0,1-6.265,19.391Zm0,0" transform="translate(0 -0.004)"/>
      <path id="Trazado_874498" data-name="Trazado 874498" d="M91.013,109.634a6.659,6.659,0,1,0-6.646-6.659A6.66,6.66,0,0,0,91.013,109.634Zm0-11.58a4.922,4.922,0,1,1-4.912,4.922A4.923,4.923,0,0,1,91.013,98.054Zm0,0" transform="translate(-74.604 -85.169)"/>
      <path id="Trazado_874499" data-name="Trazado 874499" d="M124.8,124.554a.867.867,0,0,0,1.226,0l.254-.255.254.255a.868.868,0,1,0,1.226-1.228l-.254-.255.254-.255a.868.868,0,0,0-1.226-1.228l-.254.255-.254-.255a.868.868,0,1,0-1.226,1.228l.254.255-.254.255a.87.87,0,0,0,0,1.228Zm0,0" transform="translate(-110.135 -107.291)"/>
      <path id="Trazado_874500" data-name="Trazado 874500" d="M197.138,9.753a5.015,5.015,0,0,0,1.179-5.307l.255-.106a.868.868,0,0,0-.664-1.6l-.419.174-.025-.034.322-.323a.868.868,0,0,0-1.226-1.228l-.323.324-.033-.025.174-.421a.867.867,0,1,0-1.6-.665l-.1.255a4.969,4.969,0,0,0-5.3,1.182c-2.024,2.028-4.161,7.377-1.88,9.663s7.644.121,9.644-1.883Zm-8.612-2.71A9.642,9.642,0,0,1,190.6,3.2a3.475,3.475,0,0,1,5.067.245,3.488,3.488,0,0,1,.245,5.077,9.616,9.616,0,0,1-3.833,2.077c-1.543.439-2.8.368-3.359-.194s-.632-1.819-.193-3.365Zm0,0" transform="translate(-164.927)"/>
      <path id="Trazado_874501" data-name="Trazado 874501" d="M233.087,50.34a.868.868,0,1,0-1.226,0A.87.87,0,0,0,233.087,50.34Zm0,0" transform="translate(-204.804 -43.203)"/>
      <path id="Trazado_874502" data-name="Trazado 874502" d="M211.9,71.567a.868.868,0,1,0-1.226,0A.87.87,0,0,0,211.9,71.567Zm0,0" transform="translate(-186.071 -61.972)"/>
      <path id="Trazado_874503" data-name="Trazado 874503" d="M211.9,50.34a.868.868,0,1,0-1.226,0A.87.87,0,0,0,211.9,50.34Zm0,0" transform="translate(-186.071 -43.203)"/>
      <path id="Trazado_874504" data-name="Trazado 874504" d="M233.087,71.567a.868.868,0,1,0-1.226,0A.87.87,0,0,0,233.087,71.567Zm0,0" transform="translate(-204.804 -61.972)"/>
      <path id="Trazado_874505" data-name="Trazado 874505" d="M254.273,50.34a.868.868,0,1,0-1.226,0A.87.87,0,0,0,254.273,50.34Zm0,0" transform="translate(-223.539 -43.203)"/>
      <path id="Trazado_874506" data-name="Trazado 874506" d="M233.087,29.113a.868.868,0,1,0-1.226,0A.87.87,0,0,0,233.087,29.113Zm0,0" transform="translate(-204.804 -24.432)"/>
      <path id="Trazado_874507" data-name="Trazado 874507" d="M229.19,99.628a2.635,2.635,0,0,0-.84.805,2.608,2.608,0,0,0-3.493,3.508,2.6,2.6,0,0,0-.9,3.355,2.6,2.6,0,1,0,3.6,3.61,2.582,2.582,0,0,0,2.5-.089,2.638,2.638,0,0,0,.845-.814,2.6,2.6,0,0,0,3.494-3.5,2.6,2.6,0,0,0,.951-3.231.868.868,0,0,0-.6-1.63l-.511.178.342-.343a.868.868,0,0,0-1.226-1.228l-.342.343.178-.512a.866.866,0,0,0-1.624-.6,2.59,2.59,0,0,0-2.383.146Zm2.175,2.464a.878.878,0,0,0-.029.191l-.315.316a.87.87,0,1,0,1.294,1.16.869.869,0,1,1,.858,1.411,1.1,1.1,0,0,0-.5,1.872.887.887,0,0,1,.273.63.869.869,0,0,1-1.5.6,1.1,1.1,0,0,0-1.865.5.869.869,0,0,1-1.481.4,1.1,1.1,0,0,0-1.866.505.87.87,0,1,1-1.309-.936.964.964,0,0,1,.81-.072,2.513,2.513,0,0,0,2.673-1.151c.077.042.158.08.241.114,1.825.752,3.8-.813,2.824-1.793a.866.866,0,0,0-1.226,0,.871.871,0,0,1-1.475-.512.872.872,0,1,0-1.739-.075c.009.728.174,1.185-.282,1.559a.755.755,0,0,1-.677.154.869.869,0,0,1,.015-1.688,1.1,1.1,0,0,0,.5-1.871.887.887,0,0,1-.276-.631.875.875,0,0,1,1.5-.611,1.1,1.1,0,0,0,1.863-.5.871.871,0,1,1,1.689.429Zm0,0" transform="translate(-196.998 -87.481)"/>
      <path id="Trazado_874508" data-name="Trazado 874508" d="M352.42,347.868a.868.868,0,1,1-.868-.868A.868.868,0,0,1,352.42,347.868Zm0,0" transform="translate(-310.1 -306.841)"/>
      <path id="Trazado_874509" data-name="Trazado 874509" d="M372.42,375.872a.868.868,0,1,1-.868-.868A.868.868,0,0,1,372.42,375.872Zm0,0" transform="translate(-327.786 -331.604)"/>
      <path id="Trazado_874510" data-name="Trazado 874510" d="M332.416,397.872a.868.868,0,1,1-.868-.868A.868.868,0,0,1,332.416,397.872Zm0,0" transform="translate(-292.411 -351.058)"/>
    </g>
  </g>
</svg>
