<svg xmlns="http://www.w3.org/2000/svg" width="85" height="115" viewBox="0 0 85 115">
  <g id="Grupo_1099603" data-name="Grupo 1099603" transform="translate(-180.051 -1389)">
    <rect id="Rectángulo_401391" data-name="Rectángulo 401391" width="85" height="115" rx="10" transform="translate(180.051 1389)" fill="#fddbb4"/>
    <g id="Grupo_1099602" data-name="Grupo 1099602" transform="translate(194.227 1418.176)">
      <g id="Grupo_1099594" data-name="Grupo 1099594" transform="translate(30.033 0.83)">
        <path id="Trazado_874216" data-name="Trazado 874216" d="M274.063,30.667a8.941,8.941,0,0,1,0-12.645l7.9-7.9a8.941,8.941,0,0,1,12.645,12.645l-7.9,7.9A8.941,8.941,0,0,1,274.063,30.667Z" transform="translate(-271.444 -7.501)" fill="#e4f7c6"/>
        <path id="Trazado_874217" data-name="Trazado 874217" d="M295.922,17.646a8.925,8.925,0,0,0-2.34-1.683q.023.443.023.892a17.109,17.109,0,0,1-20.687,16.72,8.942,8.942,0,0,0,15.1,4.618l7.9-7.9A8.941,8.941,0,0,0,295.922,17.646Z" transform="translate(-272.755 -15.027)" fill="#d1f19e"/>
        <path id="Trazado_874218" data-name="Trazado 874218" d="M303.407,55.269a5.6,5.6,0,0,1,0-7.9l7.9-7.9a5.588,5.588,0,1,1,7.9,7.9l-7.9,7.9A5.6,5.6,0,0,1,303.407,55.269Z" transform="translate(-298.418 -34.474)" fill="#bbec6c"/>
        <path id="Trazado_874219" data-name="Trazado 874219" d="M322.434,51.046q-.1-.1-.2-.193a17.1,17.1,0,0,1-16.837,14.13,5.587,5.587,0,0,0,9.137,1.869l7.9-7.9A5.6,5.6,0,0,0,322.434,51.046Z" transform="translate(-301.638 -46.056)" fill="#a2e62e"/>
        <circle id="Elipse_11657" data-name="Elipse 11657" cx="1.788" cy="1.788" r="1.788" transform="translate(15.214 6.995)" fill="#fef0ae"/>
      </g>
      <path id="Trazado_874220" data-name="Trazado 874220" d="M427.379,368.2a1.788,1.788,0,0,1,1.788-1.788h4.918a1.788,1.788,0,1,1,0,3.577h-4.918A1.788,1.788,0,0,1,427.379,368.2Z" transform="translate(-380.093 -325.868)" fill="#ffe177"/>
      <path id="Trazado_874221" data-name="Trazado 874221" d="M266.966,411.332a1.788,1.788,0,0,1,1.788-1.788h4.918a1.788,1.788,0,0,1,0,3.577h-4.918A1.788,1.788,0,0,1,266.966,411.332Z" transform="translate(-237.428 -364.231)" fill="#ffe177"/>
      <path id="Trazado_874222" data-name="Trazado 874222" d="M375.947,403.278a1.788,1.788,0,0,1,2.529,0l3.477,3.477a1.788,1.788,0,0,1-2.529,2.529l-3.477-3.477a1.788,1.788,0,0,1,0-2.529Z" transform="translate(-333.886 -358.193)" fill="#ffd15b"/>
      <path id="Trazado_874223" data-name="Trazado 874223" d="M389.767,297.792a1.788,1.788,0,0,1,0-2.529l3.477-3.477a1.788,1.788,0,0,1,2.529,2.529l-3.477,3.477A1.788,1.788,0,0,1,389.767,297.792Z" transform="translate(-346.177 -259.036)" fill="#ffd15b"/>
      <path id="Trazado_874224" data-name="Trazado 874224" d="M92.67,127.585a1.788,1.788,0,0,1,2.529,0l3.477,3.477a1.788,1.788,0,0,1-2.529,2.529l-3.477-3.477A1.788,1.788,0,0,1,92.67,127.585Z" transform="translate(-81.951 -113.003)" fill="#ffd15b"/>
      <path id="Trazado_874225" data-name="Trazado 874225" d="M333.158,308.462a1.788,1.788,0,0,1-1.788-1.788v-4.918a1.788,1.788,0,1,1,3.577,0v4.918A1.788,1.788,0,0,1,333.158,308.462Z" transform="translate(-294.707 -266.779)" fill="#ffe177"/>
      <g id="Grupo_1099595" data-name="Grupo 1099595" transform="translate(16.573 3.295)">
        <path id="Trazado_874226" data-name="Trazado 874226" d="M151.808,39.646a2.018,2.018,0,0,1-1.427-3.446,2.1,2.1,0,0,0,0-2.972,2.019,2.019,0,0,1,2.855-2.855,6.139,6.139,0,0,1,0,8.682,2.013,2.013,0,0,1-1.427.591Z" transform="translate(-149.789 -29.782)" fill="#99e6fc"/>
      </g>
      <g id="Grupo_1099596" data-name="Grupo 1099596" transform="translate(8.423 25.017)">
        <path id="Trazado_874227" data-name="Trazado 874227" d="M84.82,226.784a2.318,2.318,0,0,1-1.639,3.958,2.414,2.414,0,0,0-2.414,2.414,2.318,2.318,0,0,1-4.637,0,7.051,7.051,0,0,1,7.051-7.051A2.311,2.311,0,0,1,84.82,226.784Z" transform="translate(-76.13 -226.105)" fill="#99e6fc"/>
      </g>
      <g id="Grupo_1099597" data-name="Grupo 1099597" transform="translate(0.83 17.815)">
        <path id="Trazado_874228" data-name="Trazado 874228" d="M8.027,167.757A1.8,1.8,0,0,1,9.3,164.686a1.873,1.873,0,0,0,1.873-1.873,1.8,1.8,0,0,1,3.6,0A5.471,5.471,0,0,1,9.3,168.284a1.793,1.793,0,0,1-1.272-.527Z" transform="translate(-7.5 -161.014)" fill="#528fd8"/>
      </g>
      <g id="Grupo_1099599" data-name="Grupo 1099599" transform="translate(0.83 0.83)">
        <g id="Grupo_1099598" data-name="Grupo 1099598">
          <path id="Trazado_874229" data-name="Trazado 874229" d="M7.5,15.658A8.167,8.167,0,0,1,15.658,7.5a2.682,2.682,0,1,1,0,5.365,2.8,2.8,0,0,0-2.793,2.793,2.682,2.682,0,1,1-5.365,0Z" transform="translate(-7.5 -7.5)" fill="#99e6fc"/>
        </g>
      </g>
      <g id="Grupo_1099600" data-name="Grupo 1099600" transform="translate(2.677 16.027)">
        <circle id="Elipse_11658" data-name="Elipse 11658" cx="1.788" cy="1.788" r="1.788" transform="translate(19.695)" fill="#bbec6c"/>
        <circle id="Elipse_11659" data-name="Elipse 11659" cx="1.788" cy="1.788" r="1.788" transform="translate(0 21.239)" fill="#bbec6c"/>
        <circle id="Elipse_11660" data-name="Elipse 11660" cx="1.788" cy="1.788" r="1.788" transform="translate(26.156 19.451)" fill="#bbec6c"/>
        <circle id="Elipse_11661" data-name="Elipse 11661" cx="1.788" cy="1.788" r="1.788" transform="translate(3.294 31.074)" fill="#bbec6c"/>
        <circle id="Elipse_11662" data-name="Elipse 11662" cx="1.788" cy="1.788" r="1.788" transform="translate(17.907 29.425)" fill="#bbec6c"/>
        <circle id="Elipse_11663" data-name="Elipse 11663" cx="1.788" cy="1.788" r="1.788" transform="translate(11.203 36.216)" fill="#bbec6c"/>
      </g>
      <g id="Grupo_1099601" data-name="Grupo 1099601" transform="translate(0 0)">
        <path id="Trazado_874230" data-name="Trazado 874230" d="M300.693,51.067a6.4,6.4,0,0,0,4.538-1.876l7.9-7.9a6.418,6.418,0,0,0-9.077-9.076l-.776.776a.83.83,0,1,0,1.174,1.173l.775-.776a4.759,4.759,0,1,1,6.73,6.73l-7.9,7.9a4.758,4.758,0,0,1-6.729-6.73l4.39-4.39a.83.83,0,1,0-1.174-1.173l-4.39,4.39a6.415,6.415,0,0,0,4.539,10.953Z" transform="translate(-261.719 -26.978)"/>
        <path id="Trazado_874231" data-name="Trazado 874231" d="M404.071,68.465a2.61,2.61,0,0,0,1.851-.766h0a2.621,2.621,0,1,0-1.851.766Zm-.678-3.294a.958.958,0,1,1-.281.678A.955.955,0,0,1,403.394,65.17Z" transform="translate(-357.036 -56.235)"/>
        <path id="Trazado_874232" data-name="Trazado 874232" d="M151.408,25.687l.542-.542a9.771,9.771,0,0,0,12.091.4l1.071,1.071a.83.83,0,0,0,1.174-1.174l-.994-.994,1.611-1.611.994.994a.83.83,0,0,0,1.173-1.174l-.994-.994,1.611-1.611.994.994a.83.83,0,0,0,1.174-1.173l-.994-.994,1.611-1.611.994.994a.83.83,0,1,0,1.174-1.174l-1.02-1.02A9.77,9.77,0,0,0,166.15,0a9.7,9.7,0,0,0-6.3,2.3l-1.02-1.02a.83.83,0,0,0-1.174,1.174l.994.994L157.043,5.06l-.994-.994a.83.83,0,0,0-1.173,1.174l.994.994-1.611,1.611-.994-.994a.83.83,0,1,0-1.174,1.174l.994.994-1.611,1.611-.994-.994a.83.83,0,0,0-1.174,1.174l1.071,1.071a9.771,9.771,0,0,0,.4,12.091l-.542.542a3.475,3.475,0,0,1-2.474,1.025A5.164,5.164,0,0,0,142.6,30.7v3.586a3.5,3.5,0,0,1-3.5,3.5,5.125,5.125,0,0,0-3.647,1.511l-1.1,1.1a.83.83,0,0,0,1.173,1.174l1.1-1.1a3.475,3.475,0,0,1,2.474-1.025,5.164,5.164,0,0,0,5.158-5.158V30.7a3.5,3.5,0,0,1,3.5-3.5,5.122,5.122,0,0,0,3.647-1.51Zm1.1-13.748,7.9-7.9a8.111,8.111,0,1,1,11.471,11.471l-7.9,7.9a8.111,8.111,0,1,1-11.471-11.471Z" transform="translate(-119.273 0)"/>
        <path id="Trazado_874233" data-name="Trazado 874233" d="M427.415,358.908H422.5a2.618,2.618,0,1,0,0,5.236h4.918a2.618,2.618,0,0,0,0-5.236Zm0,3.577H422.5a.958.958,0,1,1,0-1.917h4.918a.958.958,0,0,1,0,1.917Z" transform="translate(-373.423 -319.198)"/>
        <path id="Trazado_874234" data-name="Trazado 874234" d="M267,402.045h-4.918a2.618,2.618,0,0,0,0,5.236H267a2.618,2.618,0,1,0,0-5.236Zm0,3.577h-4.918a.958.958,0,0,1,0-1.917H267a.958.958,0,1,1,0,1.917Z" transform="translate(-230.758 -357.562)"/>
        <path id="Trazado_874235" data-name="Trazado 874235" d="M372.4,396.021a2.618,2.618,0,1,0-3.7,3.7l3.477,3.477a2.618,2.618,0,1,0,3.7-3.7Zm2.3,6.006a.959.959,0,0,1-1.355,0l-3.477-3.477a.958.958,0,1,1,1.355-1.355l3.477,3.477a.958.958,0,0,1,0,1.355Z" transform="translate(-327.225 -351.522)"/>
        <path id="Trazado_874236" data-name="Trazado 874236" d="M384.37,292.483a2.61,2.61,0,0,0,1.851-.766l3.477-3.477a2.618,2.618,0,1,0-3.7-3.7l-3.477,3.477a2.621,2.621,0,0,0,0,3.7h0A2.611,2.611,0,0,0,384.37,292.483Zm-.678-3.295,3.477-3.477a.958.958,0,1,1,1.355,1.355l-3.477,3.477a.958.958,0,1,1-1.355-1.355Z" transform="translate(-339.515 -252.375)"/>
        <path id="Trazado_874237" data-name="Trazado 874237" d="M85.413,120.338a2.618,2.618,0,0,0,0,3.7l3.477,3.477a2.618,2.618,0,1,0,3.7-3.7l-3.477-3.478A2.621,2.621,0,0,0,85.413,120.338Zm2.529,1.174,3.477,3.478a.958.958,0,1,1-1.355,1.355l-3.477-3.477a.958.958,0,0,1,1.355-1.355Z" transform="translate(-75.281 -106.343)"/>
        <path id="Trazado_874238" data-name="Trazado 874238" d="M329.107,295.088a2.618,2.618,0,0,0-5.237,0v.352a.83.83,0,0,0,1.66,0v-.352a.959.959,0,0,1,1.917,0v4.918a.959.959,0,0,1-1.917,0v-.694a.83.83,0,1,0-1.66,0v.694a2.618,2.618,0,0,0,5.237,0Z" transform="translate(-288.037 -260.111)"/>
        <path id="Trazado_874239" data-name="Trazado 874239" d="M3.512,12.5A3.516,3.516,0,0,0,7.024,8.988,1.966,1.966,0,0,1,8.988,7.025,3.512,3.512,0,0,0,8.988,0,9,9,0,0,0,0,8.988,3.516,3.516,0,0,0,3.512,12.5ZM8.988,1.66a1.853,1.853,0,1,1,0,3.705A3.627,3.627,0,0,0,5.365,8.988a1.853,1.853,0,0,1-3.705,0A7.336,7.336,0,0,1,8.988,1.66Z" transform="translate(0 0)"/>
        <path id="Trazado_874240" data-name="Trazado 874240" d="M142.289,30.958a2.848,2.848,0,0,0,4.862,2.014,6.969,6.969,0,0,0,0-9.855,2.848,2.848,0,1,0-4.028,4.028,1.272,1.272,0,0,1,0,1.8A2.83,2.83,0,0,0,142.289,30.958Zm2.008-4.987a1.189,1.189,0,0,1,1.681-1.681,5.309,5.309,0,0,1,0,7.508,1.189,1.189,0,0,1-1.681-1.681,2.932,2.932,0,0,0,0-4.146Z" transform="translate(-126.546 -19.817)"/>
        <path id="Trazado_874241" data-name="Trazado 874241" d="M75.391,225.361a1.574,1.574,0,0,1,1.12-.464,3.148,3.148,0,0,0,0-6.3,7.905,7.905,0,0,0-1.445.132.83.83,0,0,0,.3,1.632,6.246,6.246,0,0,1,1.141-.1,1.489,1.489,0,0,1,0,2.977,3.244,3.244,0,0,0-3.244,3.244,1.489,1.489,0,1,1-2.977,0,6.18,6.18,0,0,1,1.822-4.4c.077-.077.146-.143.211-.2a.83.83,0,0,0-1.106-1.238c-.088.079-.179.165-.278.264a7.829,7.829,0,0,0-2.309,5.572,3.148,3.148,0,1,0,6.3,0A1.578,1.578,0,0,1,75.391,225.361Z" transform="translate(-61.037 -194.414)"/>
        <path id="Trazado_874242" data-name="Trazado 874242" d="M7.084,160.6a6.26,6.26,0,0,0,1.845-4.456A2.628,2.628,0,0,0,6.3,153.514h0a2.629,2.629,0,0,0-2.629,2.629,1.044,1.044,0,0,1-1.043,1.043h0A2.629,2.629,0,0,0,.77,161.674h0a2.612,2.612,0,0,0,1.859.77A6.26,6.26,0,0,0,7.084,160.6Zm-5.425-.783a.97.97,0,0,1,.969-.969h0a2.7,2.7,0,0,0,2.7-2.7.969.969,0,0,1,.969-.969h0a.969.969,0,0,1,.969.969,4.641,4.641,0,0,1-4.641,4.641.969.969,0,0,1-.969-.969Z" transform="translate(0 -136.529)"/>
        <path id="Trazado_874243" data-name="Trazado 874243" d="M194.7,139.97a2.618,2.618,0,1,0,2.618-2.618A2.621,2.621,0,0,0,194.7,139.97Zm2.618-.958a.958.958,0,1,1-.958.958A.96.96,0,0,1,197.317,139.012Z" transform="translate(-173.157 -122.155)"/>
        <path id="Trazado_874244" data-name="Trazado 874244" d="M21.927,331.932a2.618,2.618,0,1,0-2.618,2.618A2.621,2.621,0,0,0,21.927,331.932Zm-2.618.958a.958.958,0,1,1,.958-.958A.96.96,0,0,1,19.309,332.891Z" transform="translate(-14.844 -292.878)"/>
        <path id="Trazado_874245" data-name="Trazado 874245" d="M255.713,318.387a2.618,2.618,0,1,0-2.618-2.618A2.621,2.621,0,0,0,255.713,318.387Zm0-3.577a.958.958,0,1,1-.958.958A.96.96,0,0,1,255.713,314.811Z" transform="translate(-225.092 -278.504)"/>
        <path id="Trazado_874246" data-name="Trazado 874246" d="M49.085,418.207a2.618,2.618,0,1,0,2.618,2.618A2.621,2.621,0,0,0,49.085,418.207Zm0,3.576a.958.958,0,1,1,.958-.958A.96.96,0,0,1,49.085,421.783Z" transform="translate(-41.326 -371.936)"/>
        <path id="Trazado_874247" data-name="Trazado 874247" d="M181.154,403.3a2.618,2.618,0,1,0,2.618,2.618A2.621,2.621,0,0,0,181.154,403.3Zm0,3.576a.958.958,0,1,1,.958-.958A.96.96,0,0,1,181.154,406.873Z" transform="translate(-158.783 -358.676)"/>
        <path id="Trazado_874248" data-name="Trazado 874248" d="M120.565,464.675a2.618,2.618,0,1,0,2.618,2.618A2.621,2.621,0,0,0,120.565,464.675Zm0,3.576a.958.958,0,1,1,.958-.958A.96.96,0,0,1,120.565,468.251Z" transform="translate(-104.897 -413.263)"/>
        <circle id="Elipse_11664" data-name="Elipse 11664" cx="0.83" cy="0.83" r="0.83" transform="translate(39.218 13.241)"/>
        <circle id="Elipse_11665" data-name="Elipse 11665" cx="0.83" cy="0.83" r="0.83" transform="translate(43.498 14.02)"/>
        <circle id="Elipse_11666" data-name="Elipse 11666" cx="0.83" cy="0.83" r="0.83" transform="translate(37.694 17.295)"/>
      </g>
    </g>
  </g>
</svg>
