<svg xmlns="http://www.w3.org/2000/svg" width="85" height="85" viewBox="0 0 85 85">
  <g id="Grupo_1099711" data-name="Grupo 1099711" transform="translate(-200.051 -2474)">
    <g id="Elipse_11505" data-name="Elipse 11505" transform="translate(200.051 2474)" fill="#f8fbf9" stroke="#869a8a" stroke-width="5">
      <circle cx="42.5" cy="42.5" r="42.5" stroke="none"/>
      <circle cx="42.5" cy="42.5" r="40" fill="none"/>
    </g>
    <g id="Grupo_1099710" data-name="Grupo 1099710" transform="translate(221.102 2494.051)">
      <path id="Trazado_874528" data-name="Trazado 874528" d="M32.6,15.624A11.244,11.244,0,0,0,25.433,18.2V2.063A2.066,2.066,0,0,0,23.37,0H2.063A2.066,2.066,0,0,0,0,2.063v1.42a.643.643,0,0,0,1.286,0V2.063a.778.778,0,0,1,.777-.777H17.045V2.8a1.33,1.33,0,0,0,1.329,1.329h2.889A1.33,1.33,0,0,0,22.592,2.8V1.286h.777a.778.778,0,0,1,.777.777v11.43H1.286V6.485A.643.643,0,1,0,0,6.485V38.994a2.066,2.066,0,0,0,2.063,2.063h.208l.319,1.278a2.061,2.061,0,0,0,2,1.563h.623a2.061,2.061,0,0,0,2-1.563l.319-1.278H17.9l.319,1.278a2.061,2.061,0,0,0,2,1.563h.623a2.06,2.06,0,0,0,2-1.563l.319-1.278h.208a2.066,2.066,0,0,0,2.063-2.063v-3.35A11.294,11.294,0,1,0,32.6,15.624ZM21.306,2.8a.043.043,0,0,1-.043.043H18.374a.043.043,0,0,1-.043-.043V1.286h2.975ZM20.2,14.78l-.17.34a2.186,2.186,0,0,1-1.966,1.215H7.37A2.186,2.186,0,0,1,5.4,15.12l-.17-.34ZM5.97,42.023a.776.776,0,0,1-.754.589H4.593a.776.776,0,0,1-.754-.589L3.6,41.058H6.211Zm15.624,0a.776.776,0,0,1-.754.589h-.623a.776.776,0,0,1-.754-.589l-.241-.966h2.614Zm1.775-2.252H2.063a.778.778,0,0,1-.777-.777v-.777H4.744a.643.643,0,0,0,0-1.286H1.286V14.78H3.8l.457.915A3.465,3.465,0,0,0,7.37,17.621H18.063A3.465,3.465,0,0,0,21.179,15.7l.458-.915h2.511v4.659a11.273,11.273,0,0,0,0,14.964v2.528H7.745a.643.643,0,0,0,0,1.286h16.4v.777A.778.778,0,0,1,23.37,39.772ZM32.6,36.931a10.01,10.01,0,1,1,10.01-10.01A10.021,10.021,0,0,1,32.6,36.931Z" transform="translate(0)" fill="#5f6e62"/>
      <path id="Trazado_874529" data-name="Trazado 874529" d="M305.405,224.017v-2.326a.643.643,0,0,0-.643-.643h-5.039V216.7a1.33,1.33,0,0,0-1.329-1.329h-1.469A1.33,1.33,0,0,0,295.6,216.7v4.353h-5.039a.643.643,0,0,0-.643.643v2.326a3.476,3.476,0,0,0,.06.643v0a3.484,3.484,0,0,0,.161.577L291.4,228.6a3.5,3.5,0,0,0,3.262,2.261h6.006a3.5,3.5,0,0,0,3.262-2.261l1.258-3.356a3.485,3.485,0,0,0,.161-.575v-.007A3.476,3.476,0,0,0,305.405,224.017Zm-1.286-1.683v1.555h-4.4v-1.555Zm-.868,4.4H292.069l-.583-1.555h12.348ZM296.883,216.7a.043.043,0,0,1,.043-.043h1.469a.043.043,0,0,1,.043.043v7.193h-1.555Zm-1.286,5.639v1.555h-4.4v-1.555Zm5.066,7.236h-6.006a2.208,2.208,0,0,1-2.058-1.426l-.048-.129h10.218l-.048.129A2.208,2.208,0,0,1,300.663,229.571Z" transform="translate(-265.058 -196.902)" fill="#5f6e62"/>
    </g>
  </g>
</svg>
