<svg xmlns="http://www.w3.org/2000/svg" width="85" height="85" viewBox="0 0 85 85">
  <g id="Grupo_1099713" data-name="Grupo 1099713" transform="translate(-620.051 -2474)">
    <g id="Elipse_11505" data-name="Elipse 11505" transform="translate(620.051 2474)" fill="#f8fbf9" stroke="#869a8a" stroke-width="5">
      <circle cx="42.5" cy="42.5" r="42.5" stroke="none"/>
      <circle cx="42.5" cy="42.5" r="40" fill="none"/>
    </g>
    <g id="Grupo_1099712" data-name="Grupo 1099712" transform="translate(636.299 2489.745)">
      <path id="Trazado_874530" data-name="Trazado 874530" d="M199.146,0A16.935,16.935,0,0,0,188.381,3.87a.769.769,0,1,0,.98,1.186,15.371,15.371,0,1,1-5.586,11.854,15.215,15.215,0,0,1,3.273-9.483.769.769,0,1,0-1.21-.95,16.739,16.739,0,0,0-3.6,10.433A16.909,16.909,0,1,0,199.146,0Z" transform="translate(-163.55)" fill="#5f6e62"/>
      <path id="Trazado_874531" data-name="Trazado 874531" d="M229.871,41.763a2.453,2.453,0,0,0,.612,1.081,2.468,2.468,0,0,0,3.754,2.661l.312-.206,1.124.649v1.4l-1.123.649-.312-.206a2.468,2.468,0,0,0-3.754,2.661,2.468,2.468,0,0,0,2.376,4.113,2.467,2.467,0,0,0,4.181-1.919l-.022-.373,1.123-.649,1.21.7v1.3l-.335.167a2.468,2.468,0,0,0,.428,4.581,2.468,2.468,0,0,0,4.748,0,2.469,2.469,0,0,0,.429-4.583l-.335-.167v-1.3l1.211-.7,1.123.648-.022.373a2.467,2.467,0,0,0,4.181,1.919,2.469,2.469,0,0,0,2.376-4.113,2.468,2.468,0,0,0-3.754-2.661l-.312.206-1.123-.648v-1.4l1.123-.648.312.206a2.468,2.468,0,0,0,3.754-2.661,2.47,2.47,0,0,0-2.375-4.114,2.468,2.468,0,0,0-4.181,1.92l.022.373-1.123.648-1.21-.7v-1.3l.335-.167a2.468,2.468,0,0,0-.428-4.581,2.468,2.468,0,0,0-4.748,0,2.468,2.468,0,0,0-.429,4.581l.335.167v1.3l-1.21.7-1.123-.649.022-.373a2.468,2.468,0,0,0-4.181-1.92,2.468,2.468,0,0,0-2.987,3.032Zm1.579-1.1a.931.931,0,0,1,1.266-.343.769.769,0,0,0,1.056-.278.929.929,0,0,1,1.733.519l-.051.848a.769.769,0,0,0,.383.712l1.92,1.108a.769.769,0,0,0,.769,0l1.979-1.143a.769.769,0,0,0,.385-.666V39.2a.769.769,0,0,0-.425-.688l-.76-.38a.929.929,0,0,1,.416-1.76.77.77,0,0,0,.768-.771.93.93,0,1,1,1.86,0,.769.769,0,0,0,.768.769.929.929,0,0,1,.416,1.76l-.76.38a.769.769,0,0,0-.425.688v2.216a.769.769,0,0,0,.385.666l1.98,1.143a.77.77,0,0,0,.769,0l1.919-1.108a.769.769,0,0,0,.383-.712l-.051-.848a.929.929,0,0,1,1.733-.519.77.77,0,0,0,1.052.28.93.93,0,1,1,.93,1.61l-.024.015a.769.769,0,0,0-.259,1.036.929.929,0,0,1-1.316,1.241l-.709-.468a.769.769,0,0,0-.808-.024l-1.919,1.108a.769.769,0,0,0-.385.666v2.286a.769.769,0,0,0,.385.666l1.92,1.108a.769.769,0,0,0,.808-.024l.709-.468a.929.929,0,0,1,1.316,1.241.769.769,0,0,0,.282,1.05h0a.93.93,0,0,1,.34,1.27.929.929,0,0,1-1.268.342.769.769,0,0,0-1.053.279.932.932,0,0,1-.8.466l-.057,0a.93.93,0,0,1-.872-.984l.051-.848a.769.769,0,0,0-.383-.712l-1.919-1.108a.769.769,0,0,0-.769,0l-1.98,1.143a.769.769,0,0,0-.385.666V54.09a.769.769,0,0,0,.425.688l.76.38a.93.93,0,0,1-.416,1.762.769.769,0,0,0-.769.769.93.93,0,1,1-1.86,0,.769.769,0,0,0-.768-.769.929.929,0,0,1-.416-1.76l.76-.38a.769.769,0,0,0,.425-.688V51.874a.769.769,0,0,0-.385-.666l-1.979-1.143a.769.769,0,0,0-.769,0l-1.92,1.108a.769.769,0,0,0-.383.712l.051.848a.929.929,0,0,1-1.733.52.77.77,0,0,0-1.051-.281.93.93,0,1,1-.93-1.61l.024-.015a.769.769,0,0,0,.259-1.036.929.929,0,0,1,1.316-1.241l.709.468a.769.769,0,0,0,.808.024l1.92-1.108a.769.769,0,0,0,.385-.666V45.5a.769.769,0,0,0-.385-.666l-1.92-1.108a.769.769,0,0,0-.808.024l-.709.468a.929.929,0,0,1-1.316-1.241.771.771,0,0,0-.283-1.051.93.93,0,0,1-.341-1.27Z" transform="translate(-206.223 -29.735)" fill="#5f6e62"/>
      <path id="Trazado_874532" data-name="Trazado 874532" d="M320.7,139.962l1.98,1.143a.769.769,0,0,0,.769,0l1.979-1.142a.769.769,0,0,0,.385-.666V137.01a.769.769,0,0,0-.385-.666l-1.98-1.143a.769.769,0,0,0-.769,0l-1.979,1.143a.769.769,0,0,0-.385.666V139.3A.769.769,0,0,0,320.7,139.962Zm1.154-2.508,1.21-.7,1.211.7v1.4l-1.21.7-1.211-.7Z" transform="translate(-287.471 -121.242)" fill="#5f6e62"/>
      <path id="Trazado_874533" data-name="Trazado 874533" d="M22.472,278.534c-.724-1.02-3.464-4.16-10.011-4.587a1.619,1.619,0,0,0-1.551,2.34l1.56,3.121a14.1,14.1,0,0,0-3.878,2.524,10.869,10.869,0,0,0-6.755-3.686,1.614,1.614,0,0,0-1.485.6A1.6,1.6,0,0,0,.1,280.408a18.145,18.145,0,0,1,1.14,6.153A18.147,18.147,0,0,1,.1,292.713a1.619,1.619,0,0,0,1.519,2.177,1.665,1.665,0,0,0,.22-.015,10.623,10.623,0,0,0,2.305-.572.769.769,0,0,0-.537-1.441,9.082,9.082,0,0,1-1.971.488.084.084,0,0,1-.081-.031.069.069,0,0,1-.012-.075,19.7,19.7,0,0,0,1.235-6.684,19.7,19.7,0,0,0-1.235-6.684.069.069,0,0,1,.012-.074.084.084,0,0,1,.081-.031,9.247,9.247,0,0,1,5.875,3.261,14.39,14.39,0,0,0-1.665,2.3,2.461,2.461,0,0,0,0,2.463,14.4,14.4,0,0,0,1.666,2.3,10.932,10.932,0,0,1-1.069,1.071.769.769,0,0,0,1.009,1.162,12.419,12.419,0,0,0,1.142-1.133,14.085,14.085,0,0,0,4.732,2.866l-.867,2.053a1.6,1.6,0,0,0,.139,1.51,1.658,1.658,0,0,0,1.388.738c5.622,0,7.878-2.762,8.517-3.775a14.341,14.341,0,0,0,9.287-6.789,2.462,2.462,0,0,0,0-2.463,14.339,14.339,0,0,0-9.315-6.8ZM12.286,275.6a.075.075,0,0,1,.005-.082.07.07,0,0,1,.069-.035,13.6,13.6,0,0,1,7.069,2.233c.227.16.43.319.612.473-.4-.027-.806-.042-1.226-.042a16.252,16.252,0,0,0-4.9.719Zm1.7,21.22a.12.12,0,0,1-.105-.05.056.056,0,0,1,0-.062l.931-2.2a16.654,16.654,0,0,0,4.012.471c.465,0,.916-.018,1.353-.051a9.245,9.245,0,0,1-6.186,1.894Zm16.473-9.8a12.845,12.845,0,0,1-6.55,5.537,10.7,10.7,0,0,1-1.773-6,11.238,11.238,0,0,1,.457-3.2.769.769,0,0,0-1.475-.437,12.78,12.78,0,0,0-.52,3.633,12.336,12.336,0,0,0,1.783,6.466q-.231.056-.469.106a.769.769,0,0,0-.11.022,15.352,15.352,0,0,1-2.983.283,12.993,12.993,0,0,1-11.64-6.416.92.92,0,0,1,0-.92,12.993,12.993,0,0,1,11.64-6.416,12.993,12.993,0,0,1,11.64,6.416A.92.92,0,0,1,30.456,287.021Z" transform="translate(0 -245.849)" fill="#5f6e62"/>
      <circle id="Elipse_11689" data-name="Elipse 11689" cx="0.769" cy="0.769" r="0.769" transform="translate(24.843 39.077)" fill="#5f6e62"/>
    </g>
  </g>
</svg>
