<svg xmlns="http://www.w3.org/2000/svg" xmlns:xlink="http://www.w3.org/1999/xlink" width="87.998" height="93.862" viewBox="0 0 87.998 93.862">
  <defs>
    <clipPath id="clip-path">
      <path id="Trazado_873267" data-name="Trazado 873267" d="M1.267,0H86.731C87.431,0,88,1.575,88,3.518V90.344c0,1.943-.567,3.518-1.267,3.518H1.267C.567,93.862,0,92.287,0,90.344V3.518C0,1.575.567,0,1.267,0Z" fill="#297929" stroke="#707070" stroke-width="1"/>
    </clipPath>
    <radialGradient id="radial-gradient" cx="0.5" cy="0.5" r="0.5" gradientUnits="objectBoundingBox">
      <stop offset="0" stop-color="#fff" stop-opacity="0"/>
      <stop offset="1" stop-color="#f9a545"/>
    </radialGradient>
  </defs>
  <g id="Enmascarar_grupo_1098676" data-name="Enmascarar grupo 1098676" clip-path="url(#clip-path)">
    <path id="Sustracción_14" data-name="Sustracción 14" d="M63.531,127.062a63.99,63.99,0,0,1-12.8-1.291,63.184,63.184,0,0,1-22.717-9.559A63.709,63.709,0,0,1,4.993,88.26a63.216,63.216,0,0,1-3.7-11.926,64.144,64.144,0,0,1,0-25.607A63.2,63.2,0,0,1,10.85,28.01,63.719,63.719,0,0,1,38.8,4.993a63.2,63.2,0,0,1,11.926-3.7,64.144,64.144,0,0,1,25.607,0,63.187,63.187,0,0,1,22.717,9.56A63.716,63.716,0,0,1,122.069,38.8a63.211,63.211,0,0,1,3.7,11.925,64.144,64.144,0,0,1,0,25.607,63.179,63.179,0,0,1-9.559,22.717A63.714,63.714,0,0,1,88.26,122.069a63.2,63.2,0,0,1-11.925,3.7A63.99,63.99,0,0,1,63.531,127.062Zm0-101.7a38.425,38.425,0,0,0-7.692.776,37.96,37.96,0,0,0-13.648,5.743A38.28,38.28,0,0,0,28.363,48.675a37.976,37.976,0,0,0-2.224,7.164,38.535,38.535,0,0,0,0,15.384,37.964,37.964,0,0,0,5.743,13.648A38.278,38.278,0,0,0,48.674,98.7a37.96,37.96,0,0,0,7.164,2.224,38.544,38.544,0,0,0,15.384,0A37.959,37.959,0,0,0,84.87,95.18,38.277,38.277,0,0,0,98.7,78.388a37.963,37.963,0,0,0,2.224-7.164,38.535,38.535,0,0,0,0-15.384A37.957,37.957,0,0,0,95.18,42.192,38.276,38.276,0,0,0,78.387,28.363a37.988,37.988,0,0,0-7.164-2.224A38.427,38.427,0,0,0,63.531,25.364Z" transform="translate(7.276 -37.433)" fill="url(#radial-gradient)"/>
  </g>
</svg>
