<svg xmlns="http://www.w3.org/2000/svg" width="85" height="85" viewBox="0 0 85 85">
  <g id="Grupo_1099709" data-name="Grupo 1099709" transform="translate(-285 -599)">
    <g id="Elipse_11505" data-name="Elipse 11505" transform="translate(285 599)" fill="#f8fbf9" stroke="#869a8a" stroke-width="5">
      <circle cx="42.5" cy="42.5" r="42.5" stroke="none"/>
      <circle cx="42.5" cy="42.5" r="40" fill="none"/>
    </g>
    <g id="Grupo_1099519" data-name="Grupo 1099519" transform="translate(300 523.998)">
      <path id="Trazado_873885" data-name="Trazado 873885" d="M168.911,241h-21.82a1.091,1.091,0,0,0,0,2.182h21.82a1.091,1.091,0,0,0,0-2.182Z" transform="translate(-130.071 -124.721)" fill="#5f6e62"/>
      <path id="Trazado_873886" data-name="Trazado 873886" d="M169.316,173.258A34.6,34.6,0,0,0,158,171a34.6,34.6,0,0,0-11.315,2.26,1.091,1.091,0,0,0,.81,2.026A32.95,32.95,0,0,1,158,173.18a32.951,32.951,0,0,1,10.5,2.1,1.091,1.091,0,1,0,.81-2.026Z" transform="translate(-130.071 -62.359)" fill="#5f6e62"/>
      <path id="Trazado_873887" data-name="Trazado 873887" d="M168.5,291.073a32.95,32.95,0,0,1-10.505,2.1,32.952,32.952,0,0,1-10.505-2.1,1.091,1.091,0,0,0-.81,2.026A34.6,34.6,0,0,0,158,295.36a34.6,34.6,0,0,0,11.315-2.26,1.091,1.091,0,0,0-.81-2.026Z" transform="translate(-130.069 -169.265)" fill="#5f6e62"/>
      <path id="Trazado_873888" data-name="Trazado 873888" d="M51.313,101.076a5.458,5.458,0,0,0-6.252,4.29h-1.2a18.335,18.335,0,0,1-8.482-2.312,16.048,16.048,0,0,0-14.9,0A18.337,18.337,0,0,1,12,105.366H10.8a5.458,5.458,0,0,0-6.252-4.29A5.628,5.628,0,0,0,0,106.69v8.04A15.747,15.747,0,0,0,15.7,130.459a19.3,19.3,0,0,0,24.45,0,15.657,15.657,0,0,0,8.678-2.624,1.091,1.091,0,1,0-1.209-1.817,13.456,13.456,0,0,1-4.968,2.023,18.035,18.035,0,0,0,4.476-11.765v-9.819a3.275,3.275,0,0,1,3.831-3.227,3.431,3.431,0,0,1,2.715,3.461v8.04a13.542,13.542,0,0,1-.649,4.156,1.091,1.091,0,0,0,2.077.669,15.725,15.725,0,0,0,.754-4.824v-8.04a5.628,5.628,0,0,0-4.547-5.614ZM2.182,114.73v-8.04A3.431,3.431,0,0,1,4.9,103.23a3.275,3.275,0,0,1,3.831,3.227v9.819A18.035,18.035,0,0,0,13.2,128.04,13.569,13.569,0,0,1,2.182,114.73Zm42.767,1.546c0,8.949-7.891,16.365-17.02,16.365s-17.02-7.416-17.02-16.365v-8.728H12a20.48,20.48,0,0,0,9.5-2.562,13.867,13.867,0,0,1,12.87,0,20.481,20.481,0,0,0,9.5,2.562h1.089Z" fill="#5f6e62"/>
      <circle id="Elipse_11586" data-name="Elipse 11586" cx="1" cy="1" r="1" transform="translate(50.929 122.914)" fill="#5f6e62"/>
    </g>
  </g>
</svg>
