<svg xmlns="http://www.w3.org/2000/svg" width="85" height="85" viewBox="0 0 85 85">
  <g id="Grupo_1099705" data-name="Grupo 1099705" transform="translate(-285 -599)">
    <g id="Elipse_11505" data-name="Elipse 11505" transform="translate(285 599)" fill="#f8fbf9" stroke="#869a8a" stroke-width="5">
      <circle cx="42.5" cy="42.5" r="42.5" stroke="none"/>
      <circle cx="42.5" cy="42.5" r="40" fill="none"/>
    </g>
    <g id="Grupo_1099517" data-name="Grupo 1099517" transform="translate(305 568.348)">
      <g id="Grupo_1099502" data-name="Grupo 1099502" transform="translate(39.727 75.805)">
        <g id="Grupo_1099501" data-name="Grupo 1099501">
          <path id="Trazado_873866" data-name="Trazado 873866" d="M452.879,297.564a.879.879,0,1,0,.879.879A.879.879,0,0,0,452.879,297.564Z" transform="translate(-452 -297.564)" fill="#5f6e62"/>
        </g>
      </g>
      <g id="Grupo_1099504" data-name="Grupo 1099504" transform="translate(0 54.436)">
        <g id="Grupo_1099503" data-name="Grupo 1099503">
          <path id="Trazado_873867" data-name="Trazado 873867" d="M44.969,65.911c-.436-2.24-2.147-4.7-4.7-6.75a21.462,21.462,0,0,0-9.559-4.316c-2.623-.462-4.811-.733-7.091.317L.533,65.329A.893.893,0,0,0,0,66.137v7.031a.879.879,0,0,0,.879.879,2.637,2.637,0,0,1,0,5.273A.879.879,0,0,0,0,80.2v7.031a2.64,2.64,0,0,0,2.637,2.637h13.3a.879.879,0,0,0,.761-1.319,2.637,2.637,0,1,1,4.569,0,.879.879,0,0,0,.761,1.319H42.363A2.64,2.64,0,0,0,45,87.231V66.137A.872.872,0,0,0,44.969,65.911ZM24.33,56.768l.014-.006c1.671-.771,3.285-.674,6.057-.185a19.674,19.674,0,0,1,8.763,3.956,12.117,12.117,0,0,1,3.79,4.726H5.055ZM43.242,87.231a.88.88,0,0,1-.879.879H23.29a4.4,4.4,0,0,0-8.58-1.918,4.518,4.518,0,0,0-.031,1.918H2.637a.88.88,0,0,1-.879-.879V80.99a4.4,4.4,0,0,0,0-8.612V67.016H43.242Z" transform="translate(0 -54.436)" fill="#5f6e62"/>
        </g>
      </g>
      <g id="Grupo_1099506" data-name="Grupo 1099506" transform="translate(25.137 75.805)">
        <g id="Grupo_1099505" data-name="Grupo 1099505">
          <path id="Trazado_873868" data-name="Trazado 873868" d="M290.395,297.564a4.395,4.395,0,1,0,4.395,4.395A4.4,4.4,0,0,0,290.395,297.564Zm0,7.031a2.637,2.637,0,1,1,2.637-2.637A2.64,2.64,0,0,1,290.395,304.6Z" transform="translate(-286 -297.564)" fill="#5f6e62"/>
        </g>
      </g>
      <g id="Grupo_1099508" data-name="Grupo 1099508" transform="translate(7.559 81.078)">
        <g id="Grupo_1099507" data-name="Grupo 1099507">
          <path id="Trazado_873869" data-name="Trazado 873869" d="M87.758,357.564a1.758,1.758,0,1,0,1.758,1.758A1.76,1.76,0,0,0,87.758,357.564Z" transform="translate(-86 -357.564)" fill="#5f6e62"/>
        </g>
      </g>
      <g id="Grupo_1099510" data-name="Grupo 1099510" transform="translate(19.863 72.289)">
        <g id="Grupo_1099509" data-name="Grupo 1099509">
          <path id="Trazado_873870" data-name="Trazado 873870" d="M227.758,257.564a1.758,1.758,0,1,0,1.758,1.758A1.76,1.76,0,0,0,227.758,257.564Z" transform="translate(-226 -257.564)" fill="#5f6e62"/>
        </g>
      </g>
      <g id="Grupo_1099512" data-name="Grupo 1099512" transform="translate(32.168 68.774)">
        <g id="Grupo_1099511" data-name="Grupo 1099511">
          <path id="Trazado_873871" data-name="Trazado 873871" d="M368.637,217.564a2.637,2.637,0,1,0,2.637,2.637A2.64,2.64,0,0,0,368.637,217.564Zm0,3.516a.879.879,0,1,1,.879-.879A.88.88,0,0,1,368.637,221.08Z" transform="translate(-366 -217.564)" fill="#5f6e62"/>
        </g>
      </g>
      <g id="Grupo_1099514" data-name="Grupo 1099514" transform="translate(9.316 70.532)">
        <g id="Grupo_1099513" data-name="Grupo 1099513">
          <path id="Trazado_873872" data-name="Trazado 873872" d="M109.516,237.564a3.516,3.516,0,1,0,3.516,3.516A3.52,3.52,0,0,0,109.516,237.564Zm0,5.273a1.758,1.758,0,1,1,1.758-1.758A1.76,1.76,0,0,1,109.516,242.837Z" transform="translate(-106 -237.564)" fill="#5f6e62"/>
        </g>
      </g>
      <g id="Grupo_1099516" data-name="Grupo 1099516" transform="translate(39.727 79.321)">
        <g id="Grupo_1099515" data-name="Grupo 1099515">
          <path id="Trazado_873873" data-name="Trazado 873873" d="M452.879,337.564a.879.879,0,0,0-.879.879v5.273a.879.879,0,0,0,1.758,0v-5.273A.879.879,0,0,0,452.879,337.564Z" transform="translate(-452 -337.564)" fill="#5f6e62"/>
        </g>
      </g>
    </g>
  </g>
</svg>
