<svg xmlns="http://www.w3.org/2000/svg" width="85" height="85" viewBox="0 0 85 85">
  <g id="Grupo_1099706" data-name="Grupo 1099706" transform="translate(-285 -599)">
    <g id="Elipse_11505" data-name="Elipse 11505" transform="translate(285 599)" fill="#f8fbf9" stroke="#869a8a" stroke-width="5">
      <circle cx="42.5" cy="42.5" r="42.5" stroke="none"/>
      <circle cx="42.5" cy="42.5" r="40" fill="none"/>
    </g>
    <g id="Grupo_1099499" data-name="Grupo 1099499" transform="translate(213.525 615.622)">
      <path id="Trazado_873847" data-name="Trazado 873847" d="M114.027,49.549a2.274,2.274,0,1,0-2.274-2.274A2.277,2.277,0,0,0,114.027,49.549Zm0-3.032a.758.758,0,1,1-.758.758A.759.759,0,0,1,114.027,46.516Z" transform="translate(-12.359 -40.451)" fill="#5f6e62"/>
      <path id="Trazado_873848" data-name="Trazado 873848" d="M320.448,22.373a2.274,2.274,0,1,0-2.274-2.274A2.277,2.277,0,0,0,320.448,22.373Zm0-3.032a.758.758,0,1,1-.758.758A.759.759,0,0,1,320.448,19.34Z" transform="translate(-197.915 -16.022)" fill="#5f6e62"/>
      <path id="Trazado_873849" data-name="Trazado 873849" d="M142.506,121.52a2.274,2.274,0,1,0,2.274-2.274A2.277,2.277,0,0,0,142.506,121.52Zm2.274-.758a.758.758,0,1,1-.758.758A.759.759,0,0,1,144.78,120.762Z" transform="translate(-40.004 -107.192)" fill="#5f6e62"/>
      <path id="Trazado_873850" data-name="Trazado 873850" d="M176.3,10.236a6.85,6.85,0,0,0,5.908,3.411,3.8,3.8,0,0,0,3.05-1.541,3.8,3.8,0,0,0,2.858-1.87,6.819,6.819,0,0,0,0-6.824,3.8,3.8,0,0,0-2.858-1.871,3.789,3.789,0,0,0-6.1,0,3.789,3.789,0,0,0-3.05,5.282A3.806,3.806,0,0,0,176.3,10.236Zm1.313-3.791a2.274,2.274,0,0,1,1.97-3.412.758.758,0,0,0,.656-.378,2.274,2.274,0,0,1,3.94,0,.758.758,0,0,0,.656.378,2.281,2.281,0,0,1,1.97,1.138,5.3,5.3,0,0,1,0,5.306,2.283,2.283,0,0,1-1.97,1.137.758.758,0,0,0-.656.378,2.283,2.283,0,0,1-1.97,1.138,5.329,5.329,0,0,1-4.6-2.653,2.283,2.283,0,0,1,0-2.275A.758.758,0,0,0,177.614,6.445Z" transform="translate(-69.927)" fill="#5f6e62"/>
      <circle id="Elipse_11582" data-name="Elipse 11582" cx="0.758" cy="0.758" r="0.758" transform="translate(110.007 6.065)" fill="#5f6e62"/>
      <circle id="Elipse_11583" data-name="Elipse 11583" cx="0.758" cy="0.758" r="0.758" transform="translate(111.524 3.032)" fill="#5f6e62"/>
      <circle id="Elipse_11584" data-name="Elipse 11584" cx="0.758" cy="0.758" r="0.758" transform="translate(98.004 2.771)" fill="#5f6e62"/>
      <circle id="Elipse_11585" data-name="Elipse 11585" cx="0.758" cy="0.758" r="0.758" transform="translate(107.235 16.786)" fill="#5f6e62"/>
      <path id="Trazado_873851" data-name="Trazado 873851" d="M284.571,110.394a4.246,4.246,0,0,1,1.986-.487,4.3,4.3,0,1,1-4.3,4.3,4.245,4.245,0,0,1,.487-1.986.758.758,0,0,0-1.344-.7,5.813,5.813,0,1,0,2.465-2.465.758.758,0,1,0,.7,1.344Z" transform="translate(-164.269 -97.435)" fill="#5f6e62"/>
      <path id="Trazado_873852" data-name="Trazado 873852" d="M133.366,192.364a2.653,2.653,0,0,0-3.752,0l-3.484,3.484-6.433-6.432a4.554,4.554,0,0,0-6.433,0l-2.68,2.68a.758.758,0,0,0,1.072,1.072l2.68-2.68a3.036,3.036,0,0,1,4.289,0l6.969,6.968a.758.758,0,0,0,1.072,0l4.02-4.02a1.137,1.137,0,0,1,1.608,1.608l-4.02,4.02a3.035,3.035,0,0,1-4.288,0l-2.681-2.68a.758.758,0,0,0-1.072,0l-6.968,6.968a.758.758,0,0,0,0,1.072l3.293,3.293a3.765,3.765,0,0,1,1.11,2.68v7.4a1.516,1.516,0,1,1-3.032,0v-7.4a.758.758,0,0,0-.222-.536l-7.581-7.581a3.032,3.032,0,0,1,0-4.289l2.68-2.68a.758.758,0,0,0-1.072-1.072l-2.68,2.68a4.549,4.549,0,0,0,0,6.433l2.81,2.81v4.479l-5.009,5.009a3.032,3.032,0,0,0,4.289,4.289l5.231-5.231.038-.04v3.126a3.032,3.032,0,0,0,6.065,0v-7.4a5.272,5.272,0,0,0-1.554-3.752l-2.757-2.757,3.752-3.752,2.145,2.144a4.554,4.554,0,0,0,6.432,0l6.165-6.165A2.653,2.653,0,0,0,133.366,192.364Zm-20.248,18.593a3.767,3.767,0,0,1-1.11,2.68l-5.231,5.231a1.516,1.516,0,1,1-2.144-2.144l5.231-5.231a.758.758,0,0,0,.222-.536v-3.277l3.032,3.032v.245Zm8.723-9.748-2.145-2.144,1.072-1.072,2.145,2.144a4.53,4.53,0,0,0,2.934,1.32A3.036,3.036,0,0,1,121.841,201.208Z" transform="translate(-4.198 -169.073)" fill="#5f6e62"/>
    </g>
  </g>
</svg>
